%TF.GenerationSoftware,KiCad,Pcbnew,5.1.9+dfsg1-1~bpo10+1*%
%TF.CreationDate,2021-09-15T11:04:37+02:00*%
%TF.ProjectId,shield_temperature,73686965-6c64-45f7-9465-6d7065726174,1*%
%TF.SameCoordinates,Original*%
%TF.FileFunction,Soldermask,Top*%
%TF.FilePolarity,Negative*%
%FSLAX46Y46*%
G04 Gerber Fmt 4.6, Leading zero omitted, Abs format (unit mm)*
G04 Created by KiCad (PCBNEW 5.1.9+dfsg1-1~bpo10+1) date 2021-09-15 11:04:37*
%MOMM*%
%LPD*%
G01*
G04 APERTURE LIST*
%ADD10R,1.050000X2.200000*%
%ADD11R,1.000000X1.050000*%
%ADD12R,1.000000X2.300000*%
%ADD13R,2.300000X1.000000*%
%ADD14O,1.700000X1.700000*%
%ADD15R,1.700000X1.700000*%
%ADD16R,3.500000X3.500000*%
%ADD17O,1.727200X2.032000*%
%ADD18C,4.064000*%
%ADD19O,3.600000X1.800000*%
%ADD20R,2.500000X2.300000*%
G04 APERTURE END LIST*
D10*
%TO.C,J5*%
X153163800Y-106774000D03*
D11*
X151688800Y-105249000D03*
D10*
X150213800Y-106774000D03*
%TD*%
D12*
%TO.C,U1*%
X155448000Y-84805000D03*
X156698000Y-84805000D03*
X157948000Y-84805000D03*
X159198000Y-84805000D03*
X154198000Y-84805000D03*
X152948000Y-84805000D03*
X151698000Y-84805000D03*
D13*
X149448000Y-90805000D03*
X149448000Y-89555000D03*
X149448000Y-88305000D03*
X149448000Y-87055000D03*
X149448000Y-92055000D03*
X149448000Y-93305000D03*
X149448000Y-94555000D03*
D12*
X155448000Y-96805000D03*
X154198000Y-96805000D03*
X152948000Y-96805000D03*
X151698000Y-96805000D03*
X156698000Y-96805000D03*
X157948000Y-96805000D03*
X159198000Y-96805000D03*
D13*
X161448000Y-90805000D03*
X161448000Y-92055000D03*
X161448000Y-93305000D03*
X161448000Y-94555000D03*
X161448000Y-89555000D03*
X161448000Y-88305000D03*
X161448000Y-87055000D03*
%TD*%
%TO.C,R4*%
G36*
G01*
X155085201Y-100613900D02*
X154185199Y-100613900D01*
G75*
G02*
X153935200Y-100363901I0J249999D01*
G01*
X153935200Y-99838899D01*
G75*
G02*
X154185199Y-99588900I249999J0D01*
G01*
X155085201Y-99588900D01*
G75*
G02*
X155335200Y-99838899I0J-249999D01*
G01*
X155335200Y-100363901D01*
G75*
G02*
X155085201Y-100613900I-249999J0D01*
G01*
G37*
G36*
G01*
X155085201Y-102438900D02*
X154185199Y-102438900D01*
G75*
G02*
X153935200Y-102188901I0J249999D01*
G01*
X153935200Y-101663899D01*
G75*
G02*
X154185199Y-101413900I249999J0D01*
G01*
X155085201Y-101413900D01*
G75*
G02*
X155335200Y-101663899I0J-249999D01*
G01*
X155335200Y-102188901D01*
G75*
G02*
X155085201Y-102438900I-249999J0D01*
G01*
G37*
%TD*%
%TO.C,R3*%
G36*
G01*
X153993001Y-79281700D02*
X153092999Y-79281700D01*
G75*
G02*
X152843000Y-79031701I0J249999D01*
G01*
X152843000Y-78506699D01*
G75*
G02*
X153092999Y-78256700I249999J0D01*
G01*
X153993001Y-78256700D01*
G75*
G02*
X154243000Y-78506699I0J-249999D01*
G01*
X154243000Y-79031701D01*
G75*
G02*
X153993001Y-79281700I-249999J0D01*
G01*
G37*
G36*
G01*
X153993001Y-81106700D02*
X153092999Y-81106700D01*
G75*
G02*
X152843000Y-80856701I0J249999D01*
G01*
X152843000Y-80331699D01*
G75*
G02*
X153092999Y-80081700I249999J0D01*
G01*
X153993001Y-80081700D01*
G75*
G02*
X154243000Y-80331699I0J-249999D01*
G01*
X154243000Y-80856701D01*
G75*
G02*
X153993001Y-81106700I-249999J0D01*
G01*
G37*
%TD*%
%TO.C,R2*%
G36*
G01*
X155974201Y-79277900D02*
X155074199Y-79277900D01*
G75*
G02*
X154824200Y-79027901I0J249999D01*
G01*
X154824200Y-78502899D01*
G75*
G02*
X155074199Y-78252900I249999J0D01*
G01*
X155974201Y-78252900D01*
G75*
G02*
X156224200Y-78502899I0J-249999D01*
G01*
X156224200Y-79027901D01*
G75*
G02*
X155974201Y-79277900I-249999J0D01*
G01*
G37*
G36*
G01*
X155974201Y-81102900D02*
X155074199Y-81102900D01*
G75*
G02*
X154824200Y-80852901I0J249999D01*
G01*
X154824200Y-80327899D01*
G75*
G02*
X155074199Y-80077900I249999J0D01*
G01*
X155974201Y-80077900D01*
G75*
G02*
X156224200Y-80327899I0J-249999D01*
G01*
X156224200Y-80852901D01*
G75*
G02*
X155974201Y-81102900I-249999J0D01*
G01*
G37*
%TD*%
%TO.C,L1*%
G36*
G01*
X151262599Y-101571600D02*
X151962601Y-101571600D01*
G75*
G02*
X152212600Y-101821599I0J-249999D01*
G01*
X152212600Y-102371601D01*
G75*
G02*
X151962601Y-102621600I-249999J0D01*
G01*
X151262599Y-102621600D01*
G75*
G02*
X151012600Y-102371601I0J249999D01*
G01*
X151012600Y-101821599D01*
G75*
G02*
X151262599Y-101571600I249999J0D01*
G01*
G37*
G36*
G01*
X151262599Y-99271600D02*
X151962601Y-99271600D01*
G75*
G02*
X152212600Y-99521599I0J-249999D01*
G01*
X152212600Y-100071601D01*
G75*
G02*
X151962601Y-100321600I-249999J0D01*
G01*
X151262599Y-100321600D01*
G75*
G02*
X151012600Y-100071601I0J249999D01*
G01*
X151012600Y-99521599D01*
G75*
G02*
X151262599Y-99271600I249999J0D01*
G01*
G37*
%TD*%
%TO.C,C3*%
G36*
G01*
X147921600Y-101379000D02*
X147921600Y-102329000D01*
G75*
G02*
X147671600Y-102579000I-250000J0D01*
G01*
X147171600Y-102579000D01*
G75*
G02*
X146921600Y-102329000I0J250000D01*
G01*
X146921600Y-101379000D01*
G75*
G02*
X147171600Y-101129000I250000J0D01*
G01*
X147671600Y-101129000D01*
G75*
G02*
X147921600Y-101379000I0J-250000D01*
G01*
G37*
G36*
G01*
X149821600Y-101379000D02*
X149821600Y-102329000D01*
G75*
G02*
X149571600Y-102579000I-250000J0D01*
G01*
X149071600Y-102579000D01*
G75*
G02*
X148821600Y-102329000I0J250000D01*
G01*
X148821600Y-101379000D01*
G75*
G02*
X149071600Y-101129000I250000J0D01*
G01*
X149571600Y-101129000D01*
G75*
G02*
X149821600Y-101379000I0J-250000D01*
G01*
G37*
%TD*%
%TO.C,C2*%
G36*
G01*
X147911400Y-99270800D02*
X147911400Y-100220800D01*
G75*
G02*
X147661400Y-100470800I-250000J0D01*
G01*
X147161400Y-100470800D01*
G75*
G02*
X146911400Y-100220800I0J250000D01*
G01*
X146911400Y-99270800D01*
G75*
G02*
X147161400Y-99020800I250000J0D01*
G01*
X147661400Y-99020800D01*
G75*
G02*
X147911400Y-99270800I0J-250000D01*
G01*
G37*
G36*
G01*
X149811400Y-99270800D02*
X149811400Y-100220800D01*
G75*
G02*
X149561400Y-100470800I-250000J0D01*
G01*
X149061400Y-100470800D01*
G75*
G02*
X148811400Y-100220800I0J250000D01*
G01*
X148811400Y-99270800D01*
G75*
G02*
X149061400Y-99020800I250000J0D01*
G01*
X149561400Y-99020800D01*
G75*
G02*
X149811400Y-99270800I0J-250000D01*
G01*
G37*
%TD*%
%TO.C,C1*%
G36*
G01*
X159656800Y-80535400D02*
X158706800Y-80535400D01*
G75*
G02*
X158456800Y-80285400I0J250000D01*
G01*
X158456800Y-79785400D01*
G75*
G02*
X158706800Y-79535400I250000J0D01*
G01*
X159656800Y-79535400D01*
G75*
G02*
X159906800Y-79785400I0J-250000D01*
G01*
X159906800Y-80285400D01*
G75*
G02*
X159656800Y-80535400I-250000J0D01*
G01*
G37*
G36*
G01*
X159656800Y-82435400D02*
X158706800Y-82435400D01*
G75*
G02*
X158456800Y-82185400I0J250000D01*
G01*
X158456800Y-81685400D01*
G75*
G02*
X158706800Y-81435400I250000J0D01*
G01*
X159656800Y-81435400D01*
G75*
G02*
X159906800Y-81685400I0J-250000D01*
G01*
X159906800Y-82185400D01*
G75*
G02*
X159656800Y-82435400I-250000J0D01*
G01*
G37*
%TD*%
D14*
%TO.C,J4*%
X114808000Y-102235000D03*
D15*
X114808000Y-104775000D03*
%TD*%
%TO.C,J3*%
G36*
G01*
X121945200Y-119290800D02*
X121945200Y-117540800D01*
G75*
G02*
X122820200Y-116665800I875000J0D01*
G01*
X124570200Y-116665800D01*
G75*
G02*
X125445200Y-117540800I0J-875000D01*
G01*
X125445200Y-119290800D01*
G75*
G02*
X124570200Y-120165800I-875000J0D01*
G01*
X122820200Y-120165800D01*
G75*
G02*
X121945200Y-119290800I0J875000D01*
G01*
G37*
G36*
G01*
X119195200Y-114715800D02*
X119195200Y-112715800D01*
G75*
G02*
X119945200Y-111965800I750000J0D01*
G01*
X121445200Y-111965800D01*
G75*
G02*
X122195200Y-112715800I0J-750000D01*
G01*
X122195200Y-114715800D01*
G75*
G02*
X121445200Y-115465800I-750000J0D01*
G01*
X119945200Y-115465800D01*
G75*
G02*
X119195200Y-114715800I0J750000D01*
G01*
G37*
D16*
X126695200Y-113715800D03*
%TD*%
D17*
%TO.C,P1*%
X138938000Y-123825000D03*
X141478000Y-123825000D03*
X144018000Y-123825000D03*
X146558000Y-123825000D03*
X149098000Y-123825000D03*
X151638000Y-123825000D03*
X154178000Y-123825000D03*
X156718000Y-123825000D03*
%TD*%
%TO.C,P2*%
X161798000Y-123825000D03*
X164338000Y-123825000D03*
X166878000Y-123825000D03*
X169418000Y-123825000D03*
X171958000Y-123825000D03*
X174498000Y-123825000D03*
%TD*%
%TO.C,P3*%
X129794000Y-75565000D03*
X132334000Y-75565000D03*
X134874000Y-75565000D03*
X137414000Y-75565000D03*
X139954000Y-75565000D03*
X142494000Y-75565000D03*
X145034000Y-75565000D03*
X147574000Y-75565000D03*
X150114000Y-75565000D03*
X152654000Y-75565000D03*
%TD*%
%TO.C,P4*%
X156718000Y-75565000D03*
X159258000Y-75565000D03*
X161798000Y-75565000D03*
X164338000Y-75565000D03*
X166878000Y-75565000D03*
X169418000Y-75565000D03*
X171958000Y-75565000D03*
X174498000Y-75565000D03*
%TD*%
D18*
%TO.C,P5*%
X124968000Y-123825000D03*
%TD*%
%TO.C,P6*%
X177038000Y-118745000D03*
%TD*%
%TO.C,P7*%
X126238000Y-75565000D03*
%TD*%
%TO.C,P8*%
X177038000Y-90805000D03*
%TD*%
%TO.C,J1*%
G36*
G01*
X172948000Y-95915000D02*
X176048000Y-95915000D01*
G75*
G02*
X176298000Y-96165000I0J-250000D01*
G01*
X176298000Y-97465000D01*
G75*
G02*
X176048000Y-97715000I-250000J0D01*
G01*
X172948000Y-97715000D01*
G75*
G02*
X172698000Y-97465000I0J250000D01*
G01*
X172698000Y-96165000D01*
G75*
G02*
X172948000Y-95915000I250000J0D01*
G01*
G37*
D19*
X174498000Y-100315000D03*
X174498000Y-103815000D03*
X174498000Y-107315000D03*
X174498000Y-110815000D03*
%TD*%
%TO.C,R1*%
G36*
G01*
X162360500Y-116875399D02*
X162360500Y-118125401D01*
G75*
G02*
X162110501Y-118375400I-249999J0D01*
G01*
X161485499Y-118375400D01*
G75*
G02*
X161235500Y-118125401I0J249999D01*
G01*
X161235500Y-116875399D01*
G75*
G02*
X161485499Y-116625400I249999J0D01*
G01*
X162110501Y-116625400D01*
G75*
G02*
X162360500Y-116875399I0J-249999D01*
G01*
G37*
G36*
G01*
X159435500Y-116875399D02*
X159435500Y-118125401D01*
G75*
G02*
X159185501Y-118375400I-249999J0D01*
G01*
X158560499Y-118375400D01*
G75*
G02*
X158310500Y-118125401I0J249999D01*
G01*
X158310500Y-116875399D01*
G75*
G02*
X158560499Y-116625400I249999J0D01*
G01*
X159185501Y-116625400D01*
G75*
G02*
X159435500Y-116875399I0J-249999D01*
G01*
G37*
%TD*%
D15*
%TO.C,J2*%
X136118600Y-99212400D03*
D14*
X133578600Y-99212400D03*
X131038600Y-99212400D03*
X128498600Y-99212400D03*
X125958600Y-99212400D03*
%TD*%
D20*
%TO.C,D1*%
X138353800Y-113741200D03*
X134053800Y-113741200D03*
%TD*%
M02*
