%TF.GenerationSoftware,KiCad,Pcbnew,5.1.9+dfsg1-1~bpo10+1*%
%TF.CreationDate,2021-09-15T11:04:37+02:00*%
%TF.ProjectId,shield_temperature,73686965-6c64-45f7-9465-6d7065726174,1*%
%TF.SameCoordinates,Original*%
%TF.FileFunction,Other,Fab,Top*%
%FSLAX46Y46*%
G04 Gerber Fmt 4.6, Leading zero omitted, Abs format (unit mm)*
G04 Created by KiCad (PCBNEW 5.1.9+dfsg1-1~bpo10+1) date 2021-09-15 11:04:37*
%MOMM*%
%LPD*%
G01*
G04 APERTURE LIST*
%ADD10C,0.100000*%
%ADD11C,0.120000*%
%ADD12C,0.150000*%
%ADD13C,0.090000*%
%ADD14C,0.080000*%
G04 APERTURE END LIST*
D10*
%TO.C,J5*%
X151988800Y-105374000D02*
X151838800Y-105224000D01*
X152988800Y-108074000D02*
X152988800Y-107674000D01*
X153188800Y-107674000D02*
X152988800Y-107674000D01*
X153188800Y-105874000D02*
X153188800Y-107674000D01*
X152988800Y-108074000D02*
X150388800Y-108074000D01*
X150388800Y-108074000D02*
X150388800Y-107674000D01*
X150188800Y-107674000D02*
X150388800Y-107674000D01*
X150188800Y-105874000D02*
X150188800Y-107674000D01*
X152988800Y-105874000D02*
X152988800Y-105474000D01*
X153188800Y-105874000D02*
X152988800Y-105874000D01*
X151988800Y-105474000D02*
X152988800Y-105474000D01*
X151988800Y-105374000D02*
X151988800Y-105474000D01*
X151388800Y-105224000D02*
X151838800Y-105224000D01*
X151388800Y-105224000D02*
X151388800Y-105474000D01*
X151388800Y-105474000D02*
X150388800Y-105474000D01*
X150388800Y-105874000D02*
X150388800Y-105474000D01*
X150188800Y-105874000D02*
X150388800Y-105874000D01*
D11*
%TO.C,U1*%
X161448000Y-84805000D02*
X161448000Y-96805000D01*
X161448000Y-96805000D02*
X149448000Y-96805000D01*
X149448000Y-96805000D02*
X149448000Y-84805000D01*
X149448000Y-84805000D02*
X161448000Y-84805000D01*
X160964228Y-83805000D02*
G75*
G03*
X160964228Y-83805000I-316228J0D01*
G01*
D10*
%TO.C,R4*%
X155260200Y-102013900D02*
X154010200Y-102013900D01*
X154010200Y-102013900D02*
X154010200Y-100013900D01*
X154010200Y-100013900D02*
X155260200Y-100013900D01*
X155260200Y-100013900D02*
X155260200Y-102013900D01*
%TO.C,R3*%
X154168000Y-80681700D02*
X152918000Y-80681700D01*
X152918000Y-80681700D02*
X152918000Y-78681700D01*
X152918000Y-78681700D02*
X154168000Y-78681700D01*
X154168000Y-78681700D02*
X154168000Y-80681700D01*
%TO.C,R2*%
X156149200Y-80677900D02*
X154899200Y-80677900D01*
X154899200Y-80677900D02*
X154899200Y-78677900D01*
X154899200Y-78677900D02*
X156149200Y-78677900D01*
X156149200Y-78677900D02*
X156149200Y-80677900D01*
%TO.C,L1*%
X151162600Y-99946600D02*
X152062600Y-99946600D01*
X152062600Y-99946600D02*
X152062600Y-101946600D01*
X152062600Y-101946600D02*
X151162600Y-101946600D01*
X151162600Y-101946600D02*
X151162600Y-99946600D01*
%TO.C,C3*%
X149371600Y-101229000D02*
X149371600Y-102479000D01*
X149371600Y-102479000D02*
X147371600Y-102479000D01*
X147371600Y-102479000D02*
X147371600Y-101229000D01*
X147371600Y-101229000D02*
X149371600Y-101229000D01*
%TO.C,C2*%
X149361400Y-99120800D02*
X149361400Y-100370800D01*
X149361400Y-100370800D02*
X147361400Y-100370800D01*
X147361400Y-100370800D02*
X147361400Y-99120800D01*
X147361400Y-99120800D02*
X149361400Y-99120800D01*
%TO.C,C1*%
X159806800Y-81985400D02*
X158556800Y-81985400D01*
X158556800Y-81985400D02*
X158556800Y-79985400D01*
X158556800Y-79985400D02*
X159806800Y-79985400D01*
X159806800Y-79985400D02*
X159806800Y-81985400D01*
%TO.C,J4*%
X116078000Y-105410000D02*
X115443000Y-106045000D01*
X116078000Y-100965000D02*
X116078000Y-105410000D01*
X113538000Y-100965000D02*
X116078000Y-100965000D01*
X113538000Y-106045000D02*
X113538000Y-100965000D01*
X115443000Y-106045000D02*
X113538000Y-106045000D01*
%TO.C,J3*%
X126691987Y-109210375D02*
X127495200Y-109965800D01*
X116495200Y-109215800D02*
X116495200Y-118215800D01*
X112995200Y-109215800D02*
X112995200Y-118215800D01*
X112995200Y-118215800D02*
X127495200Y-118215800D01*
X127495200Y-118215800D02*
X127495200Y-109965800D01*
X126695200Y-109215800D02*
X112995200Y-109215800D01*
%TO.C,J1*%
X179248000Y-93865000D02*
X179248000Y-95865000D01*
X177998000Y-93865000D02*
X179248000Y-93865000D01*
X178748000Y-113265000D02*
X178748000Y-94365000D01*
X171498000Y-113265000D02*
X178748000Y-113265000D01*
X171498000Y-94365000D02*
X171498000Y-113265000D01*
X178748000Y-94365000D02*
X171498000Y-94365000D01*
%TO.C,R1*%
X158735500Y-116700400D02*
X161935500Y-116700400D01*
X158735500Y-118300400D02*
X158735500Y-116700400D01*
X161935500Y-118300400D02*
X158735500Y-118300400D01*
X161935500Y-116700400D02*
X161935500Y-118300400D01*
%TO.C,J2*%
X136753600Y-97942400D02*
X137388600Y-98577400D01*
X124688600Y-97942400D02*
X136753600Y-97942400D01*
X124688600Y-100482400D02*
X124688600Y-97942400D01*
X137388600Y-100482400D02*
X124688600Y-100482400D01*
X137388600Y-98577400D02*
X137388600Y-100482400D01*
%TO.C,D1*%
X136853240Y-113740180D02*
X135702620Y-114540280D01*
X136853240Y-113740180D02*
X135702620Y-112990880D01*
X135702620Y-112990880D02*
X135702620Y-114540280D01*
X136853240Y-114540280D02*
X136853240Y-112940080D01*
X135702620Y-113740180D02*
X134704400Y-113740180D01*
X136853240Y-113740180D02*
X137754940Y-113740180D01*
X133903800Y-115741200D02*
X138503800Y-115741200D01*
X133903800Y-115741200D02*
X133903800Y-111741200D01*
X138503800Y-111741200D02*
X138503800Y-115741200D01*
X133903800Y-111741200D02*
X138503800Y-111741200D01*
%TD*%
%TO.C,J5*%
D12*
X148845942Y-110964476D02*
X148893561Y-111012095D01*
X148941180Y-111154952D01*
X148941180Y-111250190D01*
X148893561Y-111393047D01*
X148798323Y-111488285D01*
X148703085Y-111535904D01*
X148512609Y-111583523D01*
X148369752Y-111583523D01*
X148179276Y-111535904D01*
X148084038Y-111488285D01*
X147988800Y-111393047D01*
X147941180Y-111250190D01*
X147941180Y-111154952D01*
X147988800Y-111012095D01*
X148036419Y-110964476D01*
X148941180Y-110393047D02*
X148893561Y-110488285D01*
X148845942Y-110535904D01*
X148750704Y-110583523D01*
X148464990Y-110583523D01*
X148369752Y-110535904D01*
X148322133Y-110488285D01*
X148274514Y-110393047D01*
X148274514Y-110250190D01*
X148322133Y-110154952D01*
X148369752Y-110107333D01*
X148464990Y-110059714D01*
X148750704Y-110059714D01*
X148845942Y-110107333D01*
X148893561Y-110154952D01*
X148941180Y-110250190D01*
X148941180Y-110393047D01*
X148274514Y-109631142D02*
X148941180Y-109631142D01*
X148369752Y-109631142D02*
X148322133Y-109583523D01*
X148274514Y-109488285D01*
X148274514Y-109345428D01*
X148322133Y-109250190D01*
X148417371Y-109202571D01*
X148941180Y-109202571D01*
X148274514Y-108726380D02*
X148941180Y-108726380D01*
X148369752Y-108726380D02*
X148322133Y-108678761D01*
X148274514Y-108583523D01*
X148274514Y-108440666D01*
X148322133Y-108345428D01*
X148417371Y-108297809D01*
X148941180Y-108297809D01*
X149036419Y-108059714D02*
X149036419Y-107297809D01*
X148845942Y-106488285D02*
X148893561Y-106535904D01*
X148941180Y-106678761D01*
X148941180Y-106774000D01*
X148893561Y-106916857D01*
X148798323Y-107012095D01*
X148703085Y-107059714D01*
X148512609Y-107107333D01*
X148369752Y-107107333D01*
X148179276Y-107059714D01*
X148084038Y-107012095D01*
X147988800Y-106916857D01*
X147941180Y-106774000D01*
X147941180Y-106678761D01*
X147988800Y-106535904D01*
X148036419Y-106488285D01*
X148941180Y-105916857D02*
X148893561Y-106012095D01*
X148845942Y-106059714D01*
X148750704Y-106107333D01*
X148464990Y-106107333D01*
X148369752Y-106059714D01*
X148322133Y-106012095D01*
X148274514Y-105916857D01*
X148274514Y-105774000D01*
X148322133Y-105678761D01*
X148369752Y-105631142D01*
X148464990Y-105583523D01*
X148750704Y-105583523D01*
X148845942Y-105631142D01*
X148893561Y-105678761D01*
X148941180Y-105774000D01*
X148941180Y-105916857D01*
X148941180Y-104726380D02*
X148417371Y-104726380D01*
X148322133Y-104774000D01*
X148274514Y-104869238D01*
X148274514Y-105059714D01*
X148322133Y-105154952D01*
X148893561Y-104726380D02*
X148941180Y-104821619D01*
X148941180Y-105059714D01*
X148893561Y-105154952D01*
X148798323Y-105202571D01*
X148703085Y-105202571D01*
X148607847Y-105154952D01*
X148560228Y-105059714D01*
X148560228Y-104821619D01*
X148512609Y-104726380D01*
X148941180Y-104345428D02*
X148274514Y-103821619D01*
X148274514Y-104345428D02*
X148941180Y-103821619D01*
X148941180Y-103440666D02*
X148274514Y-103440666D01*
X147941180Y-103440666D02*
X147988800Y-103488285D01*
X148036419Y-103440666D01*
X147988800Y-103393047D01*
X147941180Y-103440666D01*
X148036419Y-103440666D01*
X148941180Y-102535904D02*
X148417371Y-102535904D01*
X148322133Y-102583523D01*
X148274514Y-102678761D01*
X148274514Y-102869238D01*
X148322133Y-102964476D01*
X148893561Y-102535904D02*
X148941180Y-102631142D01*
X148941180Y-102869238D01*
X148893561Y-102964476D01*
X148798323Y-103012095D01*
X148703085Y-103012095D01*
X148607847Y-102964476D01*
X148560228Y-102869238D01*
X148560228Y-102631142D01*
X148512609Y-102535904D01*
X148941180Y-101916857D02*
X148893561Y-102012095D01*
X148798323Y-102059714D01*
X147941180Y-102059714D01*
D13*
X151488800Y-106445428D02*
X151488800Y-106874000D01*
X151460228Y-106959714D01*
X151403085Y-107016857D01*
X151317371Y-107045428D01*
X151260228Y-107045428D01*
X152060228Y-106445428D02*
X151774514Y-106445428D01*
X151745942Y-106731142D01*
X151774514Y-106702571D01*
X151831657Y-106674000D01*
X151974514Y-106674000D01*
X152031657Y-106702571D01*
X152060228Y-106731142D01*
X152088800Y-106788285D01*
X152088800Y-106931142D01*
X152060228Y-106988285D01*
X152031657Y-107016857D01*
X151974514Y-107045428D01*
X151831657Y-107045428D01*
X151774514Y-107016857D01*
X151745942Y-106988285D01*
%TO.C,R4*%
D12*
X156737580Y-100704376D02*
X156261390Y-101037709D01*
X156737580Y-101275804D02*
X155737580Y-101275804D01*
X155737580Y-100894852D01*
X155785200Y-100799614D01*
X155832819Y-100751995D01*
X155928057Y-100704376D01*
X156070914Y-100704376D01*
X156166152Y-100751995D01*
X156213771Y-100799614D01*
X156261390Y-100894852D01*
X156261390Y-101275804D01*
D14*
X154861390Y-101097233D02*
X154623295Y-101263900D01*
X154861390Y-101382947D02*
X154361390Y-101382947D01*
X154361390Y-101192471D01*
X154385200Y-101144852D01*
X154409009Y-101121042D01*
X154456628Y-101097233D01*
X154528057Y-101097233D01*
X154575676Y-101121042D01*
X154599485Y-101144852D01*
X154623295Y-101192471D01*
X154623295Y-101382947D01*
X154528057Y-100668661D02*
X154861390Y-100668661D01*
X154337580Y-100787709D02*
X154694723Y-100906757D01*
X154694723Y-100597233D01*
%TO.C,R3*%
X153769190Y-79765033D02*
X153531095Y-79931700D01*
X153769190Y-80050747D02*
X153269190Y-80050747D01*
X153269190Y-79860271D01*
X153293000Y-79812652D01*
X153316809Y-79788842D01*
X153364428Y-79765033D01*
X153435857Y-79765033D01*
X153483476Y-79788842D01*
X153507285Y-79812652D01*
X153531095Y-79860271D01*
X153531095Y-80050747D01*
X153269190Y-79598366D02*
X153269190Y-79288842D01*
X153459666Y-79455509D01*
X153459666Y-79384080D01*
X153483476Y-79336461D01*
X153507285Y-79312652D01*
X153554904Y-79288842D01*
X153673952Y-79288842D01*
X153721571Y-79312652D01*
X153745380Y-79336461D01*
X153769190Y-79384080D01*
X153769190Y-79526938D01*
X153745380Y-79574557D01*
X153721571Y-79598366D01*
%TO.C,R2*%
X155750390Y-79761233D02*
X155512295Y-79927900D01*
X155750390Y-80046947D02*
X155250390Y-80046947D01*
X155250390Y-79856471D01*
X155274200Y-79808852D01*
X155298009Y-79785042D01*
X155345628Y-79761233D01*
X155417057Y-79761233D01*
X155464676Y-79785042D01*
X155488485Y-79808852D01*
X155512295Y-79856471D01*
X155512295Y-80046947D01*
X155298009Y-79570757D02*
X155274200Y-79546947D01*
X155250390Y-79499328D01*
X155250390Y-79380280D01*
X155274200Y-79332661D01*
X155298009Y-79308852D01*
X155345628Y-79285042D01*
X155393247Y-79285042D01*
X155464676Y-79308852D01*
X155750390Y-79594566D01*
X155750390Y-79285042D01*
%TO.C,L1*%
D12*
X150514980Y-100637076D02*
X150514980Y-101113266D01*
X149514980Y-101113266D01*
D14*
X151838790Y-101029933D02*
X151838790Y-101268028D01*
X151338790Y-101268028D01*
X151838790Y-100601361D02*
X151838790Y-100887076D01*
X151838790Y-100744219D02*
X151338790Y-100744219D01*
X151410219Y-100791838D01*
X151457838Y-100839457D01*
X151481647Y-100887076D01*
%TO.C,C3*%
D12*
X148681123Y-100531142D02*
X148633504Y-100578761D01*
X148490647Y-100626380D01*
X148395409Y-100626380D01*
X148252552Y-100578761D01*
X148157314Y-100483523D01*
X148109695Y-100388285D01*
X148062076Y-100197809D01*
X148062076Y-100054952D01*
X148109695Y-99864476D01*
X148157314Y-99769238D01*
X148252552Y-99674000D01*
X148395409Y-99626380D01*
X148490647Y-99626380D01*
X148633504Y-99674000D01*
X148681123Y-99721619D01*
D14*
X148288266Y-102032571D02*
X148264457Y-102056380D01*
X148193028Y-102080190D01*
X148145409Y-102080190D01*
X148073980Y-102056380D01*
X148026361Y-102008761D01*
X148002552Y-101961142D01*
X147978742Y-101865904D01*
X147978742Y-101794476D01*
X148002552Y-101699238D01*
X148026361Y-101651619D01*
X148073980Y-101604000D01*
X148145409Y-101580190D01*
X148193028Y-101580190D01*
X148264457Y-101604000D01*
X148288266Y-101627809D01*
X148454933Y-101580190D02*
X148764457Y-101580190D01*
X148597790Y-101770666D01*
X148669219Y-101770666D01*
X148716838Y-101794476D01*
X148740647Y-101818285D01*
X148764457Y-101865904D01*
X148764457Y-101984952D01*
X148740647Y-102032571D01*
X148716838Y-102056380D01*
X148669219Y-102080190D01*
X148526361Y-102080190D01*
X148478742Y-102056380D01*
X148454933Y-102032571D01*
%TO.C,C2*%
D12*
X148670923Y-98422942D02*
X148623304Y-98470561D01*
X148480447Y-98518180D01*
X148385209Y-98518180D01*
X148242352Y-98470561D01*
X148147114Y-98375323D01*
X148099495Y-98280085D01*
X148051876Y-98089609D01*
X148051876Y-97946752D01*
X148099495Y-97756276D01*
X148147114Y-97661038D01*
X148242352Y-97565800D01*
X148385209Y-97518180D01*
X148480447Y-97518180D01*
X148623304Y-97565800D01*
X148670923Y-97613419D01*
D14*
X148278066Y-99924371D02*
X148254257Y-99948180D01*
X148182828Y-99971990D01*
X148135209Y-99971990D01*
X148063780Y-99948180D01*
X148016161Y-99900561D01*
X147992352Y-99852942D01*
X147968542Y-99757704D01*
X147968542Y-99686276D01*
X147992352Y-99591038D01*
X148016161Y-99543419D01*
X148063780Y-99495800D01*
X148135209Y-99471990D01*
X148182828Y-99471990D01*
X148254257Y-99495800D01*
X148278066Y-99519609D01*
X148468542Y-99519609D02*
X148492352Y-99495800D01*
X148539971Y-99471990D01*
X148659019Y-99471990D01*
X148706638Y-99495800D01*
X148730447Y-99519609D01*
X148754257Y-99567228D01*
X148754257Y-99614847D01*
X148730447Y-99686276D01*
X148444733Y-99971990D01*
X148754257Y-99971990D01*
%TO.C,C1*%
D12*
X161218942Y-80675876D02*
X161266561Y-80723495D01*
X161314180Y-80866352D01*
X161314180Y-80961590D01*
X161266561Y-81104447D01*
X161171323Y-81199685D01*
X161076085Y-81247304D01*
X160885609Y-81294923D01*
X160742752Y-81294923D01*
X160552276Y-81247304D01*
X160457038Y-81199685D01*
X160361800Y-81104447D01*
X160314180Y-80961590D01*
X160314180Y-80866352D01*
X160361800Y-80723495D01*
X160409419Y-80675876D01*
D14*
X159360371Y-81068733D02*
X159384180Y-81092542D01*
X159407990Y-81163971D01*
X159407990Y-81211590D01*
X159384180Y-81283019D01*
X159336561Y-81330638D01*
X159288942Y-81354447D01*
X159193704Y-81378257D01*
X159122276Y-81378257D01*
X159027038Y-81354447D01*
X158979419Y-81330638D01*
X158931800Y-81283019D01*
X158907990Y-81211590D01*
X158907990Y-81163971D01*
X158931800Y-81092542D01*
X158955609Y-81068733D01*
X159407990Y-80592542D02*
X159407990Y-80878257D01*
X159407990Y-80735400D02*
X158907990Y-80735400D01*
X158979419Y-80783019D01*
X159027038Y-80830638D01*
X159050847Y-80878257D01*
%TO.C,J4*%
D12*
X114260380Y-103838333D02*
X114974666Y-103838333D01*
X115117523Y-103885952D01*
X115212761Y-103981190D01*
X115260380Y-104124047D01*
X115260380Y-104219285D01*
X114593714Y-102933571D02*
X115260380Y-102933571D01*
X114212761Y-103171666D02*
X114927047Y-103409761D01*
X114927047Y-102790714D01*
%TO.C,J3*%
X123361866Y-110218180D02*
X123361866Y-110932466D01*
X123314247Y-111075323D01*
X123219009Y-111170561D01*
X123076152Y-111218180D01*
X122980914Y-111218180D01*
X123742819Y-110218180D02*
X124361866Y-110218180D01*
X124028533Y-110599133D01*
X124171390Y-110599133D01*
X124266628Y-110646752D01*
X124314247Y-110694371D01*
X124361866Y-110789609D01*
X124361866Y-111027704D01*
X124314247Y-111122942D01*
X124266628Y-111170561D01*
X124171390Y-111218180D01*
X123885676Y-111218180D01*
X123790438Y-111170561D01*
X123742819Y-111122942D01*
%TO.C,P1*%
X145851809Y-120213380D02*
X145851809Y-119213380D01*
X146232761Y-119213380D01*
X146328000Y-119261000D01*
X146375619Y-119308619D01*
X146423238Y-119403857D01*
X146423238Y-119546714D01*
X146375619Y-119641952D01*
X146328000Y-119689571D01*
X146232761Y-119737190D01*
X145851809Y-119737190D01*
X146994666Y-120213380D02*
X146899428Y-120165761D01*
X146851809Y-120118142D01*
X146804190Y-120022904D01*
X146804190Y-119737190D01*
X146851809Y-119641952D01*
X146899428Y-119594333D01*
X146994666Y-119546714D01*
X147137523Y-119546714D01*
X147232761Y-119594333D01*
X147280380Y-119641952D01*
X147328000Y-119737190D01*
X147328000Y-120022904D01*
X147280380Y-120118142D01*
X147232761Y-120165761D01*
X147137523Y-120213380D01*
X146994666Y-120213380D01*
X147661333Y-119546714D02*
X147851809Y-120213380D01*
X148042285Y-119737190D01*
X148232761Y-120213380D01*
X148423238Y-119546714D01*
X149185142Y-120165761D02*
X149089904Y-120213380D01*
X148899428Y-120213380D01*
X148804190Y-120165761D01*
X148756571Y-120070523D01*
X148756571Y-119689571D01*
X148804190Y-119594333D01*
X148899428Y-119546714D01*
X149089904Y-119546714D01*
X149185142Y-119594333D01*
X149232761Y-119689571D01*
X149232761Y-119784809D01*
X148756571Y-119880047D01*
X149661333Y-120213380D02*
X149661333Y-119546714D01*
X149661333Y-119737190D02*
X149708952Y-119641952D01*
X149756571Y-119594333D01*
X149851809Y-119546714D01*
X149947047Y-119546714D01*
%TO.C,P2*%
X166092476Y-119927666D02*
X166568666Y-119927666D01*
X165997238Y-120213380D02*
X166330571Y-119213380D01*
X166663904Y-120213380D01*
X166997238Y-119546714D02*
X166997238Y-120213380D01*
X166997238Y-119641952D02*
X167044857Y-119594333D01*
X167140095Y-119546714D01*
X167282952Y-119546714D01*
X167378190Y-119594333D01*
X167425809Y-119689571D01*
X167425809Y-120213380D01*
X168330571Y-120213380D02*
X168330571Y-119689571D01*
X168282952Y-119594333D01*
X168187714Y-119546714D01*
X167997238Y-119546714D01*
X167902000Y-119594333D01*
X168330571Y-120165761D02*
X168235333Y-120213380D01*
X167997238Y-120213380D01*
X167902000Y-120165761D01*
X167854380Y-120070523D01*
X167854380Y-119975285D01*
X167902000Y-119880047D01*
X167997238Y-119832428D01*
X168235333Y-119832428D01*
X168330571Y-119784809D01*
X168949619Y-120213380D02*
X168854380Y-120165761D01*
X168806761Y-120070523D01*
X168806761Y-119213380D01*
X169473428Y-120213380D02*
X169378190Y-120165761D01*
X169330571Y-120118142D01*
X169282952Y-120022904D01*
X169282952Y-119737190D01*
X169330571Y-119641952D01*
X169378190Y-119594333D01*
X169473428Y-119546714D01*
X169616285Y-119546714D01*
X169711523Y-119594333D01*
X169759142Y-119641952D01*
X169806761Y-119737190D01*
X169806761Y-120022904D01*
X169759142Y-120118142D01*
X169711523Y-120165761D01*
X169616285Y-120213380D01*
X169473428Y-120213380D01*
X170663904Y-119546714D02*
X170663904Y-120356238D01*
X170616285Y-120451476D01*
X170568666Y-120499095D01*
X170473428Y-120546714D01*
X170330571Y-120546714D01*
X170235333Y-120499095D01*
X170663904Y-120165761D02*
X170568666Y-120213380D01*
X170378190Y-120213380D01*
X170282952Y-120165761D01*
X170235333Y-120118142D01*
X170187714Y-120022904D01*
X170187714Y-119737190D01*
X170235333Y-119641952D01*
X170282952Y-119594333D01*
X170378190Y-119546714D01*
X170568666Y-119546714D01*
X170663904Y-119594333D01*
%TO.C,P3*%
X139033523Y-80335380D02*
X139033523Y-79335380D01*
X139271619Y-79335380D01*
X139414476Y-79383000D01*
X139509714Y-79478238D01*
X139557333Y-79573476D01*
X139604952Y-79763952D01*
X139604952Y-79906809D01*
X139557333Y-80097285D01*
X139509714Y-80192523D01*
X139414476Y-80287761D01*
X139271619Y-80335380D01*
X139033523Y-80335380D01*
X140033523Y-80335380D02*
X140033523Y-79668714D01*
X140033523Y-79335380D02*
X139985904Y-79383000D01*
X140033523Y-79430619D01*
X140081142Y-79383000D01*
X140033523Y-79335380D01*
X140033523Y-79430619D01*
X140938285Y-79668714D02*
X140938285Y-80478238D01*
X140890666Y-80573476D01*
X140843047Y-80621095D01*
X140747809Y-80668714D01*
X140604952Y-80668714D01*
X140509714Y-80621095D01*
X140938285Y-80287761D02*
X140843047Y-80335380D01*
X140652571Y-80335380D01*
X140557333Y-80287761D01*
X140509714Y-80240142D01*
X140462095Y-80144904D01*
X140462095Y-79859190D01*
X140509714Y-79763952D01*
X140557333Y-79716333D01*
X140652571Y-79668714D01*
X140843047Y-79668714D01*
X140938285Y-79716333D01*
X141414476Y-80335380D02*
X141414476Y-79668714D01*
X141414476Y-79335380D02*
X141366857Y-79383000D01*
X141414476Y-79430619D01*
X141462095Y-79383000D01*
X141414476Y-79335380D01*
X141414476Y-79430619D01*
X141747809Y-79668714D02*
X142128761Y-79668714D01*
X141890666Y-79335380D02*
X141890666Y-80192523D01*
X141938285Y-80287761D01*
X142033523Y-80335380D01*
X142128761Y-80335380D01*
X142890666Y-80335380D02*
X142890666Y-79811571D01*
X142843047Y-79716333D01*
X142747809Y-79668714D01*
X142557333Y-79668714D01*
X142462095Y-79716333D01*
X142890666Y-80287761D02*
X142795428Y-80335380D01*
X142557333Y-80335380D01*
X142462095Y-80287761D01*
X142414476Y-80192523D01*
X142414476Y-80097285D01*
X142462095Y-80002047D01*
X142557333Y-79954428D01*
X142795428Y-79954428D01*
X142890666Y-79906809D01*
X143509714Y-80335380D02*
X143414476Y-80287761D01*
X143366857Y-80192523D01*
X143366857Y-79335380D01*
%TO.C,P4*%
X163417523Y-80335380D02*
X163417523Y-79335380D01*
X163655619Y-79335380D01*
X163798476Y-79383000D01*
X163893714Y-79478238D01*
X163941333Y-79573476D01*
X163988952Y-79763952D01*
X163988952Y-79906809D01*
X163941333Y-80097285D01*
X163893714Y-80192523D01*
X163798476Y-80287761D01*
X163655619Y-80335380D01*
X163417523Y-80335380D01*
X164417523Y-80335380D02*
X164417523Y-79668714D01*
X164417523Y-79335380D02*
X164369904Y-79383000D01*
X164417523Y-79430619D01*
X164465142Y-79383000D01*
X164417523Y-79335380D01*
X164417523Y-79430619D01*
X165322285Y-79668714D02*
X165322285Y-80478238D01*
X165274666Y-80573476D01*
X165227047Y-80621095D01*
X165131809Y-80668714D01*
X164988952Y-80668714D01*
X164893714Y-80621095D01*
X165322285Y-80287761D02*
X165227047Y-80335380D01*
X165036571Y-80335380D01*
X164941333Y-80287761D01*
X164893714Y-80240142D01*
X164846095Y-80144904D01*
X164846095Y-79859190D01*
X164893714Y-79763952D01*
X164941333Y-79716333D01*
X165036571Y-79668714D01*
X165227047Y-79668714D01*
X165322285Y-79716333D01*
X165798476Y-80335380D02*
X165798476Y-79668714D01*
X165798476Y-79335380D02*
X165750857Y-79383000D01*
X165798476Y-79430619D01*
X165846095Y-79383000D01*
X165798476Y-79335380D01*
X165798476Y-79430619D01*
X166131809Y-79668714D02*
X166512761Y-79668714D01*
X166274666Y-79335380D02*
X166274666Y-80192523D01*
X166322285Y-80287761D01*
X166417523Y-80335380D01*
X166512761Y-80335380D01*
X167274666Y-80335380D02*
X167274666Y-79811571D01*
X167227047Y-79716333D01*
X167131809Y-79668714D01*
X166941333Y-79668714D01*
X166846095Y-79716333D01*
X167274666Y-80287761D02*
X167179428Y-80335380D01*
X166941333Y-80335380D01*
X166846095Y-80287761D01*
X166798476Y-80192523D01*
X166798476Y-80097285D01*
X166846095Y-80002047D01*
X166941333Y-79954428D01*
X167179428Y-79954428D01*
X167274666Y-79906809D01*
X167893714Y-80335380D02*
X167798476Y-80287761D01*
X167750857Y-80192523D01*
X167750857Y-79335380D01*
%TO.C,R1*%
D11*
X160202166Y-117862304D02*
X159935500Y-117481352D01*
X159745023Y-117862304D02*
X159745023Y-117062304D01*
X160049785Y-117062304D01*
X160125976Y-117100400D01*
X160164071Y-117138495D01*
X160202166Y-117214685D01*
X160202166Y-117328971D01*
X160164071Y-117405161D01*
X160125976Y-117443257D01*
X160049785Y-117481352D01*
X159745023Y-117481352D01*
X160964071Y-117862304D02*
X160506928Y-117862304D01*
X160735500Y-117862304D02*
X160735500Y-117062304D01*
X160659309Y-117176590D01*
X160583119Y-117252780D01*
X160506928Y-117290876D01*
%TO.C,J2*%
D12*
X130705266Y-98664780D02*
X130705266Y-99379066D01*
X130657647Y-99521923D01*
X130562409Y-99617161D01*
X130419552Y-99664780D01*
X130324314Y-99664780D01*
X131133838Y-98760019D02*
X131181457Y-98712400D01*
X131276695Y-98664780D01*
X131514790Y-98664780D01*
X131610028Y-98712400D01*
X131657647Y-98760019D01*
X131705266Y-98855257D01*
X131705266Y-98950495D01*
X131657647Y-99093352D01*
X131086219Y-99664780D01*
X131705266Y-99664780D01*
%TO.C,D1*%
X135941895Y-111093580D02*
X135941895Y-110093580D01*
X136179990Y-110093580D01*
X136322847Y-110141200D01*
X136418085Y-110236438D01*
X136465704Y-110331676D01*
X136513323Y-110522152D01*
X136513323Y-110665009D01*
X136465704Y-110855485D01*
X136418085Y-110950723D01*
X136322847Y-111045961D01*
X136179990Y-111093580D01*
X135941895Y-111093580D01*
X135465704Y-117193580D02*
X135465704Y-116193580D01*
X135703800Y-116193580D01*
X135846657Y-116241200D01*
X135941895Y-116336438D01*
X135989514Y-116431676D01*
X136037133Y-116622152D01*
X136037133Y-116765009D01*
X135989514Y-116955485D01*
X135941895Y-117050723D01*
X135846657Y-117145961D01*
X135703800Y-117193580D01*
X135465704Y-117193580D01*
X136989514Y-117193580D02*
X136418085Y-117193580D01*
X136703800Y-117193580D02*
X136703800Y-116193580D01*
X136608561Y-116336438D01*
X136513323Y-116431676D01*
X136418085Y-116479295D01*
%TD*%
M02*
