%TF.GenerationSoftware,KiCad,Pcbnew,5.1.9+dfsg1-1~bpo10+1*%
%TF.CreationDate,2021-09-15T11:04:37+02:00*%
%TF.ProjectId,shield_temperature,73686965-6c64-45f7-9465-6d7065726174,1*%
%TF.SameCoordinates,Original*%
%TF.FileFunction,Other,User*%
%FSLAX46Y46*%
G04 Gerber Fmt 4.6, Leading zero omitted, Abs format (unit mm)*
G04 Created by KiCad (PCBNEW 5.1.9+dfsg1-1~bpo10+1) date 2021-09-15 11:04:37*
%MOMM*%
%LPD*%
G01*
G04 APERTURE LIST*
%ADD10C,0.050000*%
G04 APERTURE END LIST*
D10*
%TO.C,J5*%
X150688800Y-104279000D02*
X152688800Y-104279000D01*
X150688800Y-104979000D02*
X150688800Y-104279000D01*
X149888800Y-108379000D02*
X149888800Y-108579000D01*
X149188800Y-108379000D02*
X149888800Y-108379000D01*
X149888800Y-108579000D02*
X153488800Y-108579000D01*
X149888800Y-104979000D02*
X149888800Y-105179000D01*
X149188800Y-105179000D02*
X149888800Y-105179000D01*
X149188800Y-108379000D02*
X149188800Y-105179000D01*
X153488800Y-108379000D02*
X153488800Y-108579000D01*
X153488800Y-108379000D02*
X154188800Y-108379000D01*
X152688800Y-104979000D02*
X153488800Y-104979000D01*
X154188800Y-108379000D02*
X154188800Y-105179000D01*
X153488800Y-105179000D02*
X154188800Y-105179000D01*
X153488800Y-104979000D02*
X153488800Y-105179000D01*
X149888800Y-104979000D02*
X150688800Y-104979000D01*
X152688800Y-104979000D02*
X152688800Y-104279000D01*
%TO.C,R4*%
X155585200Y-102693900D02*
X153685200Y-102693900D01*
X153685200Y-102693900D02*
X153685200Y-99333900D01*
X153685200Y-99333900D02*
X155585200Y-99333900D01*
X155585200Y-99333900D02*
X155585200Y-102693900D01*
%TO.C,R3*%
X154493000Y-81361700D02*
X152593000Y-81361700D01*
X152593000Y-81361700D02*
X152593000Y-78001700D01*
X152593000Y-78001700D02*
X154493000Y-78001700D01*
X154493000Y-78001700D02*
X154493000Y-81361700D01*
%TO.C,R2*%
X156474200Y-81357900D02*
X154574200Y-81357900D01*
X154574200Y-81357900D02*
X154574200Y-77997900D01*
X154574200Y-77997900D02*
X156474200Y-77997900D01*
X156474200Y-77997900D02*
X156474200Y-81357900D01*
%TO.C,L1*%
X150762600Y-99026600D02*
X152462600Y-99026600D01*
X152462600Y-99026600D02*
X152462600Y-102866600D01*
X152462600Y-102866600D02*
X150762600Y-102866600D01*
X150762600Y-102866600D02*
X150762600Y-99026600D01*
%TO.C,C3*%
X150071600Y-100874000D02*
X150071600Y-102834000D01*
X150071600Y-102834000D02*
X146671600Y-102834000D01*
X146671600Y-102834000D02*
X146671600Y-100874000D01*
X146671600Y-100874000D02*
X150071600Y-100874000D01*
%TO.C,C2*%
X150061400Y-98765800D02*
X150061400Y-100725800D01*
X150061400Y-100725800D02*
X146661400Y-100725800D01*
X146661400Y-100725800D02*
X146661400Y-98765800D01*
X146661400Y-98765800D02*
X150061400Y-98765800D01*
%TO.C,C1*%
X160161800Y-82685400D02*
X158201800Y-82685400D01*
X158201800Y-82685400D02*
X158201800Y-79285400D01*
X158201800Y-79285400D02*
X160161800Y-79285400D01*
X160161800Y-79285400D02*
X160161800Y-82685400D01*
%TO.C,J4*%
X113008000Y-106575000D02*
X116608000Y-106575000D01*
X113008000Y-100425000D02*
X113008000Y-106575000D01*
X116608000Y-100425000D02*
X113008000Y-100425000D01*
X116608000Y-106575000D02*
X116608000Y-100425000D01*
%TO.C,J3*%
X127695200Y-109215800D02*
X127695200Y-108965800D01*
X127695200Y-108965800D02*
X112695200Y-108965800D01*
X127695200Y-109215800D02*
X127695200Y-111715800D01*
X127695200Y-111715800D02*
X128695200Y-111715800D01*
X128695200Y-111715800D02*
X128695200Y-115715800D01*
X128695200Y-115715800D02*
X127695200Y-115715800D01*
X127695200Y-115715800D02*
X127695200Y-118465800D01*
X127695200Y-118465800D02*
X125695200Y-118465800D01*
X125695200Y-118465800D02*
X125695200Y-120465800D01*
X125695200Y-120465800D02*
X121695200Y-120465800D01*
X121695200Y-120465800D02*
X121695200Y-118465800D01*
X121695200Y-118465800D02*
X112695200Y-118465800D01*
X112695200Y-118465800D02*
X112695200Y-108965800D01*
%TO.C,P1*%
X137188000Y-125575000D02*
X158488000Y-125575000D01*
X137188000Y-122075000D02*
X158488000Y-122075000D01*
X158488000Y-122075000D02*
X158488000Y-125575000D01*
X137188000Y-122075000D02*
X137188000Y-125575000D01*
%TO.C,P2*%
X160048000Y-125575000D02*
X176248000Y-125575000D01*
X160048000Y-122075000D02*
X176248000Y-122075000D01*
X176248000Y-122075000D02*
X176248000Y-125575000D01*
X160048000Y-122075000D02*
X160048000Y-125575000D01*
%TO.C,P3*%
X128044000Y-77315000D02*
X154444000Y-77315000D01*
X128044000Y-73815000D02*
X154444000Y-73815000D01*
X154444000Y-73815000D02*
X154444000Y-77315000D01*
X128044000Y-73815000D02*
X128044000Y-77315000D01*
%TO.C,P4*%
X154968000Y-77315000D02*
X176268000Y-77315000D01*
X154968000Y-73815000D02*
X176268000Y-73815000D01*
X176268000Y-73815000D02*
X176268000Y-77315000D01*
X154968000Y-73815000D02*
X154968000Y-77315000D01*
%TO.C,J1*%
X179248000Y-113765000D02*
X179248000Y-93865000D01*
X170998000Y-113765000D02*
X179248000Y-113765000D01*
X170998000Y-93865000D02*
X170998000Y-113765000D01*
X179248000Y-93865000D02*
X170998000Y-93865000D01*
%TO.C,R1*%
X158055500Y-116380400D02*
X162615500Y-116380400D01*
X158055500Y-118620400D02*
X158055500Y-116380400D01*
X162615500Y-118620400D02*
X158055500Y-118620400D01*
X162615500Y-116380400D02*
X162615500Y-118620400D01*
%TO.C,J2*%
X137918600Y-101012400D02*
X137918600Y-97412400D01*
X124168600Y-101012400D02*
X137918600Y-101012400D01*
X124168600Y-97412400D02*
X124168600Y-101012400D01*
X137918600Y-97412400D02*
X124168600Y-97412400D01*
%TO.C,D1*%
X139853800Y-111491200D02*
X139853800Y-115991200D01*
X132553800Y-111491200D02*
X139853800Y-111491200D01*
X132553800Y-115991200D02*
X132553800Y-111491200D01*
X139853800Y-115991200D02*
X132553800Y-115991200D01*
%TD*%
M02*
