%TF.GenerationSoftware,KiCad,Pcbnew,5.1.9+dfsg1-1~bpo10+1*%
%TF.CreationDate,2021-09-15T11:04:37+02:00*%
%TF.ProjectId,shield_temperature,73686965-6c64-45f7-9465-6d7065726174,1*%
%TF.SameCoordinates,Original*%
%TF.FileFunction,Other,ECO2*%
%FSLAX46Y46*%
G04 Gerber Fmt 4.6, Leading zero omitted, Abs format (unit mm)*
G04 Created by KiCad (PCBNEW 5.1.9+dfsg1-1~bpo10+1) date 2021-09-15 11:04:37*
%MOMM*%
%LPD*%
G01*
G04 APERTURE LIST*
%ADD10C,0.010000*%
G04 APERTURE END LIST*
D10*
%TO.C,G\u002A\u002A\u002A*%
G36*
X125945727Y-81746693D02*
G01*
X125767005Y-80951984D01*
X125480680Y-80228084D01*
X125098167Y-79610944D01*
X125041269Y-79539579D01*
X124841454Y-79296491D01*
X124489433Y-79476079D01*
X124034260Y-79625977D01*
X123592810Y-79617426D01*
X123191336Y-79456806D01*
X122856089Y-79150498D01*
X122793689Y-79063981D01*
X122674877Y-78846060D01*
X122620955Y-78612528D01*
X122615910Y-78290676D01*
X122617024Y-78261737D01*
X122637711Y-77754845D01*
X122262356Y-77643646D01*
X121989196Y-77582714D01*
X121622600Y-77526728D01*
X121238342Y-77487108D01*
X121209666Y-77485026D01*
X120318122Y-77504147D01*
X119461012Y-77680825D01*
X118654407Y-78004280D01*
X117914379Y-78463735D01*
X117256999Y-79048411D01*
X116698338Y-79747530D01*
X116254466Y-80550314D01*
X116110016Y-80905215D01*
X115968685Y-81431352D01*
X115882386Y-82053488D01*
X115854445Y-82706378D01*
X115888191Y-83324776D01*
X115964379Y-83760965D01*
X116258429Y-84602921D01*
X116689896Y-85378894D01*
X117240678Y-86066319D01*
X117892671Y-86642628D01*
X118627769Y-87085256D01*
X118633487Y-87087983D01*
X119252051Y-87354360D01*
X119807686Y-87524248D01*
X120364755Y-87612827D01*
X120955151Y-87635483D01*
X121015870Y-87630530D01*
X121015870Y-85320163D01*
X120416219Y-85280706D01*
X119964928Y-85162734D01*
X119387266Y-84857921D01*
X118885876Y-84422027D01*
X118488585Y-83886231D01*
X118223221Y-83281706D01*
X118194498Y-83179266D01*
X118148330Y-82793239D01*
X118170849Y-82325986D01*
X118253866Y-81847160D01*
X118389195Y-81426412D01*
X118404616Y-81391683D01*
X118738800Y-80852523D01*
X119199640Y-80387303D01*
X119748193Y-80034582D01*
X119800139Y-80009855D01*
X120129159Y-79879336D01*
X120449233Y-79810597D01*
X120841886Y-79787360D01*
X120917376Y-79786775D01*
X121291457Y-79796960D01*
X121579742Y-79842761D01*
X121864944Y-79943119D01*
X122119420Y-80062058D01*
X122718308Y-80439898D01*
X123178941Y-80911541D01*
X123496102Y-81468194D01*
X123664577Y-82101061D01*
X123686327Y-82703666D01*
X123568775Y-83396108D01*
X123307999Y-84008146D01*
X122912531Y-84526670D01*
X122390902Y-84938568D01*
X122144828Y-85072480D01*
X121614061Y-85249844D01*
X121015870Y-85320163D01*
X121015870Y-87630530D01*
X121863497Y-87561378D01*
X122692563Y-87343281D01*
X123458534Y-86974364D01*
X124177597Y-86447799D01*
X124513443Y-86134443D01*
X125109381Y-85449171D01*
X125545901Y-84735560D01*
X125832846Y-83970133D01*
X125980063Y-83129410D01*
X126005430Y-82576258D01*
X125945727Y-81746693D01*
G37*
X125945727Y-81746693D02*
X125767005Y-80951984D01*
X125480680Y-80228084D01*
X125098167Y-79610944D01*
X125041269Y-79539579D01*
X124841454Y-79296491D01*
X124489433Y-79476079D01*
X124034260Y-79625977D01*
X123592810Y-79617426D01*
X123191336Y-79456806D01*
X122856089Y-79150498D01*
X122793689Y-79063981D01*
X122674877Y-78846060D01*
X122620955Y-78612528D01*
X122615910Y-78290676D01*
X122617024Y-78261737D01*
X122637711Y-77754845D01*
X122262356Y-77643646D01*
X121989196Y-77582714D01*
X121622600Y-77526728D01*
X121238342Y-77487108D01*
X121209666Y-77485026D01*
X120318122Y-77504147D01*
X119461012Y-77680825D01*
X118654407Y-78004280D01*
X117914379Y-78463735D01*
X117256999Y-79048411D01*
X116698338Y-79747530D01*
X116254466Y-80550314D01*
X116110016Y-80905215D01*
X115968685Y-81431352D01*
X115882386Y-82053488D01*
X115854445Y-82706378D01*
X115888191Y-83324776D01*
X115964379Y-83760965D01*
X116258429Y-84602921D01*
X116689896Y-85378894D01*
X117240678Y-86066319D01*
X117892671Y-86642628D01*
X118627769Y-87085256D01*
X118633487Y-87087983D01*
X119252051Y-87354360D01*
X119807686Y-87524248D01*
X120364755Y-87612827D01*
X120955151Y-87635483D01*
X121015870Y-87630530D01*
X121015870Y-85320163D01*
X120416219Y-85280706D01*
X119964928Y-85162734D01*
X119387266Y-84857921D01*
X118885876Y-84422027D01*
X118488585Y-83886231D01*
X118223221Y-83281706D01*
X118194498Y-83179266D01*
X118148330Y-82793239D01*
X118170849Y-82325986D01*
X118253866Y-81847160D01*
X118389195Y-81426412D01*
X118404616Y-81391683D01*
X118738800Y-80852523D01*
X119199640Y-80387303D01*
X119748193Y-80034582D01*
X119800139Y-80009855D01*
X120129159Y-79879336D01*
X120449233Y-79810597D01*
X120841886Y-79787360D01*
X120917376Y-79786775D01*
X121291457Y-79796960D01*
X121579742Y-79842761D01*
X121864944Y-79943119D01*
X122119420Y-80062058D01*
X122718308Y-80439898D01*
X123178941Y-80911541D01*
X123496102Y-81468194D01*
X123664577Y-82101061D01*
X123686327Y-82703666D01*
X123568775Y-83396108D01*
X123307999Y-84008146D01*
X122912531Y-84526670D01*
X122390902Y-84938568D01*
X122144828Y-85072480D01*
X121614061Y-85249844D01*
X121015870Y-85320163D01*
X121015870Y-87630530D01*
X121863497Y-87561378D01*
X122692563Y-87343281D01*
X123458534Y-86974364D01*
X124177597Y-86447799D01*
X124513443Y-86134443D01*
X125109381Y-85449171D01*
X125545901Y-84735560D01*
X125832846Y-83970133D01*
X125980063Y-83129410D01*
X126005430Y-82576258D01*
X125945727Y-81746693D01*
%TD*%
M02*
