%TF.GenerationSoftware,KiCad,Pcbnew,5.1.9+dfsg1-1~bpo10+1*%
%TF.CreationDate,2021-09-15T11:04:37+02:00*%
%TF.ProjectId,shield_temperature,73686965-6c64-45f7-9465-6d7065726174,1*%
%TF.SameCoordinates,Original*%
%TF.FileFunction,Soldermask,Bot*%
%TF.FilePolarity,Negative*%
%FSLAX46Y46*%
G04 Gerber Fmt 4.6, Leading zero omitted, Abs format (unit mm)*
G04 Created by KiCad (PCBNEW 5.1.9+dfsg1-1~bpo10+1) date 2021-09-15 11:04:37*
%MOMM*%
%LPD*%
G01*
G04 APERTURE LIST*
%ADD10O,1.700000X1.700000*%
%ADD11R,1.700000X1.700000*%
%ADD12R,3.500000X3.500000*%
%ADD13O,1.727200X2.032000*%
%ADD14C,4.064000*%
%ADD15O,3.600000X1.800000*%
G04 APERTURE END LIST*
D10*
%TO.C,J4*%
X114808000Y-102235000D03*
D11*
X114808000Y-104775000D03*
%TD*%
%TO.C,J3*%
G36*
G01*
X121945200Y-119290800D02*
X121945200Y-117540800D01*
G75*
G02*
X122820200Y-116665800I875000J0D01*
G01*
X124570200Y-116665800D01*
G75*
G02*
X125445200Y-117540800I0J-875000D01*
G01*
X125445200Y-119290800D01*
G75*
G02*
X124570200Y-120165800I-875000J0D01*
G01*
X122820200Y-120165800D01*
G75*
G02*
X121945200Y-119290800I0J875000D01*
G01*
G37*
G36*
G01*
X119195200Y-114715800D02*
X119195200Y-112715800D01*
G75*
G02*
X119945200Y-111965800I750000J0D01*
G01*
X121445200Y-111965800D01*
G75*
G02*
X122195200Y-112715800I0J-750000D01*
G01*
X122195200Y-114715800D01*
G75*
G02*
X121445200Y-115465800I-750000J0D01*
G01*
X119945200Y-115465800D01*
G75*
G02*
X119195200Y-114715800I0J750000D01*
G01*
G37*
D12*
X126695200Y-113715800D03*
%TD*%
D13*
%TO.C,P1*%
X138938000Y-123825000D03*
X141478000Y-123825000D03*
X144018000Y-123825000D03*
X146558000Y-123825000D03*
X149098000Y-123825000D03*
X151638000Y-123825000D03*
X154178000Y-123825000D03*
X156718000Y-123825000D03*
%TD*%
%TO.C,P2*%
X161798000Y-123825000D03*
X164338000Y-123825000D03*
X166878000Y-123825000D03*
X169418000Y-123825000D03*
X171958000Y-123825000D03*
X174498000Y-123825000D03*
%TD*%
%TO.C,P3*%
X129794000Y-75565000D03*
X132334000Y-75565000D03*
X134874000Y-75565000D03*
X137414000Y-75565000D03*
X139954000Y-75565000D03*
X142494000Y-75565000D03*
X145034000Y-75565000D03*
X147574000Y-75565000D03*
X150114000Y-75565000D03*
X152654000Y-75565000D03*
%TD*%
%TO.C,P4*%
X156718000Y-75565000D03*
X159258000Y-75565000D03*
X161798000Y-75565000D03*
X164338000Y-75565000D03*
X166878000Y-75565000D03*
X169418000Y-75565000D03*
X171958000Y-75565000D03*
X174498000Y-75565000D03*
%TD*%
D14*
%TO.C,P5*%
X124968000Y-123825000D03*
%TD*%
%TO.C,P6*%
X177038000Y-118745000D03*
%TD*%
%TO.C,P7*%
X126238000Y-75565000D03*
%TD*%
%TO.C,P8*%
X177038000Y-90805000D03*
%TD*%
%TO.C,J1*%
G36*
G01*
X172948000Y-95915000D02*
X176048000Y-95915000D01*
G75*
G02*
X176298000Y-96165000I0J-250000D01*
G01*
X176298000Y-97465000D01*
G75*
G02*
X176048000Y-97715000I-250000J0D01*
G01*
X172948000Y-97715000D01*
G75*
G02*
X172698000Y-97465000I0J250000D01*
G01*
X172698000Y-96165000D01*
G75*
G02*
X172948000Y-95915000I250000J0D01*
G01*
G37*
D15*
X174498000Y-100315000D03*
X174498000Y-103815000D03*
X174498000Y-107315000D03*
X174498000Y-110815000D03*
%TD*%
D11*
%TO.C,J2*%
X136118600Y-99212400D03*
D10*
X133578600Y-99212400D03*
X131038600Y-99212400D03*
X128498600Y-99212400D03*
X125958600Y-99212400D03*
%TD*%
M02*
