%TF.GenerationSoftware,KiCad,Pcbnew,5.1.9+dfsg1-1~bpo10+1*%
%TF.CreationDate,2021-09-15T11:04:37+02:00*%
%TF.ProjectId,shield_temperature,73686965-6c64-45f7-9465-6d7065726174,1*%
%TF.SameCoordinates,Original*%
%TF.FileFunction,Legend,Top*%
%TF.FilePolarity,Positive*%
%FSLAX46Y46*%
G04 Gerber Fmt 4.6, Leading zero omitted, Abs format (unit mm)*
G04 Created by KiCad (PCBNEW 5.1.9+dfsg1-1~bpo10+1) date 2021-09-15 11:04:37*
%MOMM*%
%LPD*%
G01*
G04 APERTURE LIST*
%ADD10C,0.300000*%
%ADD11C,0.150000*%
%ADD12C,0.120000*%
G04 APERTURE END LIST*
D10*
X113216571Y-94347857D02*
X114216571Y-94062142D01*
X113502285Y-93776428D01*
X114216571Y-93490714D01*
X113216571Y-93205000D01*
X114145142Y-92062142D02*
X114216571Y-92205000D01*
X114216571Y-92490714D01*
X114145142Y-92633571D01*
X114002285Y-92705000D01*
X113430857Y-92705000D01*
X113288000Y-92633571D01*
X113216571Y-92490714D01*
X113216571Y-92205000D01*
X113288000Y-92062142D01*
X113430857Y-91990714D01*
X113573714Y-91990714D01*
X113716571Y-92705000D01*
X114216571Y-90705000D02*
X113430857Y-90705000D01*
X113288000Y-90776428D01*
X113216571Y-90919285D01*
X113216571Y-91205000D01*
X113288000Y-91347857D01*
X114145142Y-90705000D02*
X114216571Y-90847857D01*
X114216571Y-91205000D01*
X114145142Y-91347857D01*
X114002285Y-91419285D01*
X113859428Y-91419285D01*
X113716571Y-91347857D01*
X113645142Y-91205000D01*
X113645142Y-90847857D01*
X113573714Y-90705000D01*
X113216571Y-90205000D02*
X113216571Y-89633571D01*
X112716571Y-89990714D02*
X114002285Y-89990714D01*
X114145142Y-89919285D01*
X114216571Y-89776428D01*
X114216571Y-89633571D01*
X114216571Y-89133571D02*
X112716571Y-89133571D01*
X114216571Y-88490714D02*
X113430857Y-88490714D01*
X113288000Y-88562142D01*
X113216571Y-88705000D01*
X113216571Y-88919285D01*
X113288000Y-89062142D01*
X113359428Y-89133571D01*
X114145142Y-87205000D02*
X114216571Y-87347857D01*
X114216571Y-87633571D01*
X114145142Y-87776428D01*
X114002285Y-87847857D01*
X113430857Y-87847857D01*
X113288000Y-87776428D01*
X113216571Y-87633571D01*
X113216571Y-87347857D01*
X113288000Y-87205000D01*
X113430857Y-87133571D01*
X113573714Y-87133571D01*
X113716571Y-87847857D01*
X114216571Y-86490714D02*
X113216571Y-86490714D01*
X113502285Y-86490714D02*
X113359428Y-86419285D01*
X113288000Y-86347857D01*
X113216571Y-86205000D01*
X113216571Y-86062142D01*
X114359428Y-85919285D02*
X114359428Y-84776428D01*
X114145142Y-84490714D02*
X114216571Y-84347857D01*
X114216571Y-84062142D01*
X114145142Y-83919285D01*
X114002285Y-83847857D01*
X113930857Y-83847857D01*
X113788000Y-83919285D01*
X113716571Y-84062142D01*
X113716571Y-84276428D01*
X113645142Y-84419285D01*
X113502285Y-84490714D01*
X113430857Y-84490714D01*
X113288000Y-84419285D01*
X113216571Y-84276428D01*
X113216571Y-84062142D01*
X113288000Y-83919285D01*
X114216571Y-83205000D02*
X112716571Y-83205000D01*
X114216571Y-82562142D02*
X113430857Y-82562142D01*
X113288000Y-82633571D01*
X113216571Y-82776428D01*
X113216571Y-82990714D01*
X113288000Y-83133571D01*
X113359428Y-83205000D01*
X114216571Y-81847857D02*
X113216571Y-81847857D01*
X112716571Y-81847857D02*
X112788000Y-81919285D01*
X112859428Y-81847857D01*
X112788000Y-81776428D01*
X112716571Y-81847857D01*
X112859428Y-81847857D01*
X114145142Y-80562142D02*
X114216571Y-80705000D01*
X114216571Y-80990714D01*
X114145142Y-81133571D01*
X114002285Y-81205000D01*
X113430857Y-81205000D01*
X113288000Y-81133571D01*
X113216571Y-80990714D01*
X113216571Y-80705000D01*
X113288000Y-80562142D01*
X113430857Y-80490714D01*
X113573714Y-80490714D01*
X113716571Y-81205000D01*
X114216571Y-79633571D02*
X114145142Y-79776428D01*
X114002285Y-79847857D01*
X112716571Y-79847857D01*
X114216571Y-78419285D02*
X112716571Y-78419285D01*
X114145142Y-78419285D02*
X114216571Y-78562142D01*
X114216571Y-78847857D01*
X114145142Y-78990714D01*
X114073714Y-79062142D01*
X113930857Y-79133571D01*
X113502285Y-79133571D01*
X113359428Y-79062142D01*
X113288000Y-78990714D01*
X113216571Y-78847857D01*
X113216571Y-78562142D01*
X113288000Y-78419285D01*
X114359428Y-78062142D02*
X114359428Y-76919285D01*
X113216571Y-76705000D02*
X114216571Y-76347857D01*
X113216571Y-75990714D01*
X114216571Y-74633571D02*
X114216571Y-75490714D01*
X114216571Y-75062142D02*
X112716571Y-75062142D01*
X112930857Y-75205000D01*
X113073714Y-75347857D01*
X113145142Y-75490714D01*
X166143228Y-111130542D02*
X167286085Y-111130542D01*
X166714657Y-111701971D02*
X166714657Y-110559114D01*
X168714657Y-110201971D02*
X168000371Y-110201971D01*
X167928942Y-110916257D01*
X168000371Y-110844828D01*
X168143228Y-110773400D01*
X168500371Y-110773400D01*
X168643228Y-110844828D01*
X168714657Y-110916257D01*
X168786085Y-111059114D01*
X168786085Y-111416257D01*
X168714657Y-111559114D01*
X168643228Y-111630542D01*
X168500371Y-111701971D01*
X168143228Y-111701971D01*
X168000371Y-111630542D01*
X167928942Y-111559114D01*
X169214657Y-110201971D02*
X169714657Y-111701971D01*
X170214657Y-110201971D01*
X161850142Y-107917371D02*
X161850142Y-106417371D01*
X162493000Y-107917371D02*
X162493000Y-107131657D01*
X162421571Y-106988800D01*
X162278714Y-106917371D01*
X162064428Y-106917371D01*
X161921571Y-106988800D01*
X161850142Y-107060228D01*
X163850142Y-106917371D02*
X163850142Y-107917371D01*
X163207285Y-106917371D02*
X163207285Y-107703085D01*
X163278714Y-107845942D01*
X163421571Y-107917371D01*
X163635857Y-107917371D01*
X163778714Y-107845942D01*
X163850142Y-107774514D01*
X164564428Y-107917371D02*
X164564428Y-106917371D01*
X164564428Y-107060228D02*
X164635857Y-106988800D01*
X164778714Y-106917371D01*
X164993000Y-106917371D01*
X165135857Y-106988800D01*
X165207285Y-107131657D01*
X165207285Y-107917371D01*
X165207285Y-107131657D02*
X165278714Y-106988800D01*
X165421571Y-106917371D01*
X165635857Y-106917371D01*
X165778714Y-106988800D01*
X165850142Y-107131657D01*
X165850142Y-107917371D01*
X166564428Y-107917371D02*
X166564428Y-106917371D01*
X166564428Y-106417371D02*
X166493000Y-106488800D01*
X166564428Y-106560228D01*
X166635857Y-106488800D01*
X166564428Y-106417371D01*
X166564428Y-106560228D01*
X167921571Y-107917371D02*
X167921571Y-106417371D01*
X167921571Y-107845942D02*
X167778714Y-107917371D01*
X167493000Y-107917371D01*
X167350142Y-107845942D01*
X167278714Y-107774514D01*
X167207285Y-107631657D01*
X167207285Y-107203085D01*
X167278714Y-107060228D01*
X167350142Y-106988800D01*
X167493000Y-106917371D01*
X167778714Y-106917371D01*
X167921571Y-106988800D01*
X168635857Y-107917371D02*
X168635857Y-106917371D01*
X168635857Y-106417371D02*
X168564428Y-106488800D01*
X168635857Y-106560228D01*
X168707285Y-106488800D01*
X168635857Y-106417371D01*
X168635857Y-106560228D01*
X169135857Y-106917371D02*
X169707285Y-106917371D01*
X169350142Y-106417371D02*
X169350142Y-107703085D01*
X169421571Y-107845942D01*
X169564428Y-107917371D01*
X169707285Y-107917371D01*
X170064428Y-106917371D02*
X170421571Y-107917371D01*
X170778714Y-106917371D02*
X170421571Y-107917371D01*
X170278714Y-108274514D01*
X170207285Y-108345942D01*
X170064428Y-108417371D01*
X167665542Y-103161400D02*
X167522685Y-103089971D01*
X167308400Y-103089971D01*
X167094114Y-103161400D01*
X166951257Y-103304257D01*
X166879828Y-103447114D01*
X166808400Y-103732828D01*
X166808400Y-103947114D01*
X166879828Y-104232828D01*
X166951257Y-104375685D01*
X167094114Y-104518542D01*
X167308400Y-104589971D01*
X167451257Y-104589971D01*
X167665542Y-104518542D01*
X167736971Y-104447114D01*
X167736971Y-103947114D01*
X167451257Y-103947114D01*
X168379828Y-104589971D02*
X168379828Y-103089971D01*
X169236971Y-104589971D01*
X169236971Y-103089971D01*
X169951257Y-104589971D02*
X169951257Y-103089971D01*
X170308400Y-103089971D01*
X170522685Y-103161400D01*
X170665542Y-103304257D01*
X170736971Y-103447114D01*
X170808400Y-103732828D01*
X170808400Y-103947114D01*
X170736971Y-104232828D01*
X170665542Y-104375685D01*
X170522685Y-104518542D01*
X170308400Y-104589971D01*
X169951257Y-104589971D01*
X157730857Y-99627571D02*
X158302285Y-99627571D01*
X157945142Y-99127571D02*
X157945142Y-100413285D01*
X158016571Y-100556142D01*
X158159428Y-100627571D01*
X158302285Y-100627571D01*
X159373714Y-100556142D02*
X159230857Y-100627571D01*
X158945142Y-100627571D01*
X158802285Y-100556142D01*
X158730857Y-100413285D01*
X158730857Y-99841857D01*
X158802285Y-99699000D01*
X158945142Y-99627571D01*
X159230857Y-99627571D01*
X159373714Y-99699000D01*
X159445142Y-99841857D01*
X159445142Y-99984714D01*
X158730857Y-100127571D01*
X160088000Y-100627571D02*
X160088000Y-99627571D01*
X160088000Y-99770428D02*
X160159428Y-99699000D01*
X160302285Y-99627571D01*
X160516571Y-99627571D01*
X160659428Y-99699000D01*
X160730857Y-99841857D01*
X160730857Y-100627571D01*
X160730857Y-99841857D02*
X160802285Y-99699000D01*
X160945142Y-99627571D01*
X161159428Y-99627571D01*
X161302285Y-99699000D01*
X161373714Y-99841857D01*
X161373714Y-100627571D01*
X162088000Y-99627571D02*
X162088000Y-101127571D01*
X162088000Y-99699000D02*
X162230857Y-99627571D01*
X162516571Y-99627571D01*
X162659428Y-99699000D01*
X162730857Y-99770428D01*
X162802285Y-99913285D01*
X162802285Y-100341857D01*
X162730857Y-100484714D01*
X162659428Y-100556142D01*
X162516571Y-100627571D01*
X162230857Y-100627571D01*
X162088000Y-100556142D01*
X164016571Y-100556142D02*
X163873714Y-100627571D01*
X163588000Y-100627571D01*
X163445142Y-100556142D01*
X163373714Y-100413285D01*
X163373714Y-99841857D01*
X163445142Y-99699000D01*
X163588000Y-99627571D01*
X163873714Y-99627571D01*
X164016571Y-99699000D01*
X164088000Y-99841857D01*
X164088000Y-99984714D01*
X163373714Y-100127571D01*
X164730857Y-100627571D02*
X164730857Y-99627571D01*
X164730857Y-99913285D02*
X164802285Y-99770428D01*
X164873714Y-99699000D01*
X165016571Y-99627571D01*
X165159428Y-99627571D01*
X166302285Y-100627571D02*
X166302285Y-99841857D01*
X166230857Y-99699000D01*
X166088000Y-99627571D01*
X165802285Y-99627571D01*
X165659428Y-99699000D01*
X166302285Y-100556142D02*
X166159428Y-100627571D01*
X165802285Y-100627571D01*
X165659428Y-100556142D01*
X165588000Y-100413285D01*
X165588000Y-100270428D01*
X165659428Y-100127571D01*
X165802285Y-100056142D01*
X166159428Y-100056142D01*
X166302285Y-99984714D01*
X166802285Y-99627571D02*
X167373714Y-99627571D01*
X167016571Y-99127571D02*
X167016571Y-100413285D01*
X167088000Y-100556142D01*
X167230857Y-100627571D01*
X167373714Y-100627571D01*
X168516571Y-99627571D02*
X168516571Y-100627571D01*
X167873714Y-99627571D02*
X167873714Y-100413285D01*
X167945142Y-100556142D01*
X168088000Y-100627571D01*
X168302285Y-100627571D01*
X168445142Y-100556142D01*
X168516571Y-100484714D01*
X169230857Y-100627571D02*
X169230857Y-99627571D01*
X169230857Y-99913285D02*
X169302285Y-99770428D01*
X169373714Y-99699000D01*
X169516571Y-99627571D01*
X169659428Y-99627571D01*
X170730857Y-100556142D02*
X170588000Y-100627571D01*
X170302285Y-100627571D01*
X170159428Y-100556142D01*
X170088000Y-100413285D01*
X170088000Y-99841857D01*
X170159428Y-99699000D01*
X170302285Y-99627571D01*
X170588000Y-99627571D01*
X170730857Y-99699000D01*
X170802285Y-99841857D01*
X170802285Y-99984714D01*
X170088000Y-100127571D01*
X167563942Y-96227200D02*
X167421085Y-96155771D01*
X167206800Y-96155771D01*
X166992514Y-96227200D01*
X166849657Y-96370057D01*
X166778228Y-96512914D01*
X166706800Y-96798628D01*
X166706800Y-97012914D01*
X166778228Y-97298628D01*
X166849657Y-97441485D01*
X166992514Y-97584342D01*
X167206800Y-97655771D01*
X167349657Y-97655771D01*
X167563942Y-97584342D01*
X167635371Y-97512914D01*
X167635371Y-97012914D01*
X167349657Y-97012914D01*
X168278228Y-97655771D02*
X168278228Y-96155771D01*
X169135371Y-97655771D01*
X169135371Y-96155771D01*
X169849657Y-97655771D02*
X169849657Y-96155771D01*
X170206800Y-96155771D01*
X170421085Y-96227200D01*
X170563942Y-96370057D01*
X170635371Y-96512914D01*
X170706800Y-96798628D01*
X170706800Y-97012914D01*
X170635371Y-97298628D01*
X170563942Y-97441485D01*
X170421085Y-97584342D01*
X170206800Y-97655771D01*
X169849657Y-97655771D01*
X125208600Y-105028857D02*
X125137171Y-105171714D01*
X125137171Y-105386000D01*
X125208600Y-105600285D01*
X125351457Y-105743142D01*
X125494314Y-105814571D01*
X125780028Y-105886000D01*
X125994314Y-105886000D01*
X126280028Y-105814571D01*
X126422885Y-105743142D01*
X126565742Y-105600285D01*
X126637171Y-105386000D01*
X126637171Y-105243142D01*
X126565742Y-105028857D01*
X126494314Y-104957428D01*
X125994314Y-104957428D01*
X125994314Y-105243142D01*
X126637171Y-104314571D02*
X125137171Y-104314571D01*
X126637171Y-103457428D01*
X125137171Y-103457428D01*
X126637171Y-102743142D02*
X125137171Y-102743142D01*
X125137171Y-102386000D01*
X125208600Y-102171714D01*
X125351457Y-102028857D01*
X125494314Y-101957428D01*
X125780028Y-101886000D01*
X125994314Y-101886000D01*
X126280028Y-101957428D01*
X126422885Y-102028857D01*
X126565742Y-102171714D01*
X126637171Y-102386000D01*
X126637171Y-102743142D01*
X129100971Y-105320114D02*
X127600971Y-105320114D01*
X129100971Y-104462971D01*
X127600971Y-104462971D01*
X128958114Y-103748685D02*
X129029542Y-103677257D01*
X129100971Y-103748685D01*
X129029542Y-103820114D01*
X128958114Y-103748685D01*
X129100971Y-103748685D01*
X128958114Y-102177257D02*
X129029542Y-102248685D01*
X129100971Y-102462971D01*
X129100971Y-102605828D01*
X129029542Y-102820114D01*
X128886685Y-102962971D01*
X128743828Y-103034400D01*
X128458114Y-103105828D01*
X128243828Y-103105828D01*
X127958114Y-103034400D01*
X127815257Y-102962971D01*
X127672400Y-102820114D01*
X127600971Y-102605828D01*
X127600971Y-102462971D01*
X127672400Y-102248685D01*
X127743828Y-102177257D01*
X131747342Y-105290714D02*
X131818771Y-105076428D01*
X131818771Y-104719285D01*
X131747342Y-104576428D01*
X131675914Y-104505000D01*
X131533057Y-104433571D01*
X131390200Y-104433571D01*
X131247342Y-104505000D01*
X131175914Y-104576428D01*
X131104485Y-104719285D01*
X131033057Y-105005000D01*
X130961628Y-105147857D01*
X130890200Y-105219285D01*
X130747342Y-105290714D01*
X130604485Y-105290714D01*
X130461628Y-105219285D01*
X130390200Y-105147857D01*
X130318771Y-105005000D01*
X130318771Y-104647857D01*
X130390200Y-104433571D01*
X131675914Y-102933571D02*
X131747342Y-103005000D01*
X131818771Y-103219285D01*
X131818771Y-103362142D01*
X131747342Y-103576428D01*
X131604485Y-103719285D01*
X131461628Y-103790714D01*
X131175914Y-103862142D01*
X130961628Y-103862142D01*
X130675914Y-103790714D01*
X130533057Y-103719285D01*
X130390200Y-103576428D01*
X130318771Y-103362142D01*
X130318771Y-103219285D01*
X130390200Y-103005000D01*
X130461628Y-102933571D01*
X131818771Y-101576428D02*
X131818771Y-102290714D01*
X130318771Y-102290714D01*
X134490542Y-105377228D02*
X134561971Y-105162942D01*
X134561971Y-104805800D01*
X134490542Y-104662942D01*
X134419114Y-104591514D01*
X134276257Y-104520085D01*
X134133400Y-104520085D01*
X133990542Y-104591514D01*
X133919114Y-104662942D01*
X133847685Y-104805800D01*
X133776257Y-105091514D01*
X133704828Y-105234371D01*
X133633400Y-105305800D01*
X133490542Y-105377228D01*
X133347685Y-105377228D01*
X133204828Y-105305800D01*
X133133400Y-105234371D01*
X133061971Y-105091514D01*
X133061971Y-104734371D01*
X133133400Y-104520085D01*
X134561971Y-103877228D02*
X133061971Y-103877228D01*
X133061971Y-103520085D01*
X133133400Y-103305800D01*
X133276257Y-103162942D01*
X133419114Y-103091514D01*
X133704828Y-103020085D01*
X133919114Y-103020085D01*
X134204828Y-103091514D01*
X134347685Y-103162942D01*
X134490542Y-103305800D01*
X134561971Y-103520085D01*
X134561971Y-103877228D01*
X134133400Y-102448657D02*
X134133400Y-101734371D01*
X134561971Y-102591514D02*
X133061971Y-102091514D01*
X134561971Y-101591514D01*
X136606742Y-106787628D02*
X136606742Y-105644771D01*
X137178171Y-106216200D02*
X136035314Y-106216200D01*
X135678171Y-105073342D02*
X135678171Y-104144771D01*
X136249600Y-104644771D01*
X136249600Y-104430485D01*
X136321028Y-104287628D01*
X136392457Y-104216200D01*
X136535314Y-104144771D01*
X136892457Y-104144771D01*
X137035314Y-104216200D01*
X137106742Y-104287628D01*
X137178171Y-104430485D01*
X137178171Y-104859057D01*
X137106742Y-105001914D01*
X137035314Y-105073342D01*
X136178171Y-103644771D02*
X137178171Y-103287628D01*
X136178171Y-102930485D01*
X135678171Y-102501914D02*
X135678171Y-101573342D01*
X136249600Y-102073342D01*
X136249600Y-101859057D01*
X136321028Y-101716200D01*
X136392457Y-101644771D01*
X136535314Y-101573342D01*
X136892457Y-101573342D01*
X137035314Y-101644771D01*
X137106742Y-101716200D01*
X137178171Y-101859057D01*
X137178171Y-102287628D01*
X137106742Y-102430485D01*
X137035314Y-102501914D01*
D11*
X139390380Y-120999285D02*
X139390380Y-121570714D01*
X139390380Y-121285000D02*
X138390380Y-121285000D01*
X138533238Y-121380238D01*
X138628476Y-121475476D01*
X138676095Y-121570714D01*
D12*
%TO.C,J5*%
X153038800Y-108134000D02*
X150338800Y-108134000D01*
X152448800Y-105414000D02*
X152448800Y-104784000D01*
X150288800Y-105414000D02*
X150928800Y-105414000D01*
X153088800Y-105414000D02*
X152448800Y-105414000D01*
D11*
%TO.C,U1*%
X161448000Y-84805000D02*
X161448000Y-96805000D01*
X161448000Y-96805000D02*
X149448000Y-96805000D01*
X149448000Y-96805000D02*
X149448000Y-84805000D01*
X149448000Y-84805000D02*
X161448000Y-84805000D01*
X160970353Y-83825000D02*
G75*
G03*
X160970353Y-83825000I-362353J0D01*
G01*
D12*
%TO.C,R4*%
X153900200Y-101240964D02*
X153900200Y-100786836D01*
X155370200Y-101240964D02*
X155370200Y-100786836D01*
%TO.C,R3*%
X152808000Y-79908764D02*
X152808000Y-79454636D01*
X154278000Y-79908764D02*
X154278000Y-79454636D01*
%TO.C,R2*%
X154789200Y-79904964D02*
X154789200Y-79450836D01*
X156259200Y-79904964D02*
X156259200Y-79450836D01*
%TO.C,L1*%
X152172600Y-100536358D02*
X152172600Y-101356842D01*
X151052600Y-100536358D02*
X151052600Y-101356842D01*
%TO.C,C3*%
X148632852Y-102589000D02*
X148110348Y-102589000D01*
X148632852Y-101119000D02*
X148110348Y-101119000D01*
%TO.C,C2*%
X148622652Y-100480800D02*
X148100148Y-100480800D01*
X148622652Y-99010800D02*
X148100148Y-99010800D01*
%TO.C,C1*%
X158446800Y-81246652D02*
X158446800Y-80724148D01*
X159916800Y-81246652D02*
X159916800Y-80724148D01*
%TO.C,J4*%
X116138000Y-106105000D02*
X114808000Y-106105000D01*
X116138000Y-104775000D02*
X116138000Y-106105000D01*
X116138000Y-103505000D02*
X113478000Y-103505000D01*
X113478000Y-103505000D02*
X113478000Y-100905000D01*
X116138000Y-103505000D02*
X116138000Y-100905000D01*
X116138000Y-100905000D02*
X113478000Y-100905000D01*
%TO.C,J3*%
X127795200Y-109965800D02*
X127795200Y-108915800D01*
X126745200Y-108915800D02*
X127795200Y-108915800D01*
X121695200Y-118315800D02*
X112895200Y-118315800D01*
X112895200Y-118315800D02*
X112895200Y-109115800D01*
X127595200Y-115615800D02*
X127595200Y-118315800D01*
X127595200Y-118315800D02*
X125695200Y-118315800D01*
X112895200Y-109115800D02*
X127595200Y-109115800D01*
X127595200Y-109115800D02*
X127595200Y-111715800D01*
D11*
%TO.C,P1*%
X137388000Y-122275000D02*
X137388000Y-125375000D01*
X138938000Y-122275000D02*
X137388000Y-122275000D01*
X140208000Y-125095000D02*
X140208000Y-122555000D01*
X137388000Y-125375000D02*
X138938000Y-125375000D01*
X157988000Y-122555000D02*
X140208000Y-122555000D01*
X157988000Y-125095000D02*
X157988000Y-122555000D01*
X140208000Y-125095000D02*
X157988000Y-125095000D01*
%TO.C,P2*%
X160248000Y-122275000D02*
X160248000Y-125375000D01*
X161798000Y-122275000D02*
X160248000Y-122275000D01*
X163068000Y-125095000D02*
X163068000Y-122555000D01*
X160248000Y-125375000D02*
X161798000Y-125375000D01*
X175768000Y-122555000D02*
X163068000Y-122555000D01*
X175768000Y-125095000D02*
X175768000Y-122555000D01*
X163068000Y-125095000D02*
X175768000Y-125095000D01*
%TO.C,P3*%
X128244000Y-74015000D02*
X128244000Y-77115000D01*
X129794000Y-74015000D02*
X128244000Y-74015000D01*
X131064000Y-76835000D02*
X131064000Y-74295000D01*
X128244000Y-77115000D02*
X129794000Y-77115000D01*
X153924000Y-74295000D02*
X131064000Y-74295000D01*
X153924000Y-76835000D02*
X153924000Y-74295000D01*
X131064000Y-76835000D02*
X153924000Y-76835000D01*
%TO.C,P4*%
X155168000Y-74015000D02*
X155168000Y-77115000D01*
X156718000Y-74015000D02*
X155168000Y-74015000D01*
X157988000Y-76835000D02*
X157988000Y-74295000D01*
X155168000Y-77115000D02*
X156718000Y-77115000D01*
X175768000Y-74295000D02*
X157988000Y-74295000D01*
X175768000Y-76835000D02*
X175768000Y-74295000D01*
X157988000Y-76835000D02*
X175768000Y-76835000D01*
%TO.C,P5*%
X127254000Y-123825000D02*
G75*
G03*
X127254000Y-123825000I-2286000J0D01*
G01*
%TO.C,P6*%
X179324000Y-118745000D02*
G75*
G03*
X179324000Y-118745000I-2286000J0D01*
G01*
%TO.C,P7*%
X128524000Y-75565000D02*
G75*
G03*
X128524000Y-75565000I-2286000J0D01*
G01*
%TO.C,P8*%
X179324000Y-90805000D02*
G75*
G03*
X179324000Y-90805000I-2286000J0D01*
G01*
D12*
%TO.C,J1*%
X179248000Y-93865000D02*
X179248000Y-95865000D01*
X177998000Y-93865000D02*
X179248000Y-93865000D01*
X172248000Y-112315000D02*
X172248000Y-111565000D01*
X176548000Y-112315000D02*
X172248000Y-112315000D01*
X176548000Y-111565000D02*
X176548000Y-112315000D01*
X176898000Y-111565000D02*
X176548000Y-111565000D01*
X176898000Y-112065000D02*
X176898000Y-111565000D01*
X177898000Y-112315000D02*
X176898000Y-112065000D01*
X177898000Y-109315000D02*
X177898000Y-112315000D01*
X176898000Y-109565000D02*
X177898000Y-109315000D01*
X176898000Y-110065000D02*
X176898000Y-109565000D01*
X176548000Y-110065000D02*
X176898000Y-110065000D01*
X176548000Y-109315000D02*
X176548000Y-110065000D01*
X172248000Y-109315000D02*
X176548000Y-109315000D01*
X172248000Y-110065000D02*
X172248000Y-109315000D01*
X172248000Y-108815000D02*
X172248000Y-108065000D01*
X176548000Y-108815000D02*
X172248000Y-108815000D01*
X176548000Y-108065000D02*
X176548000Y-108815000D01*
X176898000Y-108065000D02*
X176548000Y-108065000D01*
X176898000Y-108565000D02*
X176898000Y-108065000D01*
X177898000Y-108815000D02*
X176898000Y-108565000D01*
X177898000Y-105815000D02*
X177898000Y-108815000D01*
X176898000Y-106065000D02*
X177898000Y-105815000D01*
X176898000Y-106565000D02*
X176898000Y-106065000D01*
X176548000Y-106565000D02*
X176898000Y-106565000D01*
X176548000Y-105815000D02*
X176548000Y-106565000D01*
X172248000Y-105815000D02*
X176548000Y-105815000D01*
X172248000Y-106565000D02*
X172248000Y-105815000D01*
X172248000Y-105315000D02*
X172248000Y-104565000D01*
X176548000Y-105315000D02*
X172248000Y-105315000D01*
X176548000Y-104565000D02*
X176548000Y-105315000D01*
X176898000Y-104565000D02*
X176548000Y-104565000D01*
X176898000Y-105065000D02*
X176898000Y-104565000D01*
X177898000Y-105315000D02*
X176898000Y-105065000D01*
X177898000Y-102315000D02*
X177898000Y-105315000D01*
X176898000Y-102565000D02*
X177898000Y-102315000D01*
X176898000Y-103065000D02*
X176898000Y-102565000D01*
X176548000Y-103065000D02*
X176898000Y-103065000D01*
X176548000Y-102315000D02*
X176548000Y-103065000D01*
X172248000Y-102315000D02*
X176548000Y-102315000D01*
X172248000Y-103065000D02*
X172248000Y-102315000D01*
X172248000Y-101815000D02*
X172248000Y-101065000D01*
X176548000Y-101815000D02*
X172248000Y-101815000D01*
X176548000Y-101065000D02*
X176548000Y-101815000D01*
X176898000Y-101065000D02*
X176548000Y-101065000D01*
X176898000Y-101565000D02*
X176898000Y-101065000D01*
X177898000Y-101815000D02*
X176898000Y-101565000D01*
X177898000Y-98815000D02*
X177898000Y-101815000D01*
X176898000Y-99065000D02*
X177898000Y-98815000D01*
X176898000Y-99565000D02*
X176898000Y-99065000D01*
X176548000Y-99565000D02*
X176898000Y-99565000D01*
X176548000Y-98815000D02*
X176548000Y-99565000D01*
X172248000Y-98815000D02*
X176548000Y-98815000D01*
X172248000Y-99565000D02*
X172248000Y-98815000D01*
X172248000Y-98315000D02*
X172248000Y-97565000D01*
X176548000Y-98315000D02*
X172248000Y-98315000D01*
X176548000Y-97565000D02*
X176548000Y-98315000D01*
X176898000Y-97565000D02*
X176548000Y-97565000D01*
X176898000Y-98065000D02*
X176898000Y-97565000D01*
X177898000Y-98315000D02*
X176898000Y-98065000D01*
X177898000Y-95315000D02*
X177898000Y-98315000D01*
X176898000Y-95565000D02*
X177898000Y-95315000D01*
X176898000Y-96065000D02*
X176898000Y-95565000D01*
X176548000Y-96065000D02*
X176898000Y-96065000D01*
X176548000Y-95315000D02*
X176548000Y-96065000D01*
X172248000Y-95315000D02*
X176548000Y-95315000D01*
X172248000Y-96065000D02*
X172248000Y-95315000D01*
X178858000Y-113375000D02*
X178858000Y-94255000D01*
X171388000Y-113375000D02*
X178858000Y-113375000D01*
X171388000Y-94255000D02*
X171388000Y-113375000D01*
X178858000Y-94255000D02*
X171388000Y-94255000D01*
X172248155Y-97564647D02*
G75*
G03*
X172248000Y-96065000I-1700155J749647D01*
G01*
X172248155Y-101064647D02*
G75*
G03*
X172248000Y-99565000I-1700155J749647D01*
G01*
X172248155Y-104564647D02*
G75*
G03*
X172248000Y-103065000I-1700155J749647D01*
G01*
X172248155Y-108064647D02*
G75*
G03*
X172248000Y-106565000I-1700155J749647D01*
G01*
X172248155Y-111564647D02*
G75*
G03*
X172248000Y-110065000I-1700155J749647D01*
G01*
%TO.C,R1*%
X161062564Y-116590400D02*
X159608436Y-116590400D01*
X161062564Y-118410400D02*
X159608436Y-118410400D01*
%TO.C,J2*%
X137448600Y-97882400D02*
X137448600Y-99212400D01*
X136118600Y-97882400D02*
X137448600Y-97882400D01*
X134848600Y-97882400D02*
X134848600Y-100542400D01*
X134848600Y-100542400D02*
X124628600Y-100542400D01*
X134848600Y-97882400D02*
X124628600Y-97882400D01*
X124628600Y-97882400D02*
X124628600Y-100542400D01*
%TO.C,D1*%
X139753800Y-115891200D02*
X134053800Y-115891200D01*
X139753800Y-111591200D02*
X134053800Y-111591200D01*
X139753800Y-115891200D02*
X139753800Y-111591200D01*
%TO.C,J5*%
D11*
X156017980Y-106606933D02*
X156732266Y-106606933D01*
X156875123Y-106654552D01*
X156970361Y-106749790D01*
X157017980Y-106892647D01*
X157017980Y-106987885D01*
X156017980Y-105654552D02*
X156017980Y-106130742D01*
X156494171Y-106178361D01*
X156446552Y-106130742D01*
X156398933Y-106035504D01*
X156398933Y-105797409D01*
X156446552Y-105702171D01*
X156494171Y-105654552D01*
X156589409Y-105606933D01*
X156827504Y-105606933D01*
X156922742Y-105654552D01*
X156970361Y-105702171D01*
X157017980Y-105797409D01*
X157017980Y-106035504D01*
X156970361Y-106130742D01*
X156922742Y-106178361D01*
%TO.C,U1*%
X154400380Y-91566904D02*
X155209904Y-91566904D01*
X155305142Y-91519285D01*
X155352761Y-91471666D01*
X155400380Y-91376428D01*
X155400380Y-91185952D01*
X155352761Y-91090714D01*
X155305142Y-91043095D01*
X155209904Y-90995476D01*
X154400380Y-90995476D01*
X155400380Y-89995476D02*
X155400380Y-90566904D01*
X155400380Y-90281190D02*
X154400380Y-90281190D01*
X154543238Y-90376428D01*
X154638476Y-90471666D01*
X154686095Y-90566904D01*
%TO.C,R4*%
X156500533Y-102738180D02*
X156167200Y-102261990D01*
X155929104Y-102738180D02*
X155929104Y-101738180D01*
X156310057Y-101738180D01*
X156405295Y-101785800D01*
X156452914Y-101833419D01*
X156500533Y-101928657D01*
X156500533Y-102071514D01*
X156452914Y-102166752D01*
X156405295Y-102214371D01*
X156310057Y-102261990D01*
X155929104Y-102261990D01*
X157357676Y-102071514D02*
X157357676Y-102738180D01*
X157119580Y-101690561D02*
X156881485Y-102404847D01*
X157500533Y-102404847D01*
%TO.C,R3*%
X152345380Y-79848366D02*
X151869190Y-80181700D01*
X152345380Y-80419795D02*
X151345380Y-80419795D01*
X151345380Y-80038842D01*
X151393000Y-79943604D01*
X151440619Y-79895985D01*
X151535857Y-79848366D01*
X151678714Y-79848366D01*
X151773952Y-79895985D01*
X151821571Y-79943604D01*
X151869190Y-80038842D01*
X151869190Y-80419795D01*
X151345380Y-79515033D02*
X151345380Y-78895985D01*
X151726333Y-79229319D01*
X151726333Y-79086461D01*
X151773952Y-78991223D01*
X151821571Y-78943604D01*
X151916809Y-78895985D01*
X152154904Y-78895985D01*
X152250142Y-78943604D01*
X152297761Y-78991223D01*
X152345380Y-79086461D01*
X152345380Y-79372176D01*
X152297761Y-79467414D01*
X152250142Y-79515033D01*
%TO.C,R2*%
X154173180Y-80405266D02*
X153696990Y-80738600D01*
X154173180Y-80976695D02*
X153173180Y-80976695D01*
X153173180Y-80595742D01*
X153220800Y-80500504D01*
X153268419Y-80452885D01*
X153363657Y-80405266D01*
X153506514Y-80405266D01*
X153601752Y-80452885D01*
X153649371Y-80500504D01*
X153696990Y-80595742D01*
X153696990Y-80976695D01*
X153268419Y-80024314D02*
X153220800Y-79976695D01*
X153173180Y-79881457D01*
X153173180Y-79643361D01*
X153220800Y-79548123D01*
X153268419Y-79500504D01*
X153363657Y-79452885D01*
X153458895Y-79452885D01*
X153601752Y-79500504D01*
X154173180Y-80071933D01*
X154173180Y-79452885D01*
%TO.C,L1*%
X153614380Y-100649066D02*
X153614380Y-101125257D01*
X152614380Y-101125257D01*
X153614380Y-99791923D02*
X153614380Y-100363352D01*
X153614380Y-100077638D02*
X152614380Y-100077638D01*
X152757238Y-100172876D01*
X152852476Y-100268114D01*
X152900095Y-100363352D01*
%TO.C,C3*%
X144867333Y-102261942D02*
X144819714Y-102309561D01*
X144676857Y-102357180D01*
X144581619Y-102357180D01*
X144438761Y-102309561D01*
X144343523Y-102214323D01*
X144295904Y-102119085D01*
X144248285Y-101928609D01*
X144248285Y-101785752D01*
X144295904Y-101595276D01*
X144343523Y-101500038D01*
X144438761Y-101404800D01*
X144581619Y-101357180D01*
X144676857Y-101357180D01*
X144819714Y-101404800D01*
X144867333Y-101452419D01*
X145200666Y-101357180D02*
X145819714Y-101357180D01*
X145486380Y-101738133D01*
X145629238Y-101738133D01*
X145724476Y-101785752D01*
X145772095Y-101833371D01*
X145819714Y-101928609D01*
X145819714Y-102166704D01*
X145772095Y-102261942D01*
X145724476Y-102309561D01*
X145629238Y-102357180D01*
X145343523Y-102357180D01*
X145248285Y-102309561D01*
X145200666Y-102261942D01*
%TO.C,C2*%
X144867333Y-99950542D02*
X144819714Y-99998161D01*
X144676857Y-100045780D01*
X144581619Y-100045780D01*
X144438761Y-99998161D01*
X144343523Y-99902923D01*
X144295904Y-99807685D01*
X144248285Y-99617209D01*
X144248285Y-99474352D01*
X144295904Y-99283876D01*
X144343523Y-99188638D01*
X144438761Y-99093400D01*
X144581619Y-99045780D01*
X144676857Y-99045780D01*
X144819714Y-99093400D01*
X144867333Y-99141019D01*
X145248285Y-99141019D02*
X145295904Y-99093400D01*
X145391142Y-99045780D01*
X145629238Y-99045780D01*
X145724476Y-99093400D01*
X145772095Y-99141019D01*
X145819714Y-99236257D01*
X145819714Y-99331495D01*
X145772095Y-99474352D01*
X145200666Y-100045780D01*
X145819714Y-100045780D01*
%TO.C,C1*%
X161342342Y-81152066D02*
X161389961Y-81199685D01*
X161437580Y-81342542D01*
X161437580Y-81437780D01*
X161389961Y-81580638D01*
X161294723Y-81675876D01*
X161199485Y-81723495D01*
X161009009Y-81771114D01*
X160866152Y-81771114D01*
X160675676Y-81723495D01*
X160580438Y-81675876D01*
X160485200Y-81580638D01*
X160437580Y-81437780D01*
X160437580Y-81342542D01*
X160485200Y-81199685D01*
X160532819Y-81152066D01*
X161437580Y-80199685D02*
X161437580Y-80771114D01*
X161437580Y-80485400D02*
X160437580Y-80485400D01*
X160580438Y-80580638D01*
X160675676Y-80675876D01*
X160723295Y-80771114D01*
%TO.C,J4*%
X114474666Y-106557380D02*
X114474666Y-107271666D01*
X114427047Y-107414523D01*
X114331809Y-107509761D01*
X114188952Y-107557380D01*
X114093714Y-107557380D01*
X115379428Y-106890714D02*
X115379428Y-107557380D01*
X115141333Y-106509761D02*
X114903238Y-107224047D01*
X115522285Y-107224047D01*
%TO.C,J3*%
X117911866Y-118918180D02*
X117911866Y-119632466D01*
X117864247Y-119775323D01*
X117769009Y-119870561D01*
X117626152Y-119918180D01*
X117530914Y-119918180D01*
X118292819Y-118918180D02*
X118911866Y-118918180D01*
X118578533Y-119299133D01*
X118721390Y-119299133D01*
X118816628Y-119346752D01*
X118864247Y-119394371D01*
X118911866Y-119489609D01*
X118911866Y-119727704D01*
X118864247Y-119822942D01*
X118816628Y-119870561D01*
X118721390Y-119918180D01*
X118435676Y-119918180D01*
X118340438Y-119870561D01*
X118292819Y-119822942D01*
%TO.C,P1*%
X147089904Y-121737380D02*
X147089904Y-120737380D01*
X147470857Y-120737380D01*
X147566095Y-120785000D01*
X147613714Y-120832619D01*
X147661333Y-120927857D01*
X147661333Y-121070714D01*
X147613714Y-121165952D01*
X147566095Y-121213571D01*
X147470857Y-121261190D01*
X147089904Y-121261190D01*
X148613714Y-121737380D02*
X148042285Y-121737380D01*
X148328000Y-121737380D02*
X148328000Y-120737380D01*
X148232761Y-120880238D01*
X148137523Y-120975476D01*
X148042285Y-121023095D01*
%TO.C,P2*%
X167663904Y-121737380D02*
X167663904Y-120737380D01*
X168044857Y-120737380D01*
X168140095Y-120785000D01*
X168187714Y-120832619D01*
X168235333Y-120927857D01*
X168235333Y-121070714D01*
X168187714Y-121165952D01*
X168140095Y-121213571D01*
X168044857Y-121261190D01*
X167663904Y-121261190D01*
X168616285Y-120832619D02*
X168663904Y-120785000D01*
X168759142Y-120737380D01*
X168997238Y-120737380D01*
X169092476Y-120785000D01*
X169140095Y-120832619D01*
X169187714Y-120927857D01*
X169187714Y-121023095D01*
X169140095Y-121165952D01*
X168568666Y-121737380D01*
X169187714Y-121737380D01*
%TO.C,P3*%
X140485904Y-78811380D02*
X140485904Y-77811380D01*
X140866857Y-77811380D01*
X140962095Y-77859000D01*
X141009714Y-77906619D01*
X141057333Y-78001857D01*
X141057333Y-78144714D01*
X141009714Y-78239952D01*
X140962095Y-78287571D01*
X140866857Y-78335190D01*
X140485904Y-78335190D01*
X141390666Y-77811380D02*
X142009714Y-77811380D01*
X141676380Y-78192333D01*
X141819238Y-78192333D01*
X141914476Y-78239952D01*
X141962095Y-78287571D01*
X142009714Y-78382809D01*
X142009714Y-78620904D01*
X141962095Y-78716142D01*
X141914476Y-78763761D01*
X141819238Y-78811380D01*
X141533523Y-78811380D01*
X141438285Y-78763761D01*
X141390666Y-78716142D01*
%TO.C,P4*%
X164869904Y-78811380D02*
X164869904Y-77811380D01*
X165250857Y-77811380D01*
X165346095Y-77859000D01*
X165393714Y-77906619D01*
X165441333Y-78001857D01*
X165441333Y-78144714D01*
X165393714Y-78239952D01*
X165346095Y-78287571D01*
X165250857Y-78335190D01*
X164869904Y-78335190D01*
X166298476Y-78144714D02*
X166298476Y-78811380D01*
X166060380Y-77763761D02*
X165822285Y-78478047D01*
X166441333Y-78478047D01*
%TO.C,J1*%
X171624666Y-91527380D02*
X171624666Y-92241666D01*
X171577047Y-92384523D01*
X171481809Y-92479761D01*
X171338952Y-92527380D01*
X171243714Y-92527380D01*
X172624666Y-92527380D02*
X172053238Y-92527380D01*
X172338952Y-92527380D02*
X172338952Y-91527380D01*
X172243714Y-91670238D01*
X172148476Y-91765476D01*
X172053238Y-91813095D01*
%TO.C,R1*%
X160168833Y-119772780D02*
X159835500Y-119296590D01*
X159597404Y-119772780D02*
X159597404Y-118772780D01*
X159978357Y-118772780D01*
X160073595Y-118820400D01*
X160121214Y-118868019D01*
X160168833Y-118963257D01*
X160168833Y-119106114D01*
X160121214Y-119201352D01*
X160073595Y-119248971D01*
X159978357Y-119296590D01*
X159597404Y-119296590D01*
X161121214Y-119772780D02*
X160549785Y-119772780D01*
X160835500Y-119772780D02*
X160835500Y-118772780D01*
X160740261Y-118915638D01*
X160645023Y-119010876D01*
X160549785Y-119058495D01*
%TO.C,J2*%
X137900980Y-99545733D02*
X138615266Y-99545733D01*
X138758123Y-99593352D01*
X138853361Y-99688590D01*
X138900980Y-99831447D01*
X138900980Y-99926685D01*
X137996219Y-99117161D02*
X137948600Y-99069542D01*
X137900980Y-98974304D01*
X137900980Y-98736209D01*
X137948600Y-98640971D01*
X137996219Y-98593352D01*
X138091457Y-98545733D01*
X138186695Y-98545733D01*
X138329552Y-98593352D01*
X138900980Y-99164780D01*
X138900980Y-98545733D01*
%TO.C,D1*%
X135465704Y-117193580D02*
X135465704Y-116193580D01*
X135703800Y-116193580D01*
X135846657Y-116241200D01*
X135941895Y-116336438D01*
X135989514Y-116431676D01*
X136037133Y-116622152D01*
X136037133Y-116765009D01*
X135989514Y-116955485D01*
X135941895Y-117050723D01*
X135846657Y-117145961D01*
X135703800Y-117193580D01*
X135465704Y-117193580D01*
X136989514Y-117193580D02*
X136418085Y-117193580D01*
X136703800Y-117193580D02*
X136703800Y-116193580D01*
X136608561Y-116336438D01*
X136513323Y-116431676D01*
X136418085Y-116479295D01*
%TD*%
M02*
