M48
; DRILL file {KiCad 5.1.9+dfsg1-1~bpo10+1} date Fri Sep 17 16:08:13 2021
; FORMAT={-:-/ absolute / inch / decimal}
; #@! TF.CreationDate,2021-09-17T16:08:13+02:00
; #@! TF.GenerationSoftware,Kicad,Pcbnew,5.1.9+dfsg1-1~bpo10+1
; #@! TF.FileFunction,Plated,1,2,PTH
FMAT,2
INCH
T1C0.0157
T2C0.0394
T3C0.0400
T4C0.0472
T5C0.1200
%
G90
G05
T1
X5.159Y-3.353
X5.571Y-4.532
X5.8316Y-4.2042
X5.8321Y-4.2479
X5.8447Y-4.1626
X5.846Y-4.2892
X5.87Y-4.127
X5.872Y-4.3243
X5.9051Y-4.101
X5.9076Y-4.3496
X5.94Y-4.088
X5.9492Y-4.3627
X5.984Y-3.094
X5.9929Y-4.3622
X6.0075Y-4.6265
X6.008Y-4.0866
X6.0317Y-4.0997
X6.0343Y-4.3483
X6.0673Y-4.125
X6.0693Y-4.3223
X6.0933Y-4.16
X6.0946Y-4.2867
X6.1072Y-4.2014
X6.1077Y-4.2451
X6.341Y-3.239
T2
X4.52Y-4.025
X4.52Y-4.125
X4.959Y-3.906
X5.059Y-3.906
X5.159Y-3.906
X5.259Y-3.906
X5.359Y-3.906
T3
X5.11Y-2.975
X5.21Y-2.975
X5.31Y-2.975
X5.41Y-2.975
X5.47Y-4.875
X5.51Y-2.975
X5.57Y-4.875
X5.61Y-2.975
X5.67Y-4.875
X5.71Y-2.975
X5.77Y-4.875
X5.81Y-2.975
X5.87Y-4.875
X5.91Y-2.975
X5.97Y-4.875
X6.01Y-2.975
X6.07Y-4.875
X6.17Y-2.975
X6.17Y-4.875
X6.27Y-2.975
X6.37Y-2.975
X6.37Y-4.875
X6.47Y-2.975
X6.47Y-4.875
X6.57Y-2.975
X6.57Y-4.875
X6.67Y-2.975
X6.67Y-4.875
X6.77Y-2.975
X6.77Y-4.875
X6.87Y-2.975
X6.87Y-4.875
T4
X6.87Y-3.8116
X6.87Y-3.9494
X6.87Y-4.0872
X6.87Y-4.225
X6.87Y-4.3628
T5
X4.92Y-4.875
X4.97Y-2.975
X6.97Y-3.575
X6.97Y-4.675
T2
G00X4.7518Y-4.4376
M15
G01X4.7518Y-4.5164
M16
G05
G00X4.8305Y-4.662
M15
G01X4.9093Y-4.662
M16
G05
G00X4.988Y-4.4376
M15
G01X4.988Y-4.5164
M16
G05
T0
M30
