%TF.GenerationSoftware,KiCad,Pcbnew,5.1.9+dfsg1-1*%
%TF.CreationDate,2022-01-11T16:25:16+01:00*%
%TF.ProjectId,wheather_board_v1 ,77686561-7468-4657-925f-626f6172645f,rev?*%
%TF.SameCoordinates,Original*%
%TF.FileFunction,Legend,Top*%
%TF.FilePolarity,Positive*%
%FSLAX46Y46*%
G04 Gerber Fmt 4.6, Leading zero omitted, Abs format (unit mm)*
G04 Created by KiCad (PCBNEW 5.1.9+dfsg1-1) date 2022-01-11 16:25:16*
%MOMM*%
%LPD*%
G01*
G04 APERTURE LIST*
%ADD10C,0.150000*%
%ADD11C,0.300000*%
%ADD12C,0.120000*%
%ADD13C,0.010000*%
G04 APERTURE END LIST*
D10*
X139581142Y-101798380D02*
X139581142Y-100798380D01*
X140152571Y-101798380D01*
X140152571Y-100798380D01*
X141200190Y-101798380D02*
X140866857Y-101322190D01*
X140628761Y-101798380D02*
X140628761Y-100798380D01*
X141009714Y-100798380D01*
X141104952Y-100846000D01*
X141152571Y-100893619D01*
X141200190Y-100988857D01*
X141200190Y-101131714D01*
X141152571Y-101226952D01*
X141104952Y-101274571D01*
X141009714Y-101322190D01*
X140628761Y-101322190D01*
X141581142Y-101750761D02*
X141724000Y-101798380D01*
X141962095Y-101798380D01*
X142057333Y-101750761D01*
X142104952Y-101703142D01*
X142152571Y-101607904D01*
X142152571Y-101512666D01*
X142104952Y-101417428D01*
X142057333Y-101369809D01*
X141962095Y-101322190D01*
X141771619Y-101274571D01*
X141676380Y-101226952D01*
X141628761Y-101179333D01*
X141581142Y-101084095D01*
X141581142Y-100988857D01*
X141628761Y-100893619D01*
X141676380Y-100846000D01*
X141771619Y-100798380D01*
X142009714Y-100798380D01*
X142152571Y-100846000D01*
X142438285Y-100798380D02*
X143009714Y-100798380D01*
X142724000Y-101798380D02*
X142724000Y-100798380D01*
X140097047Y-98956761D02*
X140239904Y-99004380D01*
X140478000Y-99004380D01*
X140573238Y-98956761D01*
X140620857Y-98909142D01*
X140668476Y-98813904D01*
X140668476Y-98718666D01*
X140620857Y-98623428D01*
X140573238Y-98575809D01*
X140478000Y-98528190D01*
X140287523Y-98480571D01*
X140192285Y-98432952D01*
X140144666Y-98385333D01*
X140097047Y-98290095D01*
X140097047Y-98194857D01*
X140144666Y-98099619D01*
X140192285Y-98052000D01*
X140287523Y-98004380D01*
X140525619Y-98004380D01*
X140668476Y-98052000D01*
X141001809Y-98004380D02*
X141239904Y-99004380D01*
X141430380Y-98290095D01*
X141620857Y-99004380D01*
X141858952Y-98004380D01*
X142430380Y-98004380D02*
X142620857Y-98004380D01*
X142716095Y-98052000D01*
X142811333Y-98147238D01*
X142858952Y-98337714D01*
X142858952Y-98671047D01*
X142811333Y-98861523D01*
X142716095Y-98956761D01*
X142620857Y-99004380D01*
X142430380Y-99004380D01*
X142335142Y-98956761D01*
X142239904Y-98861523D01*
X142192285Y-98671047D01*
X142192285Y-98337714D01*
X142239904Y-98147238D01*
X142335142Y-98052000D01*
X142430380Y-98004380D01*
X137446095Y-96670761D02*
X137588952Y-96718380D01*
X137827047Y-96718380D01*
X137922285Y-96670761D01*
X137969904Y-96623142D01*
X138017523Y-96527904D01*
X138017523Y-96432666D01*
X137969904Y-96337428D01*
X137922285Y-96289809D01*
X137827047Y-96242190D01*
X137636571Y-96194571D01*
X137541333Y-96146952D01*
X137493714Y-96099333D01*
X137446095Y-96004095D01*
X137446095Y-95908857D01*
X137493714Y-95813619D01*
X137541333Y-95766000D01*
X137636571Y-95718380D01*
X137874666Y-95718380D01*
X138017523Y-95766000D01*
X138350857Y-95718380D02*
X138588952Y-96718380D01*
X138779428Y-96004095D01*
X138969904Y-96718380D01*
X139208000Y-95718380D01*
X139588952Y-96718380D02*
X139588952Y-95718380D01*
X139827047Y-95718380D01*
X139969904Y-95766000D01*
X140065142Y-95861238D01*
X140112761Y-95956476D01*
X140160380Y-96146952D01*
X140160380Y-96289809D01*
X140112761Y-96480285D01*
X140065142Y-96575523D01*
X139969904Y-96670761D01*
X139827047Y-96718380D01*
X139588952Y-96718380D01*
X141160380Y-96623142D02*
X141112761Y-96670761D01*
X140969904Y-96718380D01*
X140874666Y-96718380D01*
X140731809Y-96670761D01*
X140636571Y-96575523D01*
X140588952Y-96480285D01*
X140541333Y-96289809D01*
X140541333Y-96146952D01*
X140588952Y-95956476D01*
X140636571Y-95861238D01*
X140731809Y-95766000D01*
X140874666Y-95718380D01*
X140969904Y-95718380D01*
X141112761Y-95766000D01*
X141160380Y-95813619D01*
X142065142Y-96718380D02*
X141588952Y-96718380D01*
X141588952Y-95718380D01*
X142398476Y-96718380D02*
X142398476Y-95718380D01*
X142969904Y-96718380D02*
X142541333Y-96146952D01*
X142969904Y-95718380D02*
X142398476Y-96289809D01*
X140970095Y-93226000D02*
X140874857Y-93178380D01*
X140732000Y-93178380D01*
X140589142Y-93226000D01*
X140493904Y-93321238D01*
X140446285Y-93416476D01*
X140398666Y-93606952D01*
X140398666Y-93749809D01*
X140446285Y-93940285D01*
X140493904Y-94035523D01*
X140589142Y-94130761D01*
X140732000Y-94178380D01*
X140827238Y-94178380D01*
X140970095Y-94130761D01*
X141017714Y-94083142D01*
X141017714Y-93749809D01*
X140827238Y-93749809D01*
X141446285Y-94178380D02*
X141446285Y-93178380D01*
X142017714Y-94178380D01*
X142017714Y-93178380D01*
X142493904Y-94178380D02*
X142493904Y-93178380D01*
X142732000Y-93178380D01*
X142874857Y-93226000D01*
X142970095Y-93321238D01*
X143017714Y-93416476D01*
X143065333Y-93606952D01*
X143065333Y-93749809D01*
X143017714Y-93940285D01*
X142970095Y-94035523D01*
X142874857Y-94130761D01*
X142732000Y-94178380D01*
X142493904Y-94178380D01*
X138850952Y-91336761D02*
X138993809Y-91384380D01*
X139231904Y-91384380D01*
X139327142Y-91336761D01*
X139374761Y-91289142D01*
X139422380Y-91193904D01*
X139422380Y-91098666D01*
X139374761Y-91003428D01*
X139327142Y-90955809D01*
X139231904Y-90908190D01*
X139041428Y-90860571D01*
X138946190Y-90812952D01*
X138898571Y-90765333D01*
X138850952Y-90670095D01*
X138850952Y-90574857D01*
X138898571Y-90479619D01*
X138946190Y-90432000D01*
X139041428Y-90384380D01*
X139279523Y-90384380D01*
X139422380Y-90432000D01*
X139755714Y-90384380D02*
X139993809Y-91384380D01*
X140184285Y-90670095D01*
X140374761Y-91384380D01*
X140612857Y-90384380D01*
X140993809Y-91384380D02*
X140993809Y-90384380D01*
X141231904Y-90384380D01*
X141374761Y-90432000D01*
X141470000Y-90527238D01*
X141517619Y-90622476D01*
X141565238Y-90812952D01*
X141565238Y-90955809D01*
X141517619Y-91146285D01*
X141470000Y-91241523D01*
X141374761Y-91336761D01*
X141231904Y-91384380D01*
X140993809Y-91384380D01*
X141993809Y-91384380D02*
X141993809Y-90384380D01*
X142660476Y-90384380D02*
X142850952Y-90384380D01*
X142946190Y-90432000D01*
X143041428Y-90527238D01*
X143089047Y-90717714D01*
X143089047Y-91051047D01*
X143041428Y-91241523D01*
X142946190Y-91336761D01*
X142850952Y-91384380D01*
X142660476Y-91384380D01*
X142565238Y-91336761D01*
X142470000Y-91241523D01*
X142422380Y-91051047D01*
X142422380Y-90717714D01*
X142470000Y-90527238D01*
X142565238Y-90432000D01*
X142660476Y-90384380D01*
X140747904Y-87844380D02*
X141366952Y-87844380D01*
X141033619Y-88225333D01*
X141176476Y-88225333D01*
X141271714Y-88272952D01*
X141319333Y-88320571D01*
X141366952Y-88415809D01*
X141366952Y-88653904D01*
X141319333Y-88749142D01*
X141271714Y-88796761D01*
X141176476Y-88844380D01*
X140890761Y-88844380D01*
X140795523Y-88796761D01*
X140747904Y-88749142D01*
X141652666Y-87844380D02*
X141986000Y-88844380D01*
X142319333Y-87844380D01*
X142557428Y-87844380D02*
X143176476Y-87844380D01*
X142843142Y-88225333D01*
X142986000Y-88225333D01*
X143081238Y-88272952D01*
X143128857Y-88320571D01*
X143176476Y-88415809D01*
X143176476Y-88653904D01*
X143128857Y-88749142D01*
X143081238Y-88796761D01*
X142986000Y-88844380D01*
X142700285Y-88844380D01*
X142605047Y-88796761D01*
X142557428Y-88749142D01*
X184158000Y-79247904D02*
X184110380Y-79343142D01*
X184110380Y-79486000D01*
X184158000Y-79628857D01*
X184253238Y-79724095D01*
X184348476Y-79771714D01*
X184538952Y-79819333D01*
X184681809Y-79819333D01*
X184872285Y-79771714D01*
X184967523Y-79724095D01*
X185062761Y-79628857D01*
X185110380Y-79486000D01*
X185110380Y-79390761D01*
X185062761Y-79247904D01*
X185015142Y-79200285D01*
X184681809Y-79200285D01*
X184681809Y-79390761D01*
X185110380Y-78771714D02*
X184110380Y-78771714D01*
X185110380Y-78200285D01*
X184110380Y-78200285D01*
X185110380Y-77724095D02*
X184110380Y-77724095D01*
X184110380Y-77486000D01*
X184158000Y-77343142D01*
X184253238Y-77247904D01*
X184348476Y-77200285D01*
X184538952Y-77152666D01*
X184681809Y-77152666D01*
X184872285Y-77200285D01*
X184967523Y-77247904D01*
X185062761Y-77343142D01*
X185110380Y-77486000D01*
X185110380Y-77724095D01*
X182570380Y-79160666D02*
X182094190Y-79494000D01*
X182570380Y-79732095D02*
X181570380Y-79732095D01*
X181570380Y-79351142D01*
X181618000Y-79255904D01*
X181665619Y-79208285D01*
X181760857Y-79160666D01*
X181903714Y-79160666D01*
X181998952Y-79208285D01*
X182046571Y-79255904D01*
X182094190Y-79351142D01*
X182094190Y-79732095D01*
X181570380Y-78827333D02*
X182570380Y-78160666D01*
X181570380Y-78160666D02*
X182570380Y-78827333D01*
X179030380Y-79755904D02*
X179030380Y-79184476D01*
X180030380Y-79470190D02*
X179030380Y-79470190D01*
X179030380Y-78946380D02*
X180030380Y-78279714D01*
X179030380Y-78279714D02*
X180030380Y-78946380D01*
X176490380Y-79724095D02*
X176490380Y-79105047D01*
X176871333Y-79438380D01*
X176871333Y-79295523D01*
X176918952Y-79200285D01*
X176966571Y-79152666D01*
X177061809Y-79105047D01*
X177299904Y-79105047D01*
X177395142Y-79152666D01*
X177442761Y-79200285D01*
X177490380Y-79295523D01*
X177490380Y-79581238D01*
X177442761Y-79676476D01*
X177395142Y-79724095D01*
X176490380Y-78819333D02*
X177490380Y-78486000D01*
X176490380Y-78152666D01*
X176490380Y-77914571D02*
X176490380Y-77295523D01*
X176871333Y-77628857D01*
X176871333Y-77486000D01*
X176918952Y-77390761D01*
X176966571Y-77343142D01*
X177061809Y-77295523D01*
X177299904Y-77295523D01*
X177395142Y-77343142D01*
X177442761Y-77390761D01*
X177490380Y-77486000D01*
X177490380Y-77771714D01*
X177442761Y-77866952D01*
X177395142Y-77914571D01*
X178776380Y-120078476D02*
X178776380Y-120554666D01*
X179252571Y-120602285D01*
X179204952Y-120554666D01*
X179157333Y-120459428D01*
X179157333Y-120221333D01*
X179204952Y-120126095D01*
X179252571Y-120078476D01*
X179347809Y-120030857D01*
X179585904Y-120030857D01*
X179681142Y-120078476D01*
X179728761Y-120126095D01*
X179776380Y-120221333D01*
X179776380Y-120459428D01*
X179728761Y-120554666D01*
X179681142Y-120602285D01*
X178776380Y-119745142D02*
X179776380Y-119411809D01*
X178776380Y-119078476D01*
X176236380Y-121380095D02*
X176236380Y-120761047D01*
X176617333Y-121094380D01*
X176617333Y-120951523D01*
X176664952Y-120856285D01*
X176712571Y-120808666D01*
X176807809Y-120761047D01*
X177045904Y-120761047D01*
X177141142Y-120808666D01*
X177188761Y-120856285D01*
X177236380Y-120951523D01*
X177236380Y-121237238D01*
X177188761Y-121332476D01*
X177141142Y-121380095D01*
X176236380Y-120475333D02*
X177236380Y-120142000D01*
X176236380Y-119808666D01*
X176236380Y-119570571D02*
X176236380Y-118951523D01*
X176617333Y-119284857D01*
X176617333Y-119142000D01*
X176664952Y-119046761D01*
X176712571Y-118999142D01*
X176807809Y-118951523D01*
X177045904Y-118951523D01*
X177141142Y-118999142D01*
X177188761Y-119046761D01*
X177236380Y-119142000D01*
X177236380Y-119427714D01*
X177188761Y-119522952D01*
X177141142Y-119570571D01*
X174394761Y-121356285D02*
X174442380Y-121213428D01*
X174442380Y-120975333D01*
X174394761Y-120880095D01*
X174347142Y-120832476D01*
X174251904Y-120784857D01*
X174156666Y-120784857D01*
X174061428Y-120832476D01*
X174013809Y-120880095D01*
X173966190Y-120975333D01*
X173918571Y-121165809D01*
X173870952Y-121261047D01*
X173823333Y-121308666D01*
X173728095Y-121356285D01*
X173632857Y-121356285D01*
X173537619Y-121308666D01*
X173490000Y-121261047D01*
X173442380Y-121165809D01*
X173442380Y-120927714D01*
X173490000Y-120784857D01*
X174442380Y-120356285D02*
X173442380Y-120356285D01*
X173442380Y-120118190D01*
X173490000Y-119975333D01*
X173585238Y-119880095D01*
X173680476Y-119832476D01*
X173870952Y-119784857D01*
X174013809Y-119784857D01*
X174204285Y-119832476D01*
X174299523Y-119880095D01*
X174394761Y-119975333D01*
X174442380Y-120118190D01*
X174442380Y-120356285D01*
X174156666Y-119403904D02*
X174156666Y-118927714D01*
X174442380Y-119499142D02*
X173442380Y-119165809D01*
X174442380Y-118832476D01*
X171854761Y-121332476D02*
X171902380Y-121189619D01*
X171902380Y-120951523D01*
X171854761Y-120856285D01*
X171807142Y-120808666D01*
X171711904Y-120761047D01*
X171616666Y-120761047D01*
X171521428Y-120808666D01*
X171473809Y-120856285D01*
X171426190Y-120951523D01*
X171378571Y-121142000D01*
X171330952Y-121237238D01*
X171283333Y-121284857D01*
X171188095Y-121332476D01*
X171092857Y-121332476D01*
X170997619Y-121284857D01*
X170950000Y-121237238D01*
X170902380Y-121142000D01*
X170902380Y-120903904D01*
X170950000Y-120761047D01*
X171807142Y-119761047D02*
X171854761Y-119808666D01*
X171902380Y-119951523D01*
X171902380Y-120046761D01*
X171854761Y-120189619D01*
X171759523Y-120284857D01*
X171664285Y-120332476D01*
X171473809Y-120380095D01*
X171330952Y-120380095D01*
X171140476Y-120332476D01*
X171045238Y-120284857D01*
X170950000Y-120189619D01*
X170902380Y-120046761D01*
X170902380Y-119951523D01*
X170950000Y-119808666D01*
X170997619Y-119761047D01*
X171902380Y-118856285D02*
X171902380Y-119332476D01*
X170902380Y-119332476D01*
X168156000Y-120903904D02*
X168108380Y-120999142D01*
X168108380Y-121142000D01*
X168156000Y-121284857D01*
X168251238Y-121380095D01*
X168346476Y-121427714D01*
X168536952Y-121475333D01*
X168679809Y-121475333D01*
X168870285Y-121427714D01*
X168965523Y-121380095D01*
X169060761Y-121284857D01*
X169108380Y-121142000D01*
X169108380Y-121046761D01*
X169060761Y-120903904D01*
X169013142Y-120856285D01*
X168679809Y-120856285D01*
X168679809Y-121046761D01*
X169108380Y-120427714D02*
X168108380Y-120427714D01*
X169108380Y-119856285D01*
X168108380Y-119856285D01*
X169108380Y-119380095D02*
X168108380Y-119380095D01*
X168108380Y-119142000D01*
X168156000Y-118999142D01*
X168251238Y-118903904D01*
X168346476Y-118856285D01*
X168536952Y-118808666D01*
X168679809Y-118808666D01*
X168870285Y-118856285D01*
X168965523Y-118903904D01*
X169060761Y-118999142D01*
X169108380Y-119142000D01*
X169108380Y-119380095D01*
X153170000Y-122094476D02*
X153122380Y-122189714D01*
X153122380Y-122332571D01*
X153170000Y-122475428D01*
X153265238Y-122570666D01*
X153360476Y-122618285D01*
X153550952Y-122665904D01*
X153693809Y-122665904D01*
X153884285Y-122618285D01*
X153979523Y-122570666D01*
X154074761Y-122475428D01*
X154122380Y-122332571D01*
X154122380Y-122237333D01*
X154074761Y-122094476D01*
X154027142Y-122046857D01*
X153693809Y-122046857D01*
X153693809Y-122237333D01*
X154122380Y-121618285D02*
X153122380Y-121618285D01*
X154122380Y-121046857D01*
X153122380Y-121046857D01*
X154122380Y-120570666D02*
X153122380Y-120570666D01*
X153122380Y-120332571D01*
X153170000Y-120189714D01*
X153265238Y-120094476D01*
X153360476Y-120046857D01*
X153550952Y-119999238D01*
X153693809Y-119999238D01*
X153884285Y-120046857D01*
X153979523Y-120094476D01*
X154074761Y-120189714D01*
X154122380Y-120332571D01*
X154122380Y-120570666D01*
X153836666Y-119618285D02*
X153836666Y-119142095D01*
X154122380Y-119713523D02*
X153122380Y-119380190D01*
X154122380Y-119046857D01*
X151042666Y-125412095D02*
X151042666Y-124935904D01*
X151328380Y-125507333D02*
X150328380Y-125174000D01*
X151328380Y-124840666D01*
X151328380Y-124507333D02*
X150328380Y-124507333D01*
X150328380Y-124269238D01*
X150376000Y-124126380D01*
X150471238Y-124031142D01*
X150566476Y-123983523D01*
X150756952Y-123935904D01*
X150899809Y-123935904D01*
X151090285Y-123983523D01*
X151185523Y-124031142D01*
X151280761Y-124126380D01*
X151328380Y-124269238D01*
X151328380Y-124507333D01*
X151233142Y-122935904D02*
X151280761Y-122983523D01*
X151328380Y-123126380D01*
X151328380Y-123221619D01*
X151280761Y-123364476D01*
X151185523Y-123459714D01*
X151090285Y-123507333D01*
X150899809Y-123554952D01*
X150756952Y-123554952D01*
X150566476Y-123507333D01*
X150471238Y-123459714D01*
X150376000Y-123364476D01*
X150328380Y-123221619D01*
X150328380Y-123126380D01*
X150376000Y-122983523D01*
X150423619Y-122935904D01*
X151423619Y-122745428D02*
X151423619Y-121983523D01*
X151328380Y-121745428D02*
X150328380Y-121745428D01*
X150804571Y-121745428D02*
X150804571Y-121174000D01*
X151328380Y-121174000D02*
X150328380Y-121174000D01*
X150328380Y-120697809D02*
X151137904Y-120697809D01*
X151233142Y-120650190D01*
X151280761Y-120602571D01*
X151328380Y-120507333D01*
X151328380Y-120316857D01*
X151280761Y-120221619D01*
X151233142Y-120174000D01*
X151137904Y-120126380D01*
X150328380Y-120126380D01*
X151328380Y-119650190D02*
X150328380Y-119650190D01*
X151042666Y-119316857D01*
X150328380Y-118983523D01*
X151328380Y-118983523D01*
X148090000Y-122094476D02*
X148042380Y-122189714D01*
X148042380Y-122332571D01*
X148090000Y-122475428D01*
X148185238Y-122570666D01*
X148280476Y-122618285D01*
X148470952Y-122665904D01*
X148613809Y-122665904D01*
X148804285Y-122618285D01*
X148899523Y-122570666D01*
X148994761Y-122475428D01*
X149042380Y-122332571D01*
X149042380Y-122237333D01*
X148994761Y-122094476D01*
X148947142Y-122046857D01*
X148613809Y-122046857D01*
X148613809Y-122237333D01*
X149042380Y-121618285D02*
X148042380Y-121618285D01*
X149042380Y-121046857D01*
X148042380Y-121046857D01*
X149042380Y-120570666D02*
X148042380Y-120570666D01*
X148042380Y-120332571D01*
X148090000Y-120189714D01*
X148185238Y-120094476D01*
X148280476Y-120046857D01*
X148470952Y-119999238D01*
X148613809Y-119999238D01*
X148804285Y-120046857D01*
X148899523Y-120094476D01*
X148994761Y-120189714D01*
X149042380Y-120332571D01*
X149042380Y-120570666D01*
X148756666Y-119618285D02*
X148756666Y-119142095D01*
X149042380Y-119713523D02*
X148042380Y-119380190D01*
X149042380Y-119046857D01*
X145962666Y-125951809D02*
X145962666Y-125475619D01*
X146248380Y-126047047D02*
X145248380Y-125713714D01*
X146248380Y-125380380D01*
X146248380Y-125047047D02*
X145248380Y-125047047D01*
X145248380Y-124808952D01*
X145296000Y-124666095D01*
X145391238Y-124570857D01*
X145486476Y-124523238D01*
X145676952Y-124475619D01*
X145819809Y-124475619D01*
X146010285Y-124523238D01*
X146105523Y-124570857D01*
X146200761Y-124666095D01*
X146248380Y-124808952D01*
X146248380Y-125047047D01*
X146153142Y-123475619D02*
X146200761Y-123523238D01*
X146248380Y-123666095D01*
X146248380Y-123761333D01*
X146200761Y-123904190D01*
X146105523Y-123999428D01*
X146010285Y-124047047D01*
X145819809Y-124094666D01*
X145676952Y-124094666D01*
X145486476Y-124047047D01*
X145391238Y-123999428D01*
X145296000Y-123904190D01*
X145248380Y-123761333D01*
X145248380Y-123666095D01*
X145296000Y-123523238D01*
X145343619Y-123475619D01*
X146343619Y-123285142D02*
X146343619Y-122523238D01*
X145248380Y-122428000D02*
X145248380Y-121856571D01*
X146248380Y-122142285D02*
X145248380Y-122142285D01*
X145724571Y-121523238D02*
X145724571Y-121189904D01*
X146248380Y-121047047D02*
X146248380Y-121523238D01*
X145248380Y-121523238D01*
X145248380Y-121047047D01*
X146248380Y-120618476D02*
X145248380Y-120618476D01*
X145962666Y-120285142D01*
X145248380Y-119951809D01*
X146248380Y-119951809D01*
X146248380Y-119475619D02*
X145248380Y-119475619D01*
X145248380Y-119094666D01*
X145296000Y-118999428D01*
X145343619Y-118951809D01*
X145438857Y-118904190D01*
X145581714Y-118904190D01*
X145676952Y-118951809D01*
X145724571Y-118999428D01*
X145772190Y-119094666D01*
X145772190Y-119475619D01*
X143073428Y-122618285D02*
X143073428Y-121856380D01*
X143454380Y-122237333D02*
X142692476Y-122237333D01*
X142454380Y-120904000D02*
X142454380Y-121380190D01*
X142930571Y-121427809D01*
X142882952Y-121380190D01*
X142835333Y-121284952D01*
X142835333Y-121046857D01*
X142882952Y-120951619D01*
X142930571Y-120904000D01*
X143025809Y-120856380D01*
X143263904Y-120856380D01*
X143359142Y-120904000D01*
X143406761Y-120951619D01*
X143454380Y-121046857D01*
X143454380Y-121284952D01*
X143406761Y-121380190D01*
X143359142Y-121427809D01*
X142454380Y-120570666D02*
X143454380Y-120237333D01*
X142454380Y-119904000D01*
X143168666Y-119618285D02*
X143168666Y-119142095D01*
X143454380Y-119713523D02*
X142454380Y-119380190D01*
X143454380Y-119046857D01*
X154725809Y-112466380D02*
X154725809Y-111466380D01*
X155154380Y-111561619D02*
X155202000Y-111514000D01*
X155297238Y-111466380D01*
X155535333Y-111466380D01*
X155630571Y-111514000D01*
X155678190Y-111561619D01*
X155725809Y-111656857D01*
X155725809Y-111752095D01*
X155678190Y-111894952D01*
X155106761Y-112466380D01*
X155725809Y-112466380D01*
X156725809Y-112371142D02*
X156678190Y-112418761D01*
X156535333Y-112466380D01*
X156440095Y-112466380D01*
X156297238Y-112418761D01*
X156202000Y-112323523D01*
X156154380Y-112228285D01*
X156106761Y-112037809D01*
X156106761Y-111894952D01*
X156154380Y-111704476D01*
X156202000Y-111609238D01*
X156297238Y-111514000D01*
X156440095Y-111466380D01*
X156535333Y-111466380D01*
X156678190Y-111514000D01*
X156725809Y-111561619D01*
X148875904Y-112180666D02*
X149352095Y-112180666D01*
X148780666Y-112466380D02*
X149114000Y-111466380D01*
X149447333Y-112466380D01*
X149780666Y-112466380D02*
X149780666Y-111466380D01*
X150018761Y-111466380D01*
X150161619Y-111514000D01*
X150256857Y-111609238D01*
X150304476Y-111704476D01*
X150352095Y-111894952D01*
X150352095Y-112037809D01*
X150304476Y-112228285D01*
X150256857Y-112323523D01*
X150161619Y-112418761D01*
X150018761Y-112466380D01*
X149780666Y-112466380D01*
X151352095Y-112371142D02*
X151304476Y-112418761D01*
X151161619Y-112466380D01*
X151066380Y-112466380D01*
X150923523Y-112418761D01*
X150828285Y-112323523D01*
X150780666Y-112228285D01*
X150733047Y-112037809D01*
X150733047Y-111894952D01*
X150780666Y-111704476D01*
X150828285Y-111609238D01*
X150923523Y-111514000D01*
X151066380Y-111466380D01*
X151161619Y-111466380D01*
X151304476Y-111514000D01*
X151352095Y-111561619D01*
X95075523Y-107386380D02*
X94742190Y-106910190D01*
X94504095Y-107386380D02*
X94504095Y-106386380D01*
X94885047Y-106386380D01*
X94980285Y-106434000D01*
X95027904Y-106481619D01*
X95075523Y-106576857D01*
X95075523Y-106719714D01*
X95027904Y-106814952D01*
X94980285Y-106862571D01*
X94885047Y-106910190D01*
X94504095Y-106910190D01*
X95504095Y-106862571D02*
X95837428Y-106862571D01*
X95980285Y-107386380D02*
X95504095Y-107386380D01*
X95504095Y-106386380D01*
X95980285Y-106386380D01*
X96742190Y-106862571D02*
X96408857Y-106862571D01*
X96408857Y-107386380D02*
X96408857Y-106386380D01*
X96885047Y-106386380D01*
X97266000Y-107005428D02*
X98027904Y-107005428D01*
X95075523Y-104846380D02*
X94742190Y-104370190D01*
X94504095Y-104846380D02*
X94504095Y-103846380D01*
X94885047Y-103846380D01*
X94980285Y-103894000D01*
X95027904Y-103941619D01*
X95075523Y-104036857D01*
X95075523Y-104179714D01*
X95027904Y-104274952D01*
X94980285Y-104322571D01*
X94885047Y-104370190D01*
X94504095Y-104370190D01*
X95504095Y-104322571D02*
X95837428Y-104322571D01*
X95980285Y-104846380D02*
X95504095Y-104846380D01*
X95504095Y-103846380D01*
X95980285Y-103846380D01*
X96742190Y-104322571D02*
X96408857Y-104322571D01*
X96408857Y-104846380D02*
X96408857Y-103846380D01*
X96885047Y-103846380D01*
X97266000Y-104465428D02*
X98027904Y-104465428D01*
X97646952Y-104846380D02*
X97646952Y-104084476D01*
X94646952Y-102020666D02*
X95123142Y-102020666D01*
X94551714Y-102306380D02*
X94885047Y-101306380D01*
X95218380Y-102306380D01*
X95551714Y-102306380D02*
X95551714Y-101306380D01*
X96027904Y-102306380D02*
X96027904Y-101306380D01*
X96599333Y-102306380D01*
X96599333Y-101306380D01*
X97075523Y-101925428D02*
X97837428Y-101925428D01*
X94646952Y-99480666D02*
X95123142Y-99480666D01*
X94551714Y-99766380D02*
X94885047Y-98766380D01*
X95218380Y-99766380D01*
X95551714Y-99766380D02*
X95551714Y-98766380D01*
X96027904Y-99766380D02*
X96027904Y-98766380D01*
X96599333Y-99766380D01*
X96599333Y-98766380D01*
X97075523Y-99385428D02*
X97837428Y-99385428D01*
X97456476Y-99766380D02*
X97456476Y-99004476D01*
X94297714Y-94305428D02*
X95059619Y-94305428D01*
X94678666Y-94686380D02*
X94678666Y-93924476D01*
X96012000Y-93686380D02*
X95535809Y-93686380D01*
X95488190Y-94162571D01*
X95535809Y-94114952D01*
X95631047Y-94067333D01*
X95869142Y-94067333D01*
X95964380Y-94114952D01*
X96012000Y-94162571D01*
X96059619Y-94257809D01*
X96059619Y-94495904D01*
X96012000Y-94591142D01*
X95964380Y-94638761D01*
X95869142Y-94686380D01*
X95631047Y-94686380D01*
X95535809Y-94638761D01*
X95488190Y-94591142D01*
X96345333Y-93686380D02*
X96678666Y-94686380D01*
X97012000Y-93686380D01*
X97297714Y-94400666D02*
X97773904Y-94400666D01*
X97202476Y-94686380D02*
X97535809Y-93686380D01*
X97869142Y-94686380D01*
X95075523Y-96528000D02*
X94980285Y-96480380D01*
X94837428Y-96480380D01*
X94694571Y-96528000D01*
X94599333Y-96623238D01*
X94551714Y-96718476D01*
X94504095Y-96908952D01*
X94504095Y-97051809D01*
X94551714Y-97242285D01*
X94599333Y-97337523D01*
X94694571Y-97432761D01*
X94837428Y-97480380D01*
X94932666Y-97480380D01*
X95075523Y-97432761D01*
X95123142Y-97385142D01*
X95123142Y-97051809D01*
X94932666Y-97051809D01*
X95551714Y-97480380D02*
X95551714Y-96480380D01*
X96123142Y-97480380D01*
X96123142Y-96480380D01*
X96599333Y-97480380D02*
X96599333Y-96480380D01*
X96837428Y-96480380D01*
X96980285Y-96528000D01*
X97075523Y-96623238D01*
X97123142Y-96718476D01*
X97170761Y-96908952D01*
X97170761Y-97051809D01*
X97123142Y-97242285D01*
X97075523Y-97337523D01*
X96980285Y-97432761D01*
X96837428Y-97480380D01*
X96599333Y-97480380D01*
X97551714Y-97194666D02*
X98027904Y-97194666D01*
X97456476Y-97480380D02*
X97789809Y-96480380D01*
X98123142Y-97480380D01*
D11*
X112905828Y-123843171D02*
X112905828Y-122343171D01*
X113405828Y-123414600D01*
X113905828Y-122343171D01*
X113905828Y-123843171D01*
X114620114Y-123843171D02*
X114620114Y-122343171D01*
X114977257Y-122343171D01*
X115191542Y-122414600D01*
X115334400Y-122557457D01*
X115405828Y-122700314D01*
X115477257Y-122986028D01*
X115477257Y-123200314D01*
X115405828Y-123486028D01*
X115334400Y-123628885D01*
X115191542Y-123771742D01*
X114977257Y-123843171D01*
X114620114Y-123843171D01*
X116905828Y-123843171D02*
X116048685Y-123843171D01*
X116477257Y-123843171D02*
X116477257Y-122343171D01*
X116334400Y-122557457D01*
X116191542Y-122700314D01*
X116048685Y-122771742D01*
X117834400Y-122343171D02*
X117977257Y-122343171D01*
X118120114Y-122414600D01*
X118191542Y-122486028D01*
X118262971Y-122628885D01*
X118334400Y-122914600D01*
X118334400Y-123271742D01*
X118262971Y-123557457D01*
X118191542Y-123700314D01*
X118120114Y-123771742D01*
X117977257Y-123843171D01*
X117834400Y-123843171D01*
X117691542Y-123771742D01*
X117620114Y-123700314D01*
X117548685Y-123557457D01*
X117477257Y-123271742D01*
X117477257Y-122914600D01*
X117548685Y-122628885D01*
X117620114Y-122486028D01*
X117691542Y-122414600D01*
X117834400Y-122343171D01*
X120620114Y-123057457D02*
X120834400Y-123128885D01*
X120905828Y-123200314D01*
X120977257Y-123343171D01*
X120977257Y-123557457D01*
X120905828Y-123700314D01*
X120834400Y-123771742D01*
X120691542Y-123843171D01*
X120120114Y-123843171D01*
X120120114Y-122343171D01*
X120620114Y-122343171D01*
X120762971Y-122414600D01*
X120834400Y-122486028D01*
X120905828Y-122628885D01*
X120905828Y-122771742D01*
X120834400Y-122914600D01*
X120762971Y-122986028D01*
X120620114Y-123057457D01*
X120120114Y-123057457D01*
X121905828Y-122343171D02*
X122191542Y-122343171D01*
X122334400Y-122414600D01*
X122477257Y-122557457D01*
X122548685Y-122843171D01*
X122548685Y-123343171D01*
X122477257Y-123628885D01*
X122334400Y-123771742D01*
X122191542Y-123843171D01*
X121905828Y-123843171D01*
X121762971Y-123771742D01*
X121620114Y-123628885D01*
X121548685Y-123343171D01*
X121548685Y-122843171D01*
X121620114Y-122557457D01*
X121762971Y-122414600D01*
X121905828Y-122343171D01*
X123120114Y-123414600D02*
X123834400Y-123414600D01*
X122977257Y-123843171D02*
X123477257Y-122343171D01*
X123977257Y-123843171D01*
X125334400Y-123843171D02*
X124834400Y-123128885D01*
X124477257Y-123843171D02*
X124477257Y-122343171D01*
X125048685Y-122343171D01*
X125191542Y-122414600D01*
X125262971Y-122486028D01*
X125334400Y-122628885D01*
X125334400Y-122843171D01*
X125262971Y-122986028D01*
X125191542Y-123057457D01*
X125048685Y-123128885D01*
X124477257Y-123128885D01*
X125977257Y-123843171D02*
X125977257Y-122343171D01*
X126334400Y-122343171D01*
X126548685Y-122414600D01*
X126691542Y-122557457D01*
X126762971Y-122700314D01*
X126834400Y-122986028D01*
X126834400Y-123200314D01*
X126762971Y-123486028D01*
X126691542Y-123628885D01*
X126548685Y-123771742D01*
X126334400Y-123843171D01*
X125977257Y-123843171D01*
X128405828Y-122343171D02*
X128905828Y-123843171D01*
X129405828Y-122343171D01*
X130691542Y-123843171D02*
X129834400Y-123843171D01*
X130262971Y-123843171D02*
X130262971Y-122343171D01*
X130120114Y-122557457D01*
X129977257Y-122700314D01*
X129834400Y-122771742D01*
X131334400Y-123700314D02*
X131405828Y-123771742D01*
X131334400Y-123843171D01*
X131262971Y-123771742D01*
X131334400Y-123700314D01*
X131334400Y-123843171D01*
X132334400Y-122343171D02*
X132477257Y-122343171D01*
X132620114Y-122414600D01*
X132691542Y-122486028D01*
X132762971Y-122628885D01*
X132834400Y-122914600D01*
X132834400Y-123271742D01*
X132762971Y-123557457D01*
X132691542Y-123700314D01*
X132620114Y-123771742D01*
X132477257Y-123843171D01*
X132334400Y-123843171D01*
X132191542Y-123771742D01*
X132120114Y-123700314D01*
X132048685Y-123557457D01*
X131977257Y-123271742D01*
X131977257Y-122914600D01*
X132048685Y-122628885D01*
X132120114Y-122486028D01*
X132191542Y-122414600D01*
X132334400Y-122343171D01*
D12*
%TO.C,J2*%
X143306800Y-69986200D02*
X141976800Y-69986200D01*
X141976800Y-69986200D02*
X141976800Y-68656200D01*
X141976800Y-67386200D02*
X141976800Y-64786200D01*
X144636800Y-64786200D02*
X141976800Y-64786200D01*
X144636800Y-67386200D02*
X144636800Y-64786200D01*
X144636800Y-67386200D02*
X141976800Y-67386200D01*
%TO.C,J1*%
X156870400Y-59858600D02*
X156870400Y-62518600D01*
X156870400Y-59858600D02*
X154270400Y-59858600D01*
X154270400Y-59858600D02*
X154270400Y-62518600D01*
X156870400Y-62518600D02*
X154270400Y-62518600D01*
X159470400Y-62518600D02*
X158140400Y-62518600D01*
X159470400Y-61188600D02*
X159470400Y-62518600D01*
%TO.C,SW1*%
X189251800Y-88326400D02*
X189251800Y-88356400D01*
X189251800Y-94786400D02*
X189251800Y-94756400D01*
X182791800Y-94786400D02*
X182791800Y-94756400D01*
X182791800Y-88356400D02*
X182791800Y-88326400D01*
X189251800Y-90256400D02*
X189251800Y-92856400D01*
X182791800Y-88326400D02*
X189251800Y-88326400D01*
X182791800Y-90256400D02*
X182791800Y-92856400D01*
X182791800Y-94786400D02*
X189251800Y-94786400D01*
%TO.C,C25*%
X120967600Y-112013400D02*
X129202600Y-112013400D01*
X120967600Y-107493400D02*
X120967600Y-112013400D01*
X129202600Y-107493400D02*
X120967600Y-107493400D01*
%TO.C,C22*%
X113766000Y-105706800D02*
X113766000Y-97471800D01*
X113766000Y-97471800D02*
X109246000Y-97471800D01*
X109246000Y-97471800D02*
X109246000Y-105706800D01*
%TO.C,R14*%
X144769064Y-105891000D02*
X144314936Y-105891000D01*
X144769064Y-104421000D02*
X144314936Y-104421000D01*
%TO.C,U4*%
X142976600Y-78396659D02*
X142976600Y-78206600D01*
X139623800Y-81369341D02*
X139623800Y-81559400D01*
X139623800Y-78206600D02*
X139623800Y-78396659D01*
X142976600Y-78206600D02*
X139623800Y-78206600D01*
X142976600Y-81559400D02*
X142976600Y-81369341D01*
X139623800Y-81559400D02*
X142976600Y-81559400D01*
%TO.C,U5*%
X117596600Y-82626200D02*
X117596600Y-79176200D01*
X117596600Y-82626200D02*
X117596600Y-84576200D01*
X112476600Y-82626200D02*
X112476600Y-80676200D01*
X112476600Y-82626200D02*
X112476600Y-84576200D01*
%TO.C,U2*%
X170957600Y-73890000D02*
X170957600Y-70890000D01*
X174177600Y-72390000D02*
X174177600Y-70890000D01*
%TO.C,U1*%
X136937400Y-77140600D02*
X136937400Y-83150600D01*
X130117400Y-79390600D02*
X130117400Y-83150600D01*
X136937400Y-83150600D02*
X135677400Y-83150600D01*
X130117400Y-83150600D02*
X131377400Y-83150600D01*
%TO.C,R13*%
X147817064Y-69315000D02*
X147362936Y-69315000D01*
X147817064Y-67845000D02*
X147362936Y-67845000D01*
%TO.C,R12*%
X128058936Y-113993600D02*
X128513064Y-113993600D01*
X128058936Y-112523600D02*
X128513064Y-112523600D01*
%TO.C,R11*%
X120369000Y-110590064D02*
X120369000Y-110135936D01*
X118899000Y-110590064D02*
X118899000Y-110135936D01*
%TO.C,R10*%
X106138736Y-102995400D02*
X106592864Y-102995400D01*
X106138736Y-101525400D02*
X106592864Y-101525400D01*
%TO.C,R9*%
X106224336Y-98934600D02*
X106678464Y-98934600D01*
X106224336Y-100404600D02*
X106678464Y-100404600D01*
%TO.C,R8*%
X113199936Y-89584200D02*
X113654064Y-89584200D01*
X113199936Y-88114200D02*
X113654064Y-88114200D01*
%TO.C,R7*%
X133948664Y-92254400D02*
X133494536Y-92254400D01*
X133948664Y-93724400D02*
X133494536Y-93724400D01*
%TO.C,R6*%
X133923264Y-91641600D02*
X133469136Y-91641600D01*
X133923264Y-90171600D02*
X133469136Y-90171600D01*
%TO.C,R5*%
X133923264Y-88012600D02*
X133469136Y-88012600D01*
X133923264Y-89482600D02*
X133469136Y-89482600D01*
%TO.C,R4*%
X174496400Y-76969864D02*
X174496400Y-76515736D01*
X173026400Y-76969864D02*
X173026400Y-76515736D01*
%TO.C,R3*%
X170943600Y-76944464D02*
X170943600Y-76490336D01*
X172413600Y-76944464D02*
X172413600Y-76490336D01*
%TO.C,R2*%
X168962400Y-76969864D02*
X168962400Y-76515736D01*
X170432400Y-76969864D02*
X170432400Y-76515736D01*
%TO.C,R1*%
X166930400Y-76951064D02*
X166930400Y-76496936D01*
X168400400Y-76951064D02*
X168400400Y-76496936D01*
%TO.C,L1*%
X169327237Y-101751329D02*
X169696703Y-102120795D01*
X170331329Y-100747237D02*
X170700795Y-101116703D01*
%TO.C,J9*%
X174804102Y-104403861D02*
X174351554Y-104856409D01*
X172824203Y-106383760D02*
X173276751Y-105931212D01*
X174351554Y-104856409D02*
X173906076Y-104410932D01*
X176692077Y-106362547D02*
X174782889Y-108271735D01*
%TO.C,J8*%
X175606400Y-83168800D02*
X175606400Y-81838800D01*
X176936400Y-83168800D02*
X175606400Y-83168800D01*
X178206400Y-83168800D02*
X178206400Y-80508800D01*
X178206400Y-80508800D02*
X185886400Y-80508800D01*
X178206400Y-83168800D02*
X185886400Y-83168800D01*
X185886400Y-83168800D02*
X185886400Y-80508800D01*
%TO.C,J7*%
X99660400Y-108441800D02*
X102320400Y-108441800D01*
X99660400Y-95681800D02*
X99660400Y-108441800D01*
X102320400Y-95681800D02*
X102320400Y-108441800D01*
X99660400Y-95681800D02*
X102320400Y-95681800D01*
X99660400Y-94411800D02*
X99660400Y-93081800D01*
X99660400Y-93081800D02*
X100990400Y-93081800D01*
%TO.C,J6*%
X167400000Y-118140000D02*
X167400000Y-116810000D01*
X168730000Y-118140000D02*
X167400000Y-118140000D01*
X170000000Y-118140000D02*
X170000000Y-115480000D01*
X170000000Y-115480000D02*
X180220000Y-115480000D01*
X170000000Y-118140000D02*
X180220000Y-118140000D01*
X180220000Y-118140000D02*
X180220000Y-115480000D01*
%TO.C,D1*%
X122226000Y-84950800D02*
X122226000Y-75050800D01*
X128726000Y-84950800D02*
X128726000Y-75050800D01*
X128726000Y-84950800D02*
X122226000Y-84950800D01*
%TO.C,C29*%
X175109413Y-99792834D02*
X175478880Y-99423367D01*
X174069966Y-98753387D02*
X174439433Y-98383920D01*
%TO.C,C28*%
X180490800Y-91254948D02*
X180490800Y-91777452D01*
X179020800Y-91254948D02*
X179020800Y-91777452D01*
%TO.C,C27*%
X173337367Y-98059680D02*
X173706834Y-97690213D01*
X172297920Y-97020233D02*
X172667387Y-96650766D01*
%TO.C,C26*%
X152530352Y-86895000D02*
X152007848Y-86895000D01*
X152530352Y-88365000D02*
X152007848Y-88365000D01*
%TO.C,C24*%
X117235248Y-89558800D02*
X117757752Y-89558800D01*
X117235248Y-88088800D02*
X117757752Y-88088800D01*
%TO.C,C23*%
X109836852Y-89584200D02*
X109314348Y-89584200D01*
X109836852Y-88114200D02*
X109314348Y-88114200D01*
%TO.C,C21*%
X111072600Y-83424752D02*
X111072600Y-82902248D01*
X109602600Y-83424752D02*
X109602600Y-82902248D01*
%TO.C,C16*%
X127268248Y-102639800D02*
X127790752Y-102639800D01*
X127268248Y-101169800D02*
X127790752Y-101169800D01*
%TO.C,C15*%
X123001048Y-101169800D02*
X123523552Y-101169800D01*
X123001048Y-102639800D02*
X123523552Y-102639800D01*
%TO.C,C14*%
X114586652Y-77062000D02*
X114064148Y-77062000D01*
X114586652Y-75592000D02*
X114064148Y-75592000D01*
%TO.C,C13*%
X116838400Y-107591048D02*
X116838400Y-108113552D01*
X115368400Y-107591048D02*
X115368400Y-108113552D01*
%TO.C,C12*%
X116457400Y-94459248D02*
X116457400Y-94981752D01*
X114987400Y-94459248D02*
X114987400Y-94981752D01*
%TO.C,C11*%
X145946800Y-83838148D02*
X145946800Y-84360652D01*
X144476800Y-83838148D02*
X144476800Y-84360652D01*
%TO.C,C10*%
X141840852Y-82450000D02*
X141318348Y-82450000D01*
X141840852Y-83920000D02*
X141318348Y-83920000D01*
%TO.C,C9*%
X145946800Y-75815648D02*
X145946800Y-76338152D01*
X144476800Y-75815648D02*
X144476800Y-76338152D01*
%TO.C,C8*%
X145946800Y-80368952D02*
X145946800Y-79846448D01*
X144476800Y-80368952D02*
X144476800Y-79846448D01*
%TO.C,C7*%
X123929952Y-87555400D02*
X123407448Y-87555400D01*
X123929952Y-89025400D02*
X123407448Y-89025400D01*
%TO.C,C6*%
X171203252Y-69467400D02*
X170680748Y-69467400D01*
X171203252Y-67997400D02*
X170680748Y-67997400D01*
%TO.C,C5*%
X133445500Y-76017400D02*
X137530500Y-76017400D01*
X133445500Y-74147400D02*
X133445500Y-76017400D01*
X137530500Y-74147400D02*
X133445500Y-74147400D01*
%TO.C,C4*%
X175180448Y-69416600D02*
X175702952Y-69416600D01*
X175180448Y-67946600D02*
X175702952Y-67946600D01*
%TO.C,C3*%
X133422848Y-95781800D02*
X133945352Y-95781800D01*
X133422848Y-94311800D02*
X133945352Y-94311800D01*
%TO.C,C2*%
X117613600Y-94093848D02*
X117613600Y-95516352D01*
X120333600Y-94093848D02*
X120333600Y-95516352D01*
%TO.C,C1*%
X133031200Y-76193400D02*
X133031200Y-71808400D01*
X130011200Y-76193400D02*
X133031200Y-76193400D01*
X130011200Y-71808400D02*
X130011200Y-76193400D01*
%TO.C,J10*%
X141870000Y-115420000D02*
X141870000Y-118080000D01*
X152090000Y-115420000D02*
X141870000Y-115420000D01*
X152090000Y-118080000D02*
X141870000Y-118080000D01*
X152090000Y-115420000D02*
X152090000Y-118080000D01*
X153360000Y-115420000D02*
X154690000Y-115420000D01*
X154690000Y-115420000D02*
X154690000Y-116750000D01*
%TO.C,J5*%
X143653200Y-87087400D02*
X144983200Y-87087400D01*
X143653200Y-88417400D02*
X143653200Y-87087400D01*
X143653200Y-89687400D02*
X146313200Y-89687400D01*
X146313200Y-89687400D02*
X146313200Y-102447400D01*
X143653200Y-89687400D02*
X143653200Y-102447400D01*
X143653200Y-102447400D02*
X146313200Y-102447400D01*
%TO.C,J4*%
X149160000Y-110550000D02*
X149160000Y-109220000D01*
X150490000Y-110550000D02*
X149160000Y-110550000D01*
X151760000Y-110550000D02*
X151760000Y-107890000D01*
X151760000Y-107890000D02*
X156900000Y-107890000D01*
X151760000Y-110550000D02*
X156900000Y-110550000D01*
X156900000Y-110550000D02*
X156900000Y-107890000D01*
%TO.C,U3*%
X124003001Y-97879197D02*
X127203002Y-97879197D01*
X127203002Y-97879197D02*
X127203002Y-89979198D01*
X124003001Y-97879197D02*
X124003001Y-91490599D01*
X124003001Y-91490599D02*
X125514402Y-89979198D01*
X125514402Y-89979198D02*
X127203002Y-89979198D01*
D10*
%TO.C,U6*%
X153562800Y-89027000D02*
X165562800Y-89027000D01*
X165562800Y-89027000D02*
X165562800Y-101027000D01*
X165562800Y-101027000D02*
X153562800Y-101027000D01*
X153562800Y-101027000D02*
X153562800Y-89027000D01*
X152945153Y-89867000D02*
G75*
G03*
X152945153Y-89867000I-362353J0D01*
G01*
D13*
%TO.C,G\u002A\u002A\u002A*%
G36*
X108871265Y-120404760D02*
G01*
X109442449Y-120644263D01*
X109895283Y-120966423D01*
X110270957Y-121403035D01*
X110538111Y-121936732D01*
X110686076Y-122526402D01*
X110704182Y-123130931D01*
X110596198Y-123667221D01*
X110382020Y-124105384D01*
X110052270Y-124537931D01*
X109654121Y-124912473D01*
X109238650Y-125174812D01*
X108924091Y-125310755D01*
X108730138Y-125362413D01*
X108631287Y-125331092D01*
X108602033Y-125218099D01*
X108601933Y-125207420D01*
X108660386Y-125073809D01*
X108850688Y-124940565D01*
X109024559Y-124858631D01*
X109459439Y-124595591D01*
X109851727Y-124220481D01*
X110144739Y-123789976D01*
X110190498Y-123692883D01*
X110263728Y-123435080D01*
X110313097Y-123092445D01*
X110326429Y-122834400D01*
X110255449Y-122262860D01*
X110051276Y-121764457D01*
X109737468Y-121348267D01*
X109337582Y-121023365D01*
X108875174Y-120798829D01*
X108373801Y-120683735D01*
X107857020Y-120687159D01*
X107348387Y-120818177D01*
X106871459Y-121085866D01*
X106550690Y-121379615D01*
X106343650Y-121639521D01*
X106170247Y-121908521D01*
X106110511Y-122028180D01*
X105971803Y-122255822D01*
X105812253Y-122326400D01*
X105691412Y-122307806D01*
X105649980Y-122232426D01*
X105688711Y-122070861D01*
X105808358Y-121793715D01*
X105826929Y-121753977D01*
X106162777Y-121221799D01*
X106600834Y-120806041D01*
X107115906Y-120511581D01*
X107682798Y-120343296D01*
X108276316Y-120306063D01*
X108871265Y-120404760D01*
G37*
X108871265Y-120404760D02*
X109442449Y-120644263D01*
X109895283Y-120966423D01*
X110270957Y-121403035D01*
X110538111Y-121936732D01*
X110686076Y-122526402D01*
X110704182Y-123130931D01*
X110596198Y-123667221D01*
X110382020Y-124105384D01*
X110052270Y-124537931D01*
X109654121Y-124912473D01*
X109238650Y-125174812D01*
X108924091Y-125310755D01*
X108730138Y-125362413D01*
X108631287Y-125331092D01*
X108602033Y-125218099D01*
X108601933Y-125207420D01*
X108660386Y-125073809D01*
X108850688Y-124940565D01*
X109024559Y-124858631D01*
X109459439Y-124595591D01*
X109851727Y-124220481D01*
X110144739Y-123789976D01*
X110190498Y-123692883D01*
X110263728Y-123435080D01*
X110313097Y-123092445D01*
X110326429Y-122834400D01*
X110255449Y-122262860D01*
X110051276Y-121764457D01*
X109737468Y-121348267D01*
X109337582Y-121023365D01*
X108875174Y-120798829D01*
X108373801Y-120683735D01*
X107857020Y-120687159D01*
X107348387Y-120818177D01*
X106871459Y-121085866D01*
X106550690Y-121379615D01*
X106343650Y-121639521D01*
X106170247Y-121908521D01*
X106110511Y-122028180D01*
X105971803Y-122255822D01*
X105812253Y-122326400D01*
X105691412Y-122307806D01*
X105649980Y-122232426D01*
X105688711Y-122070861D01*
X105808358Y-121793715D01*
X105826929Y-121753977D01*
X106162777Y-121221799D01*
X106600834Y-120806041D01*
X107115906Y-120511581D01*
X107682798Y-120343296D01*
X108276316Y-120306063D01*
X108871265Y-120404760D01*
G36*
X106569933Y-124350336D02*
G01*
X106778807Y-124565287D01*
X106930049Y-124732519D01*
X106992963Y-124817973D01*
X106993266Y-124820034D01*
X106928178Y-124875338D01*
X106769972Y-124863689D01*
X106574232Y-124799138D01*
X106396545Y-124695730D01*
X106354418Y-124658581D01*
X106181212Y-124385557D01*
X106146599Y-124188883D01*
X106146599Y-123927003D01*
X106569933Y-124350336D01*
G37*
X106569933Y-124350336D02*
X106778807Y-124565287D01*
X106930049Y-124732519D01*
X106992963Y-124817973D01*
X106993266Y-124820034D01*
X106928178Y-124875338D01*
X106769972Y-124863689D01*
X106574232Y-124799138D01*
X106396545Y-124695730D01*
X106354418Y-124658581D01*
X106181212Y-124385557D01*
X106146599Y-124188883D01*
X106146599Y-123927003D01*
X106569933Y-124350336D01*
G36*
X108880191Y-121103907D02*
G01*
X109339994Y-121357211D01*
X109697555Y-121728189D01*
X109933663Y-122197757D01*
X110024778Y-122663751D01*
X110007336Y-123218102D01*
X109860238Y-123685643D01*
X109595820Y-124074316D01*
X109404167Y-124254955D01*
X109157242Y-124440101D01*
X108907430Y-124595348D01*
X108707120Y-124686289D01*
X108647639Y-124697066D01*
X108613246Y-124624425D01*
X108601933Y-124485400D01*
X108635385Y-124326361D01*
X108699774Y-124273733D01*
X108880596Y-124207190D01*
X109103438Y-124035008D01*
X109325941Y-123798362D01*
X109505742Y-123538424D01*
X109553051Y-123444392D01*
X109676781Y-122982346D01*
X109652348Y-122537081D01*
X109500839Y-122130677D01*
X109243341Y-121785212D01*
X108900941Y-121522766D01*
X108494726Y-121365418D01*
X108045783Y-121335247D01*
X107630954Y-121431873D01*
X107388469Y-121559710D01*
X107136353Y-121746718D01*
X106916997Y-121954256D01*
X106772793Y-122143684D01*
X106739266Y-122244679D01*
X106666792Y-122306116D01*
X106527600Y-122326400D01*
X106375593Y-122308640D01*
X106329459Y-122237413D01*
X106389531Y-122085796D01*
X106533377Y-121860274D01*
X106914981Y-121417836D01*
X107359059Y-121131101D01*
X107877719Y-120994210D01*
X108337356Y-120987361D01*
X108880191Y-121103907D01*
G37*
X108880191Y-121103907D02*
X109339994Y-121357211D01*
X109697555Y-121728189D01*
X109933663Y-122197757D01*
X110024778Y-122663751D01*
X110007336Y-123218102D01*
X109860238Y-123685643D01*
X109595820Y-124074316D01*
X109404167Y-124254955D01*
X109157242Y-124440101D01*
X108907430Y-124595348D01*
X108707120Y-124686289D01*
X108647639Y-124697066D01*
X108613246Y-124624425D01*
X108601933Y-124485400D01*
X108635385Y-124326361D01*
X108699774Y-124273733D01*
X108880596Y-124207190D01*
X109103438Y-124035008D01*
X109325941Y-123798362D01*
X109505742Y-123538424D01*
X109553051Y-123444392D01*
X109676781Y-122982346D01*
X109652348Y-122537081D01*
X109500839Y-122130677D01*
X109243341Y-121785212D01*
X108900941Y-121522766D01*
X108494726Y-121365418D01*
X108045783Y-121335247D01*
X107630954Y-121431873D01*
X107388469Y-121559710D01*
X107136353Y-121746718D01*
X106916997Y-121954256D01*
X106772793Y-122143684D01*
X106739266Y-122244679D01*
X106666792Y-122306116D01*
X106527600Y-122326400D01*
X106375593Y-122308640D01*
X106329459Y-122237413D01*
X106389531Y-122085796D01*
X106533377Y-121860274D01*
X106914981Y-121417836D01*
X107359059Y-121131101D01*
X107877719Y-120994210D01*
X108337356Y-120987361D01*
X108880191Y-121103907D01*
G36*
X106671700Y-123334362D02*
G01*
X106768287Y-123488866D01*
X106814032Y-123576993D01*
X107015577Y-123859536D01*
X107278066Y-124091574D01*
X107308134Y-124110570D01*
X107509648Y-124232947D01*
X107640544Y-124314606D01*
X107661498Y-124328723D01*
X107645084Y-124401639D01*
X107558399Y-124515246D01*
X107459534Y-124599791D01*
X107427399Y-124609825D01*
X107318757Y-124571093D01*
X107204933Y-124513826D01*
X106898553Y-124291111D01*
X106631337Y-124003740D01*
X106478841Y-123750221D01*
X106419613Y-123555847D01*
X106455725Y-123427915D01*
X106507754Y-123368293D01*
X106596562Y-123302147D01*
X106671700Y-123334362D01*
G37*
X106671700Y-123334362D02*
X106768287Y-123488866D01*
X106814032Y-123576993D01*
X107015577Y-123859536D01*
X107278066Y-124091574D01*
X107308134Y-124110570D01*
X107509648Y-124232947D01*
X107640544Y-124314606D01*
X107661498Y-124328723D01*
X107645084Y-124401639D01*
X107558399Y-124515246D01*
X107459534Y-124599791D01*
X107427399Y-124609825D01*
X107318757Y-124571093D01*
X107204933Y-124513826D01*
X106898553Y-124291111D01*
X106631337Y-124003740D01*
X106478841Y-123750221D01*
X106419613Y-123555847D01*
X106455725Y-123427915D01*
X106507754Y-123368293D01*
X106596562Y-123302147D01*
X106671700Y-123334362D01*
G36*
X107164868Y-123084002D02*
G01*
X107378424Y-123238313D01*
X107563767Y-123412964D01*
X107804556Y-123685180D01*
X107922054Y-123885916D01*
X107919532Y-124001872D01*
X107800260Y-124019750D01*
X107567508Y-123926250D01*
X107453611Y-123860963D01*
X107250653Y-123693823D01*
X107090382Y-123485665D01*
X106995751Y-123280042D01*
X106989716Y-123120505D01*
X107034989Y-123066733D01*
X107164868Y-123084002D01*
G37*
X107164868Y-123084002D02*
X107378424Y-123238313D01*
X107563767Y-123412964D01*
X107804556Y-123685180D01*
X107922054Y-123885916D01*
X107919532Y-124001872D01*
X107800260Y-124019750D01*
X107567508Y-123926250D01*
X107453611Y-123860963D01*
X107250653Y-123693823D01*
X107090382Y-123485665D01*
X106995751Y-123280042D01*
X106989716Y-123120505D01*
X107034989Y-123066733D01*
X107164868Y-123084002D01*
G36*
X108399118Y-121675056D02*
G01*
X108682868Y-121740827D01*
X108779215Y-121780177D01*
X109086285Y-122025509D01*
X109280978Y-122360962D01*
X109361263Y-122748212D01*
X109325108Y-123148937D01*
X109170483Y-123524814D01*
X108895357Y-123837521D01*
X108888540Y-123842924D01*
X108678393Y-123985211D01*
X108548473Y-124003699D01*
X108466880Y-123901483D01*
X108460055Y-123884491D01*
X108484907Y-123725497D01*
X108624069Y-123566991D01*
X108905128Y-123252258D01*
X109019954Y-122928172D01*
X108967796Y-122603301D01*
X108747902Y-122286210D01*
X108737400Y-122275600D01*
X108417903Y-122040530D01*
X108100191Y-121974654D01*
X107786421Y-122077956D01*
X107538445Y-122283717D01*
X107315945Y-122478060D01*
X107150234Y-122534516D01*
X107126281Y-122528659D01*
X107017304Y-122454934D01*
X107019760Y-122342522D01*
X107141919Y-122168140D01*
X107321972Y-121977772D01*
X107534357Y-121782911D01*
X107713646Y-121685086D01*
X107935732Y-121651737D01*
X108088177Y-121649066D01*
X108399118Y-121675056D01*
G37*
X108399118Y-121675056D02*
X108682868Y-121740827D01*
X108779215Y-121780177D01*
X109086285Y-122025509D01*
X109280978Y-122360962D01*
X109361263Y-122748212D01*
X109325108Y-123148937D01*
X109170483Y-123524814D01*
X108895357Y-123837521D01*
X108888540Y-123842924D01*
X108678393Y-123985211D01*
X108548473Y-124003699D01*
X108466880Y-123901483D01*
X108460055Y-123884491D01*
X108484907Y-123725497D01*
X108624069Y-123566991D01*
X108905128Y-123252258D01*
X109019954Y-122928172D01*
X108967796Y-122603301D01*
X108747902Y-122286210D01*
X108737400Y-122275600D01*
X108417903Y-122040530D01*
X108100191Y-121974654D01*
X107786421Y-122077956D01*
X107538445Y-122283717D01*
X107315945Y-122478060D01*
X107150234Y-122534516D01*
X107126281Y-122528659D01*
X107017304Y-122454934D01*
X107019760Y-122342522D01*
X107141919Y-122168140D01*
X107321972Y-121977772D01*
X107534357Y-121782911D01*
X107713646Y-121685086D01*
X107935732Y-121651737D01*
X108088177Y-121649066D01*
X108399118Y-121675056D01*
G36*
X108434066Y-122394150D02*
G01*
X108610601Y-122567296D01*
X108680535Y-122800680D01*
X108629321Y-123049143D01*
X108463515Y-123251588D01*
X108229434Y-123396538D01*
X108037678Y-123399706D01*
X107834101Y-123258477D01*
X107793751Y-123219248D01*
X107650712Y-123028370D01*
X107586229Y-122847810D01*
X107585933Y-122838248D01*
X107661326Y-122613082D01*
X107850853Y-122427839D01*
X108099533Y-122331076D01*
X108165477Y-122326400D01*
X108434066Y-122394150D01*
G37*
X108434066Y-122394150D02*
X108610601Y-122567296D01*
X108680535Y-122800680D01*
X108629321Y-123049143D01*
X108463515Y-123251588D01*
X108229434Y-123396538D01*
X108037678Y-123399706D01*
X107834101Y-123258477D01*
X107793751Y-123219248D01*
X107650712Y-123028370D01*
X107586229Y-122847810D01*
X107585933Y-122838248D01*
X107661326Y-122613082D01*
X107850853Y-122427839D01*
X108099533Y-122331076D01*
X108165477Y-122326400D01*
X108434066Y-122394150D01*
%TO.C,*%
D10*
%TO.C,J2*%
X142973466Y-70878580D02*
X142973466Y-71592866D01*
X142925847Y-71735723D01*
X142830609Y-71830961D01*
X142687752Y-71878580D01*
X142592514Y-71878580D01*
X143402038Y-70973819D02*
X143449657Y-70926200D01*
X143544895Y-70878580D01*
X143782990Y-70878580D01*
X143878228Y-70926200D01*
X143925847Y-70973819D01*
X143973466Y-71069057D01*
X143973466Y-71164295D01*
X143925847Y-71307152D01*
X143354419Y-71878580D01*
X143973466Y-71878580D01*
%TO.C,J1*%
X160362780Y-61521933D02*
X161077066Y-61521933D01*
X161219923Y-61569552D01*
X161315161Y-61664790D01*
X161362780Y-61807647D01*
X161362780Y-61902885D01*
X161362780Y-60521933D02*
X161362780Y-61093361D01*
X161362780Y-60807647D02*
X160362780Y-60807647D01*
X160505638Y-60902885D01*
X160600876Y-60998123D01*
X160648495Y-61093361D01*
%TO.C,SW1*%
X184688466Y-87911161D02*
X184831323Y-87958780D01*
X185069419Y-87958780D01*
X185164657Y-87911161D01*
X185212276Y-87863542D01*
X185259895Y-87768304D01*
X185259895Y-87673066D01*
X185212276Y-87577828D01*
X185164657Y-87530209D01*
X185069419Y-87482590D01*
X184878942Y-87434971D01*
X184783704Y-87387352D01*
X184736085Y-87339733D01*
X184688466Y-87244495D01*
X184688466Y-87149257D01*
X184736085Y-87054019D01*
X184783704Y-87006400D01*
X184878942Y-86958780D01*
X185117038Y-86958780D01*
X185259895Y-87006400D01*
X185593228Y-86958780D02*
X185831323Y-87958780D01*
X186021800Y-87244495D01*
X186212276Y-87958780D01*
X186450371Y-86958780D01*
X187355133Y-87958780D02*
X186783704Y-87958780D01*
X187069419Y-87958780D02*
X187069419Y-86958780D01*
X186974180Y-87101638D01*
X186878942Y-87196876D01*
X186783704Y-87244495D01*
%TO.C,C25*%
X131370342Y-110396257D02*
X131417961Y-110443876D01*
X131465580Y-110586733D01*
X131465580Y-110681971D01*
X131417961Y-110824828D01*
X131322723Y-110920066D01*
X131227485Y-110967685D01*
X131037009Y-111015304D01*
X130894152Y-111015304D01*
X130703676Y-110967685D01*
X130608438Y-110920066D01*
X130513200Y-110824828D01*
X130465580Y-110681971D01*
X130465580Y-110586733D01*
X130513200Y-110443876D01*
X130560819Y-110396257D01*
X130560819Y-110015304D02*
X130513200Y-109967685D01*
X130465580Y-109872447D01*
X130465580Y-109634352D01*
X130513200Y-109539114D01*
X130560819Y-109491495D01*
X130656057Y-109443876D01*
X130751295Y-109443876D01*
X130894152Y-109491495D01*
X131465580Y-110062923D01*
X131465580Y-109443876D01*
X130465580Y-108539114D02*
X130465580Y-109015304D01*
X130941771Y-109062923D01*
X130894152Y-109015304D01*
X130846533Y-108920066D01*
X130846533Y-108681971D01*
X130894152Y-108586733D01*
X130941771Y-108539114D01*
X131037009Y-108491495D01*
X131275104Y-108491495D01*
X131370342Y-108539114D01*
X131417961Y-108586733D01*
X131465580Y-108681971D01*
X131465580Y-108920066D01*
X131417961Y-109015304D01*
X131370342Y-109062923D01*
%TO.C,C22*%
X109948742Y-107900742D02*
X109901123Y-107948361D01*
X109758266Y-107995980D01*
X109663028Y-107995980D01*
X109520171Y-107948361D01*
X109424933Y-107853123D01*
X109377314Y-107757885D01*
X109329695Y-107567409D01*
X109329695Y-107424552D01*
X109377314Y-107234076D01*
X109424933Y-107138838D01*
X109520171Y-107043600D01*
X109663028Y-106995980D01*
X109758266Y-106995980D01*
X109901123Y-107043600D01*
X109948742Y-107091219D01*
X110329695Y-107091219D02*
X110377314Y-107043600D01*
X110472552Y-106995980D01*
X110710647Y-106995980D01*
X110805885Y-107043600D01*
X110853504Y-107091219D01*
X110901123Y-107186457D01*
X110901123Y-107281695D01*
X110853504Y-107424552D01*
X110282076Y-107995980D01*
X110901123Y-107995980D01*
X111282076Y-107091219D02*
X111329695Y-107043600D01*
X111424933Y-106995980D01*
X111663028Y-106995980D01*
X111758266Y-107043600D01*
X111805885Y-107091219D01*
X111853504Y-107186457D01*
X111853504Y-107281695D01*
X111805885Y-107424552D01*
X111234457Y-107995980D01*
X111853504Y-107995980D01*
%TO.C,R14*%
X143899142Y-107258380D02*
X143565809Y-106782190D01*
X143327714Y-107258380D02*
X143327714Y-106258380D01*
X143708666Y-106258380D01*
X143803904Y-106306000D01*
X143851523Y-106353619D01*
X143899142Y-106448857D01*
X143899142Y-106591714D01*
X143851523Y-106686952D01*
X143803904Y-106734571D01*
X143708666Y-106782190D01*
X143327714Y-106782190D01*
X144851523Y-107258380D02*
X144280095Y-107258380D01*
X144565809Y-107258380D02*
X144565809Y-106258380D01*
X144470571Y-106401238D01*
X144375333Y-106496476D01*
X144280095Y-106544095D01*
X145708666Y-106591714D02*
X145708666Y-107258380D01*
X145470571Y-106210761D02*
X145232476Y-106925047D01*
X145851523Y-106925047D01*
%TO.C,U4*%
X138379295Y-76541380D02*
X138379295Y-77350904D01*
X138426914Y-77446142D01*
X138474533Y-77493761D01*
X138569771Y-77541380D01*
X138760247Y-77541380D01*
X138855485Y-77493761D01*
X138903104Y-77446142D01*
X138950723Y-77350904D01*
X138950723Y-76541380D01*
X139855485Y-76874714D02*
X139855485Y-77541380D01*
X139617390Y-76493761D02*
X139379295Y-77208047D01*
X139998342Y-77208047D01*
X138815801Y-77910380D02*
X138815801Y-78148476D01*
X138577705Y-78053238D02*
X138815801Y-78148476D01*
X139053896Y-78053238D01*
X138672943Y-78338952D02*
X138815801Y-78148476D01*
X138958658Y-78338952D01*
X138815801Y-77910380D02*
X138815801Y-78148476D01*
X138577705Y-78053238D02*
X138815801Y-78148476D01*
X139053896Y-78053238D01*
X138672943Y-78338952D02*
X138815801Y-78148476D01*
X138958658Y-78338952D01*
%TO.C,U5*%
X117888980Y-83388104D02*
X118698504Y-83388104D01*
X118793742Y-83340485D01*
X118841361Y-83292866D01*
X118888980Y-83197628D01*
X118888980Y-83007152D01*
X118841361Y-82911914D01*
X118793742Y-82864295D01*
X118698504Y-82816676D01*
X117888980Y-82816676D01*
X117888980Y-81864295D02*
X117888980Y-82340485D01*
X118365171Y-82388104D01*
X118317552Y-82340485D01*
X118269933Y-82245247D01*
X118269933Y-82007152D01*
X118317552Y-81911914D01*
X118365171Y-81864295D01*
X118460409Y-81816676D01*
X118698504Y-81816676D01*
X118793742Y-81864295D01*
X118841361Y-81911914D01*
X118888980Y-82007152D01*
X118888980Y-82245247D01*
X118841361Y-82340485D01*
X118793742Y-82388104D01*
%TO.C,U2*%
X168783095Y-71867780D02*
X168783095Y-72677304D01*
X168830714Y-72772542D01*
X168878333Y-72820161D01*
X168973571Y-72867780D01*
X169164047Y-72867780D01*
X169259285Y-72820161D01*
X169306904Y-72772542D01*
X169354523Y-72677304D01*
X169354523Y-71867780D01*
X169783095Y-71963019D02*
X169830714Y-71915400D01*
X169925952Y-71867780D01*
X170164047Y-71867780D01*
X170259285Y-71915400D01*
X170306904Y-71963019D01*
X170354523Y-72058257D01*
X170354523Y-72153495D01*
X170306904Y-72296352D01*
X169735476Y-72867780D01*
X170354523Y-72867780D01*
%TO.C,U1*%
X137515695Y-84593180D02*
X137515695Y-85402704D01*
X137563314Y-85497942D01*
X137610933Y-85545561D01*
X137706171Y-85593180D01*
X137896647Y-85593180D01*
X137991885Y-85545561D01*
X138039504Y-85497942D01*
X138087123Y-85402704D01*
X138087123Y-84593180D01*
X139087123Y-85593180D02*
X138515695Y-85593180D01*
X138801409Y-85593180D02*
X138801409Y-84593180D01*
X138706171Y-84736038D01*
X138610933Y-84831276D01*
X138515695Y-84878895D01*
%TO.C,R13*%
X146931142Y-70937380D02*
X146597809Y-70461190D01*
X146359714Y-70937380D02*
X146359714Y-69937380D01*
X146740666Y-69937380D01*
X146835904Y-69985000D01*
X146883523Y-70032619D01*
X146931142Y-70127857D01*
X146931142Y-70270714D01*
X146883523Y-70365952D01*
X146835904Y-70413571D01*
X146740666Y-70461190D01*
X146359714Y-70461190D01*
X147883523Y-70937380D02*
X147312095Y-70937380D01*
X147597809Y-70937380D02*
X147597809Y-69937380D01*
X147502571Y-70080238D01*
X147407333Y-70175476D01*
X147312095Y-70223095D01*
X148216857Y-69937380D02*
X148835904Y-69937380D01*
X148502571Y-70318333D01*
X148645428Y-70318333D01*
X148740666Y-70365952D01*
X148788285Y-70413571D01*
X148835904Y-70508809D01*
X148835904Y-70746904D01*
X148788285Y-70842142D01*
X148740666Y-70889761D01*
X148645428Y-70937380D01*
X148359714Y-70937380D01*
X148264476Y-70889761D01*
X148216857Y-70842142D01*
%TO.C,R12*%
X127881142Y-115463580D02*
X127547809Y-114987390D01*
X127309714Y-115463580D02*
X127309714Y-114463580D01*
X127690666Y-114463580D01*
X127785904Y-114511200D01*
X127833523Y-114558819D01*
X127881142Y-114654057D01*
X127881142Y-114796914D01*
X127833523Y-114892152D01*
X127785904Y-114939771D01*
X127690666Y-114987390D01*
X127309714Y-114987390D01*
X128833523Y-115463580D02*
X128262095Y-115463580D01*
X128547809Y-115463580D02*
X128547809Y-114463580D01*
X128452571Y-114606438D01*
X128357333Y-114701676D01*
X128262095Y-114749295D01*
X129214476Y-114558819D02*
X129262095Y-114511200D01*
X129357333Y-114463580D01*
X129595428Y-114463580D01*
X129690666Y-114511200D01*
X129738285Y-114558819D01*
X129785904Y-114654057D01*
X129785904Y-114749295D01*
X129738285Y-114892152D01*
X129166857Y-115463580D01*
X129785904Y-115463580D01*
%TO.C,R11*%
X118436380Y-111005857D02*
X117960190Y-111339190D01*
X118436380Y-111577285D02*
X117436380Y-111577285D01*
X117436380Y-111196333D01*
X117484000Y-111101095D01*
X117531619Y-111053476D01*
X117626857Y-111005857D01*
X117769714Y-111005857D01*
X117864952Y-111053476D01*
X117912571Y-111101095D01*
X117960190Y-111196333D01*
X117960190Y-111577285D01*
X118436380Y-110053476D02*
X118436380Y-110624904D01*
X118436380Y-110339190D02*
X117436380Y-110339190D01*
X117579238Y-110434428D01*
X117674476Y-110529666D01*
X117722095Y-110624904D01*
X118436380Y-109101095D02*
X118436380Y-109672523D01*
X118436380Y-109386809D02*
X117436380Y-109386809D01*
X117579238Y-109482047D01*
X117674476Y-109577285D01*
X117722095Y-109672523D01*
%TO.C,R10*%
X105722942Y-101062780D02*
X105389609Y-100586590D01*
X105151514Y-101062780D02*
X105151514Y-100062780D01*
X105532466Y-100062780D01*
X105627704Y-100110400D01*
X105675323Y-100158019D01*
X105722942Y-100253257D01*
X105722942Y-100396114D01*
X105675323Y-100491352D01*
X105627704Y-100538971D01*
X105532466Y-100586590D01*
X105151514Y-100586590D01*
X106675323Y-101062780D02*
X106103895Y-101062780D01*
X106389609Y-101062780D02*
X106389609Y-100062780D01*
X106294371Y-100205638D01*
X106199133Y-100300876D01*
X106103895Y-100348495D01*
X107294371Y-100062780D02*
X107389609Y-100062780D01*
X107484847Y-100110400D01*
X107532466Y-100158019D01*
X107580085Y-100253257D01*
X107627704Y-100443733D01*
X107627704Y-100681828D01*
X107580085Y-100872304D01*
X107532466Y-100967542D01*
X107484847Y-101015161D01*
X107389609Y-101062780D01*
X107294371Y-101062780D01*
X107199133Y-101015161D01*
X107151514Y-100967542D01*
X107103895Y-100872304D01*
X107056276Y-100681828D01*
X107056276Y-100443733D01*
X107103895Y-100253257D01*
X107151514Y-100158019D01*
X107199133Y-100110400D01*
X107294371Y-100062780D01*
%TO.C,R9*%
X106284733Y-98471980D02*
X105951400Y-97995790D01*
X105713304Y-98471980D02*
X105713304Y-97471980D01*
X106094257Y-97471980D01*
X106189495Y-97519600D01*
X106237114Y-97567219D01*
X106284733Y-97662457D01*
X106284733Y-97805314D01*
X106237114Y-97900552D01*
X106189495Y-97948171D01*
X106094257Y-97995790D01*
X105713304Y-97995790D01*
X106760923Y-98471980D02*
X106951400Y-98471980D01*
X107046638Y-98424361D01*
X107094257Y-98376742D01*
X107189495Y-98233885D01*
X107237114Y-98043409D01*
X107237114Y-97662457D01*
X107189495Y-97567219D01*
X107141876Y-97519600D01*
X107046638Y-97471980D01*
X106856161Y-97471980D01*
X106760923Y-97519600D01*
X106713304Y-97567219D01*
X106665685Y-97662457D01*
X106665685Y-97900552D01*
X106713304Y-97995790D01*
X106760923Y-98043409D01*
X106856161Y-98091028D01*
X107046638Y-98091028D01*
X107141876Y-98043409D01*
X107189495Y-97995790D01*
X107237114Y-97900552D01*
%TO.C,R8*%
X113260333Y-87651580D02*
X112927000Y-87175390D01*
X112688904Y-87651580D02*
X112688904Y-86651580D01*
X113069857Y-86651580D01*
X113165095Y-86699200D01*
X113212714Y-86746819D01*
X113260333Y-86842057D01*
X113260333Y-86984914D01*
X113212714Y-87080152D01*
X113165095Y-87127771D01*
X113069857Y-87175390D01*
X112688904Y-87175390D01*
X113831761Y-87080152D02*
X113736523Y-87032533D01*
X113688904Y-86984914D01*
X113641285Y-86889676D01*
X113641285Y-86842057D01*
X113688904Y-86746819D01*
X113736523Y-86699200D01*
X113831761Y-86651580D01*
X114022238Y-86651580D01*
X114117476Y-86699200D01*
X114165095Y-86746819D01*
X114212714Y-86842057D01*
X114212714Y-86889676D01*
X114165095Y-86984914D01*
X114117476Y-87032533D01*
X114022238Y-87080152D01*
X113831761Y-87080152D01*
X113736523Y-87127771D01*
X113688904Y-87175390D01*
X113641285Y-87270628D01*
X113641285Y-87461104D01*
X113688904Y-87556342D01*
X113736523Y-87603961D01*
X113831761Y-87651580D01*
X114022238Y-87651580D01*
X114117476Y-87603961D01*
X114165095Y-87556342D01*
X114212714Y-87461104D01*
X114212714Y-87270628D01*
X114165095Y-87175390D01*
X114117476Y-87127771D01*
X114022238Y-87080152D01*
%TO.C,R7*%
X136536133Y-93492580D02*
X136202800Y-93016390D01*
X135964704Y-93492580D02*
X135964704Y-92492580D01*
X136345657Y-92492580D01*
X136440895Y-92540200D01*
X136488514Y-92587819D01*
X136536133Y-92683057D01*
X136536133Y-92825914D01*
X136488514Y-92921152D01*
X136440895Y-92968771D01*
X136345657Y-93016390D01*
X135964704Y-93016390D01*
X136869466Y-92492580D02*
X137536133Y-92492580D01*
X137107561Y-93492580D01*
%TO.C,R6*%
X136586933Y-91409780D02*
X136253600Y-90933590D01*
X136015504Y-91409780D02*
X136015504Y-90409780D01*
X136396457Y-90409780D01*
X136491695Y-90457400D01*
X136539314Y-90505019D01*
X136586933Y-90600257D01*
X136586933Y-90743114D01*
X136539314Y-90838352D01*
X136491695Y-90885971D01*
X136396457Y-90933590D01*
X136015504Y-90933590D01*
X137444076Y-90409780D02*
X137253600Y-90409780D01*
X137158361Y-90457400D01*
X137110742Y-90505019D01*
X137015504Y-90647876D01*
X136967885Y-90838352D01*
X136967885Y-91219304D01*
X137015504Y-91314542D01*
X137063123Y-91362161D01*
X137158361Y-91409780D01*
X137348838Y-91409780D01*
X137444076Y-91362161D01*
X137491695Y-91314542D01*
X137539314Y-91219304D01*
X137539314Y-90981209D01*
X137491695Y-90885971D01*
X137444076Y-90838352D01*
X137348838Y-90790733D01*
X137158361Y-90790733D01*
X137063123Y-90838352D01*
X137015504Y-90885971D01*
X136967885Y-90981209D01*
%TO.C,R5*%
X136510733Y-89276180D02*
X136177400Y-88799990D01*
X135939304Y-89276180D02*
X135939304Y-88276180D01*
X136320257Y-88276180D01*
X136415495Y-88323800D01*
X136463114Y-88371419D01*
X136510733Y-88466657D01*
X136510733Y-88609514D01*
X136463114Y-88704752D01*
X136415495Y-88752371D01*
X136320257Y-88799990D01*
X135939304Y-88799990D01*
X137415495Y-88276180D02*
X136939304Y-88276180D01*
X136891685Y-88752371D01*
X136939304Y-88704752D01*
X137034542Y-88657133D01*
X137272638Y-88657133D01*
X137367876Y-88704752D01*
X137415495Y-88752371D01*
X137463114Y-88847609D01*
X137463114Y-89085704D01*
X137415495Y-89180942D01*
X137367876Y-89228561D01*
X137272638Y-89276180D01*
X137034542Y-89276180D01*
X136939304Y-89228561D01*
X136891685Y-89180942D01*
%TO.C,R4*%
X173620133Y-79954380D02*
X173286800Y-79478190D01*
X173048704Y-79954380D02*
X173048704Y-78954380D01*
X173429657Y-78954380D01*
X173524895Y-79002000D01*
X173572514Y-79049619D01*
X173620133Y-79144857D01*
X173620133Y-79287714D01*
X173572514Y-79382952D01*
X173524895Y-79430571D01*
X173429657Y-79478190D01*
X173048704Y-79478190D01*
X174477276Y-79287714D02*
X174477276Y-79954380D01*
X174239180Y-78906761D02*
X174001085Y-79621047D01*
X174620133Y-79621047D01*
%TO.C,R3*%
X171588133Y-79928980D02*
X171254800Y-79452790D01*
X171016704Y-79928980D02*
X171016704Y-78928980D01*
X171397657Y-78928980D01*
X171492895Y-78976600D01*
X171540514Y-79024219D01*
X171588133Y-79119457D01*
X171588133Y-79262314D01*
X171540514Y-79357552D01*
X171492895Y-79405171D01*
X171397657Y-79452790D01*
X171016704Y-79452790D01*
X171921466Y-78928980D02*
X172540514Y-78928980D01*
X172207180Y-79309933D01*
X172350038Y-79309933D01*
X172445276Y-79357552D01*
X172492895Y-79405171D01*
X172540514Y-79500409D01*
X172540514Y-79738504D01*
X172492895Y-79833742D01*
X172445276Y-79881361D01*
X172350038Y-79928980D01*
X172064323Y-79928980D01*
X171969085Y-79881361D01*
X171921466Y-79833742D01*
%TO.C,R2*%
X169530733Y-79878180D02*
X169197400Y-79401990D01*
X168959304Y-79878180D02*
X168959304Y-78878180D01*
X169340257Y-78878180D01*
X169435495Y-78925800D01*
X169483114Y-78973419D01*
X169530733Y-79068657D01*
X169530733Y-79211514D01*
X169483114Y-79306752D01*
X169435495Y-79354371D01*
X169340257Y-79401990D01*
X168959304Y-79401990D01*
X169911685Y-78973419D02*
X169959304Y-78925800D01*
X170054542Y-78878180D01*
X170292638Y-78878180D01*
X170387876Y-78925800D01*
X170435495Y-78973419D01*
X170483114Y-79068657D01*
X170483114Y-79163895D01*
X170435495Y-79306752D01*
X169864066Y-79878180D01*
X170483114Y-79878180D01*
%TO.C,R1*%
X167498733Y-79827380D02*
X167165400Y-79351190D01*
X166927304Y-79827380D02*
X166927304Y-78827380D01*
X167308257Y-78827380D01*
X167403495Y-78875000D01*
X167451114Y-78922619D01*
X167498733Y-79017857D01*
X167498733Y-79160714D01*
X167451114Y-79255952D01*
X167403495Y-79303571D01*
X167308257Y-79351190D01*
X166927304Y-79351190D01*
X168451114Y-79827380D02*
X167879685Y-79827380D01*
X168165400Y-79827380D02*
X168165400Y-78827380D01*
X168070161Y-78970238D01*
X167974923Y-79065476D01*
X167879685Y-79113095D01*
%TO.C,L1*%
X170743009Y-100469320D02*
X170406291Y-100132602D01*
X171113398Y-99425496D01*
X171349100Y-101075412D02*
X170945039Y-100671351D01*
X171147070Y-100873381D02*
X171854177Y-100166274D01*
X171685818Y-100199946D01*
X171551131Y-100199946D01*
X171450116Y-100166274D01*
%TO.C,J9*%
X177190081Y-103469806D02*
X176685005Y-103974882D01*
X176550318Y-104042226D01*
X176415631Y-104042226D01*
X176280944Y-103974882D01*
X176213601Y-103907539D01*
X176853364Y-104547302D02*
X176988051Y-104681989D01*
X177089066Y-104715661D01*
X177156410Y-104715661D01*
X177324768Y-104681989D01*
X177493127Y-104580974D01*
X177762501Y-104311600D01*
X177796173Y-104210585D01*
X177796173Y-104143241D01*
X177762501Y-104042226D01*
X177627814Y-103907539D01*
X177526799Y-103873867D01*
X177459455Y-103873867D01*
X177358440Y-103907539D01*
X177190081Y-104075898D01*
X177156410Y-104176913D01*
X177156410Y-104244256D01*
X177190081Y-104345272D01*
X177324768Y-104479959D01*
X177425784Y-104513630D01*
X177493127Y-104513630D01*
X177594142Y-104479959D01*
%TO.C,J8*%
X174058780Y-82172133D02*
X174773066Y-82172133D01*
X174915923Y-82219752D01*
X175011161Y-82314990D01*
X175058780Y-82457847D01*
X175058780Y-82553085D01*
X174487352Y-81553085D02*
X174439733Y-81648323D01*
X174392114Y-81695942D01*
X174296876Y-81743561D01*
X174249257Y-81743561D01*
X174154019Y-81695942D01*
X174106400Y-81648323D01*
X174058780Y-81553085D01*
X174058780Y-81362609D01*
X174106400Y-81267371D01*
X174154019Y-81219752D01*
X174249257Y-81172133D01*
X174296876Y-81172133D01*
X174392114Y-81219752D01*
X174439733Y-81267371D01*
X174487352Y-81362609D01*
X174487352Y-81553085D01*
X174534971Y-81648323D01*
X174582590Y-81695942D01*
X174677828Y-81743561D01*
X174868304Y-81743561D01*
X174963542Y-81695942D01*
X175011161Y-81648323D01*
X175058780Y-81553085D01*
X175058780Y-81362609D01*
X175011161Y-81267371D01*
X174963542Y-81219752D01*
X174868304Y-81172133D01*
X174677828Y-81172133D01*
X174582590Y-81219752D01*
X174534971Y-81267371D01*
X174487352Y-81362609D01*
%TO.C,J7*%
X100657066Y-91534180D02*
X100657066Y-92248466D01*
X100609447Y-92391323D01*
X100514209Y-92486561D01*
X100371352Y-92534180D01*
X100276114Y-92534180D01*
X101038019Y-91534180D02*
X101704685Y-91534180D01*
X101276114Y-92534180D01*
%TO.C,J6*%
X165852380Y-117143333D02*
X166566666Y-117143333D01*
X166709523Y-117190952D01*
X166804761Y-117286190D01*
X166852380Y-117429047D01*
X166852380Y-117524285D01*
X165852380Y-116238571D02*
X165852380Y-116429047D01*
X165900000Y-116524285D01*
X165947619Y-116571904D01*
X166090476Y-116667142D01*
X166280952Y-116714761D01*
X166661904Y-116714761D01*
X166757142Y-116667142D01*
X166804761Y-116619523D01*
X166852380Y-116524285D01*
X166852380Y-116333809D01*
X166804761Y-116238571D01*
X166757142Y-116190952D01*
X166661904Y-116143333D01*
X166423809Y-116143333D01*
X166328571Y-116190952D01*
X166280952Y-116238571D01*
X166233333Y-116333809D01*
X166233333Y-116524285D01*
X166280952Y-116619523D01*
X166328571Y-116667142D01*
X166423809Y-116714761D01*
%TO.C,D1*%
X121828380Y-80188895D02*
X120828380Y-80188895D01*
X120828380Y-79950800D01*
X120876000Y-79807942D01*
X120971238Y-79712704D01*
X121066476Y-79665085D01*
X121256952Y-79617466D01*
X121399809Y-79617466D01*
X121590285Y-79665085D01*
X121685523Y-79712704D01*
X121780761Y-79807942D01*
X121828380Y-79950800D01*
X121828380Y-80188895D01*
X121828380Y-78665085D02*
X121828380Y-79236514D01*
X121828380Y-78950800D02*
X120828380Y-78950800D01*
X120971238Y-79046038D01*
X121066476Y-79141276D01*
X121114095Y-79236514D01*
%TO.C,C29*%
X175794569Y-101062506D02*
X175794569Y-101129850D01*
X175727225Y-101264537D01*
X175659882Y-101331880D01*
X175525195Y-101399224D01*
X175390508Y-101399224D01*
X175289493Y-101365552D01*
X175121134Y-101264537D01*
X175020119Y-101163522D01*
X174919103Y-100995163D01*
X174885432Y-100894148D01*
X174885432Y-100759461D01*
X174952775Y-100624774D01*
X175020119Y-100557430D01*
X175154806Y-100490087D01*
X175222149Y-100490087D01*
X175491523Y-100220712D02*
X175491523Y-100153369D01*
X175525195Y-100052354D01*
X175693554Y-99883995D01*
X175794569Y-99850323D01*
X175861912Y-99850323D01*
X175962928Y-99883995D01*
X176030271Y-99951338D01*
X176097615Y-100086025D01*
X176097615Y-100894148D01*
X176535348Y-100456415D01*
X176872065Y-100119697D02*
X177006752Y-99985010D01*
X177040424Y-99883995D01*
X177040424Y-99816651D01*
X177006752Y-99648293D01*
X176905737Y-99479934D01*
X176636363Y-99210560D01*
X176535348Y-99176888D01*
X176468004Y-99176888D01*
X176366989Y-99210560D01*
X176232302Y-99345247D01*
X176198630Y-99446262D01*
X176198630Y-99513606D01*
X176232302Y-99614621D01*
X176400661Y-99782980D01*
X176501676Y-99816651D01*
X176569019Y-99816651D01*
X176670035Y-99782980D01*
X176804722Y-99648293D01*
X176838393Y-99547277D01*
X176838393Y-99479934D01*
X176804722Y-99378919D01*
%TO.C,C28*%
X178385742Y-92057457D02*
X178433361Y-92105076D01*
X178480980Y-92247933D01*
X178480980Y-92343171D01*
X178433361Y-92486028D01*
X178338123Y-92581266D01*
X178242885Y-92628885D01*
X178052409Y-92676504D01*
X177909552Y-92676504D01*
X177719076Y-92628885D01*
X177623838Y-92581266D01*
X177528600Y-92486028D01*
X177480980Y-92343171D01*
X177480980Y-92247933D01*
X177528600Y-92105076D01*
X177576219Y-92057457D01*
X177576219Y-91676504D02*
X177528600Y-91628885D01*
X177480980Y-91533647D01*
X177480980Y-91295552D01*
X177528600Y-91200314D01*
X177576219Y-91152695D01*
X177671457Y-91105076D01*
X177766695Y-91105076D01*
X177909552Y-91152695D01*
X178480980Y-91724123D01*
X178480980Y-91105076D01*
X177909552Y-90533647D02*
X177861933Y-90628885D01*
X177814314Y-90676504D01*
X177719076Y-90724123D01*
X177671457Y-90724123D01*
X177576219Y-90676504D01*
X177528600Y-90628885D01*
X177480980Y-90533647D01*
X177480980Y-90343171D01*
X177528600Y-90247933D01*
X177576219Y-90200314D01*
X177671457Y-90152695D01*
X177719076Y-90152695D01*
X177814314Y-90200314D01*
X177861933Y-90247933D01*
X177909552Y-90343171D01*
X177909552Y-90533647D01*
X177957171Y-90628885D01*
X178004790Y-90676504D01*
X178100028Y-90724123D01*
X178290504Y-90724123D01*
X178385742Y-90676504D01*
X178433361Y-90628885D01*
X178480980Y-90533647D01*
X178480980Y-90343171D01*
X178433361Y-90247933D01*
X178385742Y-90200314D01*
X178290504Y-90152695D01*
X178100028Y-90152695D01*
X178004790Y-90200314D01*
X177957171Y-90247933D01*
X177909552Y-90343171D01*
%TO.C,C27*%
X171612407Y-96874390D02*
X171612407Y-96941734D01*
X171545063Y-97076421D01*
X171477720Y-97143764D01*
X171343033Y-97211108D01*
X171208346Y-97211108D01*
X171107331Y-97177436D01*
X170938972Y-97076421D01*
X170837957Y-96975406D01*
X170736941Y-96807047D01*
X170703270Y-96706032D01*
X170703270Y-96571345D01*
X170770613Y-96436658D01*
X170837957Y-96369314D01*
X170972644Y-96301971D01*
X171039987Y-96301971D01*
X171309361Y-96032596D02*
X171309361Y-95965253D01*
X171343033Y-95864238D01*
X171511392Y-95695879D01*
X171612407Y-95662207D01*
X171679750Y-95662207D01*
X171780766Y-95695879D01*
X171848109Y-95763222D01*
X171915453Y-95897909D01*
X171915453Y-96706032D01*
X172353186Y-96268299D01*
X171881781Y-95325490D02*
X172353186Y-94854085D01*
X172757247Y-95864238D01*
%TO.C,C26*%
X151626242Y-86209142D02*
X151578623Y-86256761D01*
X151435766Y-86304380D01*
X151340528Y-86304380D01*
X151197671Y-86256761D01*
X151102433Y-86161523D01*
X151054814Y-86066285D01*
X151007195Y-85875809D01*
X151007195Y-85732952D01*
X151054814Y-85542476D01*
X151102433Y-85447238D01*
X151197671Y-85352000D01*
X151340528Y-85304380D01*
X151435766Y-85304380D01*
X151578623Y-85352000D01*
X151626242Y-85399619D01*
X152007195Y-85399619D02*
X152054814Y-85352000D01*
X152150052Y-85304380D01*
X152388147Y-85304380D01*
X152483385Y-85352000D01*
X152531004Y-85399619D01*
X152578623Y-85494857D01*
X152578623Y-85590095D01*
X152531004Y-85732952D01*
X151959576Y-86304380D01*
X152578623Y-86304380D01*
X153435766Y-85304380D02*
X153245290Y-85304380D01*
X153150052Y-85352000D01*
X153102433Y-85399619D01*
X153007195Y-85542476D01*
X152959576Y-85732952D01*
X152959576Y-86113904D01*
X153007195Y-86209142D01*
X153054814Y-86256761D01*
X153150052Y-86304380D01*
X153340528Y-86304380D01*
X153435766Y-86256761D01*
X153483385Y-86209142D01*
X153531004Y-86113904D01*
X153531004Y-85875809D01*
X153483385Y-85780571D01*
X153435766Y-85732952D01*
X153340528Y-85685333D01*
X153150052Y-85685333D01*
X153054814Y-85732952D01*
X153007195Y-85780571D01*
X152959576Y-85875809D01*
%TO.C,C24*%
X116853642Y-87500942D02*
X116806023Y-87548561D01*
X116663166Y-87596180D01*
X116567928Y-87596180D01*
X116425071Y-87548561D01*
X116329833Y-87453323D01*
X116282214Y-87358085D01*
X116234595Y-87167609D01*
X116234595Y-87024752D01*
X116282214Y-86834276D01*
X116329833Y-86739038D01*
X116425071Y-86643800D01*
X116567928Y-86596180D01*
X116663166Y-86596180D01*
X116806023Y-86643800D01*
X116853642Y-86691419D01*
X117234595Y-86691419D02*
X117282214Y-86643800D01*
X117377452Y-86596180D01*
X117615547Y-86596180D01*
X117710785Y-86643800D01*
X117758404Y-86691419D01*
X117806023Y-86786657D01*
X117806023Y-86881895D01*
X117758404Y-87024752D01*
X117186976Y-87596180D01*
X117806023Y-87596180D01*
X118663166Y-86929514D02*
X118663166Y-87596180D01*
X118425071Y-86548561D02*
X118186976Y-87262847D01*
X118806023Y-87262847D01*
%TO.C,C23*%
X108932742Y-90886342D02*
X108885123Y-90933961D01*
X108742266Y-90981580D01*
X108647028Y-90981580D01*
X108504171Y-90933961D01*
X108408933Y-90838723D01*
X108361314Y-90743485D01*
X108313695Y-90553009D01*
X108313695Y-90410152D01*
X108361314Y-90219676D01*
X108408933Y-90124438D01*
X108504171Y-90029200D01*
X108647028Y-89981580D01*
X108742266Y-89981580D01*
X108885123Y-90029200D01*
X108932742Y-90076819D01*
X109313695Y-90076819D02*
X109361314Y-90029200D01*
X109456552Y-89981580D01*
X109694647Y-89981580D01*
X109789885Y-90029200D01*
X109837504Y-90076819D01*
X109885123Y-90172057D01*
X109885123Y-90267295D01*
X109837504Y-90410152D01*
X109266076Y-90981580D01*
X109885123Y-90981580D01*
X110218457Y-89981580D02*
X110837504Y-89981580D01*
X110504171Y-90362533D01*
X110647028Y-90362533D01*
X110742266Y-90410152D01*
X110789885Y-90457771D01*
X110837504Y-90553009D01*
X110837504Y-90791104D01*
X110789885Y-90886342D01*
X110742266Y-90933961D01*
X110647028Y-90981580D01*
X110361314Y-90981580D01*
X110266076Y-90933961D01*
X110218457Y-90886342D01*
%TO.C,C21*%
X109014742Y-83806357D02*
X109062361Y-83853976D01*
X109109980Y-83996833D01*
X109109980Y-84092071D01*
X109062361Y-84234928D01*
X108967123Y-84330166D01*
X108871885Y-84377785D01*
X108681409Y-84425404D01*
X108538552Y-84425404D01*
X108348076Y-84377785D01*
X108252838Y-84330166D01*
X108157600Y-84234928D01*
X108109980Y-84092071D01*
X108109980Y-83996833D01*
X108157600Y-83853976D01*
X108205219Y-83806357D01*
X108205219Y-83425404D02*
X108157600Y-83377785D01*
X108109980Y-83282547D01*
X108109980Y-83044452D01*
X108157600Y-82949214D01*
X108205219Y-82901595D01*
X108300457Y-82853976D01*
X108395695Y-82853976D01*
X108538552Y-82901595D01*
X109109980Y-83473023D01*
X109109980Y-82853976D01*
X109109980Y-81901595D02*
X109109980Y-82473023D01*
X109109980Y-82187309D02*
X108109980Y-82187309D01*
X108252838Y-82282547D01*
X108348076Y-82377785D01*
X108395695Y-82473023D01*
%TO.C,C20*%
X129592342Y-105544857D02*
X129639961Y-105592476D01*
X129687580Y-105735333D01*
X129687580Y-105830571D01*
X129639961Y-105973428D01*
X129544723Y-106068666D01*
X129449485Y-106116285D01*
X129259009Y-106163904D01*
X129116152Y-106163904D01*
X128925676Y-106116285D01*
X128830438Y-106068666D01*
X128735200Y-105973428D01*
X128687580Y-105830571D01*
X128687580Y-105735333D01*
X128735200Y-105592476D01*
X128782819Y-105544857D01*
X128782819Y-105163904D02*
X128735200Y-105116285D01*
X128687580Y-105021047D01*
X128687580Y-104782952D01*
X128735200Y-104687714D01*
X128782819Y-104640095D01*
X128878057Y-104592476D01*
X128973295Y-104592476D01*
X129116152Y-104640095D01*
X129687580Y-105211523D01*
X129687580Y-104592476D01*
X128687580Y-103973428D02*
X128687580Y-103878190D01*
X128735200Y-103782952D01*
X128782819Y-103735333D01*
X128878057Y-103687714D01*
X129068533Y-103640095D01*
X129306628Y-103640095D01*
X129497104Y-103687714D01*
X129592342Y-103735333D01*
X129639961Y-103782952D01*
X129687580Y-103878190D01*
X129687580Y-103973428D01*
X129639961Y-104068666D01*
X129592342Y-104116285D01*
X129497104Y-104163904D01*
X129306628Y-104211523D01*
X129068533Y-104211523D01*
X128878057Y-104163904D01*
X128782819Y-104116285D01*
X128735200Y-104068666D01*
X128687580Y-103973428D01*
X126528580Y-104889300D02*
X126766676Y-104889300D01*
X126671438Y-105127395D02*
X126766676Y-104889300D01*
X126671438Y-104651204D01*
X126957152Y-105032157D02*
X126766676Y-104889300D01*
X126957152Y-104746442D01*
%TO.C,C19*%
X122759742Y-105544857D02*
X122807361Y-105592476D01*
X122854980Y-105735333D01*
X122854980Y-105830571D01*
X122807361Y-105973428D01*
X122712123Y-106068666D01*
X122616885Y-106116285D01*
X122426409Y-106163904D01*
X122283552Y-106163904D01*
X122093076Y-106116285D01*
X121997838Y-106068666D01*
X121902600Y-105973428D01*
X121854980Y-105830571D01*
X121854980Y-105735333D01*
X121902600Y-105592476D01*
X121950219Y-105544857D01*
X122854980Y-104592476D02*
X122854980Y-105163904D01*
X122854980Y-104878190D02*
X121854980Y-104878190D01*
X121997838Y-104973428D01*
X122093076Y-105068666D01*
X122140695Y-105163904D01*
X122854980Y-104116285D02*
X122854980Y-103925809D01*
X122807361Y-103830571D01*
X122759742Y-103782952D01*
X122616885Y-103687714D01*
X122426409Y-103640095D01*
X122045457Y-103640095D01*
X121950219Y-103687714D01*
X121902600Y-103735333D01*
X121854980Y-103830571D01*
X121854980Y-104021047D01*
X121902600Y-104116285D01*
X121950219Y-104163904D01*
X122045457Y-104211523D01*
X122283552Y-104211523D01*
X122378790Y-104163904D01*
X122426409Y-104116285D01*
X122474028Y-104021047D01*
X122474028Y-103830571D01*
X122426409Y-103735333D01*
X122378790Y-103687714D01*
X122283552Y-103640095D01*
X123798080Y-104876600D02*
X124036176Y-104876600D01*
X123940938Y-105114695D02*
X124036176Y-104876600D01*
X123940938Y-104638504D01*
X124226652Y-105019457D02*
X124036176Y-104876600D01*
X124226652Y-104733742D01*
%TO.C,C18*%
X119254542Y-104960657D02*
X119302161Y-105008276D01*
X119349780Y-105151133D01*
X119349780Y-105246371D01*
X119302161Y-105389228D01*
X119206923Y-105484466D01*
X119111685Y-105532085D01*
X118921209Y-105579704D01*
X118778352Y-105579704D01*
X118587876Y-105532085D01*
X118492638Y-105484466D01*
X118397400Y-105389228D01*
X118349780Y-105246371D01*
X118349780Y-105151133D01*
X118397400Y-105008276D01*
X118445019Y-104960657D01*
X119349780Y-104008276D02*
X119349780Y-104579704D01*
X119349780Y-104293990D02*
X118349780Y-104293990D01*
X118492638Y-104389228D01*
X118587876Y-104484466D01*
X118635495Y-104579704D01*
X118778352Y-103436847D02*
X118730733Y-103532085D01*
X118683114Y-103579704D01*
X118587876Y-103627323D01*
X118540257Y-103627323D01*
X118445019Y-103579704D01*
X118397400Y-103532085D01*
X118349780Y-103436847D01*
X118349780Y-103246371D01*
X118397400Y-103151133D01*
X118445019Y-103103514D01*
X118540257Y-103055895D01*
X118587876Y-103055895D01*
X118683114Y-103103514D01*
X118730733Y-103151133D01*
X118778352Y-103246371D01*
X118778352Y-103436847D01*
X118825971Y-103532085D01*
X118873590Y-103579704D01*
X118968828Y-103627323D01*
X119159304Y-103627323D01*
X119254542Y-103579704D01*
X119302161Y-103532085D01*
X119349780Y-103436847D01*
X119349780Y-103246371D01*
X119302161Y-103151133D01*
X119254542Y-103103514D01*
X119159304Y-103055895D01*
X118968828Y-103055895D01*
X118873590Y-103103514D01*
X118825971Y-103151133D01*
X118778352Y-103246371D01*
X116128800Y-103655880D02*
X116128800Y-103893976D01*
X115890704Y-103798738D02*
X116128800Y-103893976D01*
X116366895Y-103798738D01*
X115985942Y-104084452D02*
X116128800Y-103893976D01*
X116271657Y-104084452D01*
%TO.C,C17*%
X119203742Y-100642657D02*
X119251361Y-100690276D01*
X119298980Y-100833133D01*
X119298980Y-100928371D01*
X119251361Y-101071228D01*
X119156123Y-101166466D01*
X119060885Y-101214085D01*
X118870409Y-101261704D01*
X118727552Y-101261704D01*
X118537076Y-101214085D01*
X118441838Y-101166466D01*
X118346600Y-101071228D01*
X118298980Y-100928371D01*
X118298980Y-100833133D01*
X118346600Y-100690276D01*
X118394219Y-100642657D01*
X119298980Y-99690276D02*
X119298980Y-100261704D01*
X119298980Y-99975990D02*
X118298980Y-99975990D01*
X118441838Y-100071228D01*
X118537076Y-100166466D01*
X118584695Y-100261704D01*
X118298980Y-99356942D02*
X118298980Y-98690276D01*
X119298980Y-99118847D01*
X116205000Y-99452180D02*
X116205000Y-99690276D01*
X115966904Y-99595038D02*
X116205000Y-99690276D01*
X116443095Y-99595038D01*
X116062142Y-99880752D02*
X116205000Y-99690276D01*
X116347857Y-99880752D01*
%TO.C,C16*%
X126886642Y-100581942D02*
X126839023Y-100629561D01*
X126696166Y-100677180D01*
X126600928Y-100677180D01*
X126458071Y-100629561D01*
X126362833Y-100534323D01*
X126315214Y-100439085D01*
X126267595Y-100248609D01*
X126267595Y-100105752D01*
X126315214Y-99915276D01*
X126362833Y-99820038D01*
X126458071Y-99724800D01*
X126600928Y-99677180D01*
X126696166Y-99677180D01*
X126839023Y-99724800D01*
X126886642Y-99772419D01*
X127839023Y-100677180D02*
X127267595Y-100677180D01*
X127553309Y-100677180D02*
X127553309Y-99677180D01*
X127458071Y-99820038D01*
X127362833Y-99915276D01*
X127267595Y-99962895D01*
X128696166Y-99677180D02*
X128505690Y-99677180D01*
X128410452Y-99724800D01*
X128362833Y-99772419D01*
X128267595Y-99915276D01*
X128219976Y-100105752D01*
X128219976Y-100486704D01*
X128267595Y-100581942D01*
X128315214Y-100629561D01*
X128410452Y-100677180D01*
X128600928Y-100677180D01*
X128696166Y-100629561D01*
X128743785Y-100581942D01*
X128791404Y-100486704D01*
X128791404Y-100248609D01*
X128743785Y-100153371D01*
X128696166Y-100105752D01*
X128600928Y-100058133D01*
X128410452Y-100058133D01*
X128315214Y-100105752D01*
X128267595Y-100153371D01*
X128219976Y-100248609D01*
%TO.C,C15*%
X122619442Y-100581942D02*
X122571823Y-100629561D01*
X122428966Y-100677180D01*
X122333728Y-100677180D01*
X122190871Y-100629561D01*
X122095633Y-100534323D01*
X122048014Y-100439085D01*
X122000395Y-100248609D01*
X122000395Y-100105752D01*
X122048014Y-99915276D01*
X122095633Y-99820038D01*
X122190871Y-99724800D01*
X122333728Y-99677180D01*
X122428966Y-99677180D01*
X122571823Y-99724800D01*
X122619442Y-99772419D01*
X123571823Y-100677180D02*
X123000395Y-100677180D01*
X123286109Y-100677180D02*
X123286109Y-99677180D01*
X123190871Y-99820038D01*
X123095633Y-99915276D01*
X123000395Y-99962895D01*
X124476585Y-99677180D02*
X124000395Y-99677180D01*
X123952776Y-100153371D01*
X124000395Y-100105752D01*
X124095633Y-100058133D01*
X124333728Y-100058133D01*
X124428966Y-100105752D01*
X124476585Y-100153371D01*
X124524204Y-100248609D01*
X124524204Y-100486704D01*
X124476585Y-100581942D01*
X124428966Y-100629561D01*
X124333728Y-100677180D01*
X124095633Y-100677180D01*
X124000395Y-100629561D01*
X123952776Y-100581942D01*
%TO.C,C14*%
X113682542Y-78364142D02*
X113634923Y-78411761D01*
X113492066Y-78459380D01*
X113396828Y-78459380D01*
X113253971Y-78411761D01*
X113158733Y-78316523D01*
X113111114Y-78221285D01*
X113063495Y-78030809D01*
X113063495Y-77887952D01*
X113111114Y-77697476D01*
X113158733Y-77602238D01*
X113253971Y-77507000D01*
X113396828Y-77459380D01*
X113492066Y-77459380D01*
X113634923Y-77507000D01*
X113682542Y-77554619D01*
X114634923Y-78459380D02*
X114063495Y-78459380D01*
X114349209Y-78459380D02*
X114349209Y-77459380D01*
X114253971Y-77602238D01*
X114158733Y-77697476D01*
X114063495Y-77745095D01*
X115492066Y-77792714D02*
X115492066Y-78459380D01*
X115253971Y-77411761D02*
X115015876Y-78126047D01*
X115634923Y-78126047D01*
%TO.C,C13*%
X114682542Y-109202457D02*
X114730161Y-109250076D01*
X114777780Y-109392933D01*
X114777780Y-109488171D01*
X114730161Y-109631028D01*
X114634923Y-109726266D01*
X114539685Y-109773885D01*
X114349209Y-109821504D01*
X114206352Y-109821504D01*
X114015876Y-109773885D01*
X113920638Y-109726266D01*
X113825400Y-109631028D01*
X113777780Y-109488171D01*
X113777780Y-109392933D01*
X113825400Y-109250076D01*
X113873019Y-109202457D01*
X114777780Y-108250076D02*
X114777780Y-108821504D01*
X114777780Y-108535790D02*
X113777780Y-108535790D01*
X113920638Y-108631028D01*
X114015876Y-108726266D01*
X114063495Y-108821504D01*
X113777780Y-107916742D02*
X113777780Y-107297695D01*
X114158733Y-107631028D01*
X114158733Y-107488171D01*
X114206352Y-107392933D01*
X114253971Y-107345314D01*
X114349209Y-107297695D01*
X114587304Y-107297695D01*
X114682542Y-107345314D01*
X114730161Y-107392933D01*
X114777780Y-107488171D01*
X114777780Y-107773885D01*
X114730161Y-107869123D01*
X114682542Y-107916742D01*
%TO.C,C12*%
X114403142Y-95181657D02*
X114450761Y-95229276D01*
X114498380Y-95372133D01*
X114498380Y-95467371D01*
X114450761Y-95610228D01*
X114355523Y-95705466D01*
X114260285Y-95753085D01*
X114069809Y-95800704D01*
X113926952Y-95800704D01*
X113736476Y-95753085D01*
X113641238Y-95705466D01*
X113546000Y-95610228D01*
X113498380Y-95467371D01*
X113498380Y-95372133D01*
X113546000Y-95229276D01*
X113593619Y-95181657D01*
X114498380Y-94229276D02*
X114498380Y-94800704D01*
X114498380Y-94514990D02*
X113498380Y-94514990D01*
X113641238Y-94610228D01*
X113736476Y-94705466D01*
X113784095Y-94800704D01*
X113593619Y-93848323D02*
X113546000Y-93800704D01*
X113498380Y-93705466D01*
X113498380Y-93467371D01*
X113546000Y-93372133D01*
X113593619Y-93324514D01*
X113688857Y-93276895D01*
X113784095Y-93276895D01*
X113926952Y-93324514D01*
X114498380Y-93895942D01*
X114498380Y-93276895D01*
%TO.C,C11*%
X147423142Y-85021657D02*
X147470761Y-85069276D01*
X147518380Y-85212133D01*
X147518380Y-85307371D01*
X147470761Y-85450228D01*
X147375523Y-85545466D01*
X147280285Y-85593085D01*
X147089809Y-85640704D01*
X146946952Y-85640704D01*
X146756476Y-85593085D01*
X146661238Y-85545466D01*
X146566000Y-85450228D01*
X146518380Y-85307371D01*
X146518380Y-85212133D01*
X146566000Y-85069276D01*
X146613619Y-85021657D01*
X147518380Y-84069276D02*
X147518380Y-84640704D01*
X147518380Y-84354990D02*
X146518380Y-84354990D01*
X146661238Y-84450228D01*
X146756476Y-84545466D01*
X146804095Y-84640704D01*
X147518380Y-83116895D02*
X147518380Y-83688323D01*
X147518380Y-83402609D02*
X146518380Y-83402609D01*
X146661238Y-83497847D01*
X146756476Y-83593085D01*
X146804095Y-83688323D01*
%TO.C,C10*%
X140936742Y-85222142D02*
X140889123Y-85269761D01*
X140746266Y-85317380D01*
X140651028Y-85317380D01*
X140508171Y-85269761D01*
X140412933Y-85174523D01*
X140365314Y-85079285D01*
X140317695Y-84888809D01*
X140317695Y-84745952D01*
X140365314Y-84555476D01*
X140412933Y-84460238D01*
X140508171Y-84365000D01*
X140651028Y-84317380D01*
X140746266Y-84317380D01*
X140889123Y-84365000D01*
X140936742Y-84412619D01*
X141889123Y-85317380D02*
X141317695Y-85317380D01*
X141603409Y-85317380D02*
X141603409Y-84317380D01*
X141508171Y-84460238D01*
X141412933Y-84555476D01*
X141317695Y-84603095D01*
X142508171Y-84317380D02*
X142603409Y-84317380D01*
X142698647Y-84365000D01*
X142746266Y-84412619D01*
X142793885Y-84507857D01*
X142841504Y-84698333D01*
X142841504Y-84936428D01*
X142793885Y-85126904D01*
X142746266Y-85222142D01*
X142698647Y-85269761D01*
X142603409Y-85317380D01*
X142508171Y-85317380D01*
X142412933Y-85269761D01*
X142365314Y-85222142D01*
X142317695Y-85126904D01*
X142270076Y-84936428D01*
X142270076Y-84698333D01*
X142317695Y-84507857D01*
X142365314Y-84412619D01*
X142412933Y-84365000D01*
X142508171Y-84317380D01*
%TO.C,C9*%
X147248942Y-76243566D02*
X147296561Y-76291185D01*
X147344180Y-76434042D01*
X147344180Y-76529280D01*
X147296561Y-76672138D01*
X147201323Y-76767376D01*
X147106085Y-76814995D01*
X146915609Y-76862614D01*
X146772752Y-76862614D01*
X146582276Y-76814995D01*
X146487038Y-76767376D01*
X146391800Y-76672138D01*
X146344180Y-76529280D01*
X146344180Y-76434042D01*
X146391800Y-76291185D01*
X146439419Y-76243566D01*
X147344180Y-75767376D02*
X147344180Y-75576900D01*
X147296561Y-75481661D01*
X147248942Y-75434042D01*
X147106085Y-75338804D01*
X146915609Y-75291185D01*
X146534657Y-75291185D01*
X146439419Y-75338804D01*
X146391800Y-75386423D01*
X146344180Y-75481661D01*
X146344180Y-75672138D01*
X146391800Y-75767376D01*
X146439419Y-75814995D01*
X146534657Y-75862614D01*
X146772752Y-75862614D01*
X146867990Y-75814995D01*
X146915609Y-75767376D01*
X146963228Y-75672138D01*
X146963228Y-75481661D01*
X146915609Y-75386423D01*
X146867990Y-75338804D01*
X146772752Y-75291185D01*
%TO.C,C8*%
X147524742Y-80227466D02*
X147572361Y-80275085D01*
X147619980Y-80417942D01*
X147619980Y-80513180D01*
X147572361Y-80656038D01*
X147477123Y-80751276D01*
X147381885Y-80798895D01*
X147191409Y-80846514D01*
X147048552Y-80846514D01*
X146858076Y-80798895D01*
X146762838Y-80751276D01*
X146667600Y-80656038D01*
X146619980Y-80513180D01*
X146619980Y-80417942D01*
X146667600Y-80275085D01*
X146715219Y-80227466D01*
X147048552Y-79656038D02*
X147000933Y-79751276D01*
X146953314Y-79798895D01*
X146858076Y-79846514D01*
X146810457Y-79846514D01*
X146715219Y-79798895D01*
X146667600Y-79751276D01*
X146619980Y-79656038D01*
X146619980Y-79465561D01*
X146667600Y-79370323D01*
X146715219Y-79322704D01*
X146810457Y-79275085D01*
X146858076Y-79275085D01*
X146953314Y-79322704D01*
X147000933Y-79370323D01*
X147048552Y-79465561D01*
X147048552Y-79656038D01*
X147096171Y-79751276D01*
X147143790Y-79798895D01*
X147239028Y-79846514D01*
X147429504Y-79846514D01*
X147524742Y-79798895D01*
X147572361Y-79751276D01*
X147619980Y-79656038D01*
X147619980Y-79465561D01*
X147572361Y-79370323D01*
X147524742Y-79322704D01*
X147429504Y-79275085D01*
X147239028Y-79275085D01*
X147143790Y-79322704D01*
X147096171Y-79370323D01*
X147048552Y-79465561D01*
%TO.C,C7*%
X126477733Y-87631542D02*
X126430114Y-87679161D01*
X126287257Y-87726780D01*
X126192019Y-87726780D01*
X126049161Y-87679161D01*
X125953923Y-87583923D01*
X125906304Y-87488685D01*
X125858685Y-87298209D01*
X125858685Y-87155352D01*
X125906304Y-86964876D01*
X125953923Y-86869638D01*
X126049161Y-86774400D01*
X126192019Y-86726780D01*
X126287257Y-86726780D01*
X126430114Y-86774400D01*
X126477733Y-86822019D01*
X126811066Y-86726780D02*
X127477733Y-86726780D01*
X127049161Y-87726780D01*
%TO.C,C6*%
X170572133Y-67336942D02*
X170524514Y-67384561D01*
X170381657Y-67432180D01*
X170286419Y-67432180D01*
X170143561Y-67384561D01*
X170048323Y-67289323D01*
X170000704Y-67194085D01*
X169953085Y-67003609D01*
X169953085Y-66860752D01*
X170000704Y-66670276D01*
X170048323Y-66575038D01*
X170143561Y-66479800D01*
X170286419Y-66432180D01*
X170381657Y-66432180D01*
X170524514Y-66479800D01*
X170572133Y-66527419D01*
X171429276Y-66432180D02*
X171238800Y-66432180D01*
X171143561Y-66479800D01*
X171095942Y-66527419D01*
X171000704Y-66670276D01*
X170953085Y-66860752D01*
X170953085Y-67241704D01*
X171000704Y-67336942D01*
X171048323Y-67384561D01*
X171143561Y-67432180D01*
X171334038Y-67432180D01*
X171429276Y-67384561D01*
X171476895Y-67336942D01*
X171524514Y-67241704D01*
X171524514Y-67003609D01*
X171476895Y-66908371D01*
X171429276Y-66860752D01*
X171334038Y-66813133D01*
X171143561Y-66813133D01*
X171048323Y-66860752D01*
X171000704Y-66908371D01*
X170953085Y-67003609D01*
%TO.C,C5*%
X135763833Y-73689542D02*
X135716214Y-73737161D01*
X135573357Y-73784780D01*
X135478119Y-73784780D01*
X135335261Y-73737161D01*
X135240023Y-73641923D01*
X135192404Y-73546685D01*
X135144785Y-73356209D01*
X135144785Y-73213352D01*
X135192404Y-73022876D01*
X135240023Y-72927638D01*
X135335261Y-72832400D01*
X135478119Y-72784780D01*
X135573357Y-72784780D01*
X135716214Y-72832400D01*
X135763833Y-72880019D01*
X136668595Y-72784780D02*
X136192404Y-72784780D01*
X136144785Y-73260971D01*
X136192404Y-73213352D01*
X136287642Y-73165733D01*
X136525738Y-73165733D01*
X136620976Y-73213352D01*
X136668595Y-73260971D01*
X136716214Y-73356209D01*
X136716214Y-73594304D01*
X136668595Y-73689542D01*
X136620976Y-73737161D01*
X136525738Y-73784780D01*
X136287642Y-73784780D01*
X136192404Y-73737161D01*
X136144785Y-73689542D01*
%TO.C,C4*%
X175275033Y-67358742D02*
X175227414Y-67406361D01*
X175084557Y-67453980D01*
X174989319Y-67453980D01*
X174846461Y-67406361D01*
X174751223Y-67311123D01*
X174703604Y-67215885D01*
X174655985Y-67025409D01*
X174655985Y-66882552D01*
X174703604Y-66692076D01*
X174751223Y-66596838D01*
X174846461Y-66501600D01*
X174989319Y-66453980D01*
X175084557Y-66453980D01*
X175227414Y-66501600D01*
X175275033Y-66549219D01*
X176132176Y-66787314D02*
X176132176Y-67453980D01*
X175894080Y-66406361D02*
X175655985Y-67120647D01*
X176275033Y-67120647D01*
%TO.C,C3*%
X136755142Y-95340466D02*
X136802761Y-95388085D01*
X136850380Y-95530942D01*
X136850380Y-95626180D01*
X136802761Y-95769038D01*
X136707523Y-95864276D01*
X136612285Y-95911895D01*
X136421809Y-95959514D01*
X136278952Y-95959514D01*
X136088476Y-95911895D01*
X135993238Y-95864276D01*
X135898000Y-95769038D01*
X135850380Y-95626180D01*
X135850380Y-95530942D01*
X135898000Y-95388085D01*
X135945619Y-95340466D01*
X135850380Y-95007133D02*
X135850380Y-94388085D01*
X136231333Y-94721419D01*
X136231333Y-94578561D01*
X136278952Y-94483323D01*
X136326571Y-94435704D01*
X136421809Y-94388085D01*
X136659904Y-94388085D01*
X136755142Y-94435704D01*
X136802761Y-94483323D01*
X136850380Y-94578561D01*
X136850380Y-94864276D01*
X136802761Y-94959514D01*
X136755142Y-95007133D01*
%TO.C,C2*%
X118756133Y-92051142D02*
X118708514Y-92098761D01*
X118565657Y-92146380D01*
X118470419Y-92146380D01*
X118327561Y-92098761D01*
X118232323Y-92003523D01*
X118184704Y-91908285D01*
X118137085Y-91717809D01*
X118137085Y-91574952D01*
X118184704Y-91384476D01*
X118232323Y-91289238D01*
X118327561Y-91194000D01*
X118470419Y-91146380D01*
X118565657Y-91146380D01*
X118708514Y-91194000D01*
X118756133Y-91241619D01*
X119137085Y-91241619D02*
X119184704Y-91194000D01*
X119279942Y-91146380D01*
X119518038Y-91146380D01*
X119613276Y-91194000D01*
X119660895Y-91241619D01*
X119708514Y-91336857D01*
X119708514Y-91432095D01*
X119660895Y-91574952D01*
X119089466Y-92146380D01*
X119708514Y-92146380D01*
%TO.C,C1*%
X129528342Y-73725066D02*
X129575961Y-73772685D01*
X129623580Y-73915542D01*
X129623580Y-74010780D01*
X129575961Y-74153638D01*
X129480723Y-74248876D01*
X129385485Y-74296495D01*
X129195009Y-74344114D01*
X129052152Y-74344114D01*
X128861676Y-74296495D01*
X128766438Y-74248876D01*
X128671200Y-74153638D01*
X128623580Y-74010780D01*
X128623580Y-73915542D01*
X128671200Y-73772685D01*
X128718819Y-73725066D01*
X129623580Y-72772685D02*
X129623580Y-73344114D01*
X129623580Y-73058400D02*
X128623580Y-73058400D01*
X128766438Y-73153638D01*
X128861676Y-73248876D01*
X128909295Y-73344114D01*
%TO.C,J10*%
X155142380Y-117559523D02*
X155856666Y-117559523D01*
X155999523Y-117607142D01*
X156094761Y-117702380D01*
X156142380Y-117845238D01*
X156142380Y-117940476D01*
X156142380Y-116559523D02*
X156142380Y-117130952D01*
X156142380Y-116845238D02*
X155142380Y-116845238D01*
X155285238Y-116940476D01*
X155380476Y-117035714D01*
X155428095Y-117130952D01*
X155142380Y-115940476D02*
X155142380Y-115845238D01*
X155190000Y-115750000D01*
X155237619Y-115702380D01*
X155332857Y-115654761D01*
X155523333Y-115607142D01*
X155761428Y-115607142D01*
X155951904Y-115654761D01*
X156047142Y-115702380D01*
X156094761Y-115750000D01*
X156142380Y-115845238D01*
X156142380Y-115940476D01*
X156094761Y-116035714D01*
X156047142Y-116083333D01*
X155951904Y-116130952D01*
X155761428Y-116178571D01*
X155523333Y-116178571D01*
X155332857Y-116130952D01*
X155237619Y-116083333D01*
X155190000Y-116035714D01*
X155142380Y-115940476D01*
%TO.C,J5*%
X147494666Y-87844380D02*
X147494666Y-88558666D01*
X147447047Y-88701523D01*
X147351809Y-88796761D01*
X147208952Y-88844380D01*
X147113714Y-88844380D01*
X148447047Y-87844380D02*
X147970857Y-87844380D01*
X147923238Y-88320571D01*
X147970857Y-88272952D01*
X148066095Y-88225333D01*
X148304190Y-88225333D01*
X148399428Y-88272952D01*
X148447047Y-88320571D01*
X148494666Y-88415809D01*
X148494666Y-88653904D01*
X148447047Y-88749142D01*
X148399428Y-88796761D01*
X148304190Y-88844380D01*
X148066095Y-88844380D01*
X147970857Y-88796761D01*
X147923238Y-88749142D01*
%TO.C,J4*%
X157689380Y-109578733D02*
X158403666Y-109578733D01*
X158546523Y-109626352D01*
X158641761Y-109721590D01*
X158689380Y-109864447D01*
X158689380Y-109959685D01*
X158022714Y-108673971D02*
X158689380Y-108673971D01*
X157641761Y-108912066D02*
X158356047Y-109150161D01*
X158356047Y-108531114D01*
%TO.C,U3*%
X129819495Y-96810580D02*
X129819495Y-97620104D01*
X129867114Y-97715342D01*
X129914733Y-97762961D01*
X130009971Y-97810580D01*
X130200447Y-97810580D01*
X130295685Y-97762961D01*
X130343304Y-97715342D01*
X130390923Y-97620104D01*
X130390923Y-96810580D01*
X130771876Y-96810580D02*
X131390923Y-96810580D01*
X131057590Y-97191533D01*
X131200447Y-97191533D01*
X131295685Y-97239152D01*
X131343304Y-97286771D01*
X131390923Y-97382009D01*
X131390923Y-97620104D01*
X131343304Y-97715342D01*
X131295685Y-97762961D01*
X131200447Y-97810580D01*
X130914733Y-97810580D01*
X130819495Y-97762961D01*
X130771876Y-97715342D01*
X125603000Y-93381580D02*
X125603000Y-93619676D01*
X125364904Y-93524438D02*
X125603000Y-93619676D01*
X125841095Y-93524438D01*
X125460142Y-93810152D02*
X125603000Y-93619676D01*
X125745857Y-93810152D01*
%TO.C,U6*%
X151333295Y-100214180D02*
X151333295Y-101023704D01*
X151380914Y-101118942D01*
X151428533Y-101166561D01*
X151523771Y-101214180D01*
X151714247Y-101214180D01*
X151809485Y-101166561D01*
X151857104Y-101118942D01*
X151904723Y-101023704D01*
X151904723Y-100214180D01*
X152809485Y-100214180D02*
X152619009Y-100214180D01*
X152523771Y-100261800D01*
X152476152Y-100309419D01*
X152380914Y-100452276D01*
X152333295Y-100642752D01*
X152333295Y-101023704D01*
X152380914Y-101118942D01*
X152428533Y-101166561D01*
X152523771Y-101214180D01*
X152714247Y-101214180D01*
X152809485Y-101166561D01*
X152857104Y-101118942D01*
X152904723Y-101023704D01*
X152904723Y-100785609D01*
X152857104Y-100690371D01*
X152809485Y-100642752D01*
X152714247Y-100595133D01*
X152523771Y-100595133D01*
X152428533Y-100642752D01*
X152380914Y-100690371D01*
X152333295Y-100785609D01*
%TD*%
M02*
