%TF.GenerationSoftware,KiCad,Pcbnew,5.1.9+dfsg1-1*%
%TF.CreationDate,2022-01-11T16:25:16+01:00*%
%TF.ProjectId,wheather_board_v1 ,77686561-7468-4657-925f-626f6172645f,rev?*%
%TF.SameCoordinates,Original*%
%TF.FileFunction,Soldermask,Bot*%
%TF.FilePolarity,Negative*%
%FSLAX46Y46*%
G04 Gerber Fmt 4.6, Leading zero omitted, Abs format (unit mm)*
G04 Created by KiCad (PCBNEW 5.1.9+dfsg1-1) date 2022-01-11 16:25:16*
%MOMM*%
%LPD*%
G01*
G04 APERTURE LIST*
%ADD10C,0.900000*%
%ADD11C,7.500000*%
%ADD12O,1.800000X1.800000*%
G04 APERTURE END LIST*
D10*
%TO.C,*%
X190962221Y-123037779D03*
X189000000Y-122225000D03*
X187037779Y-123037779D03*
X186225000Y-125000000D03*
X187037779Y-126962221D03*
X189000000Y-127775000D03*
X190962221Y-126962221D03*
X191775000Y-125000000D03*
D11*
X189000000Y-125000000D03*
%TD*%
D10*
%TO.C,REF\u002A\u002A*%
X95962221Y-63037779D03*
X94000000Y-62225000D03*
X92037779Y-63037779D03*
X91225000Y-65000000D03*
X92037779Y-66962221D03*
X94000000Y-67775000D03*
X95962221Y-66962221D03*
X96775000Y-65000000D03*
D11*
X94000000Y-65000000D03*
%TD*%
D10*
%TO.C,REF\u002A\u002A*%
X190962221Y-63037779D03*
X189000000Y-62225000D03*
X187037779Y-63037779D03*
X186225000Y-65000000D03*
X187037779Y-66962221D03*
X189000000Y-67775000D03*
X190962221Y-66962221D03*
X191775000Y-65000000D03*
D11*
X189000000Y-65000000D03*
%TD*%
D10*
%TO.C,*%
X95962221Y-123537779D03*
X94000000Y-122725000D03*
X92037779Y-123537779D03*
X91225000Y-125500000D03*
X92037779Y-127462221D03*
X94000000Y-128275000D03*
X95962221Y-127462221D03*
X96775000Y-125500000D03*
D11*
X94000000Y-125500000D03*
%TD*%
D12*
%TO.C,J2*%
X143306800Y-66116200D03*
G36*
G01*
X144206800Y-67806200D02*
X144206800Y-69506200D01*
G75*
G02*
X144156800Y-69556200I-50000J0D01*
G01*
X142456800Y-69556200D01*
G75*
G02*
X142406800Y-69506200I0J50000D01*
G01*
X142406800Y-67806200D01*
G75*
G02*
X142456800Y-67756200I50000J0D01*
G01*
X144156800Y-67756200D01*
G75*
G02*
X144206800Y-67806200I0J-50000D01*
G01*
G37*
%TD*%
%TO.C,J1*%
G36*
G01*
X157290400Y-60288600D02*
X158990400Y-60288600D01*
G75*
G02*
X159040400Y-60338600I0J-50000D01*
G01*
X159040400Y-62038600D01*
G75*
G02*
X158990400Y-62088600I-50000J0D01*
G01*
X157290400Y-62088600D01*
G75*
G02*
X157240400Y-62038600I0J50000D01*
G01*
X157240400Y-60338600D01*
G75*
G02*
X157290400Y-60288600I50000J0D01*
G01*
G37*
X155600400Y-61188600D03*
%TD*%
%TO.C,J8*%
G36*
G01*
X177786400Y-82738800D02*
X176086400Y-82738800D01*
G75*
G02*
X176036400Y-82688800I0J50000D01*
G01*
X176036400Y-80988800D01*
G75*
G02*
X176086400Y-80938800I50000J0D01*
G01*
X177786400Y-80938800D01*
G75*
G02*
X177836400Y-80988800I0J-50000D01*
G01*
X177836400Y-82688800D01*
G75*
G02*
X177786400Y-82738800I-50000J0D01*
G01*
G37*
X179476400Y-81838800D03*
X182016400Y-81838800D03*
X184556400Y-81838800D03*
%TD*%
%TO.C,J7*%
X100990400Y-107111800D03*
X100990400Y-104571800D03*
X100990400Y-102031800D03*
X100990400Y-99491800D03*
X100990400Y-96951800D03*
G36*
G01*
X100090400Y-95261800D02*
X100090400Y-93561800D01*
G75*
G02*
X100140400Y-93511800I50000J0D01*
G01*
X101840400Y-93511800D01*
G75*
G02*
X101890400Y-93561800I0J-50000D01*
G01*
X101890400Y-95261800D01*
G75*
G02*
X101840400Y-95311800I-50000J0D01*
G01*
X100140400Y-95311800D01*
G75*
G02*
X100090400Y-95261800I0J50000D01*
G01*
G37*
%TD*%
%TO.C,J6*%
G36*
G01*
X169580000Y-117710000D02*
X167880000Y-117710000D01*
G75*
G02*
X167830000Y-117660000I0J50000D01*
G01*
X167830000Y-115960000D01*
G75*
G02*
X167880000Y-115910000I50000J0D01*
G01*
X169580000Y-115910000D01*
G75*
G02*
X169630000Y-115960000I0J-50000D01*
G01*
X169630000Y-117660000D01*
G75*
G02*
X169580000Y-117710000I-50000J0D01*
G01*
G37*
X171270000Y-116810000D03*
X173810000Y-116810000D03*
X176350000Y-116810000D03*
X178890000Y-116810000D03*
%TD*%
%TO.C,J10*%
G36*
G01*
X152510000Y-115850000D02*
X154210000Y-115850000D01*
G75*
G02*
X154260000Y-115900000I0J-50000D01*
G01*
X154260000Y-117600000D01*
G75*
G02*
X154210000Y-117650000I-50000J0D01*
G01*
X152510000Y-117650000D01*
G75*
G02*
X152460000Y-117600000I0J50000D01*
G01*
X152460000Y-115900000D01*
G75*
G02*
X152510000Y-115850000I50000J0D01*
G01*
G37*
X150820000Y-116750000D03*
X148280000Y-116750000D03*
X145740000Y-116750000D03*
X143200000Y-116750000D03*
%TD*%
%TO.C,J5*%
G36*
G01*
X144083200Y-89267400D02*
X144083200Y-87567400D01*
G75*
G02*
X144133200Y-87517400I50000J0D01*
G01*
X145833200Y-87517400D01*
G75*
G02*
X145883200Y-87567400I0J-50000D01*
G01*
X145883200Y-89267400D01*
G75*
G02*
X145833200Y-89317400I-50000J0D01*
G01*
X144133200Y-89317400D01*
G75*
G02*
X144083200Y-89267400I0J50000D01*
G01*
G37*
X144983200Y-90957400D03*
X144983200Y-93497400D03*
X144983200Y-96037400D03*
X144983200Y-98577400D03*
X144983200Y-101117400D03*
%TD*%
%TO.C,J4*%
G36*
G01*
X151340000Y-110120000D02*
X149640000Y-110120000D01*
G75*
G02*
X149590000Y-110070000I0J50000D01*
G01*
X149590000Y-108370000D01*
G75*
G02*
X149640000Y-108320000I50000J0D01*
G01*
X151340000Y-108320000D01*
G75*
G02*
X151390000Y-108370000I0J-50000D01*
G01*
X151390000Y-110070000D01*
G75*
G02*
X151340000Y-110120000I-50000J0D01*
G01*
G37*
X153030000Y-109220000D03*
X155570000Y-109220000D03*
%TD*%
M02*
