M48
; DRILL file {KiCad 5.1.9+dfsg1-1} date Tue Jan 11 16:25:00 2022
; FORMAT={-:-/ absolute / inch / decimal}
; #@! TF.CreationDate,2022-01-11T16:25:00+01:00
; #@! TF.GenerationSoftware,Kicad,Pcbnew,5.1.9+dfsg1-1
; #@! TF.FileFunction,Plated,1,2,PTH
FMAT,2
INCH
T1C0.0157
T2C0.0197
T3C0.0394
T4C0.1457
%
G90
G05
T1
X3.4Y-2.8
X3.4Y-2.9
X3.4Y-3.0
X3.4Y-3.1
X3.4Y-3.2
X3.4Y-3.3
X3.4Y-3.4
X3.4Y-3.5
X3.4Y-3.6
X3.4Y-3.7
X3.4Y-3.8
X3.4Y-3.9
X3.4Y-4.0
X3.4Y-4.1
X3.4Y-4.2
X3.4Y-4.3
X3.4Y-4.4
X3.4Y-4.5
X3.4Y-4.6
X3.4Y-4.7
X3.5Y-2.8
X3.5Y-2.9
X3.5Y-3.0
X3.5Y-3.1
X3.5Y-3.2
X3.5Y-3.3
X3.5Y-3.4
X3.5Y-3.5
X3.5Y-3.6
X3.5Y-3.7
X3.5Y-3.8
X3.5Y-3.9
X3.5Y-4.0
X3.5Y-4.1
X3.5Y-4.2
X3.5Y-4.3
X3.5Y-4.4
X3.5Y-4.5
X3.5Y-4.6
X3.5Y-4.7
X3.6Y-2.8
X3.6Y-2.9
X3.6Y-3.0
X3.6Y-3.1
X3.6Y-3.2
X3.6Y-3.3
X3.6Y-3.4
X3.6Y-3.5
X3.6Y-3.6
X3.6Y-3.7
X3.6Y-3.8
X3.6Y-3.9
X3.6Y-4.0
X3.6Y-4.1
X3.6Y-4.2
X3.6Y-4.3
X3.6Y-4.4
X3.6Y-4.5
X3.6Y-4.6
X3.6Y-4.6
X3.6Y-4.7
X3.6Y-4.7
X3.7Y-2.8
X3.7Y-2.9
X3.7Y-3.0
X3.7Y-3.1
X3.7Y-3.2
X3.7Y-3.3
X3.7Y-3.4
X3.7Y-3.5
X3.7Y-3.6
X3.7Y-3.7
X3.7Y-3.8
X3.7Y-3.9
X3.7Y-4.0
X3.7Y-4.0
X3.7Y-4.1
X3.7Y-4.1
X3.7Y-4.2
X3.7Y-4.2
X3.7Y-4.3
X3.7Y-4.3
X3.7Y-4.4
X3.7Y-4.4
X3.7Y-4.5
X3.7Y-4.5
X3.7Y-4.6
X3.7Y-4.6
X3.7Y-4.6
X3.7Y-4.7
X3.8Y-2.8
X3.8Y-2.8
X3.8Y-2.9
X3.8Y-3.0
X3.8Y-3.1
X3.8Y-3.2
X3.8Y-3.3
X3.8Y-3.4
X3.8Y-3.5
X3.8Y-3.6
X3.8Y-3.7
X3.8Y-3.8
X3.8Y-3.9
X3.8Y-4.0
X3.8Y-4.0
X3.8Y-4.1
X3.8Y-4.1
X3.8Y-4.2
X3.8Y-4.2
X3.8Y-4.3
X3.8Y-4.3
X3.8Y-4.4
X3.8Y-4.4
X3.8Y-4.5
X3.8Y-4.5
X3.8Y-4.6
X3.8Y-4.6
X3.8Y-4.6
X3.8Y-4.6
X3.8Y-4.7
X3.8Y-4.7
X3.9Y-2.3
X3.9Y-2.4
X3.9Y-2.5
X3.9Y-2.6
X3.9Y-2.7
X3.9Y-2.8
X3.9Y-2.8
X3.9Y-2.9
X3.9Y-3.0
X3.9Y-3.1
X3.9Y-3.2
X3.9Y-3.3
X3.9Y-3.4
X3.9Y-3.5
X3.9Y-3.5
X3.9Y-3.6
X3.9Y-3.6
X3.9Y-4.4
X3.9Y-4.4
X3.9Y-4.5
X3.9Y-4.5
X3.9Y-4.6
X3.9Y-4.6
X3.9Y-4.6
X3.9Y-4.6
X3.9Y-4.7
X3.9Y-4.7
X3.9Y-4.8
X3.9Y-4.8
X3.9Y-4.9
X3.9Y-5.0
X3.9Y-5.1
X3.9Y-5.2
X4.0Y-2.3
X4.0Y-2.4
X4.0Y-2.4
X4.0Y-2.5
X4.0Y-2.5
X4.0Y-2.6
X4.0Y-2.6
X4.0Y-2.7
X4.0Y-2.8
X4.0Y-2.8
X4.0Y-2.9
X4.0Y-3.0
X4.0Y-3.1
X4.0Y-3.2
X4.0Y-3.3
X4.0Y-3.4
X4.0Y-3.4
X4.0Y-3.5
X4.0Y-3.5
X4.0Y-3.6
X4.0Y-4.4
X4.0Y-4.4
X4.0Y-4.5
X4.0Y-4.5
X4.0Y-4.6
X4.0Y-4.6
X4.0Y-4.6
X4.0Y-4.6
X4.0Y-4.7
X4.0Y-4.7
X4.0Y-4.7
X4.0Y-4.8
X4.0Y-4.8
X4.0Y-4.8
X4.0Y-4.9
X4.0Y-5.0
X4.0Y-5.1
X4.0Y-5.2
X4.1Y-2.3
X4.1Y-2.4
X4.1Y-2.4
X4.1Y-2.5
X4.1Y-2.5
X4.1Y-2.6
X4.1Y-2.6
X4.1Y-2.7
X4.1Y-2.8
X4.1Y-2.8
X4.1Y-2.9
X4.1Y-3.0
X4.1Y-3.1
X4.1Y-3.2
X4.1Y-3.3
X4.1Y-3.4
X4.1Y-3.4
X4.1Y-3.4
X4.1Y-3.5
X4.1Y-3.5
X4.1Y-3.7
X4.1Y-3.8
X4.1Y-4.3
X4.1Y-4.4
X4.1Y-4.5
X4.1Y-4.6
X4.1Y-4.7
X4.1Y-4.8
X4.1Y-4.9
X4.1Y-5.0
X4.1Y-5.1
X4.1Y-5.2
X4.2Y-2.3
X4.2Y-2.3
X4.2Y-2.4
X4.2Y-2.4
X4.2Y-2.4
X4.2Y-2.5
X4.2Y-2.5
X4.2Y-2.5
X4.2Y-2.6
X4.2Y-2.6
X4.2Y-2.6
X4.2Y-2.7
X4.2Y-2.7
X4.2Y-2.8
X4.2Y-2.8
X4.2Y-2.8
X4.2Y-2.9
X4.2Y-3.0
X4.2Y-3.1
X4.2Y-3.2
X4.2Y-3.3
X4.2Y-3.4
X4.2Y-3.4
X4.2Y-3.5
X4.2Y-3.6
X4.2Y-3.7
X4.2Y-3.8
X4.2Y-4.3
X4.2Y-4.4
X4.2Y-4.5
X4.2Y-4.6
X4.2Y-4.7
X4.2Y-4.8
X4.2Y-4.9
X4.2Y-5.0
X4.2Y-5.1
X4.2Y-5.2
X4.3Y-2.3
X4.3Y-2.3
X4.3Y-2.4
X4.3Y-2.4
X4.3Y-2.4
X4.3Y-2.5
X4.3Y-2.5
X4.3Y-2.5
X4.3Y-2.6
X4.3Y-2.6
X4.3Y-2.6
X4.3Y-2.7
X4.3Y-2.7
X4.3Y-2.8
X4.3Y-2.8
X4.3Y-2.9
X4.3Y-3.0
X4.3Y-3.0
X4.3Y-3.1
X4.3Y-3.4
X4.3Y-3.6
X4.3Y-3.7
X4.3Y-3.8
X4.3Y-4.4
X4.3Y-4.5
X4.3Y-4.6
X4.3Y-4.7
X4.3Y-4.7
X4.3Y-4.8
X4.3Y-4.8
X4.3Y-4.9
X4.3Y-5.0
X4.3Y-5.1
X4.3Y-5.2
X4.4Y-2.3
X4.4Y-2.4
X4.4Y-2.5
X4.4Y-2.6
X4.4Y-2.7
X4.4Y-2.8
X4.4Y-2.9
X4.4Y-3.0
X4.4Y-3.0
X4.4Y-3.1
X4.4Y-3.6
X4.4Y-3.7
X4.4Y-3.8
X4.4Y-4.5
X4.4Y-4.6
X4.4Y-4.7
X4.4Y-4.7
X4.4Y-4.8
X4.4Y-4.8
X4.4Y-4.9
X4.4Y-5.0
X4.4Y-5.1
X4.4Y-5.2
X4.444Y-4.268
X4.5Y-2.3
X4.5Y-2.4
X4.5Y-2.5
X4.5Y-2.6
X4.5Y-2.7
X4.5Y-2.8
X4.5Y-2.8
X4.5Y-2.9
X4.5Y-3.6
X4.5Y-3.7
X4.5Y-3.8
X4.5Y-4.5
X4.5Y-4.6
X4.5Y-4.7
X4.5Y-4.7
X4.5Y-4.8
X4.5Y-4.8
X4.5Y-4.9
X4.5Y-5.0
X4.5Y-5.1
X4.5Y-5.2
X4.6Y-2.3
X4.6Y-2.4
X4.6Y-2.5
X4.6Y-2.6
X4.6Y-2.7
X4.6Y-2.8
X4.6Y-2.8
X4.6Y-2.8
X4.6Y-2.9
X4.6Y-2.9
X4.6Y-3.6
X4.6Y-4.5
X4.6Y-4.6
X4.6Y-4.7
X4.6Y-4.7
X4.6Y-4.8
X4.6Y-4.8
X4.6Y-4.9
X4.6Y-5.0
X4.6Y-5.1
X4.6Y-5.2
X4.7Y-2.3
X4.7Y-2.4
X4.7Y-2.5
X4.7Y-2.6
X4.7Y-2.7
X4.7Y-2.8
X4.7Y-2.8
X4.7Y-2.9
X4.7Y-3.1
X4.7Y-3.2
X4.7Y-3.3
X4.7Y-3.3
X4.7Y-3.4
X4.7Y-4.5
X4.7Y-4.6
X4.7Y-4.7
X4.7Y-4.7
X4.7Y-4.8
X4.7Y-4.8
X4.7Y-4.9
X4.7Y-5.0
X4.7Y-5.1
X4.7Y-5.2
X4.782Y-4.119
X4.788Y-3.38
X4.8Y-2.3
X4.8Y-2.4
X4.8Y-2.4
X4.8Y-2.5
X4.8Y-2.6
X4.8Y-2.7
X4.8Y-2.7
X4.8Y-2.8
X4.8Y-4.5
X4.8Y-4.6
X4.8Y-4.7
X4.8Y-4.7
X4.8Y-4.8
X4.8Y-4.8
X4.8Y-4.9
X4.8Y-5.0
X4.8Y-5.1
X4.8Y-5.2
X4.9Y-2.3
X4.9Y-2.4
X4.9Y-2.4
X4.9Y-2.5
X4.9Y-2.6
X4.9Y-2.7
X4.9Y-2.7
X4.9Y-2.8
X4.9Y-4.5
X4.9Y-4.6
X4.9Y-4.7
X4.9Y-4.7
X4.9Y-4.8
X4.9Y-4.8
X4.9Y-4.9
X4.9Y-5.0
X4.9Y-5.1
X4.9Y-5.2
X4.94Y-3.38
X4.95Y-4.207
X5.0Y-2.3
X5.0Y-2.4
X5.0Y-2.4
X5.0Y-2.5
X5.0Y-2.6
X5.0Y-2.7
X5.0Y-2.7
X5.0Y-2.8
X5.0Y-3.476
X5.0Y-4.6
X5.0Y-4.7
X5.0Y-4.7
X5.0Y-4.8
X5.0Y-4.8
X5.0Y-4.9
X5.0Y-5.0
X5.0Y-5.1
X5.0Y-5.2
X5.1Y-2.3
X5.1Y-2.4
X5.1Y-2.4
X5.1Y-2.5
X5.1Y-2.6
X5.1Y-2.7
X5.1Y-3.5
X5.1Y-4.6
X5.1Y-4.7
X5.1Y-4.7
X5.1Y-4.8
X5.1Y-4.8
X5.1Y-4.9
X5.1Y-5.0
X5.1Y-5.1
X5.1Y-5.2
X5.184Y-4.009
X5.2Y-2.3
X5.2Y-2.4
X5.2Y-2.4
X5.2Y-2.5
X5.2Y-2.6
X5.2Y-2.7
X5.2Y-3.8
X5.2Y-3.9
X5.2Y-4.1
X5.2Y-4.2
X5.2Y-4.2
X5.2Y-4.3
X5.2Y-4.3
X5.2Y-4.3
X5.2Y-4.4
X5.2Y-4.4
X5.2Y-4.5
X5.2Y-4.5
X5.2Y-4.6
X5.2Y-4.7
X5.2Y-4.7
X5.2Y-4.8
X5.2Y-4.8
X5.2Y-4.9
X5.2Y-5.0
X5.2Y-5.1
X5.2Y-5.2
X5.286Y-3.822
X5.3Y-2.3
X5.3Y-2.4
X5.3Y-2.4
X5.3Y-2.5
X5.3Y-2.6
X5.3Y-2.7
X5.3Y-4.1
X5.3Y-4.1
X5.3Y-4.2
X5.3Y-4.2
X5.3Y-4.2
X5.3Y-4.2
X5.3Y-4.3
X5.3Y-4.3
X5.3Y-4.3
X5.3Y-4.3
X5.3Y-4.3
X5.3Y-4.4
X5.3Y-4.4
X5.3Y-4.5
X5.3Y-4.5
X5.3Y-4.6
X5.3Y-4.7
X5.3Y-4.7
X5.3Y-4.8
X5.3Y-4.9
X5.3Y-5.0
X5.3Y-5.1
X5.3Y-5.2
X5.381Y-3.58
X5.383Y-3.495
X5.39Y-3.89
X5.396Y-3.662
X5.4Y-2.3
X5.4Y-2.4
X5.4Y-2.4
X5.4Y-2.5
X5.4Y-2.6
X5.4Y-2.7
X5.4Y-3.8
X5.4Y-4.0
X5.4Y-4.2
X5.4Y-4.2
X5.4Y-4.3
X5.4Y-4.3
X5.4Y-4.4
X5.4Y-4.5
X5.4Y-4.5
X5.4Y-4.6
X5.4Y-4.6
X5.4Y-4.6
X5.4Y-4.7
X5.4Y-4.7
X5.4Y-4.8
X5.4Y-4.9
X5.4Y-5.0
X5.4Y-5.1
X5.4Y-5.2
X5.5Y-2.3
X5.5Y-2.4
X5.5Y-2.4
X5.5Y-2.5
X5.5Y-2.6
X5.5Y-2.7
X5.5Y-2.9
X5.5Y-3.0
X5.5Y-3.5
X5.5Y-3.6
X5.5Y-3.7
X5.5Y-3.8
X5.5Y-3.9
X5.5Y-4.0
X5.5Y-4.2
X5.5Y-4.4
X5.5Y-4.5
X5.5Y-4.5
X5.5Y-4.6
X5.5Y-4.6
X5.5Y-4.6
X5.5Y-4.7
X5.5Y-4.7
X5.5Y-4.8
X5.5Y-4.8
X5.5Y-4.9
X5.5Y-5.0
X5.5Y-5.1
X5.5Y-5.2
X5.551Y-3.036
X5.6Y-2.3
X5.6Y-2.4
X5.6Y-2.5
X5.6Y-2.9
X5.6Y-3.5
X5.6Y-3.6
X5.6Y-3.7
X5.6Y-3.8
X5.6Y-3.9
X5.6Y-3.9
X5.6Y-4.0
X5.6Y-4.2
X5.6Y-4.3
X5.6Y-4.5
X5.6Y-4.7
X5.6Y-4.7
X5.6Y-4.8
X5.6Y-4.9
X5.6Y-5.0
X5.6Y-5.1
X5.6Y-5.2
X5.7Y-2.3
X5.7Y-2.5
X5.7Y-2.8
X5.7Y-4.3
X5.7Y-4.4
X5.7Y-4.5
X5.7Y-4.7
X5.7Y-4.7
X5.7Y-4.8
X5.7Y-4.8
X5.7Y-4.9
X5.7Y-5.0
X5.7Y-5.1
X5.7Y-5.2
X5.8Y-2.3
X5.8Y-2.5
X5.8Y-2.6
X5.8Y-2.8
X5.8Y-2.9
X5.8Y-3.2
X5.8Y-3.3
X5.8Y-3.4
X5.8Y-3.5
X5.8Y-3.6
X5.8Y-4.3
X5.8Y-4.4
X5.8Y-4.5
X5.8Y-4.7
X5.8Y-4.7
X5.8Y-4.7
X5.8Y-4.8
X5.8Y-4.8
X5.8Y-4.8
X5.8Y-4.9
X5.8Y-5.0
X5.8Y-5.1
X5.8Y-5.2
X5.846Y-3.04
X5.9Y-2.3
X5.9Y-2.5
X5.9Y-2.6
X5.9Y-2.8
X5.9Y-2.9
X5.9Y-3.0
X5.9Y-3.3
X5.9Y-3.4
X5.9Y-3.5
X5.9Y-3.6
X5.9Y-4.1
X5.9Y-4.2
X5.9Y-4.4
X5.9Y-4.5
X5.9Y-4.7
X5.9Y-4.7
X5.9Y-4.7
X5.9Y-4.8
X5.9Y-4.9
X5.9Y-5.0
X5.9Y-5.1
X5.9Y-5.2
X5.924Y-3.994
X5.936Y-3.7635
X6.0Y-2.3
X6.0Y-2.5
X6.0Y-2.5
X6.0Y-2.6
X6.0Y-2.6
X6.0Y-2.8
X6.0Y-2.9
X6.0Y-3.0
X6.0Y-3.2
X6.0Y-3.3
X6.0Y-4.1
X6.0Y-4.2
X6.0Y-4.4
X6.0Y-4.5
X6.0Y-4.7
X6.0Y-4.7
X6.0Y-4.7
X6.0Y-4.8
X6.0Y-4.8
X6.0Y-4.8
X6.0Y-4.9
X6.0Y-5.0
X6.0Y-5.1
X6.0Y-5.2
X6.1Y-2.3
X6.1Y-2.5
X6.1Y-2.5
X6.1Y-2.6
X6.1Y-2.6
X6.1Y-2.7
X6.1Y-2.8
X6.1Y-2.8
X6.1Y-2.9
X6.1Y-2.9
X6.1Y-2.9
X6.1Y-3.0
X6.1Y-3.2
X6.1Y-3.3
X6.1Y-3.4
X6.1Y-4.1
X6.1Y-4.2
X6.1Y-4.4
X6.1Y-4.5
X6.1Y-4.7
X6.1Y-4.7
X6.1Y-4.8
X6.1Y-4.8
X6.1Y-4.9
X6.1Y-5.0
X6.1Y-5.1
X6.1Y-5.2
X6.194Y-3.834
X6.2Y-2.3
X6.2Y-2.5
X6.2Y-2.6
X6.2Y-2.7
X6.2Y-2.8
X6.2Y-2.8
X6.2Y-2.8
X6.2Y-2.9
X6.2Y-2.9
X6.2Y-2.9
X6.2Y-2.9
X6.2Y-2.9
X6.2Y-3.0
X6.2Y-3.2
X6.2Y-3.3
X6.2Y-3.4
X6.2Y-4.2
X6.2Y-4.4
X6.2Y-4.5
X6.2Y-4.6
X6.2Y-4.7
X6.2Y-4.7
X6.2Y-4.8
X6.2Y-4.8
X6.2Y-4.9
X6.2Y-5.0
X6.2Y-5.1
X6.2Y-5.2
X6.233Y-3.105
X6.234Y-4.104
X6.248Y-3.794
X6.3Y-2.3
X6.3Y-2.5
X6.3Y-2.6
X6.3Y-2.7
X6.3Y-2.8
X6.3Y-2.8
X6.3Y-2.8
X6.3Y-2.9
X6.3Y-2.9
X6.3Y-2.9
X6.3Y-2.9
X6.3Y-2.9
X6.3Y-3.0
X6.3Y-3.2
X6.3Y-3.3
X6.3Y-3.4
X6.3Y-4.1
X6.3Y-4.2
X6.3Y-4.5
X6.3Y-4.6
X6.3Y-4.7
X6.3Y-4.7
X6.3Y-4.8
X6.3Y-4.8
X6.3Y-4.9
X6.3Y-5.0
X6.3Y-5.1
X6.3Y-5.2
X6.332Y-3.148
X6.4Y-2.3
X6.4Y-2.4
X6.4Y-2.5
X6.4Y-2.6
X6.4Y-2.7
X6.4Y-2.7
X6.4Y-2.8
X6.4Y-2.8
X6.4Y-2.8
X6.4Y-2.9
X6.4Y-2.9
X6.4Y-2.9
X6.4Y-3.0
X6.4Y-3.2
X6.4Y-3.3
X6.4Y-3.4
X6.4Y-4.1
X6.4Y-4.2
X6.4Y-4.3
X6.4Y-4.4
X6.4Y-4.5
X6.4Y-4.6
X6.4Y-4.7
X6.4Y-4.8
X6.4Y-4.9
X6.4Y-5.0
X6.4Y-5.1
X6.4Y-5.2
X6.5Y-2.3
X6.5Y-2.4
X6.5Y-2.5
X6.5Y-2.6
X6.5Y-2.7
X6.5Y-2.8
X6.5Y-2.8
X6.5Y-2.9
X6.5Y-2.9
X6.5Y-3.0
X6.5Y-3.2
X6.5Y-3.3
X6.5Y-4.4
X6.5Y-4.5
X6.5Y-4.6
X6.5Y-4.7
X6.5Y-4.8
X6.5Y-4.9
X6.5Y-5.0
X6.5Y-5.1
X6.5Y-5.2
X6.6Y-2.3
X6.6Y-2.4
X6.6Y-2.5
X6.6Y-2.6
X6.6Y-2.7
X6.6Y-2.8
X6.6Y-3.2
X6.6Y-3.4
X6.6Y-3.6
X6.6Y-4.4
X6.6Y-4.7
X6.6Y-4.8
X6.6Y-4.9
X6.6Y-5.0
X6.6Y-5.1
X6.6Y-5.2
X6.7Y-2.3
X6.7Y-2.3
X6.7Y-2.4
X6.7Y-2.4
X6.7Y-2.5
X6.7Y-2.5
X6.7Y-2.6
X6.7Y-2.6
X6.7Y-2.8
X6.7Y-2.9
X6.7Y-3.3
X6.7Y-3.5
X6.7Y-3.8
X6.7Y-4.3
X6.7Y-4.4
X6.7Y-4.5
X6.7Y-4.7
X6.7Y-4.7
X6.7Y-4.8
X6.7Y-4.9
X6.7Y-5.0
X6.7Y-5.1
X6.7Y-5.2
X6.7081Y-4.1795
X6.7152Y-4.2335
X6.718Y-4.126
X6.7387Y-4.2826
X6.75Y-3.136
X6.7762Y-4.3221
X6.8Y-2.3
X6.8Y-2.4
X6.8Y-2.5
X6.8Y-2.6
X6.8Y-3.2
X6.8Y-3.4
X6.8Y-3.7
X6.8Y-4.4
X6.8Y-4.5
X6.8Y-4.7
X6.8Y-4.8
X6.8Y-4.8
X6.8Y-4.9
X6.8Y-4.9
X6.8Y-5.0
X6.8Y-5.0
X6.8Y-5.1
X6.8Y-5.1
X6.8Y-5.2
X6.8Y-5.2
X6.8125Y-3.635
X6.824Y-4.348
X6.8325Y-4.0172
X6.8775Y-4.3579
X6.8865Y-4.0101
X6.9Y-2.3
X6.9Y-2.4
X6.9Y-2.5
X6.9Y-2.6
X6.9Y-2.8
X6.9Y-3.0
X6.9Y-3.3
X6.9Y-3.5
X6.9Y-3.6
X6.9Y-3.7
X6.9Y-4.4
X6.9Y-4.5
X6.9Y-4.7
X6.9Y-4.8
X6.9Y-4.8
X6.9Y-4.9
X6.9Y-4.9
X6.9Y-5.0
X6.9Y-5.0
X6.9Y-5.1
X6.9Y-5.1
X6.9Y-5.2
X6.9Y-5.2
X6.9315Y-4.3508
X6.94Y-4.02
X6.964Y-2.852
X6.9806Y-4.3273
X6.9878Y-4.0459
X7.0Y-2.3
X7.0Y-2.4
X7.0Y-2.5
X7.0Y-2.6
X7.0Y-2.8
X7.0Y-2.9
X7.0Y-3.0
X7.0Y-3.4
X7.0Y-3.5
X7.0Y-3.6
X7.0Y-3.7
X7.0Y-3.8
X7.0Y-3.9
X7.0Y-4.0
X7.0Y-4.4
X7.0Y-4.5
X7.0Y-4.7
X7.0Y-4.8
X7.0Y-4.9
X7.0Y-5.0
X7.0Y-5.1
X7.0Y-5.2
X7.0201Y-4.2898
X7.0253Y-4.0854
X7.046Y-4.242
X7.0488Y-4.1345
X7.0559Y-4.1885
X7.1Y-2.3
X7.1Y-2.4
X7.1Y-2.5
X7.1Y-2.6
X7.1Y-2.7
X7.1Y-2.8
X7.1Y-2.9
X7.1Y-3.0
X7.1Y-3.1
X7.1Y-3.4
X7.1Y-3.5
X7.1Y-3.7
X7.1Y-3.8
X7.1Y-3.9
X7.1Y-3.9
X7.1Y-4.0
X7.1Y-4.0
X7.1Y-4.1
X7.1Y-4.2
X7.1Y-4.3
X7.1Y-4.4
X7.1Y-4.7
X7.1Y-4.8
X7.1Y-4.9
X7.1Y-5.0
X7.1Y-5.1
X7.1Y-5.2
X7.2Y-2.3
X7.2Y-2.4
X7.2Y-2.5
X7.2Y-2.6
X7.2Y-2.7
X7.2Y-2.7
X7.2Y-2.8
X7.2Y-2.8
X7.2Y-2.9
X7.2Y-2.9
X7.2Y-3.0
X7.2Y-3.1
X7.2Y-3.4
X7.2Y-3.8
X7.2Y-3.9
X7.2Y-3.9
X7.2Y-4.0
X7.2Y-4.0
X7.2Y-4.1
X7.2Y-4.2
X7.2Y-4.3
X7.2Y-4.4
X7.2Y-4.5
X7.2Y-4.6
X7.2Y-4.7
X7.2Y-4.8
X7.2Y-4.9
X7.2Y-5.0
X7.2Y-5.1
X7.2Y-5.2
X7.3Y-2.8
X7.3Y-2.9
X7.3Y-3.0
X7.3Y-3.1
X7.3Y-3.4
X7.3Y-3.8
X7.3Y-3.9
X7.3Y-3.9
X7.3Y-4.0
X7.3Y-4.0
X7.3Y-4.1
X7.3Y-4.2
X7.3Y-4.3
X7.3Y-4.4
X7.3Y-4.5
X7.3Y-4.6
X7.3Y-4.7
X7.4Y-2.8
X7.4Y-2.9
X7.4Y-3.0
X7.4Y-3.2
X7.4Y-3.3
X7.4Y-3.8
X7.4Y-3.9
X7.4Y-4.0
X7.4Y-4.1
X7.4Y-4.2
X7.4Y-4.3
X7.4Y-4.6
X7.4Y-4.7
X7.5Y-2.8
X7.5Y-2.9
X7.5Y-2.9
X7.5Y-3.0
X7.5Y-3.1
X7.5Y-3.3
X7.5Y-3.4
X7.5Y-3.8
X7.5Y-3.9
X7.5Y-4.0
X7.5Y-4.1
X7.5Y-4.2
X7.5Y-4.5
X7.5Y-4.6
X7.5Y-4.7
X7.6Y-2.8
X7.6Y-2.9
X7.6Y-3.0
X7.6Y-3.1
X7.6Y-3.2
X7.6Y-3.4
X7.6Y-3.5
X7.6Y-3.7
X7.6Y-3.8
X7.6Y-3.9
X7.6Y-4.0
X7.6Y-4.1
X7.6Y-4.4
X7.6Y-4.4
X7.6Y-4.5
X7.6Y-4.6
X7.6Y-4.7
X7.7Y-2.8
X7.7Y-2.9
X7.7Y-2.9
X7.7Y-3.0
X7.7Y-3.1
X7.7Y-3.2
X7.7Y-3.3
X7.7Y-4.3
X7.7Y-4.4
X7.7Y-4.5
X7.7Y-4.6
X7.7Y-4.7
T2
X3.5915Y-2.5591
X3.5915Y-4.9409
X3.6235Y-2.4818
X3.6235Y-2.6363
X3.6235Y-4.8637
X3.6235Y-5.0182
X3.7008Y-2.4498
X3.7008Y-2.6683
X3.7008Y-4.8317
X3.7008Y-5.0502
X3.778Y-2.4818
X3.778Y-2.6363
X3.778Y-4.8637
X3.778Y-5.0182
X3.81Y-2.5591
X3.81Y-4.9409
X7.3317Y-2.5591
X7.3317Y-4.9213
X7.3637Y-2.4818
X7.3637Y-2.6363
X7.3637Y-4.844
X7.3637Y-4.9985
X7.4409Y-2.4498
X7.4409Y-2.6683
X7.4409Y-4.812
X7.4409Y-5.0305
X7.5182Y-2.4818
X7.5182Y-2.6363
X7.5182Y-4.844
X7.5182Y-4.9985
X7.5502Y-2.5591
X7.5502Y-4.9213
T3
X3.976Y-3.717
X3.976Y-3.817
X3.976Y-3.917
X3.976Y-4.017
X3.976Y-4.117
X3.976Y-4.217
X5.6378Y-4.5965
X5.642Y-2.603
X5.642Y-2.703
X5.708Y-3.481
X5.708Y-3.581
X5.708Y-3.681
X5.708Y-3.781
X5.708Y-3.881
X5.708Y-3.981
X5.7378Y-4.5965
X5.8378Y-4.5965
X5.9248Y-4.3
X5.9378Y-4.5965
X6.0248Y-4.3
X6.0378Y-4.5965
X6.1248Y-4.3
X6.126Y-2.409
X6.226Y-2.409
X6.6429Y-4.5988
X6.7429Y-4.5988
X6.8429Y-4.5988
X6.9429Y-4.5988
X6.966Y-3.222
X7.0429Y-4.5988
X7.066Y-3.222
X7.166Y-3.222
X7.266Y-3.222
T4
X3.7008Y-2.5591
X3.7008Y-4.9409
X7.4409Y-2.5591
X7.4409Y-4.9213
T0
M30
