%TF.GenerationSoftware,KiCad,Pcbnew,5.1.9+dfsg1-1*%
%TF.CreationDate,2022-02-14T10:27:32+01:00*%
%TF.ProjectId,wheather_board_v1 ,77686561-7468-4657-925f-626f6172645f,rev?*%
%TF.SameCoordinates,Original*%
%TF.FileFunction,Copper,L2,Bot*%
%TF.FilePolarity,Positive*%
%FSLAX46Y46*%
G04 Gerber Fmt 4.6, Leading zero omitted, Abs format (unit mm)*
G04 Created by KiCad (PCBNEW 5.1.9+dfsg1-1) date 2022-02-14 10:27:32*
%MOMM*%
%LPD*%
G01*
G04 APERTURE LIST*
%TA.AperFunction,ComponentPad*%
%ADD10O,1.700000X1.700000*%
%TD*%
%TA.AperFunction,ComponentPad*%
%ADD11R,1.700000X1.700000*%
%TD*%
%TA.AperFunction,ComponentPad*%
%ADD12C,0.800000*%
%TD*%
%TA.AperFunction,ComponentPad*%
%ADD13C,7.400000*%
%TD*%
%TA.AperFunction,ComponentPad*%
%ADD14O,1.500000X2.000000*%
%TD*%
%TA.AperFunction,ComponentPad*%
%ADD15R,1.500000X2.000000*%
%TD*%
%TA.AperFunction,ViaPad*%
%ADD16C,0.800000*%
%TD*%
%TA.AperFunction,Conductor*%
%ADD17C,0.250000*%
%TD*%
%TA.AperFunction,Conductor*%
%ADD18C,1.000000*%
%TD*%
%TA.AperFunction,Conductor*%
%ADD19C,0.254000*%
%TD*%
%TA.AperFunction,Conductor*%
%ADD20C,0.100000*%
%TD*%
G04 APERTURE END LIST*
D10*
%TO.P,J2,2*%
%TO.N,VCC*%
X143306800Y-66116200D03*
D11*
%TO.P,J2,1*%
%TO.N,Net-(C1-Pad1)*%
X143306800Y-68656200D03*
%TD*%
D10*
%TO.P,J1,2*%
%TO.N,VCC*%
X155600400Y-61188600D03*
D11*
%TO.P,J1,1*%
%TO.N,GND*%
X158140400Y-61188600D03*
%TD*%
D10*
%TO.P,J8,4*%
%TO.N,GND*%
X184556400Y-81838800D03*
%TO.P,J8,3*%
%TO.N,/UART_RX*%
X182016400Y-81838800D03*
%TO.P,J8,2*%
%TO.N,/UART_TX*%
X179476400Y-81838800D03*
D11*
%TO.P,J8,1*%
%TO.N,+3V3*%
X176936400Y-81838800D03*
%TD*%
D10*
%TO.P,J7,6*%
%TO.N,/ref-*%
X100990400Y-107111800D03*
%TO.P,J7,5*%
%TO.N,/ref+*%
X100990400Y-104571800D03*
%TO.P,J7,4*%
%TO.N,/AIN-*%
X100990400Y-102031800D03*
%TO.P,J7,3*%
%TO.N,/AIN+*%
X100990400Y-99491800D03*
%TO.P,J7,2*%
%TO.N,GNDA*%
X100990400Y-96951800D03*
D11*
%TO.P,J7,1*%
%TO.N,+5VA*%
X100990400Y-94411800D03*
%TD*%
D10*
%TO.P,J6,5*%
%TO.N,+5V*%
X178890000Y-116810000D03*
%TO.P,J6,4*%
%TO.N,+3V3*%
X176350000Y-116810000D03*
%TO.P,J6,3*%
%TO.N,/I2C_SDA*%
X173810000Y-116810000D03*
%TO.P,J6,2*%
%TO.N,/I2C_SCL*%
X171270000Y-116810000D03*
D11*
%TO.P,J6,1*%
%TO.N,GND*%
X168730000Y-116810000D03*
%TD*%
D10*
%TO.P,J10,5*%
%TO.N,+5VA*%
X143200000Y-116750000D03*
%TO.P,J10,4*%
%TO.N,/ADC_TEMP*%
X145740000Y-116750000D03*
%TO.P,J10,3*%
%TO.N,GNDA*%
X148280000Y-116750000D03*
%TO.P,J10,2*%
%TO.N,/ADC_HUM*%
X150820000Y-116750000D03*
D11*
%TO.P,J10,1*%
%TO.N,GNDA*%
X153360000Y-116750000D03*
%TD*%
D10*
%TO.P,J5,6*%
%TO.N,/NRST*%
X144983200Y-101117400D03*
%TO.P,J5,5*%
%TO.N,/SWO*%
X144983200Y-98577400D03*
%TO.P,J5,4*%
%TO.N,/SWDCLK*%
X144983200Y-96037400D03*
%TO.P,J5,3*%
%TO.N,GND*%
X144983200Y-93497400D03*
%TO.P,J5,2*%
%TO.N,/SWDIO*%
X144983200Y-90957400D03*
D11*
%TO.P,J5,1*%
%TO.N,+3V3*%
X144983200Y-88417400D03*
%TD*%
D10*
%TO.P,J4,3*%
%TO.N,/I2C_SDA*%
X155570000Y-109220000D03*
%TO.P,J4,2*%
%TO.N,Net-(J4-Pad2)*%
X153030000Y-109220000D03*
D11*
%TO.P,J4,1*%
%TO.N,/ADC_HUM*%
X150490000Y-109220000D03*
%TD*%
D12*
%TO.P,H1,1*%
%TO.N,N/C*%
X95962221Y-63037779D03*
X94000000Y-62225000D03*
X92037779Y-63037779D03*
X91225000Y-65000000D03*
X92037779Y-66962221D03*
X94000000Y-67775000D03*
X95962221Y-66962221D03*
X96775000Y-65000000D03*
D13*
X94000000Y-65000000D03*
%TD*%
%TO.P,H2,1*%
%TO.N,N/C*%
X189000000Y-65000000D03*
D12*
X191775000Y-65000000D03*
X190962221Y-66962221D03*
X189000000Y-67775000D03*
X187037779Y-66962221D03*
X186225000Y-65000000D03*
X187037779Y-63037779D03*
X189000000Y-62225000D03*
X190962221Y-63037779D03*
%TD*%
%TO.P,H3,1*%
%TO.N,N/C*%
X190962221Y-123037779D03*
X189000000Y-122225000D03*
X187037779Y-123037779D03*
X186225000Y-125000000D03*
X187037779Y-126962221D03*
X189000000Y-127775000D03*
X190962221Y-126962221D03*
X191775000Y-125000000D03*
D13*
X189000000Y-125000000D03*
%TD*%
%TO.P,H4,1*%
%TO.N,N/C*%
X94000000Y-125000000D03*
D12*
X96775000Y-125000000D03*
X95962221Y-126962221D03*
X94000000Y-127775000D03*
X92037779Y-126962221D03*
X91225000Y-125000000D03*
X92037779Y-123037779D03*
X94000000Y-122225000D03*
X95962221Y-123037779D03*
%TD*%
D14*
%TO.P,U7,4*%
%TO.N,/toref*%
X116620000Y-67230000D03*
%TO.P,U7,3*%
%TO.N,GNDA*%
X119160000Y-67230000D03*
%TO.P,U7,2*%
%TO.N,+5V*%
X121700000Y-67230000D03*
D15*
%TO.P,U7,1*%
%TO.N,GND*%
X124240000Y-67230000D03*
%TD*%
D16*
%TO.N,*%
X149860000Y-76200000D03*
X177800000Y-76200000D03*
%TO.N,GND*%
X130556000Y-93472000D03*
X165100000Y-111760000D03*
X165100000Y-114300000D03*
X165100000Y-116840000D03*
X152400000Y-73660000D03*
X182880000Y-132080000D03*
X180340000Y-132080000D03*
X177800000Y-129540000D03*
X175260000Y-132080000D03*
X172720000Y-127000000D03*
X180340000Y-127000000D03*
X177800000Y-132080000D03*
X175260000Y-127000000D03*
X182880000Y-127000000D03*
X172720000Y-129540000D03*
X182880000Y-129540000D03*
X180340000Y-129540000D03*
X177800000Y-127000000D03*
X172720000Y-132080000D03*
X175260000Y-129540000D03*
X172720000Y-124460000D03*
X170180000Y-124460000D03*
X167640000Y-121920000D03*
X165100000Y-124460000D03*
X175260000Y-124460000D03*
X162560000Y-119380000D03*
X175260000Y-121920000D03*
X167640000Y-124460000D03*
X165100000Y-119380000D03*
X162560000Y-121920000D03*
X172720000Y-121920000D03*
X170180000Y-121920000D03*
X162560000Y-124460000D03*
X165100000Y-121920000D03*
X182880000Y-124460000D03*
X180340000Y-124460000D03*
X177800000Y-121920000D03*
X175260000Y-124460000D03*
X185420000Y-119380000D03*
X177800000Y-124460000D03*
X182880000Y-119380000D03*
X172720000Y-121920000D03*
X182880000Y-121920000D03*
X180340000Y-121920000D03*
X172720000Y-124460000D03*
X175260000Y-121920000D03*
X190500000Y-101600000D03*
X187960000Y-101600000D03*
X185420000Y-99060000D03*
X182880000Y-101600000D03*
X193040000Y-101600000D03*
X193040000Y-96520000D03*
X180340000Y-96520000D03*
X193040000Y-99060000D03*
X187960000Y-96520000D03*
X185420000Y-101600000D03*
X182880000Y-96520000D03*
X190500000Y-96520000D03*
X180340000Y-99060000D03*
X190500000Y-99060000D03*
X187960000Y-99060000D03*
X185420000Y-96520000D03*
X180340000Y-101600000D03*
X182880000Y-99060000D03*
X185420000Y-101600000D03*
X185420000Y-104140000D03*
X182880000Y-106680000D03*
X185420000Y-109220000D03*
X185420000Y-99060000D03*
X180340000Y-99060000D03*
X180340000Y-111760000D03*
X182880000Y-99060000D03*
X180340000Y-104140000D03*
X185420000Y-106680000D03*
X180340000Y-109220000D03*
X180340000Y-101600000D03*
X182880000Y-111760000D03*
X182880000Y-101600000D03*
X182880000Y-104140000D03*
X180340000Y-106680000D03*
X185420000Y-111760000D03*
X182880000Y-109220000D03*
X185420000Y-76200000D03*
X182880000Y-73660000D03*
X182880000Y-71120000D03*
X182880000Y-68580000D03*
X185420000Y-73660000D03*
X185420000Y-71120000D03*
X182880000Y-68580000D03*
X180340000Y-76200000D03*
X180340000Y-73660000D03*
X180340000Y-71120000D03*
X180340000Y-68580000D03*
X182880000Y-73660000D03*
X182880000Y-71120000D03*
X180340000Y-60960000D03*
X180340000Y-58420000D03*
X182880000Y-58420000D03*
X182880000Y-60960000D03*
X180340000Y-66040000D03*
X180340000Y-63500000D03*
X182880000Y-63500000D03*
X182880000Y-66040000D03*
X177800000Y-60960000D03*
X170180000Y-60960000D03*
X170180000Y-58420000D03*
X172720000Y-58420000D03*
X175260000Y-58420000D03*
X177800000Y-58420000D03*
X172720000Y-60960000D03*
X175260000Y-60960000D03*
X177800000Y-66040000D03*
X170180000Y-66040000D03*
X170180000Y-63500000D03*
X172720000Y-63500000D03*
X175260000Y-63500000D03*
X177800000Y-63500000D03*
X172720000Y-66040000D03*
X175260000Y-66040000D03*
X170180000Y-60960000D03*
X162560000Y-60960000D03*
X162560000Y-58420000D03*
X165100000Y-58420000D03*
X167640000Y-58420000D03*
X170180000Y-58420000D03*
X165100000Y-60960000D03*
X167640000Y-60960000D03*
X170180000Y-66040000D03*
X162560000Y-66040000D03*
X162560000Y-63500000D03*
X165100000Y-63500000D03*
X167640000Y-63500000D03*
X170180000Y-63500000D03*
X165100000Y-66040000D03*
X167640000Y-66040000D03*
X160020000Y-66040000D03*
X152400000Y-66040000D03*
X152400000Y-63500000D03*
X154940000Y-63500000D03*
X157480000Y-63500000D03*
X160020000Y-63500000D03*
X154940000Y-66040000D03*
X157480000Y-66040000D03*
X154940000Y-66040000D03*
X147320000Y-66040000D03*
X147320000Y-63500000D03*
X149860000Y-63500000D03*
X152400000Y-63500000D03*
X154940000Y-63500000D03*
X149860000Y-66040000D03*
X152400000Y-66040000D03*
X162560000Y-71120000D03*
X154940000Y-71120000D03*
X154940000Y-68580000D03*
X157480000Y-68580000D03*
X160020000Y-68580000D03*
X162560000Y-68580000D03*
X157480000Y-71120000D03*
X160020000Y-71120000D03*
X154940000Y-73660000D03*
X157480000Y-73660000D03*
X160020000Y-73660000D03*
X162560000Y-73660000D03*
X152400000Y-76200000D03*
X154940000Y-73660000D03*
X157480000Y-73660000D03*
X160020000Y-73660000D03*
X160020000Y-73660000D03*
X152400000Y-71120000D03*
X154940000Y-71120000D03*
X157480000Y-71120000D03*
X160020000Y-71120000D03*
X154940000Y-73660000D03*
X157480000Y-73660000D03*
X162560000Y-71120000D03*
X162560000Y-68580000D03*
X165100000Y-68580000D03*
X167640000Y-68580000D03*
X165100000Y-71120000D03*
X167640000Y-71120000D03*
X165100000Y-73660000D03*
X157480000Y-73660000D03*
X157480000Y-71120000D03*
X160020000Y-71120000D03*
X162560000Y-71120000D03*
X165100000Y-71120000D03*
X160020000Y-73660000D03*
X162560000Y-73660000D03*
X165100000Y-76200000D03*
X157480000Y-73660000D03*
X160020000Y-73660000D03*
X162560000Y-73660000D03*
X165100000Y-73660000D03*
X129540000Y-68580000D03*
X127000000Y-66040000D03*
X129540000Y-66040000D03*
X127000000Y-68580000D03*
X129540000Y-63500000D03*
X121920000Y-63500000D03*
X121920000Y-60960000D03*
X124460000Y-60960000D03*
X127000000Y-60960000D03*
X129540000Y-60960000D03*
X124460000Y-63500000D03*
X127000000Y-63500000D03*
X129540000Y-60960000D03*
X121920000Y-60960000D03*
X121920000Y-58420000D03*
X124460000Y-58420000D03*
X127000000Y-58420000D03*
X129540000Y-58420000D03*
X124460000Y-60960000D03*
X127000000Y-60960000D03*
X139700000Y-68580000D03*
X132080000Y-68580000D03*
X132080000Y-66040000D03*
X134620000Y-66040000D03*
X137160000Y-66040000D03*
X139700000Y-66040000D03*
X134620000Y-68580000D03*
X137160000Y-68580000D03*
X139700000Y-63500000D03*
X132080000Y-63500000D03*
X132080000Y-60960000D03*
X134620000Y-60960000D03*
X137160000Y-60960000D03*
X139700000Y-60960000D03*
X134620000Y-63500000D03*
X137160000Y-63500000D03*
X139700000Y-60960000D03*
X132080000Y-60960000D03*
X132080000Y-58420000D03*
X134620000Y-58420000D03*
X137160000Y-58420000D03*
X139700000Y-58420000D03*
X134620000Y-60960000D03*
X137160000Y-60960000D03*
X127000000Y-71120000D03*
X127000000Y-68580000D03*
X176885600Y-72440800D03*
X121615200Y-85852000D03*
X170637200Y-104800400D03*
X170385835Y-106159745D03*
X170566834Y-107530234D03*
X171162478Y-108777716D03*
X172114462Y-109780077D03*
X173329600Y-110439200D03*
X174688945Y-110690565D03*
X176059434Y-110509566D03*
X177306916Y-109913922D03*
X178309277Y-108961938D03*
X178968400Y-107746800D03*
X179219765Y-106387455D03*
X179038766Y-105016966D03*
X178443122Y-103769484D03*
X177491138Y-102767123D03*
X176276000Y-102108000D03*
X174916655Y-101856635D03*
X173546166Y-102037634D03*
X150469600Y-101447600D03*
X162560000Y-132080000D03*
X165100000Y-132080000D03*
X167640000Y-132080000D03*
X170180000Y-132080000D03*
X172720000Y-132080000D03*
X175260000Y-132080000D03*
X162560000Y-129540000D03*
X165100000Y-129540000D03*
X167640000Y-129540000D03*
X170180000Y-129540000D03*
X172720000Y-129540000D03*
X175260000Y-129540000D03*
X175260000Y-127000000D03*
X172720000Y-127000000D03*
X170180000Y-127000000D03*
X167640000Y-127000000D03*
X165100000Y-127000000D03*
X162560000Y-127000000D03*
X187960000Y-104140000D03*
X190500000Y-104140000D03*
X193040000Y-104140000D03*
X190500000Y-106680000D03*
X187960000Y-106680000D03*
X187960000Y-109220000D03*
X175260000Y-93980000D03*
X180340000Y-93980000D03*
X177800000Y-93980000D03*
X177800000Y-96520000D03*
X177800000Y-99060000D03*
X177800000Y-101600000D03*
X172720000Y-93980000D03*
X170180000Y-96520000D03*
X170180000Y-109220000D03*
X170180000Y-111760000D03*
X172720000Y-111760000D03*
X175260000Y-111760000D03*
X177800000Y-111760000D03*
X185420000Y-116840000D03*
X187960000Y-116840000D03*
X190500000Y-116840000D03*
X193040000Y-116840000D03*
X195580000Y-116840000D03*
X195580000Y-119380000D03*
X193040000Y-119380000D03*
X190500000Y-119380000D03*
X187960000Y-119380000D03*
X195580000Y-109220000D03*
X195580000Y-111760000D03*
X193040000Y-114300000D03*
X190500000Y-114300000D03*
X193040000Y-111760000D03*
X195580000Y-114300000D03*
X193040000Y-111760000D03*
X195580000Y-83820000D03*
X195580000Y-81280000D03*
X195580000Y-76200000D03*
X195580000Y-71120000D03*
X195580000Y-73660000D03*
X195580000Y-78740000D03*
X193040000Y-78740000D03*
X190500000Y-78740000D03*
X195580000Y-73660000D03*
X193040000Y-73660000D03*
X193040000Y-76200000D03*
X190500000Y-76200000D03*
X190500000Y-73660000D03*
X190500000Y-73660000D03*
X190500000Y-71120000D03*
X193040000Y-71120000D03*
X193040000Y-81280000D03*
X187960000Y-76200000D03*
X187960000Y-73660000D03*
X187960000Y-71120000D03*
X147320000Y-58420000D03*
X149860000Y-58420000D03*
X154940000Y-58420000D03*
X157480000Y-58420000D03*
X160020000Y-58420000D03*
X152400000Y-58420000D03*
X144780000Y-58420000D03*
X142240000Y-58420000D03*
X142240000Y-60960000D03*
X144780000Y-63500000D03*
X142240000Y-63500000D03*
X147320000Y-73660000D03*
X142240000Y-73660000D03*
X139700000Y-73660000D03*
X139700000Y-76200000D03*
X152400000Y-81280000D03*
X154940000Y-81280000D03*
X157480000Y-81280000D03*
X157480000Y-83820000D03*
X154940000Y-83820000D03*
X152400000Y-83820000D03*
X160020000Y-86360000D03*
X160020000Y-83820000D03*
X160020000Y-81280000D03*
X162560000Y-81280000D03*
X165100000Y-81280000D03*
X167640000Y-81280000D03*
X165100000Y-83820000D03*
X162560000Y-83820000D03*
X162560000Y-86360000D03*
X180340000Y-78740000D03*
X182880000Y-78740000D03*
X185420000Y-78740000D03*
X190500000Y-83820000D03*
X190500000Y-86360000D03*
X193040000Y-86360000D03*
X193040000Y-88900000D03*
X187960000Y-83820000D03*
X187960000Y-81280000D03*
X175260000Y-83820000D03*
X172720000Y-86360000D03*
X170180000Y-88900000D03*
X170180000Y-83820000D03*
X172720000Y-81280000D03*
X167640000Y-86360000D03*
X177800000Y-86360000D03*
X177800000Y-88900000D03*
X177800000Y-91440000D03*
X175260000Y-91440000D03*
X175260000Y-88900000D03*
X193040000Y-93980000D03*
X185420000Y-114300000D03*
X139700000Y-101600000D03*
X139700000Y-99060000D03*
X139700000Y-96520000D03*
X139700000Y-93980000D03*
X139700000Y-91440000D03*
X139700000Y-88900000D03*
X142240000Y-88900000D03*
X142240000Y-91440000D03*
X142240000Y-93980000D03*
X142240000Y-96520000D03*
X142240000Y-99060000D03*
X142240000Y-99060000D03*
X142240000Y-101600000D03*
X147320000Y-83820000D03*
X149860000Y-83820000D03*
X149860000Y-86360000D03*
X147320000Y-86360000D03*
X147320000Y-88900000D03*
X149860000Y-88900000D03*
X149860000Y-91440000D03*
X162560000Y-111760000D03*
X162560000Y-114300000D03*
X162560000Y-116840000D03*
X162560000Y-109220000D03*
X162560000Y-106680000D03*
X162560000Y-104140000D03*
X180340000Y-86360000D03*
X182880000Y-86360000D03*
X185420000Y-86360000D03*
X180340000Y-88900000D03*
X167640000Y-91440000D03*
X154940000Y-86360000D03*
X147320000Y-91440000D03*
X144780000Y-71120000D03*
X167640000Y-119380000D03*
X170180000Y-119380000D03*
X170180000Y-119380000D03*
X172720000Y-119380000D03*
X175260000Y-119380000D03*
X177800000Y-119380000D03*
X180340000Y-119380000D03*
X182880000Y-116840000D03*
X182880000Y-114300000D03*
X177800000Y-114300000D03*
X175260000Y-114300000D03*
X172720000Y-114300000D03*
X170180000Y-114300000D03*
X167640000Y-111760000D03*
X147320000Y-81280000D03*
X182880000Y-76200000D03*
X162560000Y-76200000D03*
X160020000Y-76200000D03*
X157480000Y-76200000D03*
X154940000Y-76200000D03*
X149860000Y-73660000D03*
X149860000Y-71120000D03*
X147320000Y-71120000D03*
X177800000Y-73660000D03*
X177800000Y-71120000D03*
X175260000Y-71120000D03*
X170180000Y-73660000D03*
X175260000Y-76200000D03*
X152400000Y-71120000D03*
X152400000Y-73660000D03*
X129540000Y-88900000D03*
X121920000Y-73660000D03*
X154305000Y-101600000D03*
%TO.N,+5VA*%
X134264400Y-97078800D03*
%TO.N,GNDA*%
X101600000Y-124460000D03*
X101600000Y-121920000D03*
X104140000Y-124460000D03*
X104140000Y-121920000D03*
X111760000Y-104140000D03*
X109220000Y-104140000D03*
X109220000Y-106680000D03*
X111760000Y-106680000D03*
X116840000Y-109220000D03*
X114300000Y-109220000D03*
X121920000Y-106680000D03*
X119380000Y-106680000D03*
X114300000Y-109220000D03*
X111760000Y-109220000D03*
X111760000Y-114300000D03*
X114300000Y-114300000D03*
X116840000Y-114300000D03*
X119380000Y-114300000D03*
X121920000Y-114300000D03*
X124460000Y-114300000D03*
X109220000Y-111760000D03*
X106680000Y-109220000D03*
X152400000Y-111760000D03*
X157480000Y-111760000D03*
X154940000Y-111760000D03*
X152400000Y-106680000D03*
X149860000Y-106680000D03*
X99060000Y-58420000D03*
X99060000Y-60960000D03*
X99060000Y-63500000D03*
X99060000Y-66040000D03*
X99060000Y-68580000D03*
X114300000Y-132080000D03*
X111760000Y-129540000D03*
X109220000Y-129540000D03*
X109220000Y-127000000D03*
X114300000Y-127000000D03*
X109220000Y-132080000D03*
X111760000Y-127000000D03*
X114300000Y-129540000D03*
X111760000Y-132080000D03*
X121920000Y-132080000D03*
X119380000Y-129540000D03*
X116840000Y-129540000D03*
X116840000Y-127000000D03*
X121920000Y-127000000D03*
X116840000Y-132080000D03*
X119380000Y-127000000D03*
X121920000Y-129540000D03*
X119380000Y-132080000D03*
X129540000Y-132080000D03*
X127000000Y-129540000D03*
X124460000Y-129540000D03*
X124460000Y-127000000D03*
X129540000Y-127000000D03*
X124460000Y-132080000D03*
X127000000Y-127000000D03*
X129540000Y-129540000D03*
X127000000Y-132080000D03*
X137160000Y-132080000D03*
X134620000Y-129540000D03*
X132080000Y-129540000D03*
X132080000Y-127000000D03*
X137160000Y-127000000D03*
X132080000Y-132080000D03*
X134620000Y-127000000D03*
X137160000Y-129540000D03*
X134620000Y-132080000D03*
X144780000Y-132080000D03*
X142240000Y-129540000D03*
X139700000Y-129540000D03*
X139700000Y-127000000D03*
X144780000Y-127000000D03*
X139700000Y-132080000D03*
X142240000Y-127000000D03*
X144780000Y-129540000D03*
X142240000Y-132080000D03*
X152400000Y-132080000D03*
X149860000Y-129540000D03*
X147320000Y-129540000D03*
X147320000Y-127000000D03*
X152400000Y-127000000D03*
X147320000Y-132080000D03*
X149860000Y-127000000D03*
X152400000Y-129540000D03*
X149860000Y-132080000D03*
X160020000Y-132080000D03*
X157480000Y-129540000D03*
X154940000Y-129540000D03*
X154940000Y-127000000D03*
X160020000Y-127000000D03*
X154940000Y-132080000D03*
X157480000Y-127000000D03*
X160020000Y-129540000D03*
X157480000Y-132080000D03*
X106680000Y-124460000D03*
X104140000Y-121920000D03*
X101600000Y-121920000D03*
X101600000Y-119380000D03*
X106680000Y-119380000D03*
X101600000Y-124460000D03*
X104140000Y-119380000D03*
X106680000Y-121920000D03*
X104140000Y-124460000D03*
X114300000Y-124460000D03*
X111760000Y-121920000D03*
X109220000Y-121920000D03*
X109220000Y-119380000D03*
X114300000Y-119380000D03*
X109220000Y-124460000D03*
X111760000Y-119380000D03*
X114300000Y-121920000D03*
X111760000Y-124460000D03*
X121920000Y-124460000D03*
X119380000Y-121920000D03*
X116840000Y-121920000D03*
X116840000Y-119380000D03*
X121920000Y-119380000D03*
X116840000Y-124460000D03*
X119380000Y-119380000D03*
X121920000Y-121920000D03*
X119380000Y-124460000D03*
X129540000Y-124460000D03*
X127000000Y-121920000D03*
X124460000Y-121920000D03*
X124460000Y-119380000D03*
X129540000Y-119380000D03*
X124460000Y-124460000D03*
X127000000Y-119380000D03*
X129540000Y-121920000D03*
X127000000Y-124460000D03*
X137160000Y-124460000D03*
X132080000Y-121920000D03*
X132080000Y-119380000D03*
X137160000Y-119380000D03*
X132080000Y-124460000D03*
X134620000Y-119380000D03*
X134620000Y-124460000D03*
X144780000Y-124460000D03*
X139700000Y-121920000D03*
X139700000Y-119380000D03*
X144780000Y-119380000D03*
X139700000Y-124460000D03*
X142240000Y-119380000D03*
X144780000Y-121920000D03*
X142240000Y-124460000D03*
X152400000Y-124460000D03*
X147320000Y-121920000D03*
X147320000Y-119380000D03*
X152400000Y-119380000D03*
X147320000Y-124460000D03*
X149860000Y-119380000D03*
X152400000Y-121920000D03*
X149860000Y-124460000D03*
X160020000Y-124460000D03*
X157480000Y-121920000D03*
X154940000Y-121920000D03*
X154940000Y-119380000D03*
X160020000Y-119380000D03*
X154940000Y-124460000D03*
X157480000Y-119380000D03*
X160020000Y-121920000D03*
X157480000Y-124460000D03*
X101600000Y-121920000D03*
X99060000Y-119380000D03*
X96520000Y-119380000D03*
X96520000Y-116840000D03*
X101600000Y-116840000D03*
X99060000Y-116840000D03*
X101600000Y-119380000D03*
X99060000Y-121920000D03*
X93980000Y-119380000D03*
X91440000Y-119380000D03*
X91440000Y-116840000D03*
X96520000Y-116840000D03*
X93980000Y-116840000D03*
X96520000Y-119380000D03*
X88900000Y-119380000D03*
X86360000Y-119380000D03*
X86360000Y-116840000D03*
X91440000Y-116840000D03*
X88900000Y-116840000D03*
X91440000Y-119380000D03*
X91440000Y-114300000D03*
X88900000Y-111760000D03*
X86360000Y-111760000D03*
X86360000Y-109220000D03*
X91440000Y-109220000D03*
X86360000Y-114300000D03*
X88900000Y-109220000D03*
X91440000Y-111760000D03*
X88900000Y-114300000D03*
X91440000Y-106680000D03*
X88900000Y-104140000D03*
X86360000Y-104140000D03*
X86360000Y-101600000D03*
X91440000Y-101600000D03*
X86360000Y-106680000D03*
X88900000Y-101600000D03*
X91440000Y-104140000D03*
X88900000Y-106680000D03*
X91440000Y-99060000D03*
X88900000Y-96520000D03*
X86360000Y-96520000D03*
X86360000Y-93980000D03*
X91440000Y-93980000D03*
X86360000Y-99060000D03*
X88900000Y-93980000D03*
X91440000Y-96520000D03*
X88900000Y-99060000D03*
X91440000Y-91440000D03*
X88900000Y-88900000D03*
X86360000Y-88900000D03*
X86360000Y-86360000D03*
X91440000Y-86360000D03*
X86360000Y-91440000D03*
X88900000Y-86360000D03*
X91440000Y-88900000D03*
X88900000Y-91440000D03*
X91440000Y-83820000D03*
X88900000Y-81280000D03*
X86360000Y-81280000D03*
X86360000Y-78740000D03*
X91440000Y-78740000D03*
X86360000Y-83820000D03*
X88900000Y-78740000D03*
X91440000Y-81280000D03*
X88900000Y-83820000D03*
X91440000Y-76200000D03*
X88900000Y-73660000D03*
X86360000Y-73660000D03*
X86360000Y-71120000D03*
X91440000Y-71120000D03*
X86360000Y-76200000D03*
X88900000Y-71120000D03*
X91440000Y-73660000D03*
X88900000Y-76200000D03*
X99060000Y-76200000D03*
X96520000Y-73660000D03*
X93980000Y-73660000D03*
X93980000Y-71120000D03*
X99060000Y-71120000D03*
X93980000Y-76200000D03*
X96520000Y-71120000D03*
X99060000Y-73660000D03*
X96520000Y-76200000D03*
X99060000Y-83820000D03*
X96520000Y-81280000D03*
X93980000Y-81280000D03*
X93980000Y-78740000D03*
X99060000Y-78740000D03*
X93980000Y-83820000D03*
X96520000Y-78740000D03*
X99060000Y-81280000D03*
X96520000Y-83820000D03*
X99060000Y-91440000D03*
X96520000Y-88900000D03*
X93980000Y-88900000D03*
X93980000Y-86360000D03*
X99060000Y-86360000D03*
X93980000Y-91440000D03*
X96520000Y-86360000D03*
X99060000Y-88900000D03*
X96520000Y-91440000D03*
X96520000Y-106680000D03*
X93980000Y-96520000D03*
X96520000Y-93980000D03*
X96520000Y-99060000D03*
X96520000Y-101600000D03*
X93980000Y-93980000D03*
X96520000Y-104140000D03*
X93980000Y-99060000D03*
X93980000Y-109220000D03*
X96520000Y-96520000D03*
X93980000Y-104140000D03*
X93980000Y-101600000D03*
X93980000Y-106680000D03*
X96520000Y-109220000D03*
X96520000Y-114300000D03*
X93980000Y-104140000D03*
X96520000Y-101600000D03*
X96520000Y-106680000D03*
X96520000Y-109220000D03*
X93980000Y-101600000D03*
X96520000Y-111760000D03*
X93980000Y-106680000D03*
X93980000Y-116840000D03*
X96520000Y-104140000D03*
X93980000Y-111760000D03*
X93980000Y-109220000D03*
X93980000Y-114300000D03*
X96520000Y-116840000D03*
X99060000Y-116840000D03*
X101600000Y-116840000D03*
X101600000Y-121920000D03*
X101600000Y-119380000D03*
X99060000Y-121920000D03*
X99060000Y-119380000D03*
X99060000Y-116840000D03*
X101600000Y-116840000D03*
X101600000Y-111760000D03*
X101600000Y-114300000D03*
X99060000Y-111760000D03*
X99060000Y-114300000D03*
X104140000Y-66040000D03*
X106680000Y-71120000D03*
X109220000Y-71120000D03*
X106680000Y-68580000D03*
X109220000Y-68580000D03*
X106680000Y-66040000D03*
X109220000Y-66040000D03*
X104140000Y-71120000D03*
X96520000Y-71120000D03*
X101600000Y-66040000D03*
X101600000Y-68580000D03*
X99060000Y-71120000D03*
X101600000Y-71120000D03*
X104140000Y-68580000D03*
X104140000Y-60960000D03*
X106680000Y-66040000D03*
X109220000Y-66040000D03*
X106680000Y-63500000D03*
X109220000Y-63500000D03*
X106680000Y-60960000D03*
X109220000Y-60960000D03*
X104140000Y-66040000D03*
X101600000Y-60960000D03*
X101600000Y-63500000D03*
X101600000Y-66040000D03*
X104140000Y-63500000D03*
X104140000Y-58420000D03*
X106680000Y-63500000D03*
X109220000Y-63500000D03*
X106680000Y-60960000D03*
X109220000Y-60960000D03*
X106680000Y-58420000D03*
X109220000Y-58420000D03*
X104140000Y-63500000D03*
X101600000Y-58420000D03*
X101600000Y-60960000D03*
X101600000Y-63500000D03*
X104140000Y-60960000D03*
X114300000Y-58420000D03*
X116840000Y-63500000D03*
X119380000Y-63500000D03*
X116840000Y-60960000D03*
X119380000Y-60960000D03*
X116840000Y-58420000D03*
X119380000Y-58420000D03*
X109220000Y-58420000D03*
X114300000Y-63500000D03*
X106680000Y-63500000D03*
X111760000Y-58420000D03*
X111760000Y-60960000D03*
X109220000Y-63500000D03*
X106680000Y-58420000D03*
X109220000Y-60960000D03*
X106680000Y-60960000D03*
X111760000Y-63500000D03*
X114300000Y-60960000D03*
X109220000Y-66040000D03*
X106680000Y-71120000D03*
X111760000Y-66040000D03*
X111760000Y-68580000D03*
X109220000Y-71120000D03*
X106680000Y-66040000D03*
X109220000Y-68580000D03*
X106680000Y-68580000D03*
X111760000Y-71120000D03*
X101600000Y-76200000D03*
X106680000Y-73660000D03*
X106680000Y-71120000D03*
X104140000Y-73660000D03*
X104140000Y-71120000D03*
X101600000Y-73660000D03*
X101600000Y-71120000D03*
X101600000Y-81280000D03*
X106680000Y-76200000D03*
X106680000Y-83820000D03*
X101600000Y-78740000D03*
X104140000Y-78740000D03*
X106680000Y-81280000D03*
X101600000Y-83820000D03*
X104140000Y-81280000D03*
X104140000Y-83820000D03*
X106680000Y-78740000D03*
X104140000Y-76200000D03*
X99060000Y-116840000D03*
X96520000Y-111760000D03*
X93980000Y-111760000D03*
X96520000Y-114300000D03*
X93980000Y-114300000D03*
X96520000Y-116840000D03*
X93980000Y-116840000D03*
X104140000Y-116840000D03*
X99060000Y-111760000D03*
X106680000Y-111760000D03*
X101600000Y-116840000D03*
X101600000Y-114300000D03*
X104140000Y-111760000D03*
X106680000Y-116840000D03*
X104140000Y-114300000D03*
X106680000Y-114300000D03*
X101600000Y-111760000D03*
X99060000Y-114300000D03*
X116840000Y-116840000D03*
X119380000Y-121920000D03*
X121920000Y-121920000D03*
X119380000Y-119380000D03*
X121920000Y-119380000D03*
X119380000Y-116840000D03*
X121920000Y-116840000D03*
X111760000Y-116840000D03*
X116840000Y-121920000D03*
X109220000Y-121920000D03*
X114300000Y-116840000D03*
X114300000Y-119380000D03*
X111760000Y-121920000D03*
X109220000Y-116840000D03*
X111760000Y-119380000D03*
X109220000Y-119380000D03*
X114300000Y-121920000D03*
X116840000Y-119380000D03*
X132080000Y-116840000D03*
X134620000Y-119380000D03*
X137160000Y-119380000D03*
X134620000Y-116840000D03*
X137160000Y-116840000D03*
X127000000Y-116840000D03*
X132080000Y-121920000D03*
X124460000Y-121920000D03*
X129540000Y-116840000D03*
X129540000Y-119380000D03*
X127000000Y-121920000D03*
X124460000Y-116840000D03*
X127000000Y-119380000D03*
X124460000Y-119380000D03*
X129540000Y-121920000D03*
X132080000Y-119380000D03*
X152400000Y-121920000D03*
X149860000Y-119380000D03*
X152400000Y-119380000D03*
X147320000Y-121920000D03*
X139700000Y-121920000D03*
X144780000Y-119380000D03*
X139700000Y-116840000D03*
X142240000Y-119380000D03*
X139700000Y-119380000D03*
X144780000Y-121920000D03*
X147320000Y-119380000D03*
X157480000Y-121920000D03*
X160020000Y-121920000D03*
X157480000Y-119380000D03*
X160020000Y-119380000D03*
X157480000Y-116840000D03*
X160020000Y-116840000D03*
X154940000Y-121920000D03*
X147320000Y-121920000D03*
X152400000Y-119380000D03*
X149860000Y-119380000D03*
X147320000Y-119380000D03*
X152400000Y-121920000D03*
X154940000Y-119380000D03*
X106680000Y-93980000D03*
X114300000Y-93980000D03*
X111760000Y-93980000D03*
X109220000Y-93980000D03*
X104140000Y-93980000D03*
X106680000Y-96520000D03*
X111760000Y-96520000D03*
X109220000Y-96520000D03*
X104140000Y-96520000D03*
X101600000Y-86360000D03*
X109220000Y-86360000D03*
X106680000Y-86360000D03*
X104140000Y-86360000D03*
X104140000Y-88900000D03*
X106680000Y-86360000D03*
X104140000Y-86360000D03*
X106680000Y-88900000D03*
X101600000Y-88900000D03*
X104140000Y-86360000D03*
X101600000Y-86360000D03*
X104140000Y-88900000D03*
X99060000Y-91440000D03*
X101600000Y-88900000D03*
X99060000Y-88900000D03*
X101600000Y-91440000D03*
X109220000Y-76200000D03*
X111760000Y-73660000D03*
X109220000Y-73660000D03*
X111760000Y-76200000D03*
X109220000Y-78740000D03*
X111760000Y-76200000D03*
X109220000Y-76200000D03*
X111760000Y-78740000D03*
X119380000Y-81280000D03*
X119380000Y-78740000D03*
X119380000Y-83820000D03*
X119380000Y-86360000D03*
X119380000Y-83820000D03*
X132080000Y-106680000D03*
X132080000Y-106680000D03*
X134620000Y-106680000D03*
X132080000Y-109220000D03*
X132080000Y-104140000D03*
X134620000Y-109220000D03*
X132080000Y-109220000D03*
X134620000Y-106680000D03*
X134620000Y-104140000D03*
X134620000Y-109220000D03*
X132080000Y-111760000D03*
X132080000Y-111760000D03*
X134620000Y-111760000D03*
X132080000Y-114300000D03*
X132080000Y-109220000D03*
X134620000Y-114300000D03*
X132080000Y-114300000D03*
X134620000Y-111760000D03*
X134620000Y-109220000D03*
X134620000Y-114300000D03*
X137160000Y-114300000D03*
X137160000Y-114300000D03*
X139700000Y-114300000D03*
X137160000Y-116840000D03*
X137160000Y-111760000D03*
X139700000Y-116840000D03*
X137160000Y-116840000D03*
X139700000Y-114300000D03*
X139700000Y-111760000D03*
X139700000Y-116840000D03*
X134620000Y-106680000D03*
X134620000Y-106680000D03*
X137160000Y-106680000D03*
X134620000Y-109220000D03*
X134620000Y-104140000D03*
X137160000Y-109220000D03*
X134620000Y-109220000D03*
X137160000Y-106680000D03*
X137160000Y-109220000D03*
X121462800Y-104622600D03*
X131673600Y-101828600D03*
X125730000Y-106857800D03*
X101600000Y-127000000D03*
X104140000Y-127000000D03*
X106680000Y-127000000D03*
X106680000Y-129540000D03*
X104140000Y-129540000D03*
X101600000Y-129540000D03*
X101600000Y-132080000D03*
X104140000Y-132080000D03*
X106680000Y-132080000D03*
X160020000Y-114300000D03*
X160020000Y-106680000D03*
X160020000Y-104140000D03*
X154940000Y-104140000D03*
X152400000Y-104140000D03*
X149860000Y-104140000D03*
X144780000Y-109220000D03*
X147320000Y-109220000D03*
X147320000Y-111760000D03*
X144780000Y-111760000D03*
X142240000Y-106680000D03*
X139700000Y-106680000D03*
X142240000Y-109220000D03*
X137160000Y-101600000D03*
X136906000Y-98806000D03*
X137160000Y-96520000D03*
X132080000Y-99060000D03*
X132080000Y-96520000D03*
X106680000Y-91440000D03*
X109220000Y-91440000D03*
X111760000Y-91440000D03*
X114300000Y-91440000D03*
X116840000Y-91440000D03*
X109220000Y-114300000D03*
X99060000Y-124460000D03*
X99060000Y-127000000D03*
X99060000Y-129540000D03*
X99060000Y-132080000D03*
X104140000Y-109220000D03*
X149860000Y-121920000D03*
X142240000Y-121920000D03*
X137160000Y-121920000D03*
X134620000Y-121920000D03*
X149860000Y-111760000D03*
X157480000Y-106680000D03*
X154940000Y-106680000D03*
X157480000Y-114300000D03*
X154940000Y-114300000D03*
X152400000Y-114300000D03*
X149860000Y-114300000D03*
X147320000Y-114300000D03*
X144780000Y-114300000D03*
X142240000Y-114300000D03*
X119380000Y-73660000D03*
X119380000Y-76200000D03*
X114300000Y-73660000D03*
X116840000Y-106680000D03*
X119380000Y-101600000D03*
X119380000Y-104140000D03*
X116840000Y-104140000D03*
X121920000Y-99060000D03*
X116840000Y-99060000D03*
X116840000Y-96520000D03*
X116840000Y-93980000D03*
X116840000Y-101600000D03*
X125476000Y-99568000D03*
%TO.N,+5V*%
X140995400Y-77114400D03*
X148488400Y-77216006D03*
X125620000Y-73580000D03*
%TO.N,/NRST*%
X150774400Y-95591790D03*
X173037500Y-92329000D03*
%TO.N,/SWO*%
X157327600Y-97383600D03*
%TO.N,/I2C_SCL*%
X158699200Y-96367600D03*
%TO.N,Net-(R1-Pad2)*%
X170180000Y-71120000D03*
%TO.N,/SPI_MISO*%
X136728200Y-88773000D03*
X158318200Y-78867000D03*
%TO.N,/SPI_SCK*%
X136677400Y-90932000D03*
X160832802Y-79959200D03*
%TO.N,/SPI_MOSI*%
X171450000Y-79654400D03*
X157480000Y-86360000D03*
%TO.N,/ADS_NSS*%
X137058400Y-93014800D03*
X158343600Y-104241600D03*
%TD*%
D17*
%TO.N,+5VA*%
X104127300Y-97790000D02*
X133553200Y-97790000D01*
X100990400Y-94653100D02*
X104127300Y-97790000D01*
X133553200Y-97790000D02*
X134264400Y-97078800D01*
X100990400Y-94411800D02*
X100990400Y-94653100D01*
%TO.N,GNDA*%
X123494800Y-104622600D02*
X125730000Y-106857800D01*
X121462800Y-104622600D02*
X123494800Y-104622600D01*
X126644400Y-106857800D02*
X131673600Y-101828600D01*
X125730000Y-106857800D02*
X126644400Y-106857800D01*
X133883400Y-101828600D02*
X136906000Y-98806000D01*
X131673600Y-101828600D02*
X133883400Y-101828600D01*
X136906000Y-98806000D02*
X136906000Y-98806000D01*
%TO.N,+3V3*%
X177317400Y-84302600D02*
X176936400Y-83921600D01*
X176936400Y-83921600D02*
X176936400Y-81838800D01*
X193802000Y-91744800D02*
X186359800Y-84302600D01*
X193802000Y-105968800D02*
X193802000Y-91744800D01*
X186385200Y-113385600D02*
X193802000Y-105968800D01*
X179774400Y-113385600D02*
X186385200Y-113385600D01*
X186359800Y-84302600D02*
X177317400Y-84302600D01*
X176350000Y-116810000D02*
X179774400Y-113385600D01*
D18*
%TO.N,+5V*%
X148888399Y-77616005D02*
X148488400Y-77216006D01*
X180130000Y-115570000D02*
X185978800Y-115570000D01*
X186328005Y-77616005D02*
X148888399Y-77616005D01*
X194970400Y-86258400D02*
X186328005Y-77616005D01*
X194970400Y-106578400D02*
X194970400Y-86258400D01*
X185978800Y-115570000D02*
X194970400Y-106578400D01*
X178890000Y-116810000D02*
X180130000Y-115570000D01*
X129850000Y-77810000D02*
X125620000Y-73580000D01*
X140995400Y-77114400D02*
X140299800Y-77810000D01*
X140299800Y-77810000D02*
X129850000Y-77810000D01*
D17*
%TO.N,/NRST*%
X171005500Y-92329000D02*
X173037500Y-92329000D01*
X167742710Y-95591790D02*
X171005500Y-92329000D01*
X150774400Y-95591790D02*
X167742710Y-95591790D01*
%TO.N,/SWO*%
X156362400Y-96418400D02*
X157327600Y-97383600D01*
X148437600Y-96418400D02*
X156362400Y-96418400D01*
X146278600Y-98577400D02*
X148437600Y-96418400D01*
X144983200Y-98577400D02*
X146278600Y-98577400D01*
%TO.N,/I2C_SCL*%
X162255200Y-96367600D02*
X158699200Y-96367600D01*
X163525200Y-97637600D02*
X162255200Y-96367600D01*
X163525200Y-109065200D02*
X163525200Y-97637600D01*
X171270000Y-116810000D02*
X163525200Y-109065200D01*
%TO.N,/SPI_MISO*%
X146634200Y-78867000D02*
X158318200Y-78867000D01*
X136728200Y-88773000D02*
X146634200Y-78867000D01*
%TO.N,/SPI_SCK*%
X146862800Y-79959200D02*
X160832802Y-79959200D01*
X138430000Y-90170000D02*
X138430000Y-88392000D01*
X137668000Y-90932000D02*
X138430000Y-90170000D01*
X138430000Y-88392000D02*
X146862800Y-79959200D01*
X136677400Y-90932000D02*
X137668000Y-90932000D01*
%TO.N,/SPI_MOSI*%
X157480000Y-85815001D02*
X157480000Y-86360000D01*
X158205001Y-85090000D02*
X157480000Y-85815001D01*
X166014400Y-85090000D02*
X158205001Y-85090000D01*
X171450000Y-79654400D02*
X166014400Y-85090000D01*
%TO.N,/ADS_NSS*%
X159512000Y-108864400D02*
X158343600Y-107696000D01*
X159512000Y-112064800D02*
X159512000Y-108864400D01*
X142900400Y-113030000D02*
X158546800Y-113030000D01*
X158343600Y-107696000D02*
X158343600Y-104241600D01*
X158546800Y-113030000D02*
X159512000Y-112064800D01*
X138480800Y-108610400D02*
X142900400Y-113030000D01*
X138480800Y-94437200D02*
X138480800Y-108610400D01*
X137058400Y-93014800D02*
X138480800Y-94437200D01*
%TD*%
D19*
%TO.N,GND*%
X184023000Y-69850000D02*
X184025440Y-69874776D01*
X184032667Y-69898601D01*
X184044403Y-69920557D01*
X184060197Y-69939803D01*
X184079443Y-69955597D01*
X184101399Y-69967333D01*
X184125224Y-69974560D01*
X184150000Y-69977000D01*
X196723000Y-69977000D01*
X196723000Y-120523000D01*
X184150000Y-120523000D01*
X184125224Y-120525440D01*
X184101399Y-120532667D01*
X184079443Y-120544403D01*
X184060197Y-120560197D01*
X184044403Y-120579443D01*
X184032667Y-120601399D01*
X184025440Y-120625224D01*
X184023000Y-120650000D01*
X184023000Y-133223000D01*
X162242500Y-133223000D01*
X162242500Y-117660000D01*
X167450934Y-117660000D01*
X167459178Y-117743707D01*
X167483595Y-117824196D01*
X167523245Y-117898376D01*
X167576605Y-117963395D01*
X167641624Y-118016755D01*
X167715804Y-118056405D01*
X167796293Y-118080822D01*
X167880000Y-118089066D01*
X168600250Y-118087000D01*
X168707000Y-117980250D01*
X168707000Y-116833000D01*
X167559750Y-116833000D01*
X167453000Y-116939750D01*
X167450934Y-117660000D01*
X162242500Y-117660000D01*
X162242500Y-115960000D01*
X167450934Y-115960000D01*
X167453000Y-116680250D01*
X167559750Y-116787000D01*
X168707000Y-116787000D01*
X168707000Y-115639750D01*
X168600250Y-115533000D01*
X167880000Y-115530934D01*
X167796293Y-115539178D01*
X167715804Y-115563595D01*
X167641624Y-115603245D01*
X167576605Y-115656605D01*
X167523245Y-115721624D01*
X167483595Y-115795804D01*
X167459178Y-115876293D01*
X167450934Y-115960000D01*
X162242500Y-115960000D01*
X162242500Y-102743000D01*
X162240060Y-102718224D01*
X162232833Y-102694399D01*
X162221097Y-102672443D01*
X162205303Y-102653197D01*
X162186057Y-102637403D01*
X162164101Y-102625667D01*
X162140276Y-102618440D01*
X162116539Y-102616004D01*
X139032800Y-102427103D01*
X139032800Y-94464297D01*
X139035469Y-94437199D01*
X139032800Y-94410101D01*
X139032800Y-94410091D01*
X139024812Y-94328989D01*
X138993248Y-94224937D01*
X138969388Y-94180298D01*
X138941991Y-94129041D01*
X138890291Y-94066045D01*
X138873011Y-94044989D01*
X138851954Y-94027708D01*
X137885400Y-93061155D01*
X137885400Y-92933348D01*
X137853618Y-92773573D01*
X137791277Y-92623069D01*
X137700772Y-92487619D01*
X137585581Y-92372428D01*
X137450131Y-92281923D01*
X137299627Y-92219582D01*
X137139852Y-92187800D01*
X136976948Y-92187800D01*
X136817173Y-92219582D01*
X136666669Y-92281923D01*
X136531219Y-92372428D01*
X136416028Y-92487619D01*
X136325523Y-92623069D01*
X136263182Y-92773573D01*
X136231400Y-92933348D01*
X136231400Y-93096252D01*
X136263182Y-93256027D01*
X136325523Y-93406531D01*
X136416028Y-93541981D01*
X136531219Y-93657172D01*
X136666669Y-93747677D01*
X136817173Y-93810018D01*
X136976948Y-93841800D01*
X137104755Y-93841800D01*
X137369955Y-94107000D01*
X124307600Y-94107000D01*
X124282824Y-94109440D01*
X124258999Y-94116667D01*
X124237043Y-94128403D01*
X124217797Y-94144197D01*
X124202003Y-94163443D01*
X124190267Y-94185399D01*
X124183040Y-94209224D01*
X124180600Y-94234000D01*
X124180600Y-94970600D01*
X120979945Y-94970600D01*
X120971672Y-90850548D01*
X135850400Y-90850548D01*
X135850400Y-91013452D01*
X135882182Y-91173227D01*
X135944523Y-91323731D01*
X136035028Y-91459181D01*
X136150219Y-91574372D01*
X136285669Y-91664877D01*
X136436173Y-91727218D01*
X136595948Y-91759000D01*
X136758852Y-91759000D01*
X136918627Y-91727218D01*
X137069131Y-91664877D01*
X137204581Y-91574372D01*
X137294953Y-91484000D01*
X137640894Y-91484000D01*
X137668000Y-91486670D01*
X137695106Y-91484000D01*
X137695109Y-91484000D01*
X137776211Y-91476012D01*
X137880263Y-91444448D01*
X137976158Y-91393191D01*
X138060211Y-91324211D01*
X138077500Y-91303144D01*
X138801154Y-90579492D01*
X138822211Y-90562211D01*
X138891191Y-90478158D01*
X138942448Y-90382263D01*
X138974012Y-90278211D01*
X138982000Y-90197109D01*
X138982000Y-90197108D01*
X138984670Y-90170000D01*
X138982000Y-90142892D01*
X138982000Y-88620644D01*
X140035244Y-87567400D01*
X143704134Y-87567400D01*
X143704134Y-89267400D01*
X143712378Y-89351107D01*
X143736795Y-89431596D01*
X143776445Y-89505776D01*
X143829805Y-89570795D01*
X143894824Y-89624155D01*
X143969004Y-89663805D01*
X144049493Y-89688222D01*
X144133200Y-89696466D01*
X144776656Y-89696466D01*
X144610713Y-89729474D01*
X144378314Y-89825737D01*
X144169160Y-89965489D01*
X143991289Y-90143360D01*
X143851537Y-90352514D01*
X143755274Y-90584913D01*
X143706200Y-90831626D01*
X143706200Y-91083174D01*
X143755274Y-91329887D01*
X143851537Y-91562286D01*
X143991289Y-91771440D01*
X144169160Y-91949311D01*
X144378314Y-92089063D01*
X144610713Y-92185326D01*
X144857426Y-92234400D01*
X144960198Y-92234400D01*
X144960198Y-92327355D01*
X144760749Y-92239923D01*
X144519702Y-92307483D01*
X144296467Y-92420771D01*
X144099622Y-92575433D01*
X143936733Y-92765526D01*
X143814059Y-92983744D01*
X143736314Y-93221702D01*
X143725724Y-93274949D01*
X143813176Y-93474400D01*
X144960200Y-93474400D01*
X144960200Y-93454400D01*
X145006200Y-93454400D01*
X145006200Y-93474400D01*
X146153224Y-93474400D01*
X146240676Y-93274949D01*
X146230086Y-93221702D01*
X146152341Y-92983744D01*
X146029667Y-92765526D01*
X145866778Y-92575433D01*
X145669933Y-92420771D01*
X145446698Y-92307483D01*
X145205651Y-92239923D01*
X145006202Y-92327355D01*
X145006202Y-92234400D01*
X145108974Y-92234400D01*
X145355687Y-92185326D01*
X145588086Y-92089063D01*
X145797240Y-91949311D01*
X145975111Y-91771440D01*
X146114863Y-91562286D01*
X146211126Y-91329887D01*
X146260200Y-91083174D01*
X146260200Y-90831626D01*
X146211126Y-90584913D01*
X146114863Y-90352514D01*
X145975111Y-90143360D01*
X145797240Y-89965489D01*
X145588086Y-89825737D01*
X145355687Y-89729474D01*
X145189744Y-89696466D01*
X145833200Y-89696466D01*
X145916907Y-89688222D01*
X145997396Y-89663805D01*
X146071576Y-89624155D01*
X146136595Y-89570795D01*
X146189955Y-89505776D01*
X146229605Y-89431596D01*
X146254022Y-89351107D01*
X146262266Y-89267400D01*
X146262266Y-87567400D01*
X146254022Y-87483693D01*
X146229605Y-87403204D01*
X146189955Y-87329024D01*
X146136595Y-87264005D01*
X146071576Y-87210645D01*
X145997396Y-87170995D01*
X145916907Y-87146578D01*
X145833200Y-87138334D01*
X144133200Y-87138334D01*
X144049493Y-87146578D01*
X143969004Y-87170995D01*
X143894824Y-87210645D01*
X143829805Y-87264005D01*
X143776445Y-87329024D01*
X143736795Y-87403204D01*
X143712378Y-87483693D01*
X143704134Y-87567400D01*
X140035244Y-87567400D01*
X141324096Y-86278548D01*
X156653000Y-86278548D01*
X156653000Y-86441452D01*
X156684782Y-86601227D01*
X156747123Y-86751731D01*
X156837628Y-86887181D01*
X156952819Y-87002372D01*
X157088269Y-87092877D01*
X157238773Y-87155218D01*
X157398548Y-87187000D01*
X157561452Y-87187000D01*
X157721227Y-87155218D01*
X157871731Y-87092877D01*
X158007181Y-87002372D01*
X158122372Y-86887181D01*
X158212877Y-86751731D01*
X158275218Y-86601227D01*
X158307000Y-86441452D01*
X158307000Y-86278548D01*
X158275218Y-86118773D01*
X158212877Y-85968269D01*
X158170620Y-85905026D01*
X158433647Y-85642000D01*
X165987294Y-85642000D01*
X166014400Y-85644670D01*
X166041506Y-85642000D01*
X166041509Y-85642000D01*
X166122611Y-85634012D01*
X166226663Y-85602448D01*
X166322558Y-85551191D01*
X166406611Y-85482211D01*
X166423901Y-85461143D01*
X171403646Y-80481400D01*
X171531452Y-80481400D01*
X171691227Y-80449618D01*
X171841731Y-80387277D01*
X171977181Y-80296772D01*
X172092372Y-80181581D01*
X172182877Y-80046131D01*
X172245218Y-79895627D01*
X172277000Y-79735852D01*
X172277000Y-79572948D01*
X172245218Y-79413173D01*
X172182877Y-79262669D01*
X172092372Y-79127219D01*
X171977181Y-79012028D01*
X171841731Y-78921523D01*
X171691227Y-78859182D01*
X171531452Y-78827400D01*
X171368548Y-78827400D01*
X171208773Y-78859182D01*
X171058269Y-78921523D01*
X170922819Y-79012028D01*
X170807628Y-79127219D01*
X170717123Y-79262669D01*
X170654782Y-79413173D01*
X170623000Y-79572948D01*
X170623000Y-79700754D01*
X165785756Y-84538000D01*
X158232098Y-84538000D01*
X158205000Y-84535331D01*
X158177902Y-84538000D01*
X158177892Y-84538000D01*
X158096790Y-84545988D01*
X157992738Y-84577552D01*
X157948099Y-84601412D01*
X157896842Y-84628809D01*
X157842078Y-84673753D01*
X157812790Y-84697789D01*
X157795509Y-84718846D01*
X157108856Y-85405501D01*
X157087789Y-85422790D01*
X157018809Y-85506843D01*
X156967552Y-85602739D01*
X156935988Y-85706791D01*
X156932965Y-85737482D01*
X156837628Y-85832819D01*
X156747123Y-85968269D01*
X156684782Y-86118773D01*
X156653000Y-86278548D01*
X141324096Y-86278548D01*
X147091446Y-80511200D01*
X160215249Y-80511200D01*
X160305621Y-80601572D01*
X160441071Y-80692077D01*
X160591575Y-80754418D01*
X160751350Y-80786200D01*
X160914254Y-80786200D01*
X161074029Y-80754418D01*
X161224533Y-80692077D01*
X161359983Y-80601572D01*
X161475174Y-80486381D01*
X161565679Y-80350931D01*
X161628020Y-80200427D01*
X161659802Y-80040652D01*
X161659802Y-79877748D01*
X161628020Y-79717973D01*
X161565679Y-79567469D01*
X161475174Y-79432019D01*
X161359983Y-79316828D01*
X161224533Y-79226323D01*
X161074029Y-79163982D01*
X160914254Y-79132200D01*
X160751350Y-79132200D01*
X160591575Y-79163982D01*
X160441071Y-79226323D01*
X160305621Y-79316828D01*
X160215249Y-79407200D01*
X158947553Y-79407200D01*
X158960572Y-79394181D01*
X159051077Y-79258731D01*
X159113418Y-79108227D01*
X159145200Y-78948452D01*
X159145200Y-78785548D01*
X159113418Y-78625773D01*
X159079134Y-78543005D01*
X185944030Y-78543005D01*
X194043401Y-86642377D01*
X194043401Y-91205555D01*
X186769301Y-83931457D01*
X186752011Y-83910389D01*
X186667958Y-83841409D01*
X186572063Y-83790152D01*
X186468011Y-83758588D01*
X186386909Y-83750600D01*
X186386906Y-83750600D01*
X186359800Y-83747930D01*
X186332694Y-83750600D01*
X177546045Y-83750600D01*
X177488400Y-83692955D01*
X177488400Y-83117866D01*
X177786400Y-83117866D01*
X177870107Y-83109622D01*
X177950596Y-83085205D01*
X178024776Y-83045555D01*
X178089795Y-82992195D01*
X178143155Y-82927176D01*
X178182805Y-82852996D01*
X178207222Y-82772507D01*
X178215466Y-82688800D01*
X178215466Y-82045344D01*
X178248474Y-82211287D01*
X178344737Y-82443686D01*
X178484489Y-82652840D01*
X178662360Y-82830711D01*
X178871514Y-82970463D01*
X179103913Y-83066726D01*
X179350626Y-83115800D01*
X179602174Y-83115800D01*
X179848887Y-83066726D01*
X180081286Y-82970463D01*
X180290440Y-82830711D01*
X180468311Y-82652840D01*
X180608063Y-82443686D01*
X180704326Y-82211287D01*
X180746400Y-81999766D01*
X180788474Y-82211287D01*
X180884737Y-82443686D01*
X181024489Y-82652840D01*
X181202360Y-82830711D01*
X181411514Y-82970463D01*
X181643913Y-83066726D01*
X181890626Y-83115800D01*
X182142174Y-83115800D01*
X182388887Y-83066726D01*
X182621286Y-82970463D01*
X182830440Y-82830711D01*
X183008311Y-82652840D01*
X183148063Y-82443686D01*
X183244326Y-82211287D01*
X183293400Y-81964574D01*
X183293400Y-81861802D01*
X183386355Y-81861802D01*
X183298923Y-82061251D01*
X183366483Y-82302298D01*
X183479771Y-82525533D01*
X183634433Y-82722378D01*
X183824526Y-82885267D01*
X184042744Y-83007941D01*
X184280702Y-83085686D01*
X184333949Y-83096276D01*
X184533400Y-83008824D01*
X184533400Y-81861800D01*
X184579400Y-81861800D01*
X184579400Y-83008824D01*
X184778851Y-83096276D01*
X184832098Y-83085686D01*
X185070056Y-83007941D01*
X185288274Y-82885267D01*
X185478367Y-82722378D01*
X185633029Y-82525533D01*
X185746317Y-82302298D01*
X185813877Y-82061251D01*
X185726444Y-81861800D01*
X184579400Y-81861800D01*
X184533400Y-81861800D01*
X184513400Y-81861800D01*
X184513400Y-81815800D01*
X184533400Y-81815800D01*
X184533400Y-80668776D01*
X184579400Y-80668776D01*
X184579400Y-81815800D01*
X185726444Y-81815800D01*
X185813877Y-81616349D01*
X185746317Y-81375302D01*
X185633029Y-81152067D01*
X185478367Y-80955222D01*
X185288274Y-80792333D01*
X185070056Y-80669659D01*
X184832098Y-80591914D01*
X184778851Y-80581324D01*
X184579400Y-80668776D01*
X184533400Y-80668776D01*
X184333949Y-80581324D01*
X184280702Y-80591914D01*
X184042744Y-80669659D01*
X183824526Y-80792333D01*
X183634433Y-80955222D01*
X183479771Y-81152067D01*
X183366483Y-81375302D01*
X183298923Y-81616349D01*
X183386355Y-81815798D01*
X183293400Y-81815798D01*
X183293400Y-81713026D01*
X183244326Y-81466313D01*
X183148063Y-81233914D01*
X183008311Y-81024760D01*
X182830440Y-80846889D01*
X182621286Y-80707137D01*
X182388887Y-80610874D01*
X182142174Y-80561800D01*
X181890626Y-80561800D01*
X181643913Y-80610874D01*
X181411514Y-80707137D01*
X181202360Y-80846889D01*
X181024489Y-81024760D01*
X180884737Y-81233914D01*
X180788474Y-81466313D01*
X180746400Y-81677834D01*
X180704326Y-81466313D01*
X180608063Y-81233914D01*
X180468311Y-81024760D01*
X180290440Y-80846889D01*
X180081286Y-80707137D01*
X179848887Y-80610874D01*
X179602174Y-80561800D01*
X179350626Y-80561800D01*
X179103913Y-80610874D01*
X178871514Y-80707137D01*
X178662360Y-80846889D01*
X178484489Y-81024760D01*
X178344737Y-81233914D01*
X178248474Y-81466313D01*
X178215466Y-81632256D01*
X178215466Y-80988800D01*
X178207222Y-80905093D01*
X178182805Y-80824604D01*
X178143155Y-80750424D01*
X178089795Y-80685405D01*
X178024776Y-80632045D01*
X177950596Y-80592395D01*
X177870107Y-80567978D01*
X177786400Y-80559734D01*
X176086400Y-80559734D01*
X176002693Y-80567978D01*
X175922204Y-80592395D01*
X175848024Y-80632045D01*
X175783005Y-80685405D01*
X175729645Y-80750424D01*
X175689995Y-80824604D01*
X175665578Y-80905093D01*
X175657334Y-80988800D01*
X175657334Y-82688800D01*
X175665578Y-82772507D01*
X175689995Y-82852996D01*
X175729645Y-82927176D01*
X175783005Y-82992195D01*
X175848024Y-83045555D01*
X175922204Y-83085205D01*
X176002693Y-83109622D01*
X176086400Y-83117866D01*
X176384400Y-83117866D01*
X176384400Y-83894494D01*
X176381730Y-83921600D01*
X176384400Y-83948706D01*
X176384400Y-83948708D01*
X176392388Y-84029810D01*
X176423952Y-84133862D01*
X176475209Y-84229758D01*
X176544189Y-84313811D01*
X176565256Y-84331100D01*
X176907907Y-84673753D01*
X176925189Y-84694811D01*
X176946245Y-84712091D01*
X177009241Y-84763791D01*
X177043013Y-84781842D01*
X177105137Y-84815048D01*
X177209189Y-84846612D01*
X177290291Y-84854600D01*
X177290301Y-84854600D01*
X177317399Y-84857269D01*
X177344497Y-84854600D01*
X186131156Y-84854600D01*
X193250001Y-91973447D01*
X193250000Y-105740154D01*
X186156556Y-112833600D01*
X179801506Y-112833600D01*
X179774400Y-112830930D01*
X179747294Y-112833600D01*
X179747291Y-112833600D01*
X179666189Y-112841588D01*
X179562137Y-112873152D01*
X179466242Y-112924409D01*
X179382189Y-112993389D01*
X179364904Y-113014451D01*
X176775375Y-115603981D01*
X176722487Y-115582074D01*
X176475774Y-115533000D01*
X176224226Y-115533000D01*
X175977513Y-115582074D01*
X175745114Y-115678337D01*
X175535960Y-115818089D01*
X175358089Y-115995960D01*
X175218337Y-116205114D01*
X175122074Y-116437513D01*
X175080000Y-116649034D01*
X175037926Y-116437513D01*
X174941663Y-116205114D01*
X174801911Y-115995960D01*
X174624040Y-115818089D01*
X174414886Y-115678337D01*
X174182487Y-115582074D01*
X173935774Y-115533000D01*
X173684226Y-115533000D01*
X173437513Y-115582074D01*
X173205114Y-115678337D01*
X172995960Y-115818089D01*
X172818089Y-115995960D01*
X172678337Y-116205114D01*
X172582074Y-116437513D01*
X172540000Y-116649034D01*
X172497926Y-116437513D01*
X172401663Y-116205114D01*
X172261911Y-115995960D01*
X172084040Y-115818089D01*
X171874886Y-115678337D01*
X171642487Y-115582074D01*
X171395774Y-115533000D01*
X171144226Y-115533000D01*
X170897513Y-115582074D01*
X170844626Y-115603980D01*
X164077200Y-108836556D01*
X164077200Y-97664697D01*
X164079869Y-97637599D01*
X164077200Y-97610501D01*
X164077200Y-97610491D01*
X164069212Y-97529389D01*
X164037648Y-97425337D01*
X164013788Y-97380698D01*
X163986391Y-97329441D01*
X163934691Y-97266445D01*
X163917411Y-97245389D01*
X163896354Y-97228108D01*
X162812034Y-96143790D01*
X167715604Y-96143790D01*
X167742710Y-96146460D01*
X167769816Y-96143790D01*
X167769819Y-96143790D01*
X167850921Y-96135802D01*
X167954973Y-96104238D01*
X168050868Y-96052981D01*
X168134921Y-95984001D01*
X168152211Y-95962933D01*
X171234145Y-92881000D01*
X172419947Y-92881000D01*
X172510319Y-92971372D01*
X172645769Y-93061877D01*
X172796273Y-93124218D01*
X172956048Y-93156000D01*
X173118952Y-93156000D01*
X173278727Y-93124218D01*
X173429231Y-93061877D01*
X173564681Y-92971372D01*
X173679872Y-92856181D01*
X173770377Y-92720731D01*
X173832718Y-92570227D01*
X173864500Y-92410452D01*
X173864500Y-92247548D01*
X173832718Y-92087773D01*
X173770377Y-91937269D01*
X173679872Y-91801819D01*
X173564681Y-91686628D01*
X173429231Y-91596123D01*
X173278727Y-91533782D01*
X173118952Y-91502000D01*
X172956048Y-91502000D01*
X172796273Y-91533782D01*
X172645769Y-91596123D01*
X172510319Y-91686628D01*
X172419947Y-91777000D01*
X171032606Y-91777000D01*
X171005500Y-91774330D01*
X170978394Y-91777000D01*
X170978391Y-91777000D01*
X170897289Y-91784988D01*
X170793237Y-91816552D01*
X170697342Y-91867809D01*
X170613289Y-91936789D01*
X170596004Y-91957851D01*
X167514066Y-95039790D01*
X151391953Y-95039790D01*
X151301581Y-94949418D01*
X151166131Y-94858913D01*
X151015627Y-94796572D01*
X150855852Y-94764790D01*
X150692948Y-94764790D01*
X150533173Y-94796572D01*
X150382669Y-94858913D01*
X150247219Y-94949418D01*
X150132028Y-95064609D01*
X150041523Y-95200059D01*
X149979182Y-95350563D01*
X149947400Y-95510338D01*
X149947400Y-95673242D01*
X149979182Y-95833017D01*
X149993010Y-95866400D01*
X148464705Y-95866400D01*
X148437599Y-95863730D01*
X148410493Y-95866400D01*
X148410491Y-95866400D01*
X148329389Y-95874388D01*
X148225337Y-95905952D01*
X148129442Y-95957209D01*
X148045389Y-96026189D01*
X148028108Y-96047246D01*
X146110048Y-97965308D01*
X145975111Y-97763360D01*
X145797240Y-97585489D01*
X145588086Y-97445737D01*
X145355687Y-97349474D01*
X145144166Y-97307400D01*
X145355687Y-97265326D01*
X145588086Y-97169063D01*
X145797240Y-97029311D01*
X145975111Y-96851440D01*
X146114863Y-96642286D01*
X146211126Y-96409887D01*
X146260200Y-96163174D01*
X146260200Y-95911626D01*
X146211126Y-95664913D01*
X146114863Y-95432514D01*
X145975111Y-95223360D01*
X145797240Y-95045489D01*
X145588086Y-94905737D01*
X145355687Y-94809474D01*
X145108974Y-94760400D01*
X145006202Y-94760400D01*
X145006202Y-94667445D01*
X145205651Y-94754877D01*
X145446698Y-94687317D01*
X145669933Y-94574029D01*
X145866778Y-94419367D01*
X146029667Y-94229274D01*
X146152341Y-94011056D01*
X146230086Y-93773098D01*
X146240676Y-93719851D01*
X146153224Y-93520400D01*
X145006200Y-93520400D01*
X145006200Y-93540400D01*
X144960200Y-93540400D01*
X144960200Y-93520400D01*
X143813176Y-93520400D01*
X143725724Y-93719851D01*
X143736314Y-93773098D01*
X143814059Y-94011056D01*
X143936733Y-94229274D01*
X144099622Y-94419367D01*
X144296467Y-94574029D01*
X144519702Y-94687317D01*
X144760749Y-94754877D01*
X144960198Y-94667445D01*
X144960198Y-94760400D01*
X144857426Y-94760400D01*
X144610713Y-94809474D01*
X144378314Y-94905737D01*
X144169160Y-95045489D01*
X143991289Y-95223360D01*
X143851537Y-95432514D01*
X143755274Y-95664913D01*
X143706200Y-95911626D01*
X143706200Y-96163174D01*
X143755274Y-96409887D01*
X143851537Y-96642286D01*
X143991289Y-96851440D01*
X144169160Y-97029311D01*
X144378314Y-97169063D01*
X144610713Y-97265326D01*
X144822234Y-97307400D01*
X144610713Y-97349474D01*
X144378314Y-97445737D01*
X144169160Y-97585489D01*
X143991289Y-97763360D01*
X143851537Y-97972514D01*
X143755274Y-98204913D01*
X143706200Y-98451626D01*
X143706200Y-98703174D01*
X143755274Y-98949887D01*
X143851537Y-99182286D01*
X143991289Y-99391440D01*
X144169160Y-99569311D01*
X144378314Y-99709063D01*
X144610713Y-99805326D01*
X144822234Y-99847400D01*
X144610713Y-99889474D01*
X144378314Y-99985737D01*
X144169160Y-100125489D01*
X143991289Y-100303360D01*
X143851537Y-100512514D01*
X143755274Y-100744913D01*
X143706200Y-100991626D01*
X143706200Y-101243174D01*
X143755274Y-101489887D01*
X143851537Y-101722286D01*
X143991289Y-101931440D01*
X144169160Y-102109311D01*
X144378314Y-102249063D01*
X144610713Y-102345326D01*
X144857426Y-102394400D01*
X145108974Y-102394400D01*
X145355687Y-102345326D01*
X145588086Y-102249063D01*
X145797240Y-102109311D01*
X145975111Y-101931440D01*
X146114863Y-101722286D01*
X146211126Y-101489887D01*
X146260200Y-101243174D01*
X146260200Y-100991626D01*
X146211126Y-100744913D01*
X146114863Y-100512514D01*
X145975111Y-100303360D01*
X145797240Y-100125489D01*
X145588086Y-99985737D01*
X145355687Y-99889474D01*
X145144166Y-99847400D01*
X145355687Y-99805326D01*
X145588086Y-99709063D01*
X145797240Y-99569311D01*
X145975111Y-99391440D01*
X146114863Y-99182286D01*
X146136769Y-99129400D01*
X146251494Y-99129400D01*
X146278600Y-99132070D01*
X146305706Y-99129400D01*
X146305709Y-99129400D01*
X146386811Y-99121412D01*
X146490863Y-99089848D01*
X146586758Y-99038591D01*
X146670811Y-98969611D01*
X146688100Y-98948544D01*
X148666246Y-96970400D01*
X156133756Y-96970400D01*
X156500600Y-97337245D01*
X156500600Y-97465052D01*
X156532382Y-97624827D01*
X156594723Y-97775331D01*
X156685228Y-97910781D01*
X156800419Y-98025972D01*
X156935869Y-98116477D01*
X157086373Y-98178818D01*
X157246148Y-98210600D01*
X157409052Y-98210600D01*
X157568827Y-98178818D01*
X157719331Y-98116477D01*
X157854781Y-98025972D01*
X157969972Y-97910781D01*
X158060477Y-97775331D01*
X158122818Y-97624827D01*
X158154600Y-97465052D01*
X158154600Y-97302148D01*
X158122818Y-97142373D01*
X158060477Y-96991869D01*
X157969972Y-96856419D01*
X157854781Y-96741228D01*
X157719331Y-96650723D01*
X157568827Y-96588382D01*
X157409052Y-96556600D01*
X157281245Y-96556600D01*
X156868434Y-96143790D01*
X157900517Y-96143790D01*
X157872200Y-96286148D01*
X157872200Y-96449052D01*
X157903982Y-96608827D01*
X157966323Y-96759331D01*
X158056828Y-96894781D01*
X158172019Y-97009972D01*
X158307469Y-97100477D01*
X158457973Y-97162818D01*
X158617748Y-97194600D01*
X158780652Y-97194600D01*
X158940427Y-97162818D01*
X159090931Y-97100477D01*
X159226381Y-97009972D01*
X159316753Y-96919600D01*
X162026556Y-96919600D01*
X162973201Y-97866247D01*
X162973200Y-109038094D01*
X162970530Y-109065200D01*
X162973200Y-109092306D01*
X162973200Y-109092308D01*
X162981188Y-109173410D01*
X163012752Y-109277462D01*
X163064009Y-109373358D01*
X163132989Y-109457411D01*
X163154057Y-109474701D01*
X169211346Y-115531991D01*
X168859750Y-115533000D01*
X168753000Y-115639750D01*
X168753000Y-116787000D01*
X168773000Y-116787000D01*
X168773000Y-116833000D01*
X168753000Y-116833000D01*
X168753000Y-117980250D01*
X168859750Y-118087000D01*
X169580000Y-118089066D01*
X169663707Y-118080822D01*
X169744196Y-118056405D01*
X169818376Y-118016755D01*
X169883395Y-117963395D01*
X169936755Y-117898376D01*
X169976405Y-117824196D01*
X170000822Y-117743707D01*
X170009066Y-117660000D01*
X170007193Y-117007129D01*
X170042074Y-117182487D01*
X170138337Y-117414886D01*
X170278089Y-117624040D01*
X170455960Y-117801911D01*
X170665114Y-117941663D01*
X170897513Y-118037926D01*
X171144226Y-118087000D01*
X171395774Y-118087000D01*
X171642487Y-118037926D01*
X171874886Y-117941663D01*
X172084040Y-117801911D01*
X172261911Y-117624040D01*
X172401663Y-117414886D01*
X172497926Y-117182487D01*
X172540000Y-116970966D01*
X172582074Y-117182487D01*
X172678337Y-117414886D01*
X172818089Y-117624040D01*
X172995960Y-117801911D01*
X173205114Y-117941663D01*
X173437513Y-118037926D01*
X173684226Y-118087000D01*
X173935774Y-118087000D01*
X174182487Y-118037926D01*
X174414886Y-117941663D01*
X174624040Y-117801911D01*
X174801911Y-117624040D01*
X174941663Y-117414886D01*
X175037926Y-117182487D01*
X175080000Y-116970966D01*
X175122074Y-117182487D01*
X175218337Y-117414886D01*
X175358089Y-117624040D01*
X175535960Y-117801911D01*
X175745114Y-117941663D01*
X175977513Y-118037926D01*
X176224226Y-118087000D01*
X176475774Y-118087000D01*
X176722487Y-118037926D01*
X176954886Y-117941663D01*
X177164040Y-117801911D01*
X177341911Y-117624040D01*
X177481663Y-117414886D01*
X177577926Y-117182487D01*
X177620000Y-116970966D01*
X177662074Y-117182487D01*
X177758337Y-117414886D01*
X177898089Y-117624040D01*
X178075960Y-117801911D01*
X178285114Y-117941663D01*
X178517513Y-118037926D01*
X178764226Y-118087000D01*
X179015774Y-118087000D01*
X179262487Y-118037926D01*
X179494886Y-117941663D01*
X179704040Y-117801911D01*
X179881911Y-117624040D01*
X180021663Y-117414886D01*
X180117926Y-117182487D01*
X180167000Y-116935774D01*
X180167000Y-116843976D01*
X180513976Y-116497000D01*
X185933273Y-116497000D01*
X185978800Y-116501484D01*
X186024327Y-116497000D01*
X186024338Y-116497000D01*
X186160524Y-116483587D01*
X186335264Y-116430580D01*
X186496305Y-116344501D01*
X186637459Y-116228659D01*
X186666488Y-116193287D01*
X195593694Y-107266082D01*
X195629059Y-107237059D01*
X195658084Y-107201692D01*
X195658088Y-107201688D01*
X195744902Y-107095906D01*
X195830980Y-106934864D01*
X195854357Y-106857800D01*
X195883987Y-106760124D01*
X195897400Y-106623938D01*
X195897400Y-106623927D01*
X195901884Y-106578400D01*
X195897400Y-106532873D01*
X195897400Y-86303926D01*
X195901884Y-86258399D01*
X195897400Y-86212872D01*
X195897400Y-86212862D01*
X195883987Y-86076676D01*
X195830980Y-85901936D01*
X195770022Y-85787892D01*
X195744901Y-85740894D01*
X195658088Y-85635112D01*
X195658084Y-85635108D01*
X195629059Y-85599741D01*
X195593692Y-85570716D01*
X187015693Y-76992718D01*
X186986664Y-76957346D01*
X186845510Y-76841504D01*
X186684469Y-76755425D01*
X186509729Y-76702418D01*
X186373543Y-76689005D01*
X186373532Y-76689005D01*
X186328005Y-76684521D01*
X186282478Y-76689005D01*
X178467880Y-76689005D01*
X178532877Y-76591731D01*
X178595218Y-76441227D01*
X178627000Y-76281452D01*
X178627000Y-76118548D01*
X178595218Y-75958773D01*
X178532877Y-75808269D01*
X178442372Y-75672819D01*
X178327181Y-75557628D01*
X178191731Y-75467123D01*
X178041227Y-75404782D01*
X177881452Y-75373000D01*
X177718548Y-75373000D01*
X177558773Y-75404782D01*
X177408269Y-75467123D01*
X177272819Y-75557628D01*
X177157628Y-75672819D01*
X177067123Y-75808269D01*
X177004782Y-75958773D01*
X176973000Y-76118548D01*
X176973000Y-76281452D01*
X177004782Y-76441227D01*
X177067123Y-76591731D01*
X177132120Y-76689005D01*
X150527880Y-76689005D01*
X150592877Y-76591731D01*
X150655218Y-76441227D01*
X150687000Y-76281452D01*
X150687000Y-76118548D01*
X150655218Y-75958773D01*
X150592877Y-75808269D01*
X150502372Y-75672819D01*
X150387181Y-75557628D01*
X150251731Y-75467123D01*
X150101227Y-75404782D01*
X149941452Y-75373000D01*
X149778548Y-75373000D01*
X149618773Y-75404782D01*
X149468269Y-75467123D01*
X149332819Y-75557628D01*
X149217628Y-75672819D01*
X149127123Y-75808269D01*
X149064782Y-75958773D01*
X149033000Y-76118548D01*
X149033000Y-76281452D01*
X149064782Y-76441227D01*
X149095279Y-76514852D01*
X149005905Y-76441505D01*
X148844863Y-76355426D01*
X148670123Y-76302420D01*
X148488400Y-76284522D01*
X148306677Y-76302420D01*
X148131937Y-76355426D01*
X147970895Y-76441505D01*
X147829741Y-76557347D01*
X147713899Y-76698501D01*
X147627820Y-76859543D01*
X147574814Y-77034283D01*
X147556916Y-77216006D01*
X147574814Y-77397729D01*
X147627820Y-77572469D01*
X147713899Y-77733511D01*
X147800712Y-77839293D01*
X148200711Y-78239292D01*
X148229740Y-78274664D01*
X148278890Y-78315000D01*
X146661308Y-78315000D01*
X146634200Y-78312330D01*
X146607091Y-78315000D01*
X146525989Y-78322988D01*
X146421937Y-78354552D01*
X146326042Y-78405809D01*
X146241989Y-78474789D01*
X146224708Y-78495846D01*
X136774556Y-87946000D01*
X136646748Y-87946000D01*
X136486973Y-87977782D01*
X136336469Y-88040123D01*
X136201019Y-88130628D01*
X136085828Y-88245819D01*
X135995323Y-88381269D01*
X135932982Y-88531773D01*
X135901200Y-88691548D01*
X135901200Y-88854452D01*
X135932982Y-89014227D01*
X135995323Y-89164731D01*
X136085828Y-89300181D01*
X136201019Y-89415372D01*
X136336469Y-89505877D01*
X136486973Y-89568218D01*
X136646748Y-89600000D01*
X136809652Y-89600000D01*
X136969427Y-89568218D01*
X137119931Y-89505877D01*
X137255381Y-89415372D01*
X137370572Y-89300181D01*
X137461077Y-89164731D01*
X137523418Y-89014227D01*
X137555200Y-88854452D01*
X137555200Y-88726644D01*
X137876631Y-88405213D01*
X137878001Y-88419116D01*
X137878000Y-89941354D01*
X137439356Y-90380000D01*
X137294953Y-90380000D01*
X137204581Y-90289628D01*
X137069131Y-90199123D01*
X136918627Y-90136782D01*
X136758852Y-90105000D01*
X136595948Y-90105000D01*
X136436173Y-90136782D01*
X136285669Y-90199123D01*
X136150219Y-90289628D01*
X136035028Y-90404819D01*
X135944523Y-90540269D01*
X135882182Y-90690773D01*
X135850400Y-90850548D01*
X120971672Y-90850548D01*
X120936993Y-73580000D01*
X124688516Y-73580000D01*
X124706414Y-73761723D01*
X124759420Y-73936463D01*
X124845499Y-74097505D01*
X124932312Y-74203287D01*
X129162316Y-78433292D01*
X129191341Y-78468659D01*
X129226708Y-78497684D01*
X129226711Y-78497687D01*
X129332494Y-78584501D01*
X129409709Y-78625773D01*
X129493536Y-78670580D01*
X129668276Y-78723587D01*
X129804462Y-78737000D01*
X129804474Y-78737000D01*
X129849999Y-78741484D01*
X129895524Y-78737000D01*
X140254273Y-78737000D01*
X140299800Y-78741484D01*
X140345327Y-78737000D01*
X140345338Y-78737000D01*
X140481524Y-78723587D01*
X140656264Y-78670580D01*
X140817305Y-78584501D01*
X140958459Y-78468659D01*
X140987488Y-78433287D01*
X141683088Y-77737688D01*
X141769901Y-77631906D01*
X141855980Y-77470864D01*
X141908986Y-77296124D01*
X141926884Y-77114400D01*
X141908986Y-76932677D01*
X141855980Y-76757937D01*
X141769901Y-76596895D01*
X141654059Y-76455741D01*
X141512905Y-76339899D01*
X141351863Y-76253820D01*
X141177123Y-76200814D01*
X140995400Y-76182916D01*
X140813676Y-76200814D01*
X140638936Y-76253820D01*
X140477894Y-76339899D01*
X140372112Y-76426712D01*
X139915825Y-76883000D01*
X130233976Y-76883000D01*
X126243287Y-72892312D01*
X126137505Y-72805499D01*
X125976463Y-72719420D01*
X125801723Y-72666414D01*
X125620000Y-72648516D01*
X125438277Y-72666414D01*
X125263537Y-72719420D01*
X125102495Y-72805499D01*
X124961341Y-72921341D01*
X124845499Y-73062495D01*
X124759420Y-73223537D01*
X124706414Y-73398277D01*
X124688516Y-73580000D01*
X120936993Y-73580000D01*
X120931890Y-71038548D01*
X169353000Y-71038548D01*
X169353000Y-71201452D01*
X169384782Y-71361227D01*
X169447123Y-71511731D01*
X169537628Y-71647181D01*
X169652819Y-71762372D01*
X169788269Y-71852877D01*
X169938773Y-71915218D01*
X170098548Y-71947000D01*
X170261452Y-71947000D01*
X170421227Y-71915218D01*
X170571731Y-71852877D01*
X170707181Y-71762372D01*
X170822372Y-71647181D01*
X170912877Y-71511731D01*
X170975218Y-71361227D01*
X171007000Y-71201452D01*
X171007000Y-71038548D01*
X170975218Y-70878773D01*
X170912877Y-70728269D01*
X170822372Y-70592819D01*
X170707181Y-70477628D01*
X170571731Y-70387123D01*
X170421227Y-70324782D01*
X170261452Y-70293000D01*
X170098548Y-70293000D01*
X169938773Y-70324782D01*
X169788269Y-70387123D01*
X169652819Y-70477628D01*
X169537628Y-70592819D01*
X169447123Y-70728269D01*
X169384782Y-70878773D01*
X169353000Y-71038548D01*
X120931890Y-71038548D01*
X120926526Y-68367844D01*
X121042930Y-68463374D01*
X121247403Y-68572667D01*
X121469268Y-68639969D01*
X121700000Y-68662694D01*
X121930731Y-68639969D01*
X122152596Y-68572667D01*
X122357069Y-68463374D01*
X122536291Y-68316291D01*
X122607108Y-68230000D01*
X123060934Y-68230000D01*
X123069178Y-68313707D01*
X123093595Y-68394196D01*
X123133245Y-68468376D01*
X123186605Y-68533395D01*
X123251624Y-68586755D01*
X123325804Y-68626405D01*
X123406293Y-68650822D01*
X123490000Y-68659066D01*
X124110250Y-68657000D01*
X124217000Y-68550250D01*
X124217000Y-67253000D01*
X124263000Y-67253000D01*
X124263000Y-68550250D01*
X124369750Y-68657000D01*
X124990000Y-68659066D01*
X125073707Y-68650822D01*
X125154196Y-68626405D01*
X125228376Y-68586755D01*
X125293395Y-68533395D01*
X125346755Y-68468376D01*
X125386405Y-68394196D01*
X125410822Y-68313707D01*
X125419066Y-68230000D01*
X125418060Y-67806200D01*
X142027734Y-67806200D01*
X142027734Y-69506200D01*
X142035978Y-69589907D01*
X142060395Y-69670396D01*
X142100045Y-69744576D01*
X142153405Y-69809595D01*
X142218424Y-69862955D01*
X142292604Y-69902605D01*
X142373093Y-69927022D01*
X142456800Y-69935266D01*
X144156800Y-69935266D01*
X144240507Y-69927022D01*
X144320996Y-69902605D01*
X144395176Y-69862955D01*
X144460195Y-69809595D01*
X144513555Y-69744576D01*
X144553205Y-69670396D01*
X144577622Y-69589907D01*
X144585866Y-69506200D01*
X144585866Y-67806200D01*
X144577622Y-67722493D01*
X144553205Y-67642004D01*
X144513555Y-67567824D01*
X144460195Y-67502805D01*
X144395176Y-67449445D01*
X144320996Y-67409795D01*
X144240507Y-67385378D01*
X144156800Y-67377134D01*
X143513344Y-67377134D01*
X143679287Y-67344126D01*
X143911686Y-67247863D01*
X144120840Y-67108111D01*
X144298711Y-66930240D01*
X144438463Y-66721086D01*
X144534726Y-66488687D01*
X144583800Y-66241974D01*
X144583800Y-65990426D01*
X144534726Y-65743713D01*
X144438463Y-65511314D01*
X144298711Y-65302160D01*
X144120840Y-65124289D01*
X143911686Y-64984537D01*
X143679287Y-64888274D01*
X143432574Y-64839200D01*
X143181026Y-64839200D01*
X142934313Y-64888274D01*
X142701914Y-64984537D01*
X142492760Y-65124289D01*
X142314889Y-65302160D01*
X142175137Y-65511314D01*
X142078874Y-65743713D01*
X142029800Y-65990426D01*
X142029800Y-66241974D01*
X142078874Y-66488687D01*
X142175137Y-66721086D01*
X142314889Y-66930240D01*
X142492760Y-67108111D01*
X142701914Y-67247863D01*
X142934313Y-67344126D01*
X143100256Y-67377134D01*
X142456800Y-67377134D01*
X142373093Y-67385378D01*
X142292604Y-67409795D01*
X142218424Y-67449445D01*
X142153405Y-67502805D01*
X142100045Y-67567824D01*
X142060395Y-67642004D01*
X142035978Y-67722493D01*
X142027734Y-67806200D01*
X125418060Y-67806200D01*
X125417000Y-67359750D01*
X125310250Y-67253000D01*
X124263000Y-67253000D01*
X124217000Y-67253000D01*
X123169750Y-67253000D01*
X123063000Y-67359750D01*
X123060934Y-68230000D01*
X122607108Y-68230000D01*
X122683374Y-68137070D01*
X122792667Y-67932597D01*
X122859969Y-67710732D01*
X122877000Y-67537812D01*
X122877000Y-66922189D01*
X122859969Y-66749269D01*
X122792667Y-66527404D01*
X122683374Y-66322930D01*
X122607109Y-66230000D01*
X123060934Y-66230000D01*
X123063000Y-67100250D01*
X123169750Y-67207000D01*
X124217000Y-67207000D01*
X124217000Y-65909750D01*
X124263000Y-65909750D01*
X124263000Y-67207000D01*
X125310250Y-67207000D01*
X125417000Y-67100250D01*
X125419066Y-66230000D01*
X125410822Y-66146293D01*
X125386405Y-66065804D01*
X125346755Y-65991624D01*
X125293395Y-65926605D01*
X125228376Y-65873245D01*
X125154196Y-65833595D01*
X125073707Y-65809178D01*
X124990000Y-65800934D01*
X124369750Y-65803000D01*
X124263000Y-65909750D01*
X124217000Y-65909750D01*
X124110250Y-65803000D01*
X123490000Y-65800934D01*
X123406293Y-65809178D01*
X123325804Y-65833595D01*
X123251624Y-65873245D01*
X123186605Y-65926605D01*
X123133245Y-65991624D01*
X123093595Y-66065804D01*
X123069178Y-66146293D01*
X123060934Y-66230000D01*
X122607109Y-66230000D01*
X122536291Y-66143709D01*
X122357070Y-65996626D01*
X122152597Y-65887333D01*
X121930732Y-65820031D01*
X121700000Y-65797306D01*
X121469269Y-65820031D01*
X121247404Y-65887333D01*
X121042931Y-65996626D01*
X120921964Y-66095901D01*
X120911858Y-61062826D01*
X154323400Y-61062826D01*
X154323400Y-61314374D01*
X154372474Y-61561087D01*
X154468737Y-61793486D01*
X154608489Y-62002640D01*
X154786360Y-62180511D01*
X154995514Y-62320263D01*
X155227913Y-62416526D01*
X155474626Y-62465600D01*
X155726174Y-62465600D01*
X155972887Y-62416526D01*
X156205286Y-62320263D01*
X156414440Y-62180511D01*
X156592311Y-62002640D01*
X156732063Y-61793486D01*
X156828326Y-61561087D01*
X156863207Y-61385729D01*
X156861334Y-62038600D01*
X156869578Y-62122307D01*
X156893995Y-62202796D01*
X156933645Y-62276976D01*
X156987005Y-62341995D01*
X157052024Y-62395355D01*
X157126204Y-62435005D01*
X157206693Y-62459422D01*
X157290400Y-62467666D01*
X158010650Y-62465600D01*
X158117400Y-62358850D01*
X158117400Y-61211600D01*
X158163400Y-61211600D01*
X158163400Y-62358850D01*
X158270150Y-62465600D01*
X158990400Y-62467666D01*
X159074107Y-62459422D01*
X159154596Y-62435005D01*
X159228776Y-62395355D01*
X159293795Y-62341995D01*
X159347155Y-62276976D01*
X159386805Y-62202796D01*
X159411222Y-62122307D01*
X159419466Y-62038600D01*
X159417400Y-61318350D01*
X159310650Y-61211600D01*
X158163400Y-61211600D01*
X158117400Y-61211600D01*
X158097400Y-61211600D01*
X158097400Y-61165600D01*
X158117400Y-61165600D01*
X158117400Y-60018350D01*
X158163400Y-60018350D01*
X158163400Y-61165600D01*
X159310650Y-61165600D01*
X159417400Y-61058850D01*
X159419466Y-60338600D01*
X159411222Y-60254893D01*
X159386805Y-60174404D01*
X159347155Y-60100224D01*
X159293795Y-60035205D01*
X159228776Y-59981845D01*
X159154596Y-59942195D01*
X159074107Y-59917778D01*
X158990400Y-59909534D01*
X158270150Y-59911600D01*
X158163400Y-60018350D01*
X158117400Y-60018350D01*
X158010650Y-59911600D01*
X157290400Y-59909534D01*
X157206693Y-59917778D01*
X157126204Y-59942195D01*
X157052024Y-59981845D01*
X156987005Y-60035205D01*
X156933645Y-60100224D01*
X156893995Y-60174404D01*
X156869578Y-60254893D01*
X156861334Y-60338600D01*
X156863207Y-60991471D01*
X156828326Y-60816113D01*
X156732063Y-60583714D01*
X156592311Y-60374560D01*
X156414440Y-60196689D01*
X156205286Y-60056937D01*
X155972887Y-59960674D01*
X155726174Y-59911600D01*
X155474626Y-59911600D01*
X155227913Y-59960674D01*
X154995514Y-60056937D01*
X154786360Y-60196689D01*
X154608489Y-60374560D01*
X154468737Y-60583714D01*
X154372474Y-60816113D01*
X154323400Y-61062826D01*
X120911858Y-61062826D01*
X120904256Y-57277000D01*
X184023000Y-57277000D01*
X184023000Y-69850000D01*
%TA.AperFunction,Conductor*%
D20*
G36*
X184023000Y-69850000D02*
G01*
X184025440Y-69874776D01*
X184032667Y-69898601D01*
X184044403Y-69920557D01*
X184060197Y-69939803D01*
X184079443Y-69955597D01*
X184101399Y-69967333D01*
X184125224Y-69974560D01*
X184150000Y-69977000D01*
X196723000Y-69977000D01*
X196723000Y-120523000D01*
X184150000Y-120523000D01*
X184125224Y-120525440D01*
X184101399Y-120532667D01*
X184079443Y-120544403D01*
X184060197Y-120560197D01*
X184044403Y-120579443D01*
X184032667Y-120601399D01*
X184025440Y-120625224D01*
X184023000Y-120650000D01*
X184023000Y-133223000D01*
X162242500Y-133223000D01*
X162242500Y-117660000D01*
X167450934Y-117660000D01*
X167459178Y-117743707D01*
X167483595Y-117824196D01*
X167523245Y-117898376D01*
X167576605Y-117963395D01*
X167641624Y-118016755D01*
X167715804Y-118056405D01*
X167796293Y-118080822D01*
X167880000Y-118089066D01*
X168600250Y-118087000D01*
X168707000Y-117980250D01*
X168707000Y-116833000D01*
X167559750Y-116833000D01*
X167453000Y-116939750D01*
X167450934Y-117660000D01*
X162242500Y-117660000D01*
X162242500Y-115960000D01*
X167450934Y-115960000D01*
X167453000Y-116680250D01*
X167559750Y-116787000D01*
X168707000Y-116787000D01*
X168707000Y-115639750D01*
X168600250Y-115533000D01*
X167880000Y-115530934D01*
X167796293Y-115539178D01*
X167715804Y-115563595D01*
X167641624Y-115603245D01*
X167576605Y-115656605D01*
X167523245Y-115721624D01*
X167483595Y-115795804D01*
X167459178Y-115876293D01*
X167450934Y-115960000D01*
X162242500Y-115960000D01*
X162242500Y-102743000D01*
X162240060Y-102718224D01*
X162232833Y-102694399D01*
X162221097Y-102672443D01*
X162205303Y-102653197D01*
X162186057Y-102637403D01*
X162164101Y-102625667D01*
X162140276Y-102618440D01*
X162116539Y-102616004D01*
X139032800Y-102427103D01*
X139032800Y-94464297D01*
X139035469Y-94437199D01*
X139032800Y-94410101D01*
X139032800Y-94410091D01*
X139024812Y-94328989D01*
X138993248Y-94224937D01*
X138969388Y-94180298D01*
X138941991Y-94129041D01*
X138890291Y-94066045D01*
X138873011Y-94044989D01*
X138851954Y-94027708D01*
X137885400Y-93061155D01*
X137885400Y-92933348D01*
X137853618Y-92773573D01*
X137791277Y-92623069D01*
X137700772Y-92487619D01*
X137585581Y-92372428D01*
X137450131Y-92281923D01*
X137299627Y-92219582D01*
X137139852Y-92187800D01*
X136976948Y-92187800D01*
X136817173Y-92219582D01*
X136666669Y-92281923D01*
X136531219Y-92372428D01*
X136416028Y-92487619D01*
X136325523Y-92623069D01*
X136263182Y-92773573D01*
X136231400Y-92933348D01*
X136231400Y-93096252D01*
X136263182Y-93256027D01*
X136325523Y-93406531D01*
X136416028Y-93541981D01*
X136531219Y-93657172D01*
X136666669Y-93747677D01*
X136817173Y-93810018D01*
X136976948Y-93841800D01*
X137104755Y-93841800D01*
X137369955Y-94107000D01*
X124307600Y-94107000D01*
X124282824Y-94109440D01*
X124258999Y-94116667D01*
X124237043Y-94128403D01*
X124217797Y-94144197D01*
X124202003Y-94163443D01*
X124190267Y-94185399D01*
X124183040Y-94209224D01*
X124180600Y-94234000D01*
X124180600Y-94970600D01*
X120979945Y-94970600D01*
X120971672Y-90850548D01*
X135850400Y-90850548D01*
X135850400Y-91013452D01*
X135882182Y-91173227D01*
X135944523Y-91323731D01*
X136035028Y-91459181D01*
X136150219Y-91574372D01*
X136285669Y-91664877D01*
X136436173Y-91727218D01*
X136595948Y-91759000D01*
X136758852Y-91759000D01*
X136918627Y-91727218D01*
X137069131Y-91664877D01*
X137204581Y-91574372D01*
X137294953Y-91484000D01*
X137640894Y-91484000D01*
X137668000Y-91486670D01*
X137695106Y-91484000D01*
X137695109Y-91484000D01*
X137776211Y-91476012D01*
X137880263Y-91444448D01*
X137976158Y-91393191D01*
X138060211Y-91324211D01*
X138077500Y-91303144D01*
X138801154Y-90579492D01*
X138822211Y-90562211D01*
X138891191Y-90478158D01*
X138942448Y-90382263D01*
X138974012Y-90278211D01*
X138982000Y-90197109D01*
X138982000Y-90197108D01*
X138984670Y-90170000D01*
X138982000Y-90142892D01*
X138982000Y-88620644D01*
X140035244Y-87567400D01*
X143704134Y-87567400D01*
X143704134Y-89267400D01*
X143712378Y-89351107D01*
X143736795Y-89431596D01*
X143776445Y-89505776D01*
X143829805Y-89570795D01*
X143894824Y-89624155D01*
X143969004Y-89663805D01*
X144049493Y-89688222D01*
X144133200Y-89696466D01*
X144776656Y-89696466D01*
X144610713Y-89729474D01*
X144378314Y-89825737D01*
X144169160Y-89965489D01*
X143991289Y-90143360D01*
X143851537Y-90352514D01*
X143755274Y-90584913D01*
X143706200Y-90831626D01*
X143706200Y-91083174D01*
X143755274Y-91329887D01*
X143851537Y-91562286D01*
X143991289Y-91771440D01*
X144169160Y-91949311D01*
X144378314Y-92089063D01*
X144610713Y-92185326D01*
X144857426Y-92234400D01*
X144960198Y-92234400D01*
X144960198Y-92327355D01*
X144760749Y-92239923D01*
X144519702Y-92307483D01*
X144296467Y-92420771D01*
X144099622Y-92575433D01*
X143936733Y-92765526D01*
X143814059Y-92983744D01*
X143736314Y-93221702D01*
X143725724Y-93274949D01*
X143813176Y-93474400D01*
X144960200Y-93474400D01*
X144960200Y-93454400D01*
X145006200Y-93454400D01*
X145006200Y-93474400D01*
X146153224Y-93474400D01*
X146240676Y-93274949D01*
X146230086Y-93221702D01*
X146152341Y-92983744D01*
X146029667Y-92765526D01*
X145866778Y-92575433D01*
X145669933Y-92420771D01*
X145446698Y-92307483D01*
X145205651Y-92239923D01*
X145006202Y-92327355D01*
X145006202Y-92234400D01*
X145108974Y-92234400D01*
X145355687Y-92185326D01*
X145588086Y-92089063D01*
X145797240Y-91949311D01*
X145975111Y-91771440D01*
X146114863Y-91562286D01*
X146211126Y-91329887D01*
X146260200Y-91083174D01*
X146260200Y-90831626D01*
X146211126Y-90584913D01*
X146114863Y-90352514D01*
X145975111Y-90143360D01*
X145797240Y-89965489D01*
X145588086Y-89825737D01*
X145355687Y-89729474D01*
X145189744Y-89696466D01*
X145833200Y-89696466D01*
X145916907Y-89688222D01*
X145997396Y-89663805D01*
X146071576Y-89624155D01*
X146136595Y-89570795D01*
X146189955Y-89505776D01*
X146229605Y-89431596D01*
X146254022Y-89351107D01*
X146262266Y-89267400D01*
X146262266Y-87567400D01*
X146254022Y-87483693D01*
X146229605Y-87403204D01*
X146189955Y-87329024D01*
X146136595Y-87264005D01*
X146071576Y-87210645D01*
X145997396Y-87170995D01*
X145916907Y-87146578D01*
X145833200Y-87138334D01*
X144133200Y-87138334D01*
X144049493Y-87146578D01*
X143969004Y-87170995D01*
X143894824Y-87210645D01*
X143829805Y-87264005D01*
X143776445Y-87329024D01*
X143736795Y-87403204D01*
X143712378Y-87483693D01*
X143704134Y-87567400D01*
X140035244Y-87567400D01*
X141324096Y-86278548D01*
X156653000Y-86278548D01*
X156653000Y-86441452D01*
X156684782Y-86601227D01*
X156747123Y-86751731D01*
X156837628Y-86887181D01*
X156952819Y-87002372D01*
X157088269Y-87092877D01*
X157238773Y-87155218D01*
X157398548Y-87187000D01*
X157561452Y-87187000D01*
X157721227Y-87155218D01*
X157871731Y-87092877D01*
X158007181Y-87002372D01*
X158122372Y-86887181D01*
X158212877Y-86751731D01*
X158275218Y-86601227D01*
X158307000Y-86441452D01*
X158307000Y-86278548D01*
X158275218Y-86118773D01*
X158212877Y-85968269D01*
X158170620Y-85905026D01*
X158433647Y-85642000D01*
X165987294Y-85642000D01*
X166014400Y-85644670D01*
X166041506Y-85642000D01*
X166041509Y-85642000D01*
X166122611Y-85634012D01*
X166226663Y-85602448D01*
X166322558Y-85551191D01*
X166406611Y-85482211D01*
X166423901Y-85461143D01*
X171403646Y-80481400D01*
X171531452Y-80481400D01*
X171691227Y-80449618D01*
X171841731Y-80387277D01*
X171977181Y-80296772D01*
X172092372Y-80181581D01*
X172182877Y-80046131D01*
X172245218Y-79895627D01*
X172277000Y-79735852D01*
X172277000Y-79572948D01*
X172245218Y-79413173D01*
X172182877Y-79262669D01*
X172092372Y-79127219D01*
X171977181Y-79012028D01*
X171841731Y-78921523D01*
X171691227Y-78859182D01*
X171531452Y-78827400D01*
X171368548Y-78827400D01*
X171208773Y-78859182D01*
X171058269Y-78921523D01*
X170922819Y-79012028D01*
X170807628Y-79127219D01*
X170717123Y-79262669D01*
X170654782Y-79413173D01*
X170623000Y-79572948D01*
X170623000Y-79700754D01*
X165785756Y-84538000D01*
X158232098Y-84538000D01*
X158205000Y-84535331D01*
X158177902Y-84538000D01*
X158177892Y-84538000D01*
X158096790Y-84545988D01*
X157992738Y-84577552D01*
X157948099Y-84601412D01*
X157896842Y-84628809D01*
X157842078Y-84673753D01*
X157812790Y-84697789D01*
X157795509Y-84718846D01*
X157108856Y-85405501D01*
X157087789Y-85422790D01*
X157018809Y-85506843D01*
X156967552Y-85602739D01*
X156935988Y-85706791D01*
X156932965Y-85737482D01*
X156837628Y-85832819D01*
X156747123Y-85968269D01*
X156684782Y-86118773D01*
X156653000Y-86278548D01*
X141324096Y-86278548D01*
X147091446Y-80511200D01*
X160215249Y-80511200D01*
X160305621Y-80601572D01*
X160441071Y-80692077D01*
X160591575Y-80754418D01*
X160751350Y-80786200D01*
X160914254Y-80786200D01*
X161074029Y-80754418D01*
X161224533Y-80692077D01*
X161359983Y-80601572D01*
X161475174Y-80486381D01*
X161565679Y-80350931D01*
X161628020Y-80200427D01*
X161659802Y-80040652D01*
X161659802Y-79877748D01*
X161628020Y-79717973D01*
X161565679Y-79567469D01*
X161475174Y-79432019D01*
X161359983Y-79316828D01*
X161224533Y-79226323D01*
X161074029Y-79163982D01*
X160914254Y-79132200D01*
X160751350Y-79132200D01*
X160591575Y-79163982D01*
X160441071Y-79226323D01*
X160305621Y-79316828D01*
X160215249Y-79407200D01*
X158947553Y-79407200D01*
X158960572Y-79394181D01*
X159051077Y-79258731D01*
X159113418Y-79108227D01*
X159145200Y-78948452D01*
X159145200Y-78785548D01*
X159113418Y-78625773D01*
X159079134Y-78543005D01*
X185944030Y-78543005D01*
X194043401Y-86642377D01*
X194043401Y-91205555D01*
X186769301Y-83931457D01*
X186752011Y-83910389D01*
X186667958Y-83841409D01*
X186572063Y-83790152D01*
X186468011Y-83758588D01*
X186386909Y-83750600D01*
X186386906Y-83750600D01*
X186359800Y-83747930D01*
X186332694Y-83750600D01*
X177546045Y-83750600D01*
X177488400Y-83692955D01*
X177488400Y-83117866D01*
X177786400Y-83117866D01*
X177870107Y-83109622D01*
X177950596Y-83085205D01*
X178024776Y-83045555D01*
X178089795Y-82992195D01*
X178143155Y-82927176D01*
X178182805Y-82852996D01*
X178207222Y-82772507D01*
X178215466Y-82688800D01*
X178215466Y-82045344D01*
X178248474Y-82211287D01*
X178344737Y-82443686D01*
X178484489Y-82652840D01*
X178662360Y-82830711D01*
X178871514Y-82970463D01*
X179103913Y-83066726D01*
X179350626Y-83115800D01*
X179602174Y-83115800D01*
X179848887Y-83066726D01*
X180081286Y-82970463D01*
X180290440Y-82830711D01*
X180468311Y-82652840D01*
X180608063Y-82443686D01*
X180704326Y-82211287D01*
X180746400Y-81999766D01*
X180788474Y-82211287D01*
X180884737Y-82443686D01*
X181024489Y-82652840D01*
X181202360Y-82830711D01*
X181411514Y-82970463D01*
X181643913Y-83066726D01*
X181890626Y-83115800D01*
X182142174Y-83115800D01*
X182388887Y-83066726D01*
X182621286Y-82970463D01*
X182830440Y-82830711D01*
X183008311Y-82652840D01*
X183148063Y-82443686D01*
X183244326Y-82211287D01*
X183293400Y-81964574D01*
X183293400Y-81861802D01*
X183386355Y-81861802D01*
X183298923Y-82061251D01*
X183366483Y-82302298D01*
X183479771Y-82525533D01*
X183634433Y-82722378D01*
X183824526Y-82885267D01*
X184042744Y-83007941D01*
X184280702Y-83085686D01*
X184333949Y-83096276D01*
X184533400Y-83008824D01*
X184533400Y-81861800D01*
X184579400Y-81861800D01*
X184579400Y-83008824D01*
X184778851Y-83096276D01*
X184832098Y-83085686D01*
X185070056Y-83007941D01*
X185288274Y-82885267D01*
X185478367Y-82722378D01*
X185633029Y-82525533D01*
X185746317Y-82302298D01*
X185813877Y-82061251D01*
X185726444Y-81861800D01*
X184579400Y-81861800D01*
X184533400Y-81861800D01*
X184513400Y-81861800D01*
X184513400Y-81815800D01*
X184533400Y-81815800D01*
X184533400Y-80668776D01*
X184579400Y-80668776D01*
X184579400Y-81815800D01*
X185726444Y-81815800D01*
X185813877Y-81616349D01*
X185746317Y-81375302D01*
X185633029Y-81152067D01*
X185478367Y-80955222D01*
X185288274Y-80792333D01*
X185070056Y-80669659D01*
X184832098Y-80591914D01*
X184778851Y-80581324D01*
X184579400Y-80668776D01*
X184533400Y-80668776D01*
X184333949Y-80581324D01*
X184280702Y-80591914D01*
X184042744Y-80669659D01*
X183824526Y-80792333D01*
X183634433Y-80955222D01*
X183479771Y-81152067D01*
X183366483Y-81375302D01*
X183298923Y-81616349D01*
X183386355Y-81815798D01*
X183293400Y-81815798D01*
X183293400Y-81713026D01*
X183244326Y-81466313D01*
X183148063Y-81233914D01*
X183008311Y-81024760D01*
X182830440Y-80846889D01*
X182621286Y-80707137D01*
X182388887Y-80610874D01*
X182142174Y-80561800D01*
X181890626Y-80561800D01*
X181643913Y-80610874D01*
X181411514Y-80707137D01*
X181202360Y-80846889D01*
X181024489Y-81024760D01*
X180884737Y-81233914D01*
X180788474Y-81466313D01*
X180746400Y-81677834D01*
X180704326Y-81466313D01*
X180608063Y-81233914D01*
X180468311Y-81024760D01*
X180290440Y-80846889D01*
X180081286Y-80707137D01*
X179848887Y-80610874D01*
X179602174Y-80561800D01*
X179350626Y-80561800D01*
X179103913Y-80610874D01*
X178871514Y-80707137D01*
X178662360Y-80846889D01*
X178484489Y-81024760D01*
X178344737Y-81233914D01*
X178248474Y-81466313D01*
X178215466Y-81632256D01*
X178215466Y-80988800D01*
X178207222Y-80905093D01*
X178182805Y-80824604D01*
X178143155Y-80750424D01*
X178089795Y-80685405D01*
X178024776Y-80632045D01*
X177950596Y-80592395D01*
X177870107Y-80567978D01*
X177786400Y-80559734D01*
X176086400Y-80559734D01*
X176002693Y-80567978D01*
X175922204Y-80592395D01*
X175848024Y-80632045D01*
X175783005Y-80685405D01*
X175729645Y-80750424D01*
X175689995Y-80824604D01*
X175665578Y-80905093D01*
X175657334Y-80988800D01*
X175657334Y-82688800D01*
X175665578Y-82772507D01*
X175689995Y-82852996D01*
X175729645Y-82927176D01*
X175783005Y-82992195D01*
X175848024Y-83045555D01*
X175922204Y-83085205D01*
X176002693Y-83109622D01*
X176086400Y-83117866D01*
X176384400Y-83117866D01*
X176384400Y-83894494D01*
X176381730Y-83921600D01*
X176384400Y-83948706D01*
X176384400Y-83948708D01*
X176392388Y-84029810D01*
X176423952Y-84133862D01*
X176475209Y-84229758D01*
X176544189Y-84313811D01*
X176565256Y-84331100D01*
X176907907Y-84673753D01*
X176925189Y-84694811D01*
X176946245Y-84712091D01*
X177009241Y-84763791D01*
X177043013Y-84781842D01*
X177105137Y-84815048D01*
X177209189Y-84846612D01*
X177290291Y-84854600D01*
X177290301Y-84854600D01*
X177317399Y-84857269D01*
X177344497Y-84854600D01*
X186131156Y-84854600D01*
X193250001Y-91973447D01*
X193250000Y-105740154D01*
X186156556Y-112833600D01*
X179801506Y-112833600D01*
X179774400Y-112830930D01*
X179747294Y-112833600D01*
X179747291Y-112833600D01*
X179666189Y-112841588D01*
X179562137Y-112873152D01*
X179466242Y-112924409D01*
X179382189Y-112993389D01*
X179364904Y-113014451D01*
X176775375Y-115603981D01*
X176722487Y-115582074D01*
X176475774Y-115533000D01*
X176224226Y-115533000D01*
X175977513Y-115582074D01*
X175745114Y-115678337D01*
X175535960Y-115818089D01*
X175358089Y-115995960D01*
X175218337Y-116205114D01*
X175122074Y-116437513D01*
X175080000Y-116649034D01*
X175037926Y-116437513D01*
X174941663Y-116205114D01*
X174801911Y-115995960D01*
X174624040Y-115818089D01*
X174414886Y-115678337D01*
X174182487Y-115582074D01*
X173935774Y-115533000D01*
X173684226Y-115533000D01*
X173437513Y-115582074D01*
X173205114Y-115678337D01*
X172995960Y-115818089D01*
X172818089Y-115995960D01*
X172678337Y-116205114D01*
X172582074Y-116437513D01*
X172540000Y-116649034D01*
X172497926Y-116437513D01*
X172401663Y-116205114D01*
X172261911Y-115995960D01*
X172084040Y-115818089D01*
X171874886Y-115678337D01*
X171642487Y-115582074D01*
X171395774Y-115533000D01*
X171144226Y-115533000D01*
X170897513Y-115582074D01*
X170844626Y-115603980D01*
X164077200Y-108836556D01*
X164077200Y-97664697D01*
X164079869Y-97637599D01*
X164077200Y-97610501D01*
X164077200Y-97610491D01*
X164069212Y-97529389D01*
X164037648Y-97425337D01*
X164013788Y-97380698D01*
X163986391Y-97329441D01*
X163934691Y-97266445D01*
X163917411Y-97245389D01*
X163896354Y-97228108D01*
X162812034Y-96143790D01*
X167715604Y-96143790D01*
X167742710Y-96146460D01*
X167769816Y-96143790D01*
X167769819Y-96143790D01*
X167850921Y-96135802D01*
X167954973Y-96104238D01*
X168050868Y-96052981D01*
X168134921Y-95984001D01*
X168152211Y-95962933D01*
X171234145Y-92881000D01*
X172419947Y-92881000D01*
X172510319Y-92971372D01*
X172645769Y-93061877D01*
X172796273Y-93124218D01*
X172956048Y-93156000D01*
X173118952Y-93156000D01*
X173278727Y-93124218D01*
X173429231Y-93061877D01*
X173564681Y-92971372D01*
X173679872Y-92856181D01*
X173770377Y-92720731D01*
X173832718Y-92570227D01*
X173864500Y-92410452D01*
X173864500Y-92247548D01*
X173832718Y-92087773D01*
X173770377Y-91937269D01*
X173679872Y-91801819D01*
X173564681Y-91686628D01*
X173429231Y-91596123D01*
X173278727Y-91533782D01*
X173118952Y-91502000D01*
X172956048Y-91502000D01*
X172796273Y-91533782D01*
X172645769Y-91596123D01*
X172510319Y-91686628D01*
X172419947Y-91777000D01*
X171032606Y-91777000D01*
X171005500Y-91774330D01*
X170978394Y-91777000D01*
X170978391Y-91777000D01*
X170897289Y-91784988D01*
X170793237Y-91816552D01*
X170697342Y-91867809D01*
X170613289Y-91936789D01*
X170596004Y-91957851D01*
X167514066Y-95039790D01*
X151391953Y-95039790D01*
X151301581Y-94949418D01*
X151166131Y-94858913D01*
X151015627Y-94796572D01*
X150855852Y-94764790D01*
X150692948Y-94764790D01*
X150533173Y-94796572D01*
X150382669Y-94858913D01*
X150247219Y-94949418D01*
X150132028Y-95064609D01*
X150041523Y-95200059D01*
X149979182Y-95350563D01*
X149947400Y-95510338D01*
X149947400Y-95673242D01*
X149979182Y-95833017D01*
X149993010Y-95866400D01*
X148464705Y-95866400D01*
X148437599Y-95863730D01*
X148410493Y-95866400D01*
X148410491Y-95866400D01*
X148329389Y-95874388D01*
X148225337Y-95905952D01*
X148129442Y-95957209D01*
X148045389Y-96026189D01*
X148028108Y-96047246D01*
X146110048Y-97965308D01*
X145975111Y-97763360D01*
X145797240Y-97585489D01*
X145588086Y-97445737D01*
X145355687Y-97349474D01*
X145144166Y-97307400D01*
X145355687Y-97265326D01*
X145588086Y-97169063D01*
X145797240Y-97029311D01*
X145975111Y-96851440D01*
X146114863Y-96642286D01*
X146211126Y-96409887D01*
X146260200Y-96163174D01*
X146260200Y-95911626D01*
X146211126Y-95664913D01*
X146114863Y-95432514D01*
X145975111Y-95223360D01*
X145797240Y-95045489D01*
X145588086Y-94905737D01*
X145355687Y-94809474D01*
X145108974Y-94760400D01*
X145006202Y-94760400D01*
X145006202Y-94667445D01*
X145205651Y-94754877D01*
X145446698Y-94687317D01*
X145669933Y-94574029D01*
X145866778Y-94419367D01*
X146029667Y-94229274D01*
X146152341Y-94011056D01*
X146230086Y-93773098D01*
X146240676Y-93719851D01*
X146153224Y-93520400D01*
X145006200Y-93520400D01*
X145006200Y-93540400D01*
X144960200Y-93540400D01*
X144960200Y-93520400D01*
X143813176Y-93520400D01*
X143725724Y-93719851D01*
X143736314Y-93773098D01*
X143814059Y-94011056D01*
X143936733Y-94229274D01*
X144099622Y-94419367D01*
X144296467Y-94574029D01*
X144519702Y-94687317D01*
X144760749Y-94754877D01*
X144960198Y-94667445D01*
X144960198Y-94760400D01*
X144857426Y-94760400D01*
X144610713Y-94809474D01*
X144378314Y-94905737D01*
X144169160Y-95045489D01*
X143991289Y-95223360D01*
X143851537Y-95432514D01*
X143755274Y-95664913D01*
X143706200Y-95911626D01*
X143706200Y-96163174D01*
X143755274Y-96409887D01*
X143851537Y-96642286D01*
X143991289Y-96851440D01*
X144169160Y-97029311D01*
X144378314Y-97169063D01*
X144610713Y-97265326D01*
X144822234Y-97307400D01*
X144610713Y-97349474D01*
X144378314Y-97445737D01*
X144169160Y-97585489D01*
X143991289Y-97763360D01*
X143851537Y-97972514D01*
X143755274Y-98204913D01*
X143706200Y-98451626D01*
X143706200Y-98703174D01*
X143755274Y-98949887D01*
X143851537Y-99182286D01*
X143991289Y-99391440D01*
X144169160Y-99569311D01*
X144378314Y-99709063D01*
X144610713Y-99805326D01*
X144822234Y-99847400D01*
X144610713Y-99889474D01*
X144378314Y-99985737D01*
X144169160Y-100125489D01*
X143991289Y-100303360D01*
X143851537Y-100512514D01*
X143755274Y-100744913D01*
X143706200Y-100991626D01*
X143706200Y-101243174D01*
X143755274Y-101489887D01*
X143851537Y-101722286D01*
X143991289Y-101931440D01*
X144169160Y-102109311D01*
X144378314Y-102249063D01*
X144610713Y-102345326D01*
X144857426Y-102394400D01*
X145108974Y-102394400D01*
X145355687Y-102345326D01*
X145588086Y-102249063D01*
X145797240Y-102109311D01*
X145975111Y-101931440D01*
X146114863Y-101722286D01*
X146211126Y-101489887D01*
X146260200Y-101243174D01*
X146260200Y-100991626D01*
X146211126Y-100744913D01*
X146114863Y-100512514D01*
X145975111Y-100303360D01*
X145797240Y-100125489D01*
X145588086Y-99985737D01*
X145355687Y-99889474D01*
X145144166Y-99847400D01*
X145355687Y-99805326D01*
X145588086Y-99709063D01*
X145797240Y-99569311D01*
X145975111Y-99391440D01*
X146114863Y-99182286D01*
X146136769Y-99129400D01*
X146251494Y-99129400D01*
X146278600Y-99132070D01*
X146305706Y-99129400D01*
X146305709Y-99129400D01*
X146386811Y-99121412D01*
X146490863Y-99089848D01*
X146586758Y-99038591D01*
X146670811Y-98969611D01*
X146688100Y-98948544D01*
X148666246Y-96970400D01*
X156133756Y-96970400D01*
X156500600Y-97337245D01*
X156500600Y-97465052D01*
X156532382Y-97624827D01*
X156594723Y-97775331D01*
X156685228Y-97910781D01*
X156800419Y-98025972D01*
X156935869Y-98116477D01*
X157086373Y-98178818D01*
X157246148Y-98210600D01*
X157409052Y-98210600D01*
X157568827Y-98178818D01*
X157719331Y-98116477D01*
X157854781Y-98025972D01*
X157969972Y-97910781D01*
X158060477Y-97775331D01*
X158122818Y-97624827D01*
X158154600Y-97465052D01*
X158154600Y-97302148D01*
X158122818Y-97142373D01*
X158060477Y-96991869D01*
X157969972Y-96856419D01*
X157854781Y-96741228D01*
X157719331Y-96650723D01*
X157568827Y-96588382D01*
X157409052Y-96556600D01*
X157281245Y-96556600D01*
X156868434Y-96143790D01*
X157900517Y-96143790D01*
X157872200Y-96286148D01*
X157872200Y-96449052D01*
X157903982Y-96608827D01*
X157966323Y-96759331D01*
X158056828Y-96894781D01*
X158172019Y-97009972D01*
X158307469Y-97100477D01*
X158457973Y-97162818D01*
X158617748Y-97194600D01*
X158780652Y-97194600D01*
X158940427Y-97162818D01*
X159090931Y-97100477D01*
X159226381Y-97009972D01*
X159316753Y-96919600D01*
X162026556Y-96919600D01*
X162973201Y-97866247D01*
X162973200Y-109038094D01*
X162970530Y-109065200D01*
X162973200Y-109092306D01*
X162973200Y-109092308D01*
X162981188Y-109173410D01*
X163012752Y-109277462D01*
X163064009Y-109373358D01*
X163132989Y-109457411D01*
X163154057Y-109474701D01*
X169211346Y-115531991D01*
X168859750Y-115533000D01*
X168753000Y-115639750D01*
X168753000Y-116787000D01*
X168773000Y-116787000D01*
X168773000Y-116833000D01*
X168753000Y-116833000D01*
X168753000Y-117980250D01*
X168859750Y-118087000D01*
X169580000Y-118089066D01*
X169663707Y-118080822D01*
X169744196Y-118056405D01*
X169818376Y-118016755D01*
X169883395Y-117963395D01*
X169936755Y-117898376D01*
X169976405Y-117824196D01*
X170000822Y-117743707D01*
X170009066Y-117660000D01*
X170007193Y-117007129D01*
X170042074Y-117182487D01*
X170138337Y-117414886D01*
X170278089Y-117624040D01*
X170455960Y-117801911D01*
X170665114Y-117941663D01*
X170897513Y-118037926D01*
X171144226Y-118087000D01*
X171395774Y-118087000D01*
X171642487Y-118037926D01*
X171874886Y-117941663D01*
X172084040Y-117801911D01*
X172261911Y-117624040D01*
X172401663Y-117414886D01*
X172497926Y-117182487D01*
X172540000Y-116970966D01*
X172582074Y-117182487D01*
X172678337Y-117414886D01*
X172818089Y-117624040D01*
X172995960Y-117801911D01*
X173205114Y-117941663D01*
X173437513Y-118037926D01*
X173684226Y-118087000D01*
X173935774Y-118087000D01*
X174182487Y-118037926D01*
X174414886Y-117941663D01*
X174624040Y-117801911D01*
X174801911Y-117624040D01*
X174941663Y-117414886D01*
X175037926Y-117182487D01*
X175080000Y-116970966D01*
X175122074Y-117182487D01*
X175218337Y-117414886D01*
X175358089Y-117624040D01*
X175535960Y-117801911D01*
X175745114Y-117941663D01*
X175977513Y-118037926D01*
X176224226Y-118087000D01*
X176475774Y-118087000D01*
X176722487Y-118037926D01*
X176954886Y-117941663D01*
X177164040Y-117801911D01*
X177341911Y-117624040D01*
X177481663Y-117414886D01*
X177577926Y-117182487D01*
X177620000Y-116970966D01*
X177662074Y-117182487D01*
X177758337Y-117414886D01*
X177898089Y-117624040D01*
X178075960Y-117801911D01*
X178285114Y-117941663D01*
X178517513Y-118037926D01*
X178764226Y-118087000D01*
X179015774Y-118087000D01*
X179262487Y-118037926D01*
X179494886Y-117941663D01*
X179704040Y-117801911D01*
X179881911Y-117624040D01*
X180021663Y-117414886D01*
X180117926Y-117182487D01*
X180167000Y-116935774D01*
X180167000Y-116843976D01*
X180513976Y-116497000D01*
X185933273Y-116497000D01*
X185978800Y-116501484D01*
X186024327Y-116497000D01*
X186024338Y-116497000D01*
X186160524Y-116483587D01*
X186335264Y-116430580D01*
X186496305Y-116344501D01*
X186637459Y-116228659D01*
X186666488Y-116193287D01*
X195593694Y-107266082D01*
X195629059Y-107237059D01*
X195658084Y-107201692D01*
X195658088Y-107201688D01*
X195744902Y-107095906D01*
X195830980Y-106934864D01*
X195854357Y-106857800D01*
X195883987Y-106760124D01*
X195897400Y-106623938D01*
X195897400Y-106623927D01*
X195901884Y-106578400D01*
X195897400Y-106532873D01*
X195897400Y-86303926D01*
X195901884Y-86258399D01*
X195897400Y-86212872D01*
X195897400Y-86212862D01*
X195883987Y-86076676D01*
X195830980Y-85901936D01*
X195770022Y-85787892D01*
X195744901Y-85740894D01*
X195658088Y-85635112D01*
X195658084Y-85635108D01*
X195629059Y-85599741D01*
X195593692Y-85570716D01*
X187015693Y-76992718D01*
X186986664Y-76957346D01*
X186845510Y-76841504D01*
X186684469Y-76755425D01*
X186509729Y-76702418D01*
X186373543Y-76689005D01*
X186373532Y-76689005D01*
X186328005Y-76684521D01*
X186282478Y-76689005D01*
X178467880Y-76689005D01*
X178532877Y-76591731D01*
X178595218Y-76441227D01*
X178627000Y-76281452D01*
X178627000Y-76118548D01*
X178595218Y-75958773D01*
X178532877Y-75808269D01*
X178442372Y-75672819D01*
X178327181Y-75557628D01*
X178191731Y-75467123D01*
X178041227Y-75404782D01*
X177881452Y-75373000D01*
X177718548Y-75373000D01*
X177558773Y-75404782D01*
X177408269Y-75467123D01*
X177272819Y-75557628D01*
X177157628Y-75672819D01*
X177067123Y-75808269D01*
X177004782Y-75958773D01*
X176973000Y-76118548D01*
X176973000Y-76281452D01*
X177004782Y-76441227D01*
X177067123Y-76591731D01*
X177132120Y-76689005D01*
X150527880Y-76689005D01*
X150592877Y-76591731D01*
X150655218Y-76441227D01*
X150687000Y-76281452D01*
X150687000Y-76118548D01*
X150655218Y-75958773D01*
X150592877Y-75808269D01*
X150502372Y-75672819D01*
X150387181Y-75557628D01*
X150251731Y-75467123D01*
X150101227Y-75404782D01*
X149941452Y-75373000D01*
X149778548Y-75373000D01*
X149618773Y-75404782D01*
X149468269Y-75467123D01*
X149332819Y-75557628D01*
X149217628Y-75672819D01*
X149127123Y-75808269D01*
X149064782Y-75958773D01*
X149033000Y-76118548D01*
X149033000Y-76281452D01*
X149064782Y-76441227D01*
X149095279Y-76514852D01*
X149005905Y-76441505D01*
X148844863Y-76355426D01*
X148670123Y-76302420D01*
X148488400Y-76284522D01*
X148306677Y-76302420D01*
X148131937Y-76355426D01*
X147970895Y-76441505D01*
X147829741Y-76557347D01*
X147713899Y-76698501D01*
X147627820Y-76859543D01*
X147574814Y-77034283D01*
X147556916Y-77216006D01*
X147574814Y-77397729D01*
X147627820Y-77572469D01*
X147713899Y-77733511D01*
X147800712Y-77839293D01*
X148200711Y-78239292D01*
X148229740Y-78274664D01*
X148278890Y-78315000D01*
X146661308Y-78315000D01*
X146634200Y-78312330D01*
X146607091Y-78315000D01*
X146525989Y-78322988D01*
X146421937Y-78354552D01*
X146326042Y-78405809D01*
X146241989Y-78474789D01*
X146224708Y-78495846D01*
X136774556Y-87946000D01*
X136646748Y-87946000D01*
X136486973Y-87977782D01*
X136336469Y-88040123D01*
X136201019Y-88130628D01*
X136085828Y-88245819D01*
X135995323Y-88381269D01*
X135932982Y-88531773D01*
X135901200Y-88691548D01*
X135901200Y-88854452D01*
X135932982Y-89014227D01*
X135995323Y-89164731D01*
X136085828Y-89300181D01*
X136201019Y-89415372D01*
X136336469Y-89505877D01*
X136486973Y-89568218D01*
X136646748Y-89600000D01*
X136809652Y-89600000D01*
X136969427Y-89568218D01*
X137119931Y-89505877D01*
X137255381Y-89415372D01*
X137370572Y-89300181D01*
X137461077Y-89164731D01*
X137523418Y-89014227D01*
X137555200Y-88854452D01*
X137555200Y-88726644D01*
X137876631Y-88405213D01*
X137878001Y-88419116D01*
X137878000Y-89941354D01*
X137439356Y-90380000D01*
X137294953Y-90380000D01*
X137204581Y-90289628D01*
X137069131Y-90199123D01*
X136918627Y-90136782D01*
X136758852Y-90105000D01*
X136595948Y-90105000D01*
X136436173Y-90136782D01*
X136285669Y-90199123D01*
X136150219Y-90289628D01*
X136035028Y-90404819D01*
X135944523Y-90540269D01*
X135882182Y-90690773D01*
X135850400Y-90850548D01*
X120971672Y-90850548D01*
X120936993Y-73580000D01*
X124688516Y-73580000D01*
X124706414Y-73761723D01*
X124759420Y-73936463D01*
X124845499Y-74097505D01*
X124932312Y-74203287D01*
X129162316Y-78433292D01*
X129191341Y-78468659D01*
X129226708Y-78497684D01*
X129226711Y-78497687D01*
X129332494Y-78584501D01*
X129409709Y-78625773D01*
X129493536Y-78670580D01*
X129668276Y-78723587D01*
X129804462Y-78737000D01*
X129804474Y-78737000D01*
X129849999Y-78741484D01*
X129895524Y-78737000D01*
X140254273Y-78737000D01*
X140299800Y-78741484D01*
X140345327Y-78737000D01*
X140345338Y-78737000D01*
X140481524Y-78723587D01*
X140656264Y-78670580D01*
X140817305Y-78584501D01*
X140958459Y-78468659D01*
X140987488Y-78433287D01*
X141683088Y-77737688D01*
X141769901Y-77631906D01*
X141855980Y-77470864D01*
X141908986Y-77296124D01*
X141926884Y-77114400D01*
X141908986Y-76932677D01*
X141855980Y-76757937D01*
X141769901Y-76596895D01*
X141654059Y-76455741D01*
X141512905Y-76339899D01*
X141351863Y-76253820D01*
X141177123Y-76200814D01*
X140995400Y-76182916D01*
X140813676Y-76200814D01*
X140638936Y-76253820D01*
X140477894Y-76339899D01*
X140372112Y-76426712D01*
X139915825Y-76883000D01*
X130233976Y-76883000D01*
X126243287Y-72892312D01*
X126137505Y-72805499D01*
X125976463Y-72719420D01*
X125801723Y-72666414D01*
X125620000Y-72648516D01*
X125438277Y-72666414D01*
X125263537Y-72719420D01*
X125102495Y-72805499D01*
X124961341Y-72921341D01*
X124845499Y-73062495D01*
X124759420Y-73223537D01*
X124706414Y-73398277D01*
X124688516Y-73580000D01*
X120936993Y-73580000D01*
X120931890Y-71038548D01*
X169353000Y-71038548D01*
X169353000Y-71201452D01*
X169384782Y-71361227D01*
X169447123Y-71511731D01*
X169537628Y-71647181D01*
X169652819Y-71762372D01*
X169788269Y-71852877D01*
X169938773Y-71915218D01*
X170098548Y-71947000D01*
X170261452Y-71947000D01*
X170421227Y-71915218D01*
X170571731Y-71852877D01*
X170707181Y-71762372D01*
X170822372Y-71647181D01*
X170912877Y-71511731D01*
X170975218Y-71361227D01*
X171007000Y-71201452D01*
X171007000Y-71038548D01*
X170975218Y-70878773D01*
X170912877Y-70728269D01*
X170822372Y-70592819D01*
X170707181Y-70477628D01*
X170571731Y-70387123D01*
X170421227Y-70324782D01*
X170261452Y-70293000D01*
X170098548Y-70293000D01*
X169938773Y-70324782D01*
X169788269Y-70387123D01*
X169652819Y-70477628D01*
X169537628Y-70592819D01*
X169447123Y-70728269D01*
X169384782Y-70878773D01*
X169353000Y-71038548D01*
X120931890Y-71038548D01*
X120926526Y-68367844D01*
X121042930Y-68463374D01*
X121247403Y-68572667D01*
X121469268Y-68639969D01*
X121700000Y-68662694D01*
X121930731Y-68639969D01*
X122152596Y-68572667D01*
X122357069Y-68463374D01*
X122536291Y-68316291D01*
X122607108Y-68230000D01*
X123060934Y-68230000D01*
X123069178Y-68313707D01*
X123093595Y-68394196D01*
X123133245Y-68468376D01*
X123186605Y-68533395D01*
X123251624Y-68586755D01*
X123325804Y-68626405D01*
X123406293Y-68650822D01*
X123490000Y-68659066D01*
X124110250Y-68657000D01*
X124217000Y-68550250D01*
X124217000Y-67253000D01*
X124263000Y-67253000D01*
X124263000Y-68550250D01*
X124369750Y-68657000D01*
X124990000Y-68659066D01*
X125073707Y-68650822D01*
X125154196Y-68626405D01*
X125228376Y-68586755D01*
X125293395Y-68533395D01*
X125346755Y-68468376D01*
X125386405Y-68394196D01*
X125410822Y-68313707D01*
X125419066Y-68230000D01*
X125418060Y-67806200D01*
X142027734Y-67806200D01*
X142027734Y-69506200D01*
X142035978Y-69589907D01*
X142060395Y-69670396D01*
X142100045Y-69744576D01*
X142153405Y-69809595D01*
X142218424Y-69862955D01*
X142292604Y-69902605D01*
X142373093Y-69927022D01*
X142456800Y-69935266D01*
X144156800Y-69935266D01*
X144240507Y-69927022D01*
X144320996Y-69902605D01*
X144395176Y-69862955D01*
X144460195Y-69809595D01*
X144513555Y-69744576D01*
X144553205Y-69670396D01*
X144577622Y-69589907D01*
X144585866Y-69506200D01*
X144585866Y-67806200D01*
X144577622Y-67722493D01*
X144553205Y-67642004D01*
X144513555Y-67567824D01*
X144460195Y-67502805D01*
X144395176Y-67449445D01*
X144320996Y-67409795D01*
X144240507Y-67385378D01*
X144156800Y-67377134D01*
X143513344Y-67377134D01*
X143679287Y-67344126D01*
X143911686Y-67247863D01*
X144120840Y-67108111D01*
X144298711Y-66930240D01*
X144438463Y-66721086D01*
X144534726Y-66488687D01*
X144583800Y-66241974D01*
X144583800Y-65990426D01*
X144534726Y-65743713D01*
X144438463Y-65511314D01*
X144298711Y-65302160D01*
X144120840Y-65124289D01*
X143911686Y-64984537D01*
X143679287Y-64888274D01*
X143432574Y-64839200D01*
X143181026Y-64839200D01*
X142934313Y-64888274D01*
X142701914Y-64984537D01*
X142492760Y-65124289D01*
X142314889Y-65302160D01*
X142175137Y-65511314D01*
X142078874Y-65743713D01*
X142029800Y-65990426D01*
X142029800Y-66241974D01*
X142078874Y-66488687D01*
X142175137Y-66721086D01*
X142314889Y-66930240D01*
X142492760Y-67108111D01*
X142701914Y-67247863D01*
X142934313Y-67344126D01*
X143100256Y-67377134D01*
X142456800Y-67377134D01*
X142373093Y-67385378D01*
X142292604Y-67409795D01*
X142218424Y-67449445D01*
X142153405Y-67502805D01*
X142100045Y-67567824D01*
X142060395Y-67642004D01*
X142035978Y-67722493D01*
X142027734Y-67806200D01*
X125418060Y-67806200D01*
X125417000Y-67359750D01*
X125310250Y-67253000D01*
X124263000Y-67253000D01*
X124217000Y-67253000D01*
X123169750Y-67253000D01*
X123063000Y-67359750D01*
X123060934Y-68230000D01*
X122607108Y-68230000D01*
X122683374Y-68137070D01*
X122792667Y-67932597D01*
X122859969Y-67710732D01*
X122877000Y-67537812D01*
X122877000Y-66922189D01*
X122859969Y-66749269D01*
X122792667Y-66527404D01*
X122683374Y-66322930D01*
X122607109Y-66230000D01*
X123060934Y-66230000D01*
X123063000Y-67100250D01*
X123169750Y-67207000D01*
X124217000Y-67207000D01*
X124217000Y-65909750D01*
X124263000Y-65909750D01*
X124263000Y-67207000D01*
X125310250Y-67207000D01*
X125417000Y-67100250D01*
X125419066Y-66230000D01*
X125410822Y-66146293D01*
X125386405Y-66065804D01*
X125346755Y-65991624D01*
X125293395Y-65926605D01*
X125228376Y-65873245D01*
X125154196Y-65833595D01*
X125073707Y-65809178D01*
X124990000Y-65800934D01*
X124369750Y-65803000D01*
X124263000Y-65909750D01*
X124217000Y-65909750D01*
X124110250Y-65803000D01*
X123490000Y-65800934D01*
X123406293Y-65809178D01*
X123325804Y-65833595D01*
X123251624Y-65873245D01*
X123186605Y-65926605D01*
X123133245Y-65991624D01*
X123093595Y-66065804D01*
X123069178Y-66146293D01*
X123060934Y-66230000D01*
X122607109Y-66230000D01*
X122536291Y-66143709D01*
X122357070Y-65996626D01*
X122152597Y-65887333D01*
X121930732Y-65820031D01*
X121700000Y-65797306D01*
X121469269Y-65820031D01*
X121247404Y-65887333D01*
X121042931Y-65996626D01*
X120921964Y-66095901D01*
X120911858Y-61062826D01*
X154323400Y-61062826D01*
X154323400Y-61314374D01*
X154372474Y-61561087D01*
X154468737Y-61793486D01*
X154608489Y-62002640D01*
X154786360Y-62180511D01*
X154995514Y-62320263D01*
X155227913Y-62416526D01*
X155474626Y-62465600D01*
X155726174Y-62465600D01*
X155972887Y-62416526D01*
X156205286Y-62320263D01*
X156414440Y-62180511D01*
X156592311Y-62002640D01*
X156732063Y-61793486D01*
X156828326Y-61561087D01*
X156863207Y-61385729D01*
X156861334Y-62038600D01*
X156869578Y-62122307D01*
X156893995Y-62202796D01*
X156933645Y-62276976D01*
X156987005Y-62341995D01*
X157052024Y-62395355D01*
X157126204Y-62435005D01*
X157206693Y-62459422D01*
X157290400Y-62467666D01*
X158010650Y-62465600D01*
X158117400Y-62358850D01*
X158117400Y-61211600D01*
X158163400Y-61211600D01*
X158163400Y-62358850D01*
X158270150Y-62465600D01*
X158990400Y-62467666D01*
X159074107Y-62459422D01*
X159154596Y-62435005D01*
X159228776Y-62395355D01*
X159293795Y-62341995D01*
X159347155Y-62276976D01*
X159386805Y-62202796D01*
X159411222Y-62122307D01*
X159419466Y-62038600D01*
X159417400Y-61318350D01*
X159310650Y-61211600D01*
X158163400Y-61211600D01*
X158117400Y-61211600D01*
X158097400Y-61211600D01*
X158097400Y-61165600D01*
X158117400Y-61165600D01*
X158117400Y-60018350D01*
X158163400Y-60018350D01*
X158163400Y-61165600D01*
X159310650Y-61165600D01*
X159417400Y-61058850D01*
X159419466Y-60338600D01*
X159411222Y-60254893D01*
X159386805Y-60174404D01*
X159347155Y-60100224D01*
X159293795Y-60035205D01*
X159228776Y-59981845D01*
X159154596Y-59942195D01*
X159074107Y-59917778D01*
X158990400Y-59909534D01*
X158270150Y-59911600D01*
X158163400Y-60018350D01*
X158117400Y-60018350D01*
X158010650Y-59911600D01*
X157290400Y-59909534D01*
X157206693Y-59917778D01*
X157126204Y-59942195D01*
X157052024Y-59981845D01*
X156987005Y-60035205D01*
X156933645Y-60100224D01*
X156893995Y-60174404D01*
X156869578Y-60254893D01*
X156861334Y-60338600D01*
X156863207Y-60991471D01*
X156828326Y-60816113D01*
X156732063Y-60583714D01*
X156592311Y-60374560D01*
X156414440Y-60196689D01*
X156205286Y-60056937D01*
X155972887Y-59960674D01*
X155726174Y-59911600D01*
X155474626Y-59911600D01*
X155227913Y-59960674D01*
X154995514Y-60056937D01*
X154786360Y-60196689D01*
X154608489Y-60374560D01*
X154468737Y-60583714D01*
X154372474Y-60816113D01*
X154323400Y-61062826D01*
X120911858Y-61062826D01*
X120904256Y-57277000D01*
X184023000Y-57277000D01*
X184023000Y-69850000D01*
G37*
%TD.AperFunction*%
D19*
X185594825Y-114643000D02*
X180175527Y-114643000D01*
X180130000Y-114638516D01*
X180084473Y-114643000D01*
X180084462Y-114643000D01*
X179948276Y-114656413D01*
X179773536Y-114709420D01*
X179612494Y-114795499D01*
X179506712Y-114882312D01*
X179506708Y-114882316D01*
X179471341Y-114911341D01*
X179442316Y-114946708D01*
X178856024Y-115533000D01*
X178764226Y-115533000D01*
X178517513Y-115582074D01*
X178285114Y-115678337D01*
X178216383Y-115724262D01*
X180003045Y-113937600D01*
X186300225Y-113937600D01*
X185594825Y-114643000D01*
%TA.AperFunction,Conductor*%
D20*
G36*
X185594825Y-114643000D02*
G01*
X180175527Y-114643000D01*
X180130000Y-114638516D01*
X180084473Y-114643000D01*
X180084462Y-114643000D01*
X179948276Y-114656413D01*
X179773536Y-114709420D01*
X179612494Y-114795499D01*
X179506712Y-114882312D01*
X179506708Y-114882316D01*
X179471341Y-114911341D01*
X179442316Y-114946708D01*
X178856024Y-115533000D01*
X178764226Y-115533000D01*
X178517513Y-115582074D01*
X178285114Y-115678337D01*
X178216383Y-115724262D01*
X180003045Y-113937600D01*
X186300225Y-113937600D01*
X185594825Y-114643000D01*
G37*
%TD.AperFunction*%
%TD*%
D19*
%TO.N,GNDA*%
X119878000Y-66054200D02*
X119794782Y-65988583D01*
X119589169Y-65883793D01*
X119366805Y-65821311D01*
X119183000Y-65909997D01*
X119183000Y-67207000D01*
X119203000Y-67207000D01*
X119203000Y-67253000D01*
X119183000Y-67253000D01*
X119183000Y-68550003D01*
X119366805Y-68638689D01*
X119589169Y-68576207D01*
X119794782Y-68471417D01*
X119878000Y-68405800D01*
X119878000Y-95695000D01*
X119880440Y-95719776D01*
X119887667Y-95743601D01*
X119899403Y-95765557D01*
X119915197Y-95784803D01*
X119934443Y-95800597D01*
X119956399Y-95812333D01*
X119980224Y-95819560D01*
X120005000Y-95822000D01*
X125085000Y-95822000D01*
X125109776Y-95819560D01*
X125133601Y-95812333D01*
X125155557Y-95800597D01*
X125174803Y-95784803D01*
X125190597Y-95765557D01*
X125202333Y-95743601D01*
X125209560Y-95719776D01*
X125211999Y-95694415D01*
X125207587Y-94737100D01*
X137672796Y-94746900D01*
X137658000Y-103949796D01*
X137660401Y-103974576D01*
X137667589Y-103998412D01*
X137679290Y-104020388D01*
X137695053Y-104039658D01*
X137714273Y-104055483D01*
X137736211Y-104067254D01*
X137760023Y-104074520D01*
X137785000Y-104077000D01*
X137928801Y-104077000D01*
X137928801Y-108583284D01*
X137926130Y-108610400D01*
X137936789Y-108718610D01*
X137968352Y-108822662D01*
X137990661Y-108864399D01*
X138019610Y-108918558D01*
X138088590Y-109002611D01*
X138109652Y-109019896D01*
X142490908Y-113401154D01*
X142508189Y-113422211D01*
X142529245Y-113439491D01*
X142592241Y-113491191D01*
X142643498Y-113518588D01*
X142688137Y-113542448D01*
X142792189Y-113574012D01*
X142873291Y-113582000D01*
X142873301Y-113582000D01*
X142900399Y-113584669D01*
X142927497Y-113582000D01*
X158519694Y-113582000D01*
X158546800Y-113584670D01*
X158573906Y-113582000D01*
X158573909Y-113582000D01*
X158655011Y-113574012D01*
X158759063Y-113542448D01*
X158854958Y-113491191D01*
X158939011Y-113422211D01*
X158956300Y-113401144D01*
X159883149Y-112474296D01*
X159904211Y-112457011D01*
X159973191Y-112372958D01*
X160024448Y-112277063D01*
X160056012Y-112173011D01*
X160064000Y-112091909D01*
X160064000Y-112091906D01*
X160066670Y-112064800D01*
X160064000Y-112037694D01*
X160064000Y-108891505D01*
X160066670Y-108864399D01*
X160062559Y-108822662D01*
X160056012Y-108756189D01*
X160024448Y-108652137D01*
X159973191Y-108556242D01*
X159904211Y-108472189D01*
X159883154Y-108454908D01*
X158895600Y-107467356D01*
X158895600Y-104859153D01*
X158985972Y-104768781D01*
X159076477Y-104633331D01*
X159138818Y-104482827D01*
X159170600Y-104323052D01*
X159170600Y-104160148D01*
X159154060Y-104077000D01*
X160518000Y-104077000D01*
X160518000Y-133033000D01*
X99177102Y-133033000D01*
X99187000Y-120650102D01*
X99184579Y-120625323D01*
X99177372Y-120601493D01*
X99165653Y-120579527D01*
X99149874Y-120560269D01*
X99130642Y-120544460D01*
X99108695Y-120532706D01*
X99084876Y-120525460D01*
X99060000Y-120523000D01*
X86486975Y-120523000D01*
X86486211Y-116624226D01*
X141923000Y-116624226D01*
X141923000Y-116875774D01*
X141972074Y-117122487D01*
X142068337Y-117354886D01*
X142208089Y-117564040D01*
X142385960Y-117741911D01*
X142595114Y-117881663D01*
X142827513Y-117977926D01*
X143074226Y-118027000D01*
X143325774Y-118027000D01*
X143572487Y-117977926D01*
X143804886Y-117881663D01*
X144014040Y-117741911D01*
X144191911Y-117564040D01*
X144331663Y-117354886D01*
X144427926Y-117122487D01*
X144470000Y-116910966D01*
X144512074Y-117122487D01*
X144608337Y-117354886D01*
X144748089Y-117564040D01*
X144925960Y-117741911D01*
X145135114Y-117881663D01*
X145367513Y-117977926D01*
X145614226Y-118027000D01*
X145865774Y-118027000D01*
X146112487Y-117977926D01*
X146344886Y-117881663D01*
X146554040Y-117741911D01*
X146731911Y-117564040D01*
X146871663Y-117354886D01*
X146967926Y-117122487D01*
X147017000Y-116875774D01*
X147017000Y-116773002D01*
X147109955Y-116773002D01*
X147022523Y-116972451D01*
X147090083Y-117213498D01*
X147203371Y-117436733D01*
X147358033Y-117633578D01*
X147548126Y-117796467D01*
X147766344Y-117919141D01*
X148004302Y-117996886D01*
X148057549Y-118007476D01*
X148257000Y-117920024D01*
X148257000Y-116773000D01*
X148237000Y-116773000D01*
X148237000Y-116727000D01*
X148257000Y-116727000D01*
X148257000Y-115579976D01*
X148303000Y-115579976D01*
X148303000Y-116727000D01*
X148323000Y-116727000D01*
X148323000Y-116773000D01*
X148303000Y-116773000D01*
X148303000Y-117920024D01*
X148502451Y-118007476D01*
X148555698Y-117996886D01*
X148793656Y-117919141D01*
X149011874Y-117796467D01*
X149201967Y-117633578D01*
X149356629Y-117436733D01*
X149469917Y-117213498D01*
X149537477Y-116972451D01*
X149450045Y-116773002D01*
X149543000Y-116773002D01*
X149543000Y-116875774D01*
X149592074Y-117122487D01*
X149688337Y-117354886D01*
X149828089Y-117564040D01*
X150005960Y-117741911D01*
X150215114Y-117881663D01*
X150447513Y-117977926D01*
X150694226Y-118027000D01*
X150945774Y-118027000D01*
X151192487Y-117977926D01*
X151424886Y-117881663D01*
X151634040Y-117741911D01*
X151811911Y-117564040D01*
X151951663Y-117354886D01*
X152047926Y-117122487D01*
X152082807Y-116947129D01*
X152080934Y-117600000D01*
X152089178Y-117683707D01*
X152113595Y-117764196D01*
X152153245Y-117838376D01*
X152206605Y-117903395D01*
X152271624Y-117956755D01*
X152345804Y-117996405D01*
X152426293Y-118020822D01*
X152510000Y-118029066D01*
X153230250Y-118027000D01*
X153337000Y-117920250D01*
X153337000Y-116773000D01*
X153383000Y-116773000D01*
X153383000Y-117920250D01*
X153489750Y-118027000D01*
X154210000Y-118029066D01*
X154293707Y-118020822D01*
X154374196Y-117996405D01*
X154448376Y-117956755D01*
X154513395Y-117903395D01*
X154566755Y-117838376D01*
X154606405Y-117764196D01*
X154630822Y-117683707D01*
X154639066Y-117600000D01*
X154637000Y-116879750D01*
X154530250Y-116773000D01*
X153383000Y-116773000D01*
X153337000Y-116773000D01*
X153317000Y-116773000D01*
X153317000Y-116727000D01*
X153337000Y-116727000D01*
X153337000Y-115579750D01*
X153383000Y-115579750D01*
X153383000Y-116727000D01*
X154530250Y-116727000D01*
X154637000Y-116620250D01*
X154639066Y-115900000D01*
X154630822Y-115816293D01*
X154606405Y-115735804D01*
X154566755Y-115661624D01*
X154513395Y-115596605D01*
X154448376Y-115543245D01*
X154374196Y-115503595D01*
X154293707Y-115479178D01*
X154210000Y-115470934D01*
X153489750Y-115473000D01*
X153383000Y-115579750D01*
X153337000Y-115579750D01*
X153230250Y-115473000D01*
X152510000Y-115470934D01*
X152426293Y-115479178D01*
X152345804Y-115503595D01*
X152271624Y-115543245D01*
X152206605Y-115596605D01*
X152153245Y-115661624D01*
X152113595Y-115735804D01*
X152089178Y-115816293D01*
X152080934Y-115900000D01*
X152082807Y-116552871D01*
X152047926Y-116377513D01*
X151951663Y-116145114D01*
X151811911Y-115935960D01*
X151634040Y-115758089D01*
X151424886Y-115618337D01*
X151192487Y-115522074D01*
X150945774Y-115473000D01*
X150694226Y-115473000D01*
X150447513Y-115522074D01*
X150215114Y-115618337D01*
X150005960Y-115758089D01*
X149828089Y-115935960D01*
X149688337Y-116145114D01*
X149592074Y-116377513D01*
X149543000Y-116624226D01*
X149543000Y-116726998D01*
X149450045Y-116726998D01*
X149537477Y-116527549D01*
X149469917Y-116286502D01*
X149356629Y-116063267D01*
X149201967Y-115866422D01*
X149011874Y-115703533D01*
X148793656Y-115580859D01*
X148555698Y-115503114D01*
X148502451Y-115492524D01*
X148303000Y-115579976D01*
X148257000Y-115579976D01*
X148057549Y-115492524D01*
X148004302Y-115503114D01*
X147766344Y-115580859D01*
X147548126Y-115703533D01*
X147358033Y-115866422D01*
X147203371Y-116063267D01*
X147090083Y-116286502D01*
X147022523Y-116527549D01*
X147109955Y-116726998D01*
X147017000Y-116726998D01*
X147017000Y-116624226D01*
X146967926Y-116377513D01*
X146871663Y-116145114D01*
X146731911Y-115935960D01*
X146554040Y-115758089D01*
X146344886Y-115618337D01*
X146112487Y-115522074D01*
X145865774Y-115473000D01*
X145614226Y-115473000D01*
X145367513Y-115522074D01*
X145135114Y-115618337D01*
X144925960Y-115758089D01*
X144748089Y-115935960D01*
X144608337Y-116145114D01*
X144512074Y-116377513D01*
X144470000Y-116589034D01*
X144427926Y-116377513D01*
X144331663Y-116145114D01*
X144191911Y-115935960D01*
X144014040Y-115758089D01*
X143804886Y-115618337D01*
X143572487Y-115522074D01*
X143325774Y-115473000D01*
X143074226Y-115473000D01*
X142827513Y-115522074D01*
X142595114Y-115618337D01*
X142385960Y-115758089D01*
X142208089Y-115935960D01*
X142068337Y-116145114D01*
X141972074Y-116377513D01*
X141923000Y-116624226D01*
X86486211Y-116624226D01*
X86482827Y-99366026D01*
X99713400Y-99366026D01*
X99713400Y-99617574D01*
X99762474Y-99864287D01*
X99858737Y-100096686D01*
X99998489Y-100305840D01*
X100176360Y-100483711D01*
X100385514Y-100623463D01*
X100617913Y-100719726D01*
X100829434Y-100761800D01*
X100617913Y-100803874D01*
X100385514Y-100900137D01*
X100176360Y-101039889D01*
X99998489Y-101217760D01*
X99858737Y-101426914D01*
X99762474Y-101659313D01*
X99713400Y-101906026D01*
X99713400Y-102157574D01*
X99762474Y-102404287D01*
X99858737Y-102636686D01*
X99998489Y-102845840D01*
X100176360Y-103023711D01*
X100385514Y-103163463D01*
X100617913Y-103259726D01*
X100829434Y-103301800D01*
X100617913Y-103343874D01*
X100385514Y-103440137D01*
X100176360Y-103579889D01*
X99998489Y-103757760D01*
X99858737Y-103966914D01*
X99762474Y-104199313D01*
X99713400Y-104446026D01*
X99713400Y-104697574D01*
X99762474Y-104944287D01*
X99858737Y-105176686D01*
X99998489Y-105385840D01*
X100176360Y-105563711D01*
X100385514Y-105703463D01*
X100617913Y-105799726D01*
X100829434Y-105841800D01*
X100617913Y-105883874D01*
X100385514Y-105980137D01*
X100176360Y-106119889D01*
X99998489Y-106297760D01*
X99858737Y-106506914D01*
X99762474Y-106739313D01*
X99713400Y-106986026D01*
X99713400Y-107237574D01*
X99762474Y-107484287D01*
X99858737Y-107716686D01*
X99998489Y-107925840D01*
X100176360Y-108103711D01*
X100385514Y-108243463D01*
X100617913Y-108339726D01*
X100864626Y-108388800D01*
X101116174Y-108388800D01*
X101362887Y-108339726D01*
X101595286Y-108243463D01*
X101804440Y-108103711D01*
X101982311Y-107925840D01*
X102122063Y-107716686D01*
X102218326Y-107484287D01*
X102267400Y-107237574D01*
X102267400Y-106986026D01*
X102218326Y-106739313D01*
X102122063Y-106506914D01*
X101982311Y-106297760D01*
X101804440Y-106119889D01*
X101595286Y-105980137D01*
X101362887Y-105883874D01*
X101151366Y-105841800D01*
X101362887Y-105799726D01*
X101595286Y-105703463D01*
X101804440Y-105563711D01*
X101982311Y-105385840D01*
X102122063Y-105176686D01*
X102218326Y-104944287D01*
X102267400Y-104697574D01*
X102267400Y-104446026D01*
X102218326Y-104199313D01*
X102122063Y-103966914D01*
X101982311Y-103757760D01*
X101804440Y-103579889D01*
X101595286Y-103440137D01*
X101362887Y-103343874D01*
X101151366Y-103301800D01*
X101362887Y-103259726D01*
X101595286Y-103163463D01*
X101804440Y-103023711D01*
X101982311Y-102845840D01*
X102122063Y-102636686D01*
X102218326Y-102404287D01*
X102267400Y-102157574D01*
X102267400Y-101906026D01*
X102218326Y-101659313D01*
X102122063Y-101426914D01*
X101982311Y-101217760D01*
X101804440Y-101039889D01*
X101595286Y-100900137D01*
X101362887Y-100803874D01*
X101151366Y-100761800D01*
X101362887Y-100719726D01*
X101595286Y-100623463D01*
X101804440Y-100483711D01*
X101982311Y-100305840D01*
X102122063Y-100096686D01*
X102218326Y-99864287D01*
X102267400Y-99617574D01*
X102267400Y-99366026D01*
X102218326Y-99119313D01*
X102122063Y-98886914D01*
X101982311Y-98677760D01*
X101804440Y-98499889D01*
X101595286Y-98360137D01*
X101362887Y-98263874D01*
X101116174Y-98214800D01*
X101013402Y-98214800D01*
X101013402Y-98121845D01*
X101212851Y-98209277D01*
X101453898Y-98141717D01*
X101677133Y-98028429D01*
X101873978Y-97873767D01*
X102036867Y-97683674D01*
X102159541Y-97465456D01*
X102237286Y-97227498D01*
X102247876Y-97174251D01*
X102160424Y-96974800D01*
X101013400Y-96974800D01*
X101013400Y-96994800D01*
X100967400Y-96994800D01*
X100967400Y-96974800D01*
X99820376Y-96974800D01*
X99732924Y-97174251D01*
X99743514Y-97227498D01*
X99821259Y-97465456D01*
X99943933Y-97683674D01*
X100106822Y-97873767D01*
X100303667Y-98028429D01*
X100526902Y-98141717D01*
X100767949Y-98209277D01*
X100967398Y-98121845D01*
X100967398Y-98214800D01*
X100864626Y-98214800D01*
X100617913Y-98263874D01*
X100385514Y-98360137D01*
X100176360Y-98499889D01*
X99998489Y-98677760D01*
X99858737Y-98886914D01*
X99762474Y-99119313D01*
X99713400Y-99366026D01*
X86482827Y-99366026D01*
X86481688Y-93561800D01*
X99711334Y-93561800D01*
X99711334Y-95261800D01*
X99719578Y-95345507D01*
X99743995Y-95425996D01*
X99783645Y-95500176D01*
X99837005Y-95565195D01*
X99902024Y-95618555D01*
X99976204Y-95658205D01*
X100056693Y-95682622D01*
X100140400Y-95690866D01*
X100967398Y-95690866D01*
X100967398Y-95781755D01*
X100767949Y-95694323D01*
X100526902Y-95761883D01*
X100303667Y-95875171D01*
X100106822Y-96029833D01*
X99943933Y-96219926D01*
X99821259Y-96438144D01*
X99743514Y-96676102D01*
X99732924Y-96729349D01*
X99820376Y-96928800D01*
X100967400Y-96928800D01*
X100967400Y-96908800D01*
X101013400Y-96908800D01*
X101013400Y-96928800D01*
X102160424Y-96928800D01*
X102247876Y-96729349D01*
X102238410Y-96681755D01*
X103717808Y-98161154D01*
X103735089Y-98182211D01*
X103756145Y-98199491D01*
X103756146Y-98199492D01*
X103819142Y-98251191D01*
X103915037Y-98302448D01*
X104019089Y-98334012D01*
X104127300Y-98344670D01*
X104154409Y-98342000D01*
X133526094Y-98342000D01*
X133553200Y-98344670D01*
X133580306Y-98342000D01*
X133580309Y-98342000D01*
X133661411Y-98334012D01*
X133765463Y-98302448D01*
X133861358Y-98251191D01*
X133945411Y-98182211D01*
X133962700Y-98161144D01*
X134218045Y-97905800D01*
X134345852Y-97905800D01*
X134505627Y-97874018D01*
X134656131Y-97811677D01*
X134791581Y-97721172D01*
X134906772Y-97605981D01*
X134997277Y-97470531D01*
X135059618Y-97320027D01*
X135091400Y-97160252D01*
X135091400Y-96997348D01*
X135059618Y-96837573D01*
X134997277Y-96687069D01*
X134906772Y-96551619D01*
X134791581Y-96436428D01*
X134656131Y-96345923D01*
X134505627Y-96283582D01*
X134345852Y-96251800D01*
X134182948Y-96251800D01*
X134023173Y-96283582D01*
X133872669Y-96345923D01*
X133737219Y-96436428D01*
X133622028Y-96551619D01*
X133531523Y-96687069D01*
X133469182Y-96837573D01*
X133437400Y-96997348D01*
X133437400Y-97125155D01*
X133324556Y-97238000D01*
X104355946Y-97238000D01*
X102269466Y-95151521D01*
X102269466Y-93561800D01*
X102261222Y-93478093D01*
X102236805Y-93397604D01*
X102197155Y-93323424D01*
X102143795Y-93258405D01*
X102078776Y-93205045D01*
X102004596Y-93165395D01*
X101924107Y-93140978D01*
X101840400Y-93132734D01*
X100140400Y-93132734D01*
X100056693Y-93140978D01*
X99976204Y-93165395D01*
X99902024Y-93205045D01*
X99837005Y-93258405D01*
X99783645Y-93323424D01*
X99743995Y-93397604D01*
X99719578Y-93478093D01*
X99711334Y-93561800D01*
X86481688Y-93561800D01*
X86477025Y-69787000D01*
X99050000Y-69787000D01*
X99074776Y-69784560D01*
X99098601Y-69777333D01*
X99120557Y-69765597D01*
X99139803Y-69749803D01*
X99155597Y-69730557D01*
X99167333Y-69708601D01*
X99174560Y-69684776D01*
X99177000Y-69660000D01*
X99177000Y-66922188D01*
X115443000Y-66922188D01*
X115443000Y-67537811D01*
X115460031Y-67710731D01*
X115527333Y-67932596D01*
X115636626Y-68137069D01*
X115783709Y-68316291D01*
X115962930Y-68463374D01*
X116167403Y-68572667D01*
X116389268Y-68639969D01*
X116620000Y-68662694D01*
X116850731Y-68639969D01*
X117072596Y-68572667D01*
X117277069Y-68463374D01*
X117456291Y-68316291D01*
X117603374Y-68137070D01*
X117712667Y-67932597D01*
X117779969Y-67710732D01*
X117797000Y-67537812D01*
X117797000Y-67253000D01*
X117983000Y-67253000D01*
X117983000Y-67503000D01*
X118010103Y-67732179D01*
X118081396Y-67951667D01*
X118194139Y-68153029D01*
X118343999Y-68328527D01*
X118525218Y-68471417D01*
X118730831Y-68576207D01*
X118953195Y-68638689D01*
X119137000Y-68550003D01*
X119137000Y-67253000D01*
X117983000Y-67253000D01*
X117797000Y-67253000D01*
X117797000Y-66957000D01*
X117983000Y-66957000D01*
X117983000Y-67207000D01*
X119137000Y-67207000D01*
X119137000Y-65909997D01*
X118953195Y-65821311D01*
X118730831Y-65883793D01*
X118525218Y-65988583D01*
X118343999Y-66131473D01*
X118194139Y-66306971D01*
X118081396Y-66508333D01*
X118010103Y-66727821D01*
X117983000Y-66957000D01*
X117797000Y-66957000D01*
X117797000Y-66922189D01*
X117779969Y-66749269D01*
X117712667Y-66527404D01*
X117603374Y-66322930D01*
X117456291Y-66143709D01*
X117277070Y-65996626D01*
X117072597Y-65887333D01*
X116850732Y-65820031D01*
X116620000Y-65797306D01*
X116389269Y-65820031D01*
X116167404Y-65887333D01*
X115962931Y-65996626D01*
X115783710Y-66143709D01*
X115636627Y-66322930D01*
X115527333Y-66527403D01*
X115460031Y-66749268D01*
X115443000Y-66922188D01*
X99177000Y-66922188D01*
X99177000Y-57087000D01*
X119878000Y-57087000D01*
X119878000Y-66054200D01*
%TA.AperFunction,Conductor*%
D20*
G36*
X119878000Y-66054200D02*
G01*
X119794782Y-65988583D01*
X119589169Y-65883793D01*
X119366805Y-65821311D01*
X119183000Y-65909997D01*
X119183000Y-67207000D01*
X119203000Y-67207000D01*
X119203000Y-67253000D01*
X119183000Y-67253000D01*
X119183000Y-68550003D01*
X119366805Y-68638689D01*
X119589169Y-68576207D01*
X119794782Y-68471417D01*
X119878000Y-68405800D01*
X119878000Y-95695000D01*
X119880440Y-95719776D01*
X119887667Y-95743601D01*
X119899403Y-95765557D01*
X119915197Y-95784803D01*
X119934443Y-95800597D01*
X119956399Y-95812333D01*
X119980224Y-95819560D01*
X120005000Y-95822000D01*
X125085000Y-95822000D01*
X125109776Y-95819560D01*
X125133601Y-95812333D01*
X125155557Y-95800597D01*
X125174803Y-95784803D01*
X125190597Y-95765557D01*
X125202333Y-95743601D01*
X125209560Y-95719776D01*
X125211999Y-95694415D01*
X125207587Y-94737100D01*
X137672796Y-94746900D01*
X137658000Y-103949796D01*
X137660401Y-103974576D01*
X137667589Y-103998412D01*
X137679290Y-104020388D01*
X137695053Y-104039658D01*
X137714273Y-104055483D01*
X137736211Y-104067254D01*
X137760023Y-104074520D01*
X137785000Y-104077000D01*
X137928801Y-104077000D01*
X137928801Y-108583284D01*
X137926130Y-108610400D01*
X137936789Y-108718610D01*
X137968352Y-108822662D01*
X137990661Y-108864399D01*
X138019610Y-108918558D01*
X138088590Y-109002611D01*
X138109652Y-109019896D01*
X142490908Y-113401154D01*
X142508189Y-113422211D01*
X142529245Y-113439491D01*
X142592241Y-113491191D01*
X142643498Y-113518588D01*
X142688137Y-113542448D01*
X142792189Y-113574012D01*
X142873291Y-113582000D01*
X142873301Y-113582000D01*
X142900399Y-113584669D01*
X142927497Y-113582000D01*
X158519694Y-113582000D01*
X158546800Y-113584670D01*
X158573906Y-113582000D01*
X158573909Y-113582000D01*
X158655011Y-113574012D01*
X158759063Y-113542448D01*
X158854958Y-113491191D01*
X158939011Y-113422211D01*
X158956300Y-113401144D01*
X159883149Y-112474296D01*
X159904211Y-112457011D01*
X159973191Y-112372958D01*
X160024448Y-112277063D01*
X160056012Y-112173011D01*
X160064000Y-112091909D01*
X160064000Y-112091906D01*
X160066670Y-112064800D01*
X160064000Y-112037694D01*
X160064000Y-108891505D01*
X160066670Y-108864399D01*
X160062559Y-108822662D01*
X160056012Y-108756189D01*
X160024448Y-108652137D01*
X159973191Y-108556242D01*
X159904211Y-108472189D01*
X159883154Y-108454908D01*
X158895600Y-107467356D01*
X158895600Y-104859153D01*
X158985972Y-104768781D01*
X159076477Y-104633331D01*
X159138818Y-104482827D01*
X159170600Y-104323052D01*
X159170600Y-104160148D01*
X159154060Y-104077000D01*
X160518000Y-104077000D01*
X160518000Y-133033000D01*
X99177102Y-133033000D01*
X99187000Y-120650102D01*
X99184579Y-120625323D01*
X99177372Y-120601493D01*
X99165653Y-120579527D01*
X99149874Y-120560269D01*
X99130642Y-120544460D01*
X99108695Y-120532706D01*
X99084876Y-120525460D01*
X99060000Y-120523000D01*
X86486975Y-120523000D01*
X86486211Y-116624226D01*
X141923000Y-116624226D01*
X141923000Y-116875774D01*
X141972074Y-117122487D01*
X142068337Y-117354886D01*
X142208089Y-117564040D01*
X142385960Y-117741911D01*
X142595114Y-117881663D01*
X142827513Y-117977926D01*
X143074226Y-118027000D01*
X143325774Y-118027000D01*
X143572487Y-117977926D01*
X143804886Y-117881663D01*
X144014040Y-117741911D01*
X144191911Y-117564040D01*
X144331663Y-117354886D01*
X144427926Y-117122487D01*
X144470000Y-116910966D01*
X144512074Y-117122487D01*
X144608337Y-117354886D01*
X144748089Y-117564040D01*
X144925960Y-117741911D01*
X145135114Y-117881663D01*
X145367513Y-117977926D01*
X145614226Y-118027000D01*
X145865774Y-118027000D01*
X146112487Y-117977926D01*
X146344886Y-117881663D01*
X146554040Y-117741911D01*
X146731911Y-117564040D01*
X146871663Y-117354886D01*
X146967926Y-117122487D01*
X147017000Y-116875774D01*
X147017000Y-116773002D01*
X147109955Y-116773002D01*
X147022523Y-116972451D01*
X147090083Y-117213498D01*
X147203371Y-117436733D01*
X147358033Y-117633578D01*
X147548126Y-117796467D01*
X147766344Y-117919141D01*
X148004302Y-117996886D01*
X148057549Y-118007476D01*
X148257000Y-117920024D01*
X148257000Y-116773000D01*
X148237000Y-116773000D01*
X148237000Y-116727000D01*
X148257000Y-116727000D01*
X148257000Y-115579976D01*
X148303000Y-115579976D01*
X148303000Y-116727000D01*
X148323000Y-116727000D01*
X148323000Y-116773000D01*
X148303000Y-116773000D01*
X148303000Y-117920024D01*
X148502451Y-118007476D01*
X148555698Y-117996886D01*
X148793656Y-117919141D01*
X149011874Y-117796467D01*
X149201967Y-117633578D01*
X149356629Y-117436733D01*
X149469917Y-117213498D01*
X149537477Y-116972451D01*
X149450045Y-116773002D01*
X149543000Y-116773002D01*
X149543000Y-116875774D01*
X149592074Y-117122487D01*
X149688337Y-117354886D01*
X149828089Y-117564040D01*
X150005960Y-117741911D01*
X150215114Y-117881663D01*
X150447513Y-117977926D01*
X150694226Y-118027000D01*
X150945774Y-118027000D01*
X151192487Y-117977926D01*
X151424886Y-117881663D01*
X151634040Y-117741911D01*
X151811911Y-117564040D01*
X151951663Y-117354886D01*
X152047926Y-117122487D01*
X152082807Y-116947129D01*
X152080934Y-117600000D01*
X152089178Y-117683707D01*
X152113595Y-117764196D01*
X152153245Y-117838376D01*
X152206605Y-117903395D01*
X152271624Y-117956755D01*
X152345804Y-117996405D01*
X152426293Y-118020822D01*
X152510000Y-118029066D01*
X153230250Y-118027000D01*
X153337000Y-117920250D01*
X153337000Y-116773000D01*
X153383000Y-116773000D01*
X153383000Y-117920250D01*
X153489750Y-118027000D01*
X154210000Y-118029066D01*
X154293707Y-118020822D01*
X154374196Y-117996405D01*
X154448376Y-117956755D01*
X154513395Y-117903395D01*
X154566755Y-117838376D01*
X154606405Y-117764196D01*
X154630822Y-117683707D01*
X154639066Y-117600000D01*
X154637000Y-116879750D01*
X154530250Y-116773000D01*
X153383000Y-116773000D01*
X153337000Y-116773000D01*
X153317000Y-116773000D01*
X153317000Y-116727000D01*
X153337000Y-116727000D01*
X153337000Y-115579750D01*
X153383000Y-115579750D01*
X153383000Y-116727000D01*
X154530250Y-116727000D01*
X154637000Y-116620250D01*
X154639066Y-115900000D01*
X154630822Y-115816293D01*
X154606405Y-115735804D01*
X154566755Y-115661624D01*
X154513395Y-115596605D01*
X154448376Y-115543245D01*
X154374196Y-115503595D01*
X154293707Y-115479178D01*
X154210000Y-115470934D01*
X153489750Y-115473000D01*
X153383000Y-115579750D01*
X153337000Y-115579750D01*
X153230250Y-115473000D01*
X152510000Y-115470934D01*
X152426293Y-115479178D01*
X152345804Y-115503595D01*
X152271624Y-115543245D01*
X152206605Y-115596605D01*
X152153245Y-115661624D01*
X152113595Y-115735804D01*
X152089178Y-115816293D01*
X152080934Y-115900000D01*
X152082807Y-116552871D01*
X152047926Y-116377513D01*
X151951663Y-116145114D01*
X151811911Y-115935960D01*
X151634040Y-115758089D01*
X151424886Y-115618337D01*
X151192487Y-115522074D01*
X150945774Y-115473000D01*
X150694226Y-115473000D01*
X150447513Y-115522074D01*
X150215114Y-115618337D01*
X150005960Y-115758089D01*
X149828089Y-115935960D01*
X149688337Y-116145114D01*
X149592074Y-116377513D01*
X149543000Y-116624226D01*
X149543000Y-116726998D01*
X149450045Y-116726998D01*
X149537477Y-116527549D01*
X149469917Y-116286502D01*
X149356629Y-116063267D01*
X149201967Y-115866422D01*
X149011874Y-115703533D01*
X148793656Y-115580859D01*
X148555698Y-115503114D01*
X148502451Y-115492524D01*
X148303000Y-115579976D01*
X148257000Y-115579976D01*
X148057549Y-115492524D01*
X148004302Y-115503114D01*
X147766344Y-115580859D01*
X147548126Y-115703533D01*
X147358033Y-115866422D01*
X147203371Y-116063267D01*
X147090083Y-116286502D01*
X147022523Y-116527549D01*
X147109955Y-116726998D01*
X147017000Y-116726998D01*
X147017000Y-116624226D01*
X146967926Y-116377513D01*
X146871663Y-116145114D01*
X146731911Y-115935960D01*
X146554040Y-115758089D01*
X146344886Y-115618337D01*
X146112487Y-115522074D01*
X145865774Y-115473000D01*
X145614226Y-115473000D01*
X145367513Y-115522074D01*
X145135114Y-115618337D01*
X144925960Y-115758089D01*
X144748089Y-115935960D01*
X144608337Y-116145114D01*
X144512074Y-116377513D01*
X144470000Y-116589034D01*
X144427926Y-116377513D01*
X144331663Y-116145114D01*
X144191911Y-115935960D01*
X144014040Y-115758089D01*
X143804886Y-115618337D01*
X143572487Y-115522074D01*
X143325774Y-115473000D01*
X143074226Y-115473000D01*
X142827513Y-115522074D01*
X142595114Y-115618337D01*
X142385960Y-115758089D01*
X142208089Y-115935960D01*
X142068337Y-116145114D01*
X141972074Y-116377513D01*
X141923000Y-116624226D01*
X86486211Y-116624226D01*
X86482827Y-99366026D01*
X99713400Y-99366026D01*
X99713400Y-99617574D01*
X99762474Y-99864287D01*
X99858737Y-100096686D01*
X99998489Y-100305840D01*
X100176360Y-100483711D01*
X100385514Y-100623463D01*
X100617913Y-100719726D01*
X100829434Y-100761800D01*
X100617913Y-100803874D01*
X100385514Y-100900137D01*
X100176360Y-101039889D01*
X99998489Y-101217760D01*
X99858737Y-101426914D01*
X99762474Y-101659313D01*
X99713400Y-101906026D01*
X99713400Y-102157574D01*
X99762474Y-102404287D01*
X99858737Y-102636686D01*
X99998489Y-102845840D01*
X100176360Y-103023711D01*
X100385514Y-103163463D01*
X100617913Y-103259726D01*
X100829434Y-103301800D01*
X100617913Y-103343874D01*
X100385514Y-103440137D01*
X100176360Y-103579889D01*
X99998489Y-103757760D01*
X99858737Y-103966914D01*
X99762474Y-104199313D01*
X99713400Y-104446026D01*
X99713400Y-104697574D01*
X99762474Y-104944287D01*
X99858737Y-105176686D01*
X99998489Y-105385840D01*
X100176360Y-105563711D01*
X100385514Y-105703463D01*
X100617913Y-105799726D01*
X100829434Y-105841800D01*
X100617913Y-105883874D01*
X100385514Y-105980137D01*
X100176360Y-106119889D01*
X99998489Y-106297760D01*
X99858737Y-106506914D01*
X99762474Y-106739313D01*
X99713400Y-106986026D01*
X99713400Y-107237574D01*
X99762474Y-107484287D01*
X99858737Y-107716686D01*
X99998489Y-107925840D01*
X100176360Y-108103711D01*
X100385514Y-108243463D01*
X100617913Y-108339726D01*
X100864626Y-108388800D01*
X101116174Y-108388800D01*
X101362887Y-108339726D01*
X101595286Y-108243463D01*
X101804440Y-108103711D01*
X101982311Y-107925840D01*
X102122063Y-107716686D01*
X102218326Y-107484287D01*
X102267400Y-107237574D01*
X102267400Y-106986026D01*
X102218326Y-106739313D01*
X102122063Y-106506914D01*
X101982311Y-106297760D01*
X101804440Y-106119889D01*
X101595286Y-105980137D01*
X101362887Y-105883874D01*
X101151366Y-105841800D01*
X101362887Y-105799726D01*
X101595286Y-105703463D01*
X101804440Y-105563711D01*
X101982311Y-105385840D01*
X102122063Y-105176686D01*
X102218326Y-104944287D01*
X102267400Y-104697574D01*
X102267400Y-104446026D01*
X102218326Y-104199313D01*
X102122063Y-103966914D01*
X101982311Y-103757760D01*
X101804440Y-103579889D01*
X101595286Y-103440137D01*
X101362887Y-103343874D01*
X101151366Y-103301800D01*
X101362887Y-103259726D01*
X101595286Y-103163463D01*
X101804440Y-103023711D01*
X101982311Y-102845840D01*
X102122063Y-102636686D01*
X102218326Y-102404287D01*
X102267400Y-102157574D01*
X102267400Y-101906026D01*
X102218326Y-101659313D01*
X102122063Y-101426914D01*
X101982311Y-101217760D01*
X101804440Y-101039889D01*
X101595286Y-100900137D01*
X101362887Y-100803874D01*
X101151366Y-100761800D01*
X101362887Y-100719726D01*
X101595286Y-100623463D01*
X101804440Y-100483711D01*
X101982311Y-100305840D01*
X102122063Y-100096686D01*
X102218326Y-99864287D01*
X102267400Y-99617574D01*
X102267400Y-99366026D01*
X102218326Y-99119313D01*
X102122063Y-98886914D01*
X101982311Y-98677760D01*
X101804440Y-98499889D01*
X101595286Y-98360137D01*
X101362887Y-98263874D01*
X101116174Y-98214800D01*
X101013402Y-98214800D01*
X101013402Y-98121845D01*
X101212851Y-98209277D01*
X101453898Y-98141717D01*
X101677133Y-98028429D01*
X101873978Y-97873767D01*
X102036867Y-97683674D01*
X102159541Y-97465456D01*
X102237286Y-97227498D01*
X102247876Y-97174251D01*
X102160424Y-96974800D01*
X101013400Y-96974800D01*
X101013400Y-96994800D01*
X100967400Y-96994800D01*
X100967400Y-96974800D01*
X99820376Y-96974800D01*
X99732924Y-97174251D01*
X99743514Y-97227498D01*
X99821259Y-97465456D01*
X99943933Y-97683674D01*
X100106822Y-97873767D01*
X100303667Y-98028429D01*
X100526902Y-98141717D01*
X100767949Y-98209277D01*
X100967398Y-98121845D01*
X100967398Y-98214800D01*
X100864626Y-98214800D01*
X100617913Y-98263874D01*
X100385514Y-98360137D01*
X100176360Y-98499889D01*
X99998489Y-98677760D01*
X99858737Y-98886914D01*
X99762474Y-99119313D01*
X99713400Y-99366026D01*
X86482827Y-99366026D01*
X86481688Y-93561800D01*
X99711334Y-93561800D01*
X99711334Y-95261800D01*
X99719578Y-95345507D01*
X99743995Y-95425996D01*
X99783645Y-95500176D01*
X99837005Y-95565195D01*
X99902024Y-95618555D01*
X99976204Y-95658205D01*
X100056693Y-95682622D01*
X100140400Y-95690866D01*
X100967398Y-95690866D01*
X100967398Y-95781755D01*
X100767949Y-95694323D01*
X100526902Y-95761883D01*
X100303667Y-95875171D01*
X100106822Y-96029833D01*
X99943933Y-96219926D01*
X99821259Y-96438144D01*
X99743514Y-96676102D01*
X99732924Y-96729349D01*
X99820376Y-96928800D01*
X100967400Y-96928800D01*
X100967400Y-96908800D01*
X101013400Y-96908800D01*
X101013400Y-96928800D01*
X102160424Y-96928800D01*
X102247876Y-96729349D01*
X102238410Y-96681755D01*
X103717808Y-98161154D01*
X103735089Y-98182211D01*
X103756145Y-98199491D01*
X103756146Y-98199492D01*
X103819142Y-98251191D01*
X103915037Y-98302448D01*
X104019089Y-98334012D01*
X104127300Y-98344670D01*
X104154409Y-98342000D01*
X133526094Y-98342000D01*
X133553200Y-98344670D01*
X133580306Y-98342000D01*
X133580309Y-98342000D01*
X133661411Y-98334012D01*
X133765463Y-98302448D01*
X133861358Y-98251191D01*
X133945411Y-98182211D01*
X133962700Y-98161144D01*
X134218045Y-97905800D01*
X134345852Y-97905800D01*
X134505627Y-97874018D01*
X134656131Y-97811677D01*
X134791581Y-97721172D01*
X134906772Y-97605981D01*
X134997277Y-97470531D01*
X135059618Y-97320027D01*
X135091400Y-97160252D01*
X135091400Y-96997348D01*
X135059618Y-96837573D01*
X134997277Y-96687069D01*
X134906772Y-96551619D01*
X134791581Y-96436428D01*
X134656131Y-96345923D01*
X134505627Y-96283582D01*
X134345852Y-96251800D01*
X134182948Y-96251800D01*
X134023173Y-96283582D01*
X133872669Y-96345923D01*
X133737219Y-96436428D01*
X133622028Y-96551619D01*
X133531523Y-96687069D01*
X133469182Y-96837573D01*
X133437400Y-96997348D01*
X133437400Y-97125155D01*
X133324556Y-97238000D01*
X104355946Y-97238000D01*
X102269466Y-95151521D01*
X102269466Y-93561800D01*
X102261222Y-93478093D01*
X102236805Y-93397604D01*
X102197155Y-93323424D01*
X102143795Y-93258405D01*
X102078776Y-93205045D01*
X102004596Y-93165395D01*
X101924107Y-93140978D01*
X101840400Y-93132734D01*
X100140400Y-93132734D01*
X100056693Y-93140978D01*
X99976204Y-93165395D01*
X99902024Y-93205045D01*
X99837005Y-93258405D01*
X99783645Y-93323424D01*
X99743995Y-93397604D01*
X99719578Y-93478093D01*
X99711334Y-93561800D01*
X86481688Y-93561800D01*
X86477025Y-69787000D01*
X99050000Y-69787000D01*
X99074776Y-69784560D01*
X99098601Y-69777333D01*
X99120557Y-69765597D01*
X99139803Y-69749803D01*
X99155597Y-69730557D01*
X99167333Y-69708601D01*
X99174560Y-69684776D01*
X99177000Y-69660000D01*
X99177000Y-66922188D01*
X115443000Y-66922188D01*
X115443000Y-67537811D01*
X115460031Y-67710731D01*
X115527333Y-67932596D01*
X115636626Y-68137069D01*
X115783709Y-68316291D01*
X115962930Y-68463374D01*
X116167403Y-68572667D01*
X116389268Y-68639969D01*
X116620000Y-68662694D01*
X116850731Y-68639969D01*
X117072596Y-68572667D01*
X117277069Y-68463374D01*
X117456291Y-68316291D01*
X117603374Y-68137070D01*
X117712667Y-67932597D01*
X117779969Y-67710732D01*
X117797000Y-67537812D01*
X117797000Y-67253000D01*
X117983000Y-67253000D01*
X117983000Y-67503000D01*
X118010103Y-67732179D01*
X118081396Y-67951667D01*
X118194139Y-68153029D01*
X118343999Y-68328527D01*
X118525218Y-68471417D01*
X118730831Y-68576207D01*
X118953195Y-68638689D01*
X119137000Y-68550003D01*
X119137000Y-67253000D01*
X117983000Y-67253000D01*
X117797000Y-67253000D01*
X117797000Y-66957000D01*
X117983000Y-66957000D01*
X117983000Y-67207000D01*
X119137000Y-67207000D01*
X119137000Y-65909997D01*
X118953195Y-65821311D01*
X118730831Y-65883793D01*
X118525218Y-65988583D01*
X118343999Y-66131473D01*
X118194139Y-66306971D01*
X118081396Y-66508333D01*
X118010103Y-66727821D01*
X117983000Y-66957000D01*
X117797000Y-66957000D01*
X117797000Y-66922189D01*
X117779969Y-66749269D01*
X117712667Y-66527404D01*
X117603374Y-66322930D01*
X117456291Y-66143709D01*
X117277070Y-65996626D01*
X117072597Y-65887333D01*
X116850732Y-65820031D01*
X116620000Y-65797306D01*
X116389269Y-65820031D01*
X116167404Y-65887333D01*
X115962931Y-65996626D01*
X115783710Y-66143709D01*
X115636627Y-66322930D01*
X115527333Y-66527403D01*
X115460031Y-66749268D01*
X115443000Y-66922188D01*
X99177000Y-66922188D01*
X99177000Y-57087000D01*
X119878000Y-57087000D01*
X119878000Y-66054200D01*
G37*
%TD.AperFunction*%
D19*
X157516600Y-104160148D02*
X157516600Y-104323052D01*
X157548382Y-104482827D01*
X157610723Y-104633331D01*
X157701228Y-104768781D01*
X157791601Y-104859154D01*
X157791600Y-107668894D01*
X157788930Y-107696000D01*
X157791600Y-107723106D01*
X157791600Y-107723108D01*
X157799588Y-107804210D01*
X157831152Y-107908262D01*
X157882409Y-108004158D01*
X157951389Y-108088211D01*
X157972456Y-108105500D01*
X158960001Y-109093047D01*
X158960000Y-111836155D01*
X158318156Y-112478000D01*
X143129046Y-112478000D01*
X139032800Y-108381756D01*
X139032800Y-108370000D01*
X149210934Y-108370000D01*
X149210934Y-110070000D01*
X149219178Y-110153707D01*
X149243595Y-110234196D01*
X149283245Y-110308376D01*
X149336605Y-110373395D01*
X149401624Y-110426755D01*
X149475804Y-110466405D01*
X149556293Y-110490822D01*
X149640000Y-110499066D01*
X151340000Y-110499066D01*
X151423707Y-110490822D01*
X151504196Y-110466405D01*
X151578376Y-110426755D01*
X151643395Y-110373395D01*
X151696755Y-110308376D01*
X151736405Y-110234196D01*
X151760822Y-110153707D01*
X151769066Y-110070000D01*
X151769066Y-109426544D01*
X151802074Y-109592487D01*
X151898337Y-109824886D01*
X152038089Y-110034040D01*
X152215960Y-110211911D01*
X152425114Y-110351663D01*
X152657513Y-110447926D01*
X152904226Y-110497000D01*
X153155774Y-110497000D01*
X153402487Y-110447926D01*
X153634886Y-110351663D01*
X153844040Y-110211911D01*
X154021911Y-110034040D01*
X154161663Y-109824886D01*
X154257926Y-109592487D01*
X154300000Y-109380966D01*
X154342074Y-109592487D01*
X154438337Y-109824886D01*
X154578089Y-110034040D01*
X154755960Y-110211911D01*
X154965114Y-110351663D01*
X155197513Y-110447926D01*
X155444226Y-110497000D01*
X155695774Y-110497000D01*
X155942487Y-110447926D01*
X156174886Y-110351663D01*
X156384040Y-110211911D01*
X156561911Y-110034040D01*
X156701663Y-109824886D01*
X156797926Y-109592487D01*
X156847000Y-109345774D01*
X156847000Y-109094226D01*
X156797926Y-108847513D01*
X156701663Y-108615114D01*
X156561911Y-108405960D01*
X156384040Y-108228089D01*
X156174886Y-108088337D01*
X155942487Y-107992074D01*
X155695774Y-107943000D01*
X155444226Y-107943000D01*
X155197513Y-107992074D01*
X154965114Y-108088337D01*
X154755960Y-108228089D01*
X154578089Y-108405960D01*
X154438337Y-108615114D01*
X154342074Y-108847513D01*
X154300000Y-109059034D01*
X154257926Y-108847513D01*
X154161663Y-108615114D01*
X154021911Y-108405960D01*
X153844040Y-108228089D01*
X153634886Y-108088337D01*
X153402487Y-107992074D01*
X153155774Y-107943000D01*
X152904226Y-107943000D01*
X152657513Y-107992074D01*
X152425114Y-108088337D01*
X152215960Y-108228089D01*
X152038089Y-108405960D01*
X151898337Y-108615114D01*
X151802074Y-108847513D01*
X151769066Y-109013456D01*
X151769066Y-108370000D01*
X151760822Y-108286293D01*
X151736405Y-108205804D01*
X151696755Y-108131624D01*
X151643395Y-108066605D01*
X151578376Y-108013245D01*
X151504196Y-107973595D01*
X151423707Y-107949178D01*
X151340000Y-107940934D01*
X149640000Y-107940934D01*
X149556293Y-107949178D01*
X149475804Y-107973595D01*
X149401624Y-108013245D01*
X149336605Y-108066605D01*
X149283245Y-108131624D01*
X149243595Y-108205804D01*
X149219178Y-108286293D01*
X149210934Y-108370000D01*
X139032800Y-108370000D01*
X139032800Y-104077000D01*
X157533140Y-104077000D01*
X157516600Y-104160148D01*
%TA.AperFunction,Conductor*%
D20*
G36*
X157516600Y-104160148D02*
G01*
X157516600Y-104323052D01*
X157548382Y-104482827D01*
X157610723Y-104633331D01*
X157701228Y-104768781D01*
X157791601Y-104859154D01*
X157791600Y-107668894D01*
X157788930Y-107696000D01*
X157791600Y-107723106D01*
X157791600Y-107723108D01*
X157799588Y-107804210D01*
X157831152Y-107908262D01*
X157882409Y-108004158D01*
X157951389Y-108088211D01*
X157972456Y-108105500D01*
X158960001Y-109093047D01*
X158960000Y-111836155D01*
X158318156Y-112478000D01*
X143129046Y-112478000D01*
X139032800Y-108381756D01*
X139032800Y-108370000D01*
X149210934Y-108370000D01*
X149210934Y-110070000D01*
X149219178Y-110153707D01*
X149243595Y-110234196D01*
X149283245Y-110308376D01*
X149336605Y-110373395D01*
X149401624Y-110426755D01*
X149475804Y-110466405D01*
X149556293Y-110490822D01*
X149640000Y-110499066D01*
X151340000Y-110499066D01*
X151423707Y-110490822D01*
X151504196Y-110466405D01*
X151578376Y-110426755D01*
X151643395Y-110373395D01*
X151696755Y-110308376D01*
X151736405Y-110234196D01*
X151760822Y-110153707D01*
X151769066Y-110070000D01*
X151769066Y-109426544D01*
X151802074Y-109592487D01*
X151898337Y-109824886D01*
X152038089Y-110034040D01*
X152215960Y-110211911D01*
X152425114Y-110351663D01*
X152657513Y-110447926D01*
X152904226Y-110497000D01*
X153155774Y-110497000D01*
X153402487Y-110447926D01*
X153634886Y-110351663D01*
X153844040Y-110211911D01*
X154021911Y-110034040D01*
X154161663Y-109824886D01*
X154257926Y-109592487D01*
X154300000Y-109380966D01*
X154342074Y-109592487D01*
X154438337Y-109824886D01*
X154578089Y-110034040D01*
X154755960Y-110211911D01*
X154965114Y-110351663D01*
X155197513Y-110447926D01*
X155444226Y-110497000D01*
X155695774Y-110497000D01*
X155942487Y-110447926D01*
X156174886Y-110351663D01*
X156384040Y-110211911D01*
X156561911Y-110034040D01*
X156701663Y-109824886D01*
X156797926Y-109592487D01*
X156847000Y-109345774D01*
X156847000Y-109094226D01*
X156797926Y-108847513D01*
X156701663Y-108615114D01*
X156561911Y-108405960D01*
X156384040Y-108228089D01*
X156174886Y-108088337D01*
X155942487Y-107992074D01*
X155695774Y-107943000D01*
X155444226Y-107943000D01*
X155197513Y-107992074D01*
X154965114Y-108088337D01*
X154755960Y-108228089D01*
X154578089Y-108405960D01*
X154438337Y-108615114D01*
X154342074Y-108847513D01*
X154300000Y-109059034D01*
X154257926Y-108847513D01*
X154161663Y-108615114D01*
X154021911Y-108405960D01*
X153844040Y-108228089D01*
X153634886Y-108088337D01*
X153402487Y-107992074D01*
X153155774Y-107943000D01*
X152904226Y-107943000D01*
X152657513Y-107992074D01*
X152425114Y-108088337D01*
X152215960Y-108228089D01*
X152038089Y-108405960D01*
X151898337Y-108615114D01*
X151802074Y-108847513D01*
X151769066Y-109013456D01*
X151769066Y-108370000D01*
X151760822Y-108286293D01*
X151736405Y-108205804D01*
X151696755Y-108131624D01*
X151643395Y-108066605D01*
X151578376Y-108013245D01*
X151504196Y-107973595D01*
X151423707Y-107949178D01*
X151340000Y-107940934D01*
X149640000Y-107940934D01*
X149556293Y-107949178D01*
X149475804Y-107973595D01*
X149401624Y-108013245D01*
X149336605Y-108066605D01*
X149283245Y-108131624D01*
X149243595Y-108205804D01*
X149219178Y-108286293D01*
X149210934Y-108370000D01*
X139032800Y-108370000D01*
X139032800Y-104077000D01*
X157533140Y-104077000D01*
X157516600Y-104160148D01*
G37*
%TD.AperFunction*%
%TD*%
M02*
