%TF.GenerationSoftware,KiCad,Pcbnew,5.1.9+dfsg1-1*%
%TF.CreationDate,2022-02-14T10:27:32+01:00*%
%TF.ProjectId,wheather_board_v1 ,77686561-7468-4657-925f-626f6172645f,rev?*%
%TF.SameCoordinates,Original*%
%TF.FileFunction,Soldermask,Top*%
%TF.FilePolarity,Negative*%
%FSLAX46Y46*%
G04 Gerber Fmt 4.6, Leading zero omitted, Abs format (unit mm)*
G04 Created by KiCad (PCBNEW 5.1.9+dfsg1-1) date 2022-02-14 10:27:32*
%MOMM*%
%LPD*%
G01*
G04 APERTURE LIST*
%ADD10O,1.800000X1.800000*%
%ADD11C,0.100000*%
%ADD12O,1.799999X0.449999*%
%ADD13C,0.900000*%
%ADD14C,7.500000*%
%ADD15O,1.600000X2.100000*%
G04 APERTURE END LIST*
%TO.C,C19*%
G36*
G01*
X123672600Y-103366100D02*
X125018800Y-103366100D01*
G75*
G02*
X125068800Y-103416100I0J-50000D01*
G01*
X125068800Y-104279700D01*
G75*
G02*
X125018800Y-104329700I-50000J0D01*
G01*
X123672600Y-104329700D01*
G75*
G02*
X123622600Y-104279700I0J50000D01*
G01*
X123622600Y-103416100D01*
G75*
G02*
X123672600Y-103366100I50000J0D01*
G01*
G37*
G36*
G01*
X123672600Y-105423500D02*
X125018800Y-105423500D01*
G75*
G02*
X125068800Y-105473500I0J-50000D01*
G01*
X125068800Y-106337100D01*
G75*
G02*
X125018800Y-106387100I-50000J0D01*
G01*
X123672600Y-106387100D01*
G75*
G02*
X123622600Y-106337100I0J50000D01*
G01*
X123622600Y-105473500D01*
G75*
G02*
X123672600Y-105423500I50000J0D01*
G01*
G37*
G36*
G01*
X124561600Y-104420200D02*
X125374400Y-104420200D01*
G75*
G02*
X125424400Y-104470200I0J-50000D01*
G01*
X125424400Y-105283000D01*
G75*
G02*
X125374400Y-105333000I-50000J0D01*
G01*
X124561600Y-105333000D01*
G75*
G02*
X124511600Y-105283000I0J50000D01*
G01*
X124511600Y-104470200D01*
G75*
G02*
X124561600Y-104420200I50000J0D01*
G01*
G37*
G36*
G01*
X123317000Y-104420200D02*
X124129800Y-104420200D01*
G75*
G02*
X124179800Y-104470200I0J-50000D01*
G01*
X124179800Y-105283000D01*
G75*
G02*
X124129800Y-105333000I-50000J0D01*
G01*
X123317000Y-105333000D01*
G75*
G02*
X123267000Y-105283000I0J50000D01*
G01*
X123267000Y-104470200D01*
G75*
G02*
X123317000Y-104420200I50000J0D01*
G01*
G37*
%TD*%
%TO.C,C7*%
G36*
G01*
X123268700Y-87786676D02*
X123268700Y-88794124D01*
G75*
G02*
X122997424Y-89065400I-271276J0D01*
G01*
X122264976Y-89065400D01*
G75*
G02*
X121993700Y-88794124I0J271276D01*
G01*
X121993700Y-87786676D01*
G75*
G02*
X122264976Y-87515400I271276J0D01*
G01*
X122997424Y-87515400D01*
G75*
G02*
X123268700Y-87786676I0J-271276D01*
G01*
G37*
G36*
G01*
X125343700Y-87786676D02*
X125343700Y-88794124D01*
G75*
G02*
X125072424Y-89065400I-271276J0D01*
G01*
X124339976Y-89065400D01*
G75*
G02*
X124068700Y-88794124I0J271276D01*
G01*
X124068700Y-87786676D01*
G75*
G02*
X124339976Y-87515400I271276J0D01*
G01*
X125072424Y-87515400D01*
G75*
G02*
X125343700Y-87786676I0J-271276D01*
G01*
G37*
%TD*%
D10*
%TO.C,J2*%
X143306800Y-66116200D03*
G36*
G01*
X144206800Y-67806200D02*
X144206800Y-69506200D01*
G75*
G02*
X144156800Y-69556200I-50000J0D01*
G01*
X142456800Y-69556200D01*
G75*
G02*
X142406800Y-69506200I0J50000D01*
G01*
X142406800Y-67806200D01*
G75*
G02*
X142456800Y-67756200I50000J0D01*
G01*
X144156800Y-67756200D01*
G75*
G02*
X144206800Y-67806200I0J-50000D01*
G01*
G37*
%TD*%
%TO.C,J1*%
X155600400Y-61188600D03*
G36*
G01*
X157290400Y-60288600D02*
X158990400Y-60288600D01*
G75*
G02*
X159040400Y-60338600I0J-50000D01*
G01*
X159040400Y-62038600D01*
G75*
G02*
X158990400Y-62088600I-50000J0D01*
G01*
X157290400Y-62088600D01*
G75*
G02*
X157240400Y-62038600I0J50000D01*
G01*
X157240400Y-60338600D01*
G75*
G02*
X157290400Y-60288600I50000J0D01*
G01*
G37*
%TD*%
%TO.C,SW1*%
G36*
G01*
X189176800Y-94456400D02*
X189176800Y-93156400D01*
G75*
G02*
X189226800Y-93106400I50000J0D01*
G01*
X190776800Y-93106400D01*
G75*
G02*
X190826800Y-93156400I0J-50000D01*
G01*
X190826800Y-94456400D01*
G75*
G02*
X190776800Y-94506400I-50000J0D01*
G01*
X189226800Y-94506400D01*
G75*
G02*
X189176800Y-94456400I0J50000D01*
G01*
G37*
G36*
G01*
X189176800Y-89956400D02*
X189176800Y-88656400D01*
G75*
G02*
X189226800Y-88606400I50000J0D01*
G01*
X190776800Y-88606400D01*
G75*
G02*
X190826800Y-88656400I0J-50000D01*
G01*
X190826800Y-89956400D01*
G75*
G02*
X190776800Y-90006400I-50000J0D01*
G01*
X189226800Y-90006400D01*
G75*
G02*
X189176800Y-89956400I0J50000D01*
G01*
G37*
G36*
G01*
X181216800Y-89956400D02*
X181216800Y-88656400D01*
G75*
G02*
X181266800Y-88606400I50000J0D01*
G01*
X182816800Y-88606400D01*
G75*
G02*
X182866800Y-88656400I0J-50000D01*
G01*
X182866800Y-89956400D01*
G75*
G02*
X182816800Y-90006400I-50000J0D01*
G01*
X181266800Y-90006400D01*
G75*
G02*
X181216800Y-89956400I0J50000D01*
G01*
G37*
G36*
G01*
X181216800Y-94456400D02*
X181216800Y-93156400D01*
G75*
G02*
X181266800Y-93106400I50000J0D01*
G01*
X182816800Y-93106400D01*
G75*
G02*
X182866800Y-93156400I0J-50000D01*
G01*
X182866800Y-94456400D01*
G75*
G02*
X182816800Y-94506400I-50000J0D01*
G01*
X181266800Y-94506400D01*
G75*
G02*
X181216800Y-94456400I0J50000D01*
G01*
G37*
%TD*%
%TO.C,C25*%
G36*
G01*
X127577600Y-110817290D02*
X127577600Y-108689510D01*
G75*
G02*
X127838710Y-108428400I261110J0D01*
G01*
X129666490Y-108428400D01*
G75*
G02*
X129927600Y-108689510I0J-261110D01*
G01*
X129927600Y-110817290D01*
G75*
G02*
X129666490Y-111078400I-261110J0D01*
G01*
X127838710Y-111078400D01*
G75*
G02*
X127577600Y-110817290I0J261110D01*
G01*
G37*
G36*
G01*
X121177600Y-110817290D02*
X121177600Y-108689510D01*
G75*
G02*
X121438710Y-108428400I261110J0D01*
G01*
X123266490Y-108428400D01*
G75*
G02*
X123527600Y-108689510I0J-261110D01*
G01*
X123527600Y-110817290D01*
G75*
G02*
X123266490Y-111078400I-261110J0D01*
G01*
X121438710Y-111078400D01*
G75*
G02*
X121177600Y-110817290I0J261110D01*
G01*
G37*
%TD*%
%TO.C,R14*%
G36*
G01*
X144192000Y-104676832D02*
X144192000Y-105635168D01*
G75*
G02*
X143921168Y-105906000I-270832J0D01*
G01*
X143162832Y-105906000D01*
G75*
G02*
X142892000Y-105635168I0J270832D01*
G01*
X142892000Y-104676832D01*
G75*
G02*
X143162832Y-104406000I270832J0D01*
G01*
X143921168Y-104406000D01*
G75*
G02*
X144192000Y-104676832I0J-270832D01*
G01*
G37*
G36*
G01*
X146192000Y-104676832D02*
X146192000Y-105635168D01*
G75*
G02*
X145921168Y-105906000I-270832J0D01*
G01*
X145162832Y-105906000D01*
G75*
G02*
X144892000Y-105635168I0J270832D01*
G01*
X144892000Y-104676832D01*
G75*
G02*
X145162832Y-104406000I270832J0D01*
G01*
X145921168Y-104406000D01*
G75*
G02*
X146192000Y-104676832I0J-270832D01*
G01*
G37*
%TD*%
%TO.C,U4*%
G36*
G01*
X140258799Y-79186599D02*
X139450801Y-79186599D01*
G75*
G02*
X139400801Y-79136599I0J50000D01*
G01*
X139400801Y-78729399D01*
G75*
G02*
X139450801Y-78679399I50000J0D01*
G01*
X140258799Y-78679399D01*
G75*
G02*
X140308799Y-78729399I0J-50000D01*
G01*
X140308799Y-79136599D01*
G75*
G02*
X140258799Y-79186599I-50000J0D01*
G01*
G37*
G36*
G01*
X140258799Y-80136600D02*
X139450801Y-80136600D01*
G75*
G02*
X139400801Y-80086600I0J50000D01*
G01*
X139400801Y-79679400D01*
G75*
G02*
X139450801Y-79629400I50000J0D01*
G01*
X140258799Y-79629400D01*
G75*
G02*
X140308799Y-79679400I0J-50000D01*
G01*
X140308799Y-80086600D01*
G75*
G02*
X140258799Y-80136600I-50000J0D01*
G01*
G37*
G36*
G01*
X140258799Y-81086601D02*
X139450801Y-81086601D01*
G75*
G02*
X139400801Y-81036601I0J50000D01*
G01*
X139400801Y-80629401D01*
G75*
G02*
X139450801Y-80579401I50000J0D01*
G01*
X140258799Y-80579401D01*
G75*
G02*
X140308799Y-80629401I0J-50000D01*
G01*
X140308799Y-81036601D01*
G75*
G02*
X140258799Y-81086601I-50000J0D01*
G01*
G37*
G36*
G01*
X143149599Y-81086601D02*
X142341601Y-81086601D01*
G75*
G02*
X142291601Y-81036601I0J50000D01*
G01*
X142291601Y-80629401D01*
G75*
G02*
X142341601Y-80579401I50000J0D01*
G01*
X143149599Y-80579401D01*
G75*
G02*
X143199599Y-80629401I0J-50000D01*
G01*
X143199599Y-81036601D01*
G75*
G02*
X143149599Y-81086601I-50000J0D01*
G01*
G37*
G36*
G01*
X143149599Y-80136600D02*
X142341601Y-80136600D01*
G75*
G02*
X142291601Y-80086600I0J50000D01*
G01*
X142291601Y-79679400D01*
G75*
G02*
X142341601Y-79629400I50000J0D01*
G01*
X143149599Y-79629400D01*
G75*
G02*
X143199599Y-79679400I0J-50000D01*
G01*
X143199599Y-80086600D01*
G75*
G02*
X143149599Y-80136600I-50000J0D01*
G01*
G37*
G36*
G01*
X143149599Y-79186599D02*
X142341601Y-79186599D01*
G75*
G02*
X142291601Y-79136599I0J50000D01*
G01*
X142291601Y-78729399D01*
G75*
G02*
X142341601Y-78679399I50000J0D01*
G01*
X143149599Y-78679399D01*
G75*
G02*
X143199599Y-78729399I0J-50000D01*
G01*
X143199599Y-79136599D01*
G75*
G02*
X143149599Y-79186599I-50000J0D01*
G01*
G37*
G36*
G01*
X140373900Y-81127600D02*
X140373900Y-78638400D01*
G75*
G02*
X140423900Y-78588400I50000J0D01*
G01*
X142176500Y-78588400D01*
G75*
G02*
X142226500Y-78638400I0J-50000D01*
G01*
X142226500Y-81127600D01*
G75*
G02*
X142176500Y-81177600I-50000J0D01*
G01*
X140423900Y-81177600D01*
G75*
G02*
X140373900Y-81127600I0J50000D01*
G01*
G37*
%TD*%
%TO.C,U5*%
G36*
G01*
X116766600Y-84076200D02*
X117116600Y-84076200D01*
G75*
G02*
X117291600Y-84251200I0J-175000D01*
G01*
X117291600Y-85951200D01*
G75*
G02*
X117116600Y-86126200I-175000J0D01*
G01*
X116766600Y-86126200D01*
G75*
G02*
X116591600Y-85951200I0J175000D01*
G01*
X116591600Y-84251200D01*
G75*
G02*
X116766600Y-84076200I175000J0D01*
G01*
G37*
G36*
G01*
X115496600Y-84076200D02*
X115846600Y-84076200D01*
G75*
G02*
X116021600Y-84251200I0J-175000D01*
G01*
X116021600Y-85951200D01*
G75*
G02*
X115846600Y-86126200I-175000J0D01*
G01*
X115496600Y-86126200D01*
G75*
G02*
X115321600Y-85951200I0J175000D01*
G01*
X115321600Y-84251200D01*
G75*
G02*
X115496600Y-84076200I175000J0D01*
G01*
G37*
G36*
G01*
X114226600Y-84076200D02*
X114576600Y-84076200D01*
G75*
G02*
X114751600Y-84251200I0J-175000D01*
G01*
X114751600Y-85951200D01*
G75*
G02*
X114576600Y-86126200I-175000J0D01*
G01*
X114226600Y-86126200D01*
G75*
G02*
X114051600Y-85951200I0J175000D01*
G01*
X114051600Y-84251200D01*
G75*
G02*
X114226600Y-84076200I175000J0D01*
G01*
G37*
G36*
G01*
X112956600Y-84076200D02*
X113306600Y-84076200D01*
G75*
G02*
X113481600Y-84251200I0J-175000D01*
G01*
X113481600Y-85951200D01*
G75*
G02*
X113306600Y-86126200I-175000J0D01*
G01*
X112956600Y-86126200D01*
G75*
G02*
X112781600Y-85951200I0J175000D01*
G01*
X112781600Y-84251200D01*
G75*
G02*
X112956600Y-84076200I175000J0D01*
G01*
G37*
G36*
G01*
X112956600Y-79126200D02*
X113306600Y-79126200D01*
G75*
G02*
X113481600Y-79301200I0J-175000D01*
G01*
X113481600Y-81001200D01*
G75*
G02*
X113306600Y-81176200I-175000J0D01*
G01*
X112956600Y-81176200D01*
G75*
G02*
X112781600Y-81001200I0J175000D01*
G01*
X112781600Y-79301200D01*
G75*
G02*
X112956600Y-79126200I175000J0D01*
G01*
G37*
G36*
G01*
X114226600Y-79126200D02*
X114576600Y-79126200D01*
G75*
G02*
X114751600Y-79301200I0J-175000D01*
G01*
X114751600Y-81001200D01*
G75*
G02*
X114576600Y-81176200I-175000J0D01*
G01*
X114226600Y-81176200D01*
G75*
G02*
X114051600Y-81001200I0J175000D01*
G01*
X114051600Y-79301200D01*
G75*
G02*
X114226600Y-79126200I175000J0D01*
G01*
G37*
G36*
G01*
X115496600Y-79126200D02*
X115846600Y-79126200D01*
G75*
G02*
X116021600Y-79301200I0J-175000D01*
G01*
X116021600Y-81001200D01*
G75*
G02*
X115846600Y-81176200I-175000J0D01*
G01*
X115496600Y-81176200D01*
G75*
G02*
X115321600Y-81001200I0J175000D01*
G01*
X115321600Y-79301200D01*
G75*
G02*
X115496600Y-79126200I175000J0D01*
G01*
G37*
G36*
G01*
X116766600Y-79126200D02*
X117116600Y-79126200D01*
G75*
G02*
X117291600Y-79301200I0J-175000D01*
G01*
X117291600Y-81001200D01*
G75*
G02*
X117116600Y-81176200I-175000J0D01*
G01*
X116766600Y-81176200D01*
G75*
G02*
X116591600Y-81001200I0J175000D01*
G01*
X116591600Y-79301200D01*
G75*
G02*
X116766600Y-79126200I175000J0D01*
G01*
G37*
%TD*%
%TO.C,U2*%
G36*
G01*
X174067600Y-71040000D02*
X174067600Y-71365000D01*
G75*
G02*
X173917600Y-71515000I-150000J0D01*
G01*
X173617600Y-71515000D01*
G75*
G02*
X173467600Y-71365000I0J150000D01*
G01*
X173467600Y-71040000D01*
G75*
G02*
X173617600Y-70890000I150000J0D01*
G01*
X173917600Y-70890000D01*
G75*
G02*
X174067600Y-71040000I0J-150000D01*
G01*
G37*
G36*
G01*
X173267600Y-71040000D02*
X173267600Y-71365000D01*
G75*
G02*
X173117600Y-71515000I-150000J0D01*
G01*
X172817600Y-71515000D01*
G75*
G02*
X172667600Y-71365000I0J150000D01*
G01*
X172667600Y-71040000D01*
G75*
G02*
X172817600Y-70890000I150000J0D01*
G01*
X173117600Y-70890000D01*
G75*
G02*
X173267600Y-71040000I0J-150000D01*
G01*
G37*
G36*
G01*
X172467600Y-71040000D02*
X172467600Y-71365000D01*
G75*
G02*
X172317600Y-71515000I-150000J0D01*
G01*
X172017600Y-71515000D01*
G75*
G02*
X171867600Y-71365000I0J150000D01*
G01*
X171867600Y-71040000D01*
G75*
G02*
X172017600Y-70890000I150000J0D01*
G01*
X172317600Y-70890000D01*
G75*
G02*
X172467600Y-71040000I0J-150000D01*
G01*
G37*
G36*
G01*
X171667600Y-71040000D02*
X171667600Y-71365000D01*
G75*
G02*
X171517600Y-71515000I-150000J0D01*
G01*
X171217600Y-71515000D01*
G75*
G02*
X171067600Y-71365000I0J150000D01*
G01*
X171067600Y-71040000D01*
G75*
G02*
X171217600Y-70890000I150000J0D01*
G01*
X171517600Y-70890000D01*
G75*
G02*
X171667600Y-71040000I0J-150000D01*
G01*
G37*
G36*
G01*
X171667600Y-73415000D02*
X171667600Y-73740000D01*
G75*
G02*
X171517600Y-73890000I-150000J0D01*
G01*
X171217600Y-73890000D01*
G75*
G02*
X171067600Y-73740000I0J150000D01*
G01*
X171067600Y-73415000D01*
G75*
G02*
X171217600Y-73265000I150000J0D01*
G01*
X171517600Y-73265000D01*
G75*
G02*
X171667600Y-73415000I0J-150000D01*
G01*
G37*
G36*
G01*
X172467600Y-73415000D02*
X172467600Y-73740000D01*
G75*
G02*
X172317600Y-73890000I-150000J0D01*
G01*
X172017600Y-73890000D01*
G75*
G02*
X171867600Y-73740000I0J150000D01*
G01*
X171867600Y-73415000D01*
G75*
G02*
X172017600Y-73265000I150000J0D01*
G01*
X172317600Y-73265000D01*
G75*
G02*
X172467600Y-73415000I0J-150000D01*
G01*
G37*
G36*
G01*
X173267600Y-73415000D02*
X173267600Y-73740000D01*
G75*
G02*
X173117600Y-73890000I-150000J0D01*
G01*
X172817600Y-73890000D01*
G75*
G02*
X172667600Y-73740000I0J150000D01*
G01*
X172667600Y-73415000D01*
G75*
G02*
X172817600Y-73265000I150000J0D01*
G01*
X173117600Y-73265000D01*
G75*
G02*
X173267600Y-73415000I0J-150000D01*
G01*
G37*
G36*
G01*
X174067600Y-73415000D02*
X174067600Y-73740000D01*
G75*
G02*
X173917600Y-73890000I-150000J0D01*
G01*
X173617600Y-73890000D01*
G75*
G02*
X173467600Y-73740000I0J150000D01*
G01*
X173467600Y-73415000D01*
G75*
G02*
X173617600Y-73265000I150000J0D01*
G01*
X173917600Y-73265000D01*
G75*
G02*
X174067600Y-73415000I0J-150000D01*
G01*
G37*
%TD*%
%TO.C,U1*%
G36*
G01*
X135077400Y-77040600D02*
X136577400Y-77040600D01*
G75*
G02*
X136627400Y-77090600I0J-50000D01*
G01*
X136627400Y-79090600D01*
G75*
G02*
X136577400Y-79140600I-50000J0D01*
G01*
X135077400Y-79140600D01*
G75*
G02*
X135027400Y-79090600I0J50000D01*
G01*
X135027400Y-77090600D01*
G75*
G02*
X135077400Y-77040600I50000J0D01*
G01*
G37*
G36*
G01*
X130477400Y-77040600D02*
X131977400Y-77040600D01*
G75*
G02*
X132027400Y-77090600I0J-50000D01*
G01*
X132027400Y-79090600D01*
G75*
G02*
X131977400Y-79140600I-50000J0D01*
G01*
X130477400Y-79140600D01*
G75*
G02*
X130427400Y-79090600I0J50000D01*
G01*
X130427400Y-77090600D01*
G75*
G02*
X130477400Y-77040600I50000J0D01*
G01*
G37*
G36*
G01*
X132777400Y-77040600D02*
X134277400Y-77040600D01*
G75*
G02*
X134327400Y-77090600I0J-50000D01*
G01*
X134327400Y-79090600D01*
G75*
G02*
X134277400Y-79140600I-50000J0D01*
G01*
X132777400Y-79140600D01*
G75*
G02*
X132727400Y-79090600I0J50000D01*
G01*
X132727400Y-77090600D01*
G75*
G02*
X132777400Y-77040600I50000J0D01*
G01*
G37*
G36*
G01*
X131627400Y-83340600D02*
X135427400Y-83340600D01*
G75*
G02*
X135477400Y-83390600I0J-50000D01*
G01*
X135477400Y-85390600D01*
G75*
G02*
X135427400Y-85440600I-50000J0D01*
G01*
X131627400Y-85440600D01*
G75*
G02*
X131577400Y-85390600I0J50000D01*
G01*
X131577400Y-83390600D01*
G75*
G02*
X131627400Y-83340600I50000J0D01*
G01*
G37*
%TD*%
%TO.C,R13*%
G36*
G01*
X147240000Y-68100832D02*
X147240000Y-69059168D01*
G75*
G02*
X146969168Y-69330000I-270832J0D01*
G01*
X146210832Y-69330000D01*
G75*
G02*
X145940000Y-69059168I0J270832D01*
G01*
X145940000Y-68100832D01*
G75*
G02*
X146210832Y-67830000I270832J0D01*
G01*
X146969168Y-67830000D01*
G75*
G02*
X147240000Y-68100832I0J-270832D01*
G01*
G37*
G36*
G01*
X149240000Y-68100832D02*
X149240000Y-69059168D01*
G75*
G02*
X148969168Y-69330000I-270832J0D01*
G01*
X148210832Y-69330000D01*
G75*
G02*
X147940000Y-69059168I0J270832D01*
G01*
X147940000Y-68100832D01*
G75*
G02*
X148210832Y-67830000I270832J0D01*
G01*
X148969168Y-67830000D01*
G75*
G02*
X149240000Y-68100832I0J-270832D01*
G01*
G37*
%TD*%
%TO.C,R12*%
G36*
G01*
X128636000Y-113737768D02*
X128636000Y-112779432D01*
G75*
G02*
X128906832Y-112508600I270832J0D01*
G01*
X129665168Y-112508600D01*
G75*
G02*
X129936000Y-112779432I0J-270832D01*
G01*
X129936000Y-113737768D01*
G75*
G02*
X129665168Y-114008600I-270832J0D01*
G01*
X128906832Y-114008600D01*
G75*
G02*
X128636000Y-113737768I0J270832D01*
G01*
G37*
G36*
G01*
X126636000Y-113737768D02*
X126636000Y-112779432D01*
G75*
G02*
X126906832Y-112508600I270832J0D01*
G01*
X127665168Y-112508600D01*
G75*
G02*
X127936000Y-112779432I0J-270832D01*
G01*
X127936000Y-113737768D01*
G75*
G02*
X127665168Y-114008600I-270832J0D01*
G01*
X126906832Y-114008600D01*
G75*
G02*
X126636000Y-113737768I0J270832D01*
G01*
G37*
%TD*%
%TO.C,R11*%
G36*
G01*
X120113168Y-110013000D02*
X119154832Y-110013000D01*
G75*
G02*
X118884000Y-109742168I0J270832D01*
G01*
X118884000Y-108983832D01*
G75*
G02*
X119154832Y-108713000I270832J0D01*
G01*
X120113168Y-108713000D01*
G75*
G02*
X120384000Y-108983832I0J-270832D01*
G01*
X120384000Y-109742168D01*
G75*
G02*
X120113168Y-110013000I-270832J0D01*
G01*
G37*
G36*
G01*
X120113168Y-112013000D02*
X119154832Y-112013000D01*
G75*
G02*
X118884000Y-111742168I0J270832D01*
G01*
X118884000Y-110983832D01*
G75*
G02*
X119154832Y-110713000I270832J0D01*
G01*
X120113168Y-110713000D01*
G75*
G02*
X120384000Y-110983832I0J-270832D01*
G01*
X120384000Y-111742168D01*
G75*
G02*
X120113168Y-112013000I-270832J0D01*
G01*
G37*
%TD*%
%TO.C,R10*%
G36*
G01*
X106715800Y-102739568D02*
X106715800Y-101781232D01*
G75*
G02*
X106986632Y-101510400I270832J0D01*
G01*
X107744968Y-101510400D01*
G75*
G02*
X108015800Y-101781232I0J-270832D01*
G01*
X108015800Y-102739568D01*
G75*
G02*
X107744968Y-103010400I-270832J0D01*
G01*
X106986632Y-103010400D01*
G75*
G02*
X106715800Y-102739568I0J270832D01*
G01*
G37*
G36*
G01*
X104715800Y-102739568D02*
X104715800Y-101781232D01*
G75*
G02*
X104986632Y-101510400I270832J0D01*
G01*
X105744968Y-101510400D01*
G75*
G02*
X106015800Y-101781232I0J-270832D01*
G01*
X106015800Y-102739568D01*
G75*
G02*
X105744968Y-103010400I-270832J0D01*
G01*
X104986632Y-103010400D01*
G75*
G02*
X104715800Y-102739568I0J270832D01*
G01*
G37*
%TD*%
%TO.C,R9*%
G36*
G01*
X106801400Y-100148768D02*
X106801400Y-99190432D01*
G75*
G02*
X107072232Y-98919600I270832J0D01*
G01*
X107830568Y-98919600D01*
G75*
G02*
X108101400Y-99190432I0J-270832D01*
G01*
X108101400Y-100148768D01*
G75*
G02*
X107830568Y-100419600I-270832J0D01*
G01*
X107072232Y-100419600D01*
G75*
G02*
X106801400Y-100148768I0J270832D01*
G01*
G37*
G36*
G01*
X104801400Y-100148768D02*
X104801400Y-99190432D01*
G75*
G02*
X105072232Y-98919600I270832J0D01*
G01*
X105830568Y-98919600D01*
G75*
G02*
X106101400Y-99190432I0J-270832D01*
G01*
X106101400Y-100148768D01*
G75*
G02*
X105830568Y-100419600I-270832J0D01*
G01*
X105072232Y-100419600D01*
G75*
G02*
X104801400Y-100148768I0J270832D01*
G01*
G37*
%TD*%
%TO.C,R8*%
G36*
G01*
X113777000Y-89328368D02*
X113777000Y-88370032D01*
G75*
G02*
X114047832Y-88099200I270832J0D01*
G01*
X114806168Y-88099200D01*
G75*
G02*
X115077000Y-88370032I0J-270832D01*
G01*
X115077000Y-89328368D01*
G75*
G02*
X114806168Y-89599200I-270832J0D01*
G01*
X114047832Y-89599200D01*
G75*
G02*
X113777000Y-89328368I0J270832D01*
G01*
G37*
G36*
G01*
X111777000Y-89328368D02*
X111777000Y-88370032D01*
G75*
G02*
X112047832Y-88099200I270832J0D01*
G01*
X112806168Y-88099200D01*
G75*
G02*
X113077000Y-88370032I0J-270832D01*
G01*
X113077000Y-89328368D01*
G75*
G02*
X112806168Y-89599200I-270832J0D01*
G01*
X112047832Y-89599200D01*
G75*
G02*
X111777000Y-89328368I0J270832D01*
G01*
G37*
%TD*%
%TO.C,R7*%
G36*
G01*
X133371600Y-92510232D02*
X133371600Y-93468568D01*
G75*
G02*
X133100768Y-93739400I-270832J0D01*
G01*
X132342432Y-93739400D01*
G75*
G02*
X132071600Y-93468568I0J270832D01*
G01*
X132071600Y-92510232D01*
G75*
G02*
X132342432Y-92239400I270832J0D01*
G01*
X133100768Y-92239400D01*
G75*
G02*
X133371600Y-92510232I0J-270832D01*
G01*
G37*
G36*
G01*
X135371600Y-92510232D02*
X135371600Y-93468568D01*
G75*
G02*
X135100768Y-93739400I-270832J0D01*
G01*
X134342432Y-93739400D01*
G75*
G02*
X134071600Y-93468568I0J270832D01*
G01*
X134071600Y-92510232D01*
G75*
G02*
X134342432Y-92239400I270832J0D01*
G01*
X135100768Y-92239400D01*
G75*
G02*
X135371600Y-92510232I0J-270832D01*
G01*
G37*
%TD*%
%TO.C,R6*%
G36*
G01*
X133346200Y-90427432D02*
X133346200Y-91385768D01*
G75*
G02*
X133075368Y-91656600I-270832J0D01*
G01*
X132317032Y-91656600D01*
G75*
G02*
X132046200Y-91385768I0J270832D01*
G01*
X132046200Y-90427432D01*
G75*
G02*
X132317032Y-90156600I270832J0D01*
G01*
X133075368Y-90156600D01*
G75*
G02*
X133346200Y-90427432I0J-270832D01*
G01*
G37*
G36*
G01*
X135346200Y-90427432D02*
X135346200Y-91385768D01*
G75*
G02*
X135075368Y-91656600I-270832J0D01*
G01*
X134317032Y-91656600D01*
G75*
G02*
X134046200Y-91385768I0J270832D01*
G01*
X134046200Y-90427432D01*
G75*
G02*
X134317032Y-90156600I270832J0D01*
G01*
X135075368Y-90156600D01*
G75*
G02*
X135346200Y-90427432I0J-270832D01*
G01*
G37*
%TD*%
%TO.C,R5*%
G36*
G01*
X133346200Y-88268432D02*
X133346200Y-89226768D01*
G75*
G02*
X133075368Y-89497600I-270832J0D01*
G01*
X132317032Y-89497600D01*
G75*
G02*
X132046200Y-89226768I0J270832D01*
G01*
X132046200Y-88268432D01*
G75*
G02*
X132317032Y-87997600I270832J0D01*
G01*
X133075368Y-87997600D01*
G75*
G02*
X133346200Y-88268432I0J-270832D01*
G01*
G37*
G36*
G01*
X135346200Y-88268432D02*
X135346200Y-89226768D01*
G75*
G02*
X135075368Y-89497600I-270832J0D01*
G01*
X134317032Y-89497600D01*
G75*
G02*
X134046200Y-89226768I0J270832D01*
G01*
X134046200Y-88268432D01*
G75*
G02*
X134317032Y-87997600I270832J0D01*
G01*
X135075368Y-87997600D01*
G75*
G02*
X135346200Y-88268432I0J-270832D01*
G01*
G37*
%TD*%
%TO.C,R4*%
G36*
G01*
X174240568Y-76392800D02*
X173282232Y-76392800D01*
G75*
G02*
X173011400Y-76121968I0J270832D01*
G01*
X173011400Y-75363632D01*
G75*
G02*
X173282232Y-75092800I270832J0D01*
G01*
X174240568Y-75092800D01*
G75*
G02*
X174511400Y-75363632I0J-270832D01*
G01*
X174511400Y-76121968D01*
G75*
G02*
X174240568Y-76392800I-270832J0D01*
G01*
G37*
G36*
G01*
X174240568Y-78392800D02*
X173282232Y-78392800D01*
G75*
G02*
X173011400Y-78121968I0J270832D01*
G01*
X173011400Y-77363632D01*
G75*
G02*
X173282232Y-77092800I270832J0D01*
G01*
X174240568Y-77092800D01*
G75*
G02*
X174511400Y-77363632I0J-270832D01*
G01*
X174511400Y-78121968D01*
G75*
G02*
X174240568Y-78392800I-270832J0D01*
G01*
G37*
%TD*%
%TO.C,R3*%
G36*
G01*
X172157768Y-76367400D02*
X171199432Y-76367400D01*
G75*
G02*
X170928600Y-76096568I0J270832D01*
G01*
X170928600Y-75338232D01*
G75*
G02*
X171199432Y-75067400I270832J0D01*
G01*
X172157768Y-75067400D01*
G75*
G02*
X172428600Y-75338232I0J-270832D01*
G01*
X172428600Y-76096568D01*
G75*
G02*
X172157768Y-76367400I-270832J0D01*
G01*
G37*
G36*
G01*
X172157768Y-78367400D02*
X171199432Y-78367400D01*
G75*
G02*
X170928600Y-78096568I0J270832D01*
G01*
X170928600Y-77338232D01*
G75*
G02*
X171199432Y-77067400I270832J0D01*
G01*
X172157768Y-77067400D01*
G75*
G02*
X172428600Y-77338232I0J-270832D01*
G01*
X172428600Y-78096568D01*
G75*
G02*
X172157768Y-78367400I-270832J0D01*
G01*
G37*
%TD*%
%TO.C,R2*%
G36*
G01*
X170176568Y-76392800D02*
X169218232Y-76392800D01*
G75*
G02*
X168947400Y-76121968I0J270832D01*
G01*
X168947400Y-75363632D01*
G75*
G02*
X169218232Y-75092800I270832J0D01*
G01*
X170176568Y-75092800D01*
G75*
G02*
X170447400Y-75363632I0J-270832D01*
G01*
X170447400Y-76121968D01*
G75*
G02*
X170176568Y-76392800I-270832J0D01*
G01*
G37*
G36*
G01*
X170176568Y-78392800D02*
X169218232Y-78392800D01*
G75*
G02*
X168947400Y-78121968I0J270832D01*
G01*
X168947400Y-77363632D01*
G75*
G02*
X169218232Y-77092800I270832J0D01*
G01*
X170176568Y-77092800D01*
G75*
G02*
X170447400Y-77363632I0J-270832D01*
G01*
X170447400Y-78121968D01*
G75*
G02*
X170176568Y-78392800I-270832J0D01*
G01*
G37*
%TD*%
%TO.C,R1*%
G36*
G01*
X168144568Y-76374000D02*
X167186232Y-76374000D01*
G75*
G02*
X166915400Y-76103168I0J270832D01*
G01*
X166915400Y-75344832D01*
G75*
G02*
X167186232Y-75074000I270832J0D01*
G01*
X168144568Y-75074000D01*
G75*
G02*
X168415400Y-75344832I0J-270832D01*
G01*
X168415400Y-76103168D01*
G75*
G02*
X168144568Y-76374000I-270832J0D01*
G01*
G37*
G36*
G01*
X168144568Y-78374000D02*
X167186232Y-78374000D01*
G75*
G02*
X166915400Y-78103168I0J270832D01*
G01*
X166915400Y-77344832D01*
G75*
G02*
X167186232Y-77074000I270832J0D01*
G01*
X168144568Y-77074000D01*
G75*
G02*
X168415400Y-77344832I0J-270832D01*
G01*
X168415400Y-78103168D01*
G75*
G02*
X168144568Y-78374000I-270832J0D01*
G01*
G37*
%TD*%
%TO.C,L1*%
G36*
G01*
X169958676Y-102055040D02*
X170635040Y-101378676D01*
G75*
G02*
X171019336Y-101378676I192148J-192148D01*
G01*
X171518924Y-101878264D01*
G75*
G02*
X171518924Y-102262560I-192148J-192148D01*
G01*
X170842560Y-102938924D01*
G75*
G02*
X170458264Y-102938924I-192148J192148D01*
G01*
X169958676Y-102439336D01*
G75*
G02*
X169958676Y-102055040I192148J192148D01*
G01*
G37*
G36*
G01*
X168509108Y-100605472D02*
X169185472Y-99929108D01*
G75*
G02*
X169569768Y-99929108I192148J-192148D01*
G01*
X170069356Y-100428696D01*
G75*
G02*
X170069356Y-100812992I-192148J-192148D01*
G01*
X169392992Y-101489356D01*
G75*
G02*
X169008696Y-101489356I-192148J192148D01*
G01*
X168509108Y-100989768D01*
G75*
G02*
X168509108Y-100605472I192148J192148D01*
G01*
G37*
%TD*%
%TO.C,J9*%
G36*
G01*
X174634396Y-104870552D02*
X175376859Y-104128089D01*
G75*
G02*
X175447569Y-104128089I35355J-35355D01*
G01*
X177003204Y-105683724D01*
G75*
G02*
X177003204Y-105754434I-35355J-35355D01*
G01*
X176260741Y-106496897D01*
G75*
G02*
X176190031Y-106496897I-35355J35355D01*
G01*
X174634396Y-104941262D01*
G75*
G02*
X174634396Y-104870552I35355J35355D01*
G01*
G37*
G36*
G01*
X172937341Y-105224105D02*
X173644447Y-104516999D01*
G75*
G02*
X173715157Y-104516999I35355J-35355D01*
G01*
X174457619Y-105259461D01*
G75*
G02*
X174457619Y-105330171I-35355J-35355D01*
G01*
X173750513Y-106037277D01*
G75*
G02*
X173679803Y-106037277I-35355J35355D01*
G01*
X172937341Y-105294815D01*
G75*
G02*
X172937341Y-105224105I35355J35355D01*
G01*
G37*
G36*
G01*
X172548431Y-106956517D02*
X173290894Y-106214054D01*
G75*
G02*
X173361604Y-106214054I35355J-35355D01*
G01*
X174917239Y-107769689D01*
G75*
G02*
X174917239Y-107840399I-35355J-35355D01*
G01*
X174174776Y-108582862D01*
G75*
G02*
X174104066Y-108582862I-35355J35355D01*
G01*
X172548431Y-107027227D01*
G75*
G02*
X172548431Y-106956517I35355J35355D01*
G01*
G37*
%TD*%
%TO.C,J8*%
X184556400Y-81838800D03*
X182016400Y-81838800D03*
X179476400Y-81838800D03*
G36*
G01*
X177786400Y-82738800D02*
X176086400Y-82738800D01*
G75*
G02*
X176036400Y-82688800I0J50000D01*
G01*
X176036400Y-80988800D01*
G75*
G02*
X176086400Y-80938800I50000J0D01*
G01*
X177786400Y-80938800D01*
G75*
G02*
X177836400Y-80988800I0J-50000D01*
G01*
X177836400Y-82688800D01*
G75*
G02*
X177786400Y-82738800I-50000J0D01*
G01*
G37*
%TD*%
%TO.C,J7*%
X100990400Y-107111800D03*
X100990400Y-104571800D03*
X100990400Y-102031800D03*
X100990400Y-99491800D03*
X100990400Y-96951800D03*
G36*
G01*
X100090400Y-95261800D02*
X100090400Y-93561800D01*
G75*
G02*
X100140400Y-93511800I50000J0D01*
G01*
X101840400Y-93511800D01*
G75*
G02*
X101890400Y-93561800I0J-50000D01*
G01*
X101890400Y-95261800D01*
G75*
G02*
X101840400Y-95311800I-50000J0D01*
G01*
X100140400Y-95311800D01*
G75*
G02*
X100090400Y-95261800I0J50000D01*
G01*
G37*
%TD*%
%TO.C,J6*%
X178890000Y-116810000D03*
X176350000Y-116810000D03*
X173810000Y-116810000D03*
X171270000Y-116810000D03*
G36*
G01*
X169580000Y-117710000D02*
X167880000Y-117710000D01*
G75*
G02*
X167830000Y-117660000I0J50000D01*
G01*
X167830000Y-115960000D01*
G75*
G02*
X167880000Y-115910000I50000J0D01*
G01*
X169580000Y-115910000D01*
G75*
G02*
X169630000Y-115960000I0J-50000D01*
G01*
X169630000Y-117660000D01*
G75*
G02*
X169580000Y-117710000I-50000J0D01*
G01*
G37*
%TD*%
D11*
%TO.C,D1*%
G36*
X127402962Y-85770000D02*
G01*
X123677038Y-85770000D01*
X124700294Y-81370000D01*
X126379706Y-81370000D01*
X127402962Y-85770000D01*
G37*
G36*
X123677038Y-74970000D02*
G01*
X127402962Y-74970000D01*
X126379706Y-79370000D01*
X124700294Y-79370000D01*
X123677038Y-74970000D01*
G37*
%TD*%
%TO.C,C29*%
G36*
G01*
X175413452Y-99161721D02*
X174701079Y-98449348D01*
G75*
G02*
X174701079Y-98065706I191821J191821D01*
G01*
X175218998Y-97547787D01*
G75*
G02*
X175602640Y-97547787I191821J-191821D01*
G01*
X176315013Y-98260160D01*
G75*
G02*
X176315013Y-98643802I-191821J-191821D01*
G01*
X175797094Y-99161721D01*
G75*
G02*
X175413452Y-99161721I-191821J191821D01*
G01*
G37*
G36*
G01*
X173946206Y-100628967D02*
X173233833Y-99916594D01*
G75*
G02*
X173233833Y-99532952I191821J191821D01*
G01*
X173751752Y-99015033D01*
G75*
G02*
X174135394Y-99015033I191821J-191821D01*
G01*
X174847767Y-99727406D01*
G75*
G02*
X174847767Y-100111048I-191821J-191821D01*
G01*
X174329848Y-100628967D01*
G75*
G02*
X173946206Y-100628967I-191821J191821D01*
G01*
G37*
%TD*%
%TO.C,C28*%
G36*
G01*
X179252076Y-91916200D02*
X180259524Y-91916200D01*
G75*
G02*
X180530800Y-92187476I0J-271276D01*
G01*
X180530800Y-92919924D01*
G75*
G02*
X180259524Y-93191200I-271276J0D01*
G01*
X179252076Y-93191200D01*
G75*
G02*
X178980800Y-92919924I0J271276D01*
G01*
X178980800Y-92187476D01*
G75*
G02*
X179252076Y-91916200I271276J0D01*
G01*
G37*
G36*
G01*
X179252076Y-89841200D02*
X180259524Y-89841200D01*
G75*
G02*
X180530800Y-90112476I0J-271276D01*
G01*
X180530800Y-90844924D01*
G75*
G02*
X180259524Y-91116200I-271276J0D01*
G01*
X179252076Y-91116200D01*
G75*
G02*
X178980800Y-90844924I0J271276D01*
G01*
X178980800Y-90112476D01*
G75*
G02*
X179252076Y-89841200I271276J0D01*
G01*
G37*
%TD*%
%TO.C,C27*%
G36*
G01*
X173641406Y-97428567D02*
X172929033Y-96716194D01*
G75*
G02*
X172929033Y-96332552I191821J191821D01*
G01*
X173446952Y-95814633D01*
G75*
G02*
X173830594Y-95814633I191821J-191821D01*
G01*
X174542967Y-96527006D01*
G75*
G02*
X174542967Y-96910648I-191821J-191821D01*
G01*
X174025048Y-97428567D01*
G75*
G02*
X173641406Y-97428567I-191821J191821D01*
G01*
G37*
G36*
G01*
X172174160Y-98895813D02*
X171461787Y-98183440D01*
G75*
G02*
X171461787Y-97799798I191821J191821D01*
G01*
X171979706Y-97281879D01*
G75*
G02*
X172363348Y-97281879I191821J-191821D01*
G01*
X173075721Y-97994252D01*
G75*
G02*
X173075721Y-98377894I-191821J-191821D01*
G01*
X172557802Y-98895813D01*
G75*
G02*
X172174160Y-98895813I-191821J191821D01*
G01*
G37*
%TD*%
%TO.C,C26*%
G36*
G01*
X151869100Y-87126276D02*
X151869100Y-88133724D01*
G75*
G02*
X151597824Y-88405000I-271276J0D01*
G01*
X150865376Y-88405000D01*
G75*
G02*
X150594100Y-88133724I0J271276D01*
G01*
X150594100Y-87126276D01*
G75*
G02*
X150865376Y-86855000I271276J0D01*
G01*
X151597824Y-86855000D01*
G75*
G02*
X151869100Y-87126276I0J-271276D01*
G01*
G37*
G36*
G01*
X153944100Y-87126276D02*
X153944100Y-88133724D01*
G75*
G02*
X153672824Y-88405000I-271276J0D01*
G01*
X152940376Y-88405000D01*
G75*
G02*
X152669100Y-88133724I0J271276D01*
G01*
X152669100Y-87126276D01*
G75*
G02*
X152940376Y-86855000I271276J0D01*
G01*
X153672824Y-86855000D01*
G75*
G02*
X153944100Y-87126276I0J-271276D01*
G01*
G37*
%TD*%
%TO.C,C24*%
G36*
G01*
X117896500Y-89327524D02*
X117896500Y-88320076D01*
G75*
G02*
X118167776Y-88048800I271276J0D01*
G01*
X118900224Y-88048800D01*
G75*
G02*
X119171500Y-88320076I0J-271276D01*
G01*
X119171500Y-89327524D01*
G75*
G02*
X118900224Y-89598800I-271276J0D01*
G01*
X118167776Y-89598800D01*
G75*
G02*
X117896500Y-89327524I0J271276D01*
G01*
G37*
G36*
G01*
X115821500Y-89327524D02*
X115821500Y-88320076D01*
G75*
G02*
X116092776Y-88048800I271276J0D01*
G01*
X116825224Y-88048800D01*
G75*
G02*
X117096500Y-88320076I0J-271276D01*
G01*
X117096500Y-89327524D01*
G75*
G02*
X116825224Y-89598800I-271276J0D01*
G01*
X116092776Y-89598800D01*
G75*
G02*
X115821500Y-89327524I0J271276D01*
G01*
G37*
%TD*%
%TO.C,C23*%
G36*
G01*
X109175600Y-88345476D02*
X109175600Y-89352924D01*
G75*
G02*
X108904324Y-89624200I-271276J0D01*
G01*
X108171876Y-89624200D01*
G75*
G02*
X107900600Y-89352924I0J271276D01*
G01*
X107900600Y-88345476D01*
G75*
G02*
X108171876Y-88074200I271276J0D01*
G01*
X108904324Y-88074200D01*
G75*
G02*
X109175600Y-88345476I0J-271276D01*
G01*
G37*
G36*
G01*
X111250600Y-88345476D02*
X111250600Y-89352924D01*
G75*
G02*
X110979324Y-89624200I-271276J0D01*
G01*
X110246876Y-89624200D01*
G75*
G02*
X109975600Y-89352924I0J271276D01*
G01*
X109975600Y-88345476D01*
G75*
G02*
X110246876Y-88074200I271276J0D01*
G01*
X110979324Y-88074200D01*
G75*
G02*
X111250600Y-88345476I0J-271276D01*
G01*
G37*
%TD*%
%TO.C,C21*%
G36*
G01*
X110841324Y-82763500D02*
X109833876Y-82763500D01*
G75*
G02*
X109562600Y-82492224I0J271276D01*
G01*
X109562600Y-81759776D01*
G75*
G02*
X109833876Y-81488500I271276J0D01*
G01*
X110841324Y-81488500D01*
G75*
G02*
X111112600Y-81759776I0J-271276D01*
G01*
X111112600Y-82492224D01*
G75*
G02*
X110841324Y-82763500I-271276J0D01*
G01*
G37*
G36*
G01*
X110841324Y-84838500D02*
X109833876Y-84838500D01*
G75*
G02*
X109562600Y-84567224I0J271276D01*
G01*
X109562600Y-83834776D01*
G75*
G02*
X109833876Y-83563500I271276J0D01*
G01*
X110841324Y-83563500D01*
G75*
G02*
X111112600Y-83834776I0J-271276D01*
G01*
X111112600Y-84567224D01*
G75*
G02*
X110841324Y-84838500I-271276J0D01*
G01*
G37*
%TD*%
%TO.C,C20*%
G36*
G01*
X127749300Y-106399800D02*
X126403100Y-106399800D01*
G75*
G02*
X126353100Y-106349800I0J50000D01*
G01*
X126353100Y-105486200D01*
G75*
G02*
X126403100Y-105436200I50000J0D01*
G01*
X127749300Y-105436200D01*
G75*
G02*
X127799300Y-105486200I0J-50000D01*
G01*
X127799300Y-106349800D01*
G75*
G02*
X127749300Y-106399800I-50000J0D01*
G01*
G37*
G36*
G01*
X127749300Y-104342400D02*
X126403100Y-104342400D01*
G75*
G02*
X126353100Y-104292400I0J50000D01*
G01*
X126353100Y-103428800D01*
G75*
G02*
X126403100Y-103378800I50000J0D01*
G01*
X127749300Y-103378800D01*
G75*
G02*
X127799300Y-103428800I0J-50000D01*
G01*
X127799300Y-104292400D01*
G75*
G02*
X127749300Y-104342400I-50000J0D01*
G01*
G37*
G36*
G01*
X126860300Y-105345700D02*
X126047500Y-105345700D01*
G75*
G02*
X125997500Y-105295700I0J50000D01*
G01*
X125997500Y-104482900D01*
G75*
G02*
X126047500Y-104432900I50000J0D01*
G01*
X126860300Y-104432900D01*
G75*
G02*
X126910300Y-104482900I0J-50000D01*
G01*
X126910300Y-105295700D01*
G75*
G02*
X126860300Y-105345700I-50000J0D01*
G01*
G37*
G36*
G01*
X128104900Y-105345700D02*
X127292100Y-105345700D01*
G75*
G02*
X127242100Y-105295700I0J50000D01*
G01*
X127242100Y-104482900D01*
G75*
G02*
X127292100Y-104432900I50000J0D01*
G01*
X128104900Y-104432900D01*
G75*
G02*
X128154900Y-104482900I0J-50000D01*
G01*
X128154900Y-105295700D01*
G75*
G02*
X128104900Y-105345700I-50000J0D01*
G01*
G37*
%TD*%
%TO.C,C18*%
G36*
G01*
X112819500Y-103535400D02*
X112819500Y-102189200D01*
G75*
G02*
X112869500Y-102139200I50000J0D01*
G01*
X113733100Y-102139200D01*
G75*
G02*
X113783100Y-102189200I0J-50000D01*
G01*
X113783100Y-103535400D01*
G75*
G02*
X113733100Y-103585400I-50000J0D01*
G01*
X112869500Y-103585400D01*
G75*
G02*
X112819500Y-103535400I0J50000D01*
G01*
G37*
G36*
G01*
X114876900Y-103535400D02*
X114876900Y-102189200D01*
G75*
G02*
X114926900Y-102139200I50000J0D01*
G01*
X115790500Y-102139200D01*
G75*
G02*
X115840500Y-102189200I0J-50000D01*
G01*
X115840500Y-103535400D01*
G75*
G02*
X115790500Y-103585400I-50000J0D01*
G01*
X114926900Y-103585400D01*
G75*
G02*
X114876900Y-103535400I0J50000D01*
G01*
G37*
G36*
G01*
X113873600Y-102646400D02*
X113873600Y-101833600D01*
G75*
G02*
X113923600Y-101783600I50000J0D01*
G01*
X114736400Y-101783600D01*
G75*
G02*
X114786400Y-101833600I0J-50000D01*
G01*
X114786400Y-102646400D01*
G75*
G02*
X114736400Y-102696400I-50000J0D01*
G01*
X113923600Y-102696400D01*
G75*
G02*
X113873600Y-102646400I0J50000D01*
G01*
G37*
G36*
G01*
X113873600Y-103891000D02*
X113873600Y-103078200D01*
G75*
G02*
X113923600Y-103028200I50000J0D01*
G01*
X114736400Y-103028200D01*
G75*
G02*
X114786400Y-103078200I0J-50000D01*
G01*
X114786400Y-103891000D01*
G75*
G02*
X114736400Y-103941000I-50000J0D01*
G01*
X113923600Y-103941000D01*
G75*
G02*
X113873600Y-103891000I0J50000D01*
G01*
G37*
%TD*%
%TO.C,C17*%
G36*
G01*
X115880500Y-99229200D02*
X115880500Y-100575400D01*
G75*
G02*
X115830500Y-100625400I-50000J0D01*
G01*
X114966900Y-100625400D01*
G75*
G02*
X114916900Y-100575400I0J50000D01*
G01*
X114916900Y-99229200D01*
G75*
G02*
X114966900Y-99179200I50000J0D01*
G01*
X115830500Y-99179200D01*
G75*
G02*
X115880500Y-99229200I0J-50000D01*
G01*
G37*
G36*
G01*
X113823100Y-99229200D02*
X113823100Y-100575400D01*
G75*
G02*
X113773100Y-100625400I-50000J0D01*
G01*
X112909500Y-100625400D01*
G75*
G02*
X112859500Y-100575400I0J50000D01*
G01*
X112859500Y-99229200D01*
G75*
G02*
X112909500Y-99179200I50000J0D01*
G01*
X113773100Y-99179200D01*
G75*
G02*
X113823100Y-99229200I0J-50000D01*
G01*
G37*
G36*
G01*
X114826400Y-100118200D02*
X114826400Y-100931000D01*
G75*
G02*
X114776400Y-100981000I-50000J0D01*
G01*
X113963600Y-100981000D01*
G75*
G02*
X113913600Y-100931000I0J50000D01*
G01*
X113913600Y-100118200D01*
G75*
G02*
X113963600Y-100068200I50000J0D01*
G01*
X114776400Y-100068200D01*
G75*
G02*
X114826400Y-100118200I0J-50000D01*
G01*
G37*
G36*
G01*
X114826400Y-98873600D02*
X114826400Y-99686400D01*
G75*
G02*
X114776400Y-99736400I-50000J0D01*
G01*
X113963600Y-99736400D01*
G75*
G02*
X113913600Y-99686400I0J50000D01*
G01*
X113913600Y-98873600D01*
G75*
G02*
X113963600Y-98823600I50000J0D01*
G01*
X114776400Y-98823600D01*
G75*
G02*
X114826400Y-98873600I0J-50000D01*
G01*
G37*
%TD*%
%TO.C,C16*%
G36*
G01*
X127929500Y-102408524D02*
X127929500Y-101401076D01*
G75*
G02*
X128200776Y-101129800I271276J0D01*
G01*
X128933224Y-101129800D01*
G75*
G02*
X129204500Y-101401076I0J-271276D01*
G01*
X129204500Y-102408524D01*
G75*
G02*
X128933224Y-102679800I-271276J0D01*
G01*
X128200776Y-102679800D01*
G75*
G02*
X127929500Y-102408524I0J271276D01*
G01*
G37*
G36*
G01*
X125854500Y-102408524D02*
X125854500Y-101401076D01*
G75*
G02*
X126125776Y-101129800I271276J0D01*
G01*
X126858224Y-101129800D01*
G75*
G02*
X127129500Y-101401076I0J-271276D01*
G01*
X127129500Y-102408524D01*
G75*
G02*
X126858224Y-102679800I-271276J0D01*
G01*
X126125776Y-102679800D01*
G75*
G02*
X125854500Y-102408524I0J271276D01*
G01*
G37*
%TD*%
%TO.C,C15*%
G36*
G01*
X123662300Y-102408524D02*
X123662300Y-101401076D01*
G75*
G02*
X123933576Y-101129800I271276J0D01*
G01*
X124666024Y-101129800D01*
G75*
G02*
X124937300Y-101401076I0J-271276D01*
G01*
X124937300Y-102408524D01*
G75*
G02*
X124666024Y-102679800I-271276J0D01*
G01*
X123933576Y-102679800D01*
G75*
G02*
X123662300Y-102408524I0J271276D01*
G01*
G37*
G36*
G01*
X121587300Y-102408524D02*
X121587300Y-101401076D01*
G75*
G02*
X121858576Y-101129800I271276J0D01*
G01*
X122591024Y-101129800D01*
G75*
G02*
X122862300Y-101401076I0J-271276D01*
G01*
X122862300Y-102408524D01*
G75*
G02*
X122591024Y-102679800I-271276J0D01*
G01*
X121858576Y-102679800D01*
G75*
G02*
X121587300Y-102408524I0J271276D01*
G01*
G37*
%TD*%
%TO.C,C14*%
G36*
G01*
X115130000Y-76106276D02*
X115130000Y-77113724D01*
G75*
G02*
X114858724Y-77385000I-271276J0D01*
G01*
X114126276Y-77385000D01*
G75*
G02*
X113855000Y-77113724I0J271276D01*
G01*
X113855000Y-76106276D01*
G75*
G02*
X114126276Y-75835000I271276J0D01*
G01*
X114858724Y-75835000D01*
G75*
G02*
X115130000Y-76106276I0J-271276D01*
G01*
G37*
G36*
G01*
X117205000Y-76106276D02*
X117205000Y-77113724D01*
G75*
G02*
X116933724Y-77385000I-271276J0D01*
G01*
X116201276Y-77385000D01*
G75*
G02*
X115930000Y-77113724I0J271276D01*
G01*
X115930000Y-76106276D01*
G75*
G02*
X116201276Y-75835000I271276J0D01*
G01*
X116933724Y-75835000D01*
G75*
G02*
X117205000Y-76106276I0J-271276D01*
G01*
G37*
%TD*%
%TO.C,C13*%
G36*
G01*
X113826276Y-106717500D02*
X114833724Y-106717500D01*
G75*
G02*
X115105000Y-106988776I0J-271276D01*
G01*
X115105000Y-107721224D01*
G75*
G02*
X114833724Y-107992500I-271276J0D01*
G01*
X113826276Y-107992500D01*
G75*
G02*
X113555000Y-107721224I0J271276D01*
G01*
X113555000Y-106988776D01*
G75*
G02*
X113826276Y-106717500I271276J0D01*
G01*
G37*
G36*
G01*
X113826276Y-104642500D02*
X114833724Y-104642500D01*
G75*
G02*
X115105000Y-104913776I0J-271276D01*
G01*
X115105000Y-105646224D01*
G75*
G02*
X114833724Y-105917500I-271276J0D01*
G01*
X113826276Y-105917500D01*
G75*
G02*
X113555000Y-105646224I0J271276D01*
G01*
X113555000Y-104913776D01*
G75*
G02*
X113826276Y-104642500I271276J0D01*
G01*
G37*
%TD*%
%TO.C,C12*%
G36*
G01*
X113886276Y-96912500D02*
X114893724Y-96912500D01*
G75*
G02*
X115165000Y-97183776I0J-271276D01*
G01*
X115165000Y-97916224D01*
G75*
G02*
X114893724Y-98187500I-271276J0D01*
G01*
X113886276Y-98187500D01*
G75*
G02*
X113615000Y-97916224I0J271276D01*
G01*
X113615000Y-97183776D01*
G75*
G02*
X113886276Y-96912500I271276J0D01*
G01*
G37*
G36*
G01*
X113886276Y-94837500D02*
X114893724Y-94837500D01*
G75*
G02*
X115165000Y-95108776I0J-271276D01*
G01*
X115165000Y-95841224D01*
G75*
G02*
X114893724Y-96112500I-271276J0D01*
G01*
X113886276Y-96112500D01*
G75*
G02*
X113615000Y-95841224I0J271276D01*
G01*
X113615000Y-95108776D01*
G75*
G02*
X113886276Y-94837500I271276J0D01*
G01*
G37*
%TD*%
%TO.C,C11*%
G36*
G01*
X144708076Y-84499400D02*
X145715524Y-84499400D01*
G75*
G02*
X145986800Y-84770676I0J-271276D01*
G01*
X145986800Y-85503124D01*
G75*
G02*
X145715524Y-85774400I-271276J0D01*
G01*
X144708076Y-85774400D01*
G75*
G02*
X144436800Y-85503124I0J271276D01*
G01*
X144436800Y-84770676D01*
G75*
G02*
X144708076Y-84499400I271276J0D01*
G01*
G37*
G36*
G01*
X144708076Y-82424400D02*
X145715524Y-82424400D01*
G75*
G02*
X145986800Y-82695676I0J-271276D01*
G01*
X145986800Y-83428124D01*
G75*
G02*
X145715524Y-83699400I-271276J0D01*
G01*
X144708076Y-83699400D01*
G75*
G02*
X144436800Y-83428124I0J271276D01*
G01*
X144436800Y-82695676D01*
G75*
G02*
X144708076Y-82424400I271276J0D01*
G01*
G37*
%TD*%
%TO.C,C10*%
G36*
G01*
X141179600Y-82681276D02*
X141179600Y-83688724D01*
G75*
G02*
X140908324Y-83960000I-271276J0D01*
G01*
X140175876Y-83960000D01*
G75*
G02*
X139904600Y-83688724I0J271276D01*
G01*
X139904600Y-82681276D01*
G75*
G02*
X140175876Y-82410000I271276J0D01*
G01*
X140908324Y-82410000D01*
G75*
G02*
X141179600Y-82681276I0J-271276D01*
G01*
G37*
G36*
G01*
X143254600Y-82681276D02*
X143254600Y-83688724D01*
G75*
G02*
X142983324Y-83960000I-271276J0D01*
G01*
X142250876Y-83960000D01*
G75*
G02*
X141979600Y-83688724I0J271276D01*
G01*
X141979600Y-82681276D01*
G75*
G02*
X142250876Y-82410000I271276J0D01*
G01*
X142983324Y-82410000D01*
G75*
G02*
X143254600Y-82681276I0J-271276D01*
G01*
G37*
%TD*%
%TO.C,C9*%
G36*
G01*
X144708076Y-76476900D02*
X145715524Y-76476900D01*
G75*
G02*
X145986800Y-76748176I0J-271276D01*
G01*
X145986800Y-77480624D01*
G75*
G02*
X145715524Y-77751900I-271276J0D01*
G01*
X144708076Y-77751900D01*
G75*
G02*
X144436800Y-77480624I0J271276D01*
G01*
X144436800Y-76748176D01*
G75*
G02*
X144708076Y-76476900I271276J0D01*
G01*
G37*
G36*
G01*
X144708076Y-74401900D02*
X145715524Y-74401900D01*
G75*
G02*
X145986800Y-74673176I0J-271276D01*
G01*
X145986800Y-75405624D01*
G75*
G02*
X145715524Y-75676900I-271276J0D01*
G01*
X144708076Y-75676900D01*
G75*
G02*
X144436800Y-75405624I0J271276D01*
G01*
X144436800Y-74673176D01*
G75*
G02*
X144708076Y-74401900I271276J0D01*
G01*
G37*
%TD*%
%TO.C,C8*%
G36*
G01*
X145715524Y-79707700D02*
X144708076Y-79707700D01*
G75*
G02*
X144436800Y-79436424I0J271276D01*
G01*
X144436800Y-78703976D01*
G75*
G02*
X144708076Y-78432700I271276J0D01*
G01*
X145715524Y-78432700D01*
G75*
G02*
X145986800Y-78703976I0J-271276D01*
G01*
X145986800Y-79436424D01*
G75*
G02*
X145715524Y-79707700I-271276J0D01*
G01*
G37*
G36*
G01*
X145715524Y-81782700D02*
X144708076Y-81782700D01*
G75*
G02*
X144436800Y-81511424I0J271276D01*
G01*
X144436800Y-80778976D01*
G75*
G02*
X144708076Y-80507700I271276J0D01*
G01*
X145715524Y-80507700D01*
G75*
G02*
X145986800Y-80778976I0J-271276D01*
G01*
X145986800Y-81511424D01*
G75*
G02*
X145715524Y-81782700I-271276J0D01*
G01*
G37*
%TD*%
%TO.C,C6*%
G36*
G01*
X170542000Y-68228676D02*
X170542000Y-69236124D01*
G75*
G02*
X170270724Y-69507400I-271276J0D01*
G01*
X169538276Y-69507400D01*
G75*
G02*
X169267000Y-69236124I0J271276D01*
G01*
X169267000Y-68228676D01*
G75*
G02*
X169538276Y-67957400I271276J0D01*
G01*
X170270724Y-67957400D01*
G75*
G02*
X170542000Y-68228676I0J-271276D01*
G01*
G37*
G36*
G01*
X172617000Y-68228676D02*
X172617000Y-69236124D01*
G75*
G02*
X172345724Y-69507400I-271276J0D01*
G01*
X171613276Y-69507400D01*
G75*
G02*
X171342000Y-69236124I0J271276D01*
G01*
X171342000Y-68228676D01*
G75*
G02*
X171613276Y-67957400I271276J0D01*
G01*
X172345724Y-67957400D01*
G75*
G02*
X172617000Y-68228676I0J-271276D01*
G01*
G37*
%TD*%
%TO.C,C5*%
G36*
G01*
X136530500Y-75538883D02*
X136530500Y-74625917D01*
G75*
G02*
X136799017Y-74357400I268517J0D01*
G01*
X137936983Y-74357400D01*
G75*
G02*
X138205500Y-74625917I0J-268517D01*
G01*
X138205500Y-75538883D01*
G75*
G02*
X137936983Y-75807400I-268517J0D01*
G01*
X136799017Y-75807400D01*
G75*
G02*
X136530500Y-75538883I0J268517D01*
G01*
G37*
G36*
G01*
X133655500Y-75538883D02*
X133655500Y-74625917D01*
G75*
G02*
X133924017Y-74357400I268517J0D01*
G01*
X135061983Y-74357400D01*
G75*
G02*
X135330500Y-74625917I0J-268517D01*
G01*
X135330500Y-75538883D01*
G75*
G02*
X135061983Y-75807400I-268517J0D01*
G01*
X133924017Y-75807400D01*
G75*
G02*
X133655500Y-75538883I0J268517D01*
G01*
G37*
%TD*%
%TO.C,C4*%
G36*
G01*
X175841700Y-69185324D02*
X175841700Y-68177876D01*
G75*
G02*
X176112976Y-67906600I271276J0D01*
G01*
X176845424Y-67906600D01*
G75*
G02*
X177116700Y-68177876I0J-271276D01*
G01*
X177116700Y-69185324D01*
G75*
G02*
X176845424Y-69456600I-271276J0D01*
G01*
X176112976Y-69456600D01*
G75*
G02*
X175841700Y-69185324I0J271276D01*
G01*
G37*
G36*
G01*
X173766700Y-69185324D02*
X173766700Y-68177876D01*
G75*
G02*
X174037976Y-67906600I271276J0D01*
G01*
X174770424Y-67906600D01*
G75*
G02*
X175041700Y-68177876I0J-271276D01*
G01*
X175041700Y-69185324D01*
G75*
G02*
X174770424Y-69456600I-271276J0D01*
G01*
X174037976Y-69456600D01*
G75*
G02*
X173766700Y-69185324I0J271276D01*
G01*
G37*
%TD*%
%TO.C,C3*%
G36*
G01*
X134084100Y-95550524D02*
X134084100Y-94543076D01*
G75*
G02*
X134355376Y-94271800I271276J0D01*
G01*
X135087824Y-94271800D01*
G75*
G02*
X135359100Y-94543076I0J-271276D01*
G01*
X135359100Y-95550524D01*
G75*
G02*
X135087824Y-95821800I-271276J0D01*
G01*
X134355376Y-95821800D01*
G75*
G02*
X134084100Y-95550524I0J271276D01*
G01*
G37*
G36*
G01*
X132009100Y-95550524D02*
X132009100Y-94543076D01*
G75*
G02*
X132280376Y-94271800I271276J0D01*
G01*
X133012824Y-94271800D01*
G75*
G02*
X133284100Y-94543076I0J-271276D01*
G01*
X133284100Y-95550524D01*
G75*
G02*
X133012824Y-95821800I-271276J0D01*
G01*
X132280376Y-95821800D01*
G75*
G02*
X132009100Y-95550524I0J271276D01*
G01*
G37*
%TD*%
%TO.C,C2*%
G36*
G01*
X117842464Y-95655100D02*
X120104736Y-95655100D01*
G75*
G02*
X120373600Y-95923964I0J-268864D01*
G01*
X120373600Y-96811236D01*
G75*
G02*
X120104736Y-97080100I-268864J0D01*
G01*
X117842464Y-97080100D01*
G75*
G02*
X117573600Y-96811236I0J268864D01*
G01*
X117573600Y-95923964D01*
G75*
G02*
X117842464Y-95655100I268864J0D01*
G01*
G37*
G36*
G01*
X117842464Y-92530100D02*
X120104736Y-92530100D01*
G75*
G02*
X120373600Y-92798964I0J-268864D01*
G01*
X120373600Y-93686236D01*
G75*
G02*
X120104736Y-93955100I-268864J0D01*
G01*
X117842464Y-93955100D01*
G75*
G02*
X117573600Y-93686236I0J268864D01*
G01*
X117573600Y-92798964D01*
G75*
G02*
X117842464Y-92530100I268864J0D01*
G01*
G37*
%TD*%
%TO.C,C1*%
G36*
G01*
X132479534Y-72733400D02*
X130562866Y-72733400D01*
G75*
G02*
X130296200Y-72466734I0J266666D01*
G01*
X130296200Y-71400066D01*
G75*
G02*
X130562866Y-71133400I266666J0D01*
G01*
X132479534Y-71133400D01*
G75*
G02*
X132746200Y-71400066I0J-266666D01*
G01*
X132746200Y-72466734D01*
G75*
G02*
X132479534Y-72733400I-266666J0D01*
G01*
G37*
G36*
G01*
X132479534Y-75983400D02*
X130562866Y-75983400D01*
G75*
G02*
X130296200Y-75716734I0J266666D01*
G01*
X130296200Y-74650066D01*
G75*
G02*
X130562866Y-74383400I266666J0D01*
G01*
X132479534Y-74383400D01*
G75*
G02*
X132746200Y-74650066I0J-266666D01*
G01*
X132746200Y-75716734D01*
G75*
G02*
X132479534Y-75983400I-266666J0D01*
G01*
G37*
%TD*%
D10*
%TO.C,J10*%
X143200000Y-116750000D03*
X145740000Y-116750000D03*
X148280000Y-116750000D03*
X150820000Y-116750000D03*
G36*
G01*
X152510000Y-115850000D02*
X154210000Y-115850000D01*
G75*
G02*
X154260000Y-115900000I0J-50000D01*
G01*
X154260000Y-117600000D01*
G75*
G02*
X154210000Y-117650000I-50000J0D01*
G01*
X152510000Y-117650000D01*
G75*
G02*
X152460000Y-117600000I0J50000D01*
G01*
X152460000Y-115900000D01*
G75*
G02*
X152510000Y-115850000I50000J0D01*
G01*
G37*
%TD*%
%TO.C,J5*%
X144983200Y-101117400D03*
X144983200Y-98577400D03*
X144983200Y-96037400D03*
X144983200Y-93497400D03*
X144983200Y-90957400D03*
G36*
G01*
X144083200Y-89267400D02*
X144083200Y-87567400D01*
G75*
G02*
X144133200Y-87517400I50000J0D01*
G01*
X145833200Y-87517400D01*
G75*
G02*
X145883200Y-87567400I0J-50000D01*
G01*
X145883200Y-89267400D01*
G75*
G02*
X145833200Y-89317400I-50000J0D01*
G01*
X144133200Y-89317400D01*
G75*
G02*
X144083200Y-89267400I0J50000D01*
G01*
G37*
%TD*%
%TO.C,J4*%
X155570000Y-109220000D03*
X153030000Y-109220000D03*
G36*
G01*
X151340000Y-110120000D02*
X149640000Y-110120000D01*
G75*
G02*
X149590000Y-110070000I0J50000D01*
G01*
X149590000Y-108370000D01*
G75*
G02*
X149640000Y-108320000I50000J0D01*
G01*
X151340000Y-108320000D01*
G75*
G02*
X151390000Y-108370000I0J-50000D01*
G01*
X151390000Y-110070000D01*
G75*
G02*
X151340000Y-110120000I-50000J0D01*
G01*
G37*
%TD*%
D12*
%TO.C,U3*%
X122753001Y-90354198D03*
X122753001Y-91004200D03*
X122753001Y-91654198D03*
X122753001Y-92304199D03*
X122753001Y-92954198D03*
X122753001Y-93604199D03*
X122753001Y-94254198D03*
X122753001Y-94904199D03*
X122753001Y-95554198D03*
X122753001Y-96204199D03*
X122753001Y-96854198D03*
X122753001Y-97504199D03*
X128452999Y-97504199D03*
X128452999Y-96854198D03*
X128452999Y-96204199D03*
X128452999Y-95554198D03*
X128452999Y-94904199D03*
X128452999Y-94254198D03*
X128452999Y-93604199D03*
X128452999Y-92954198D03*
X128452999Y-92304199D03*
X128452999Y-91654198D03*
X128452999Y-91004200D03*
X128452999Y-90354198D03*
%TD*%
%TO.C,U6*%
G36*
G01*
X154712800Y-95577000D02*
X152412800Y-95577000D01*
G75*
G02*
X152362800Y-95527000I0J50000D01*
G01*
X152362800Y-94527000D01*
G75*
G02*
X152412800Y-94477000I50000J0D01*
G01*
X154712800Y-94477000D01*
G75*
G02*
X154762800Y-94527000I0J-50000D01*
G01*
X154762800Y-95527000D01*
G75*
G02*
X154712800Y-95577000I-50000J0D01*
G01*
G37*
G36*
G01*
X154712800Y-94327000D02*
X152412800Y-94327000D01*
G75*
G02*
X152362800Y-94277000I0J50000D01*
G01*
X152362800Y-93277000D01*
G75*
G02*
X152412800Y-93227000I50000J0D01*
G01*
X154712800Y-93227000D01*
G75*
G02*
X154762800Y-93277000I0J-50000D01*
G01*
X154762800Y-94277000D01*
G75*
G02*
X154712800Y-94327000I-50000J0D01*
G01*
G37*
G36*
G01*
X154712800Y-93077000D02*
X152412800Y-93077000D01*
G75*
G02*
X152362800Y-93027000I0J50000D01*
G01*
X152362800Y-92027000D01*
G75*
G02*
X152412800Y-91977000I50000J0D01*
G01*
X154712800Y-91977000D01*
G75*
G02*
X154762800Y-92027000I0J-50000D01*
G01*
X154762800Y-93027000D01*
G75*
G02*
X154712800Y-93077000I-50000J0D01*
G01*
G37*
G36*
G01*
X154712800Y-91827000D02*
X152412800Y-91827000D01*
G75*
G02*
X152362800Y-91777000I0J50000D01*
G01*
X152362800Y-90777000D01*
G75*
G02*
X152412800Y-90727000I50000J0D01*
G01*
X154712800Y-90727000D01*
G75*
G02*
X154762800Y-90777000I0J-50000D01*
G01*
X154762800Y-91777000D01*
G75*
G02*
X154712800Y-91827000I-50000J0D01*
G01*
G37*
G36*
G01*
X154712800Y-96827000D02*
X152412800Y-96827000D01*
G75*
G02*
X152362800Y-96777000I0J50000D01*
G01*
X152362800Y-95777000D01*
G75*
G02*
X152412800Y-95727000I50000J0D01*
G01*
X154712800Y-95727000D01*
G75*
G02*
X154762800Y-95777000I0J-50000D01*
G01*
X154762800Y-96777000D01*
G75*
G02*
X154712800Y-96827000I-50000J0D01*
G01*
G37*
G36*
G01*
X154712800Y-98077000D02*
X152412800Y-98077000D01*
G75*
G02*
X152362800Y-98027000I0J50000D01*
G01*
X152362800Y-97027000D01*
G75*
G02*
X152412800Y-96977000I50000J0D01*
G01*
X154712800Y-96977000D01*
G75*
G02*
X154762800Y-97027000I0J-50000D01*
G01*
X154762800Y-98027000D01*
G75*
G02*
X154712800Y-98077000I-50000J0D01*
G01*
G37*
G36*
G01*
X154712800Y-99327000D02*
X152412800Y-99327000D01*
G75*
G02*
X152362800Y-99277000I0J50000D01*
G01*
X152362800Y-98277000D01*
G75*
G02*
X152412800Y-98227000I50000J0D01*
G01*
X154712800Y-98227000D01*
G75*
G02*
X154762800Y-98277000I0J-50000D01*
G01*
X154762800Y-99277000D01*
G75*
G02*
X154712800Y-99327000I-50000J0D01*
G01*
G37*
G36*
G01*
X160112800Y-99877000D02*
X160112800Y-102177000D01*
G75*
G02*
X160062800Y-102227000I-50000J0D01*
G01*
X159062800Y-102227000D01*
G75*
G02*
X159012800Y-102177000I0J50000D01*
G01*
X159012800Y-99877000D01*
G75*
G02*
X159062800Y-99827000I50000J0D01*
G01*
X160062800Y-99827000D01*
G75*
G02*
X160112800Y-99877000I0J-50000D01*
G01*
G37*
G36*
G01*
X158862800Y-99877000D02*
X158862800Y-102177000D01*
G75*
G02*
X158812800Y-102227000I-50000J0D01*
G01*
X157812800Y-102227000D01*
G75*
G02*
X157762800Y-102177000I0J50000D01*
G01*
X157762800Y-99877000D01*
G75*
G02*
X157812800Y-99827000I50000J0D01*
G01*
X158812800Y-99827000D01*
G75*
G02*
X158862800Y-99877000I0J-50000D01*
G01*
G37*
G36*
G01*
X157612800Y-99877000D02*
X157612800Y-102177000D01*
G75*
G02*
X157562800Y-102227000I-50000J0D01*
G01*
X156562800Y-102227000D01*
G75*
G02*
X156512800Y-102177000I0J50000D01*
G01*
X156512800Y-99877000D01*
G75*
G02*
X156562800Y-99827000I50000J0D01*
G01*
X157562800Y-99827000D01*
G75*
G02*
X157612800Y-99877000I0J-50000D01*
G01*
G37*
G36*
G01*
X156362800Y-99877000D02*
X156362800Y-102177000D01*
G75*
G02*
X156312800Y-102227000I-50000J0D01*
G01*
X155312800Y-102227000D01*
G75*
G02*
X155262800Y-102177000I0J50000D01*
G01*
X155262800Y-99877000D01*
G75*
G02*
X155312800Y-99827000I50000J0D01*
G01*
X156312800Y-99827000D01*
G75*
G02*
X156362800Y-99877000I0J-50000D01*
G01*
G37*
G36*
G01*
X161362800Y-99877000D02*
X161362800Y-102177000D01*
G75*
G02*
X161312800Y-102227000I-50000J0D01*
G01*
X160312800Y-102227000D01*
G75*
G02*
X160262800Y-102177000I0J50000D01*
G01*
X160262800Y-99877000D01*
G75*
G02*
X160312800Y-99827000I50000J0D01*
G01*
X161312800Y-99827000D01*
G75*
G02*
X161362800Y-99877000I0J-50000D01*
G01*
G37*
G36*
G01*
X162612800Y-99877000D02*
X162612800Y-102177000D01*
G75*
G02*
X162562800Y-102227000I-50000J0D01*
G01*
X161562800Y-102227000D01*
G75*
G02*
X161512800Y-102177000I0J50000D01*
G01*
X161512800Y-99877000D01*
G75*
G02*
X161562800Y-99827000I50000J0D01*
G01*
X162562800Y-99827000D01*
G75*
G02*
X162612800Y-99877000I0J-50000D01*
G01*
G37*
G36*
G01*
X163862800Y-99877000D02*
X163862800Y-102177000D01*
G75*
G02*
X163812800Y-102227000I-50000J0D01*
G01*
X162812800Y-102227000D01*
G75*
G02*
X162762800Y-102177000I0J50000D01*
G01*
X162762800Y-99877000D01*
G75*
G02*
X162812800Y-99827000I50000J0D01*
G01*
X163812800Y-99827000D01*
G75*
G02*
X163862800Y-99877000I0J-50000D01*
G01*
G37*
G36*
G01*
X164412800Y-94477000D02*
X166712800Y-94477000D01*
G75*
G02*
X166762800Y-94527000I0J-50000D01*
G01*
X166762800Y-95527000D01*
G75*
G02*
X166712800Y-95577000I-50000J0D01*
G01*
X164412800Y-95577000D01*
G75*
G02*
X164362800Y-95527000I0J50000D01*
G01*
X164362800Y-94527000D01*
G75*
G02*
X164412800Y-94477000I50000J0D01*
G01*
G37*
G36*
G01*
X164412800Y-95727000D02*
X166712800Y-95727000D01*
G75*
G02*
X166762800Y-95777000I0J-50000D01*
G01*
X166762800Y-96777000D01*
G75*
G02*
X166712800Y-96827000I-50000J0D01*
G01*
X164412800Y-96827000D01*
G75*
G02*
X164362800Y-96777000I0J50000D01*
G01*
X164362800Y-95777000D01*
G75*
G02*
X164412800Y-95727000I50000J0D01*
G01*
G37*
G36*
G01*
X164412800Y-96977000D02*
X166712800Y-96977000D01*
G75*
G02*
X166762800Y-97027000I0J-50000D01*
G01*
X166762800Y-98027000D01*
G75*
G02*
X166712800Y-98077000I-50000J0D01*
G01*
X164412800Y-98077000D01*
G75*
G02*
X164362800Y-98027000I0J50000D01*
G01*
X164362800Y-97027000D01*
G75*
G02*
X164412800Y-96977000I50000J0D01*
G01*
G37*
G36*
G01*
X164412800Y-98227000D02*
X166712800Y-98227000D01*
G75*
G02*
X166762800Y-98277000I0J-50000D01*
G01*
X166762800Y-99277000D01*
G75*
G02*
X166712800Y-99327000I-50000J0D01*
G01*
X164412800Y-99327000D01*
G75*
G02*
X164362800Y-99277000I0J50000D01*
G01*
X164362800Y-98277000D01*
G75*
G02*
X164412800Y-98227000I50000J0D01*
G01*
G37*
G36*
G01*
X164412800Y-93227000D02*
X166712800Y-93227000D01*
G75*
G02*
X166762800Y-93277000I0J-50000D01*
G01*
X166762800Y-94277000D01*
G75*
G02*
X166712800Y-94327000I-50000J0D01*
G01*
X164412800Y-94327000D01*
G75*
G02*
X164362800Y-94277000I0J50000D01*
G01*
X164362800Y-93277000D01*
G75*
G02*
X164412800Y-93227000I50000J0D01*
G01*
G37*
G36*
G01*
X164412800Y-91977000D02*
X166712800Y-91977000D01*
G75*
G02*
X166762800Y-92027000I0J-50000D01*
G01*
X166762800Y-93027000D01*
G75*
G02*
X166712800Y-93077000I-50000J0D01*
G01*
X164412800Y-93077000D01*
G75*
G02*
X164362800Y-93027000I0J50000D01*
G01*
X164362800Y-92027000D01*
G75*
G02*
X164412800Y-91977000I50000J0D01*
G01*
G37*
G36*
G01*
X164412800Y-90727000D02*
X166712800Y-90727000D01*
G75*
G02*
X166762800Y-90777000I0J-50000D01*
G01*
X166762800Y-91777000D01*
G75*
G02*
X166712800Y-91827000I-50000J0D01*
G01*
X164412800Y-91827000D01*
G75*
G02*
X164362800Y-91777000I0J50000D01*
G01*
X164362800Y-90777000D01*
G75*
G02*
X164412800Y-90727000I50000J0D01*
G01*
G37*
G36*
G01*
X159012800Y-90177000D02*
X159012800Y-87877000D01*
G75*
G02*
X159062800Y-87827000I50000J0D01*
G01*
X160062800Y-87827000D01*
G75*
G02*
X160112800Y-87877000I0J-50000D01*
G01*
X160112800Y-90177000D01*
G75*
G02*
X160062800Y-90227000I-50000J0D01*
G01*
X159062800Y-90227000D01*
G75*
G02*
X159012800Y-90177000I0J50000D01*
G01*
G37*
G36*
G01*
X160262800Y-90177000D02*
X160262800Y-87877000D01*
G75*
G02*
X160312800Y-87827000I50000J0D01*
G01*
X161312800Y-87827000D01*
G75*
G02*
X161362800Y-87877000I0J-50000D01*
G01*
X161362800Y-90177000D01*
G75*
G02*
X161312800Y-90227000I-50000J0D01*
G01*
X160312800Y-90227000D01*
G75*
G02*
X160262800Y-90177000I0J50000D01*
G01*
G37*
G36*
G01*
X161512800Y-90177000D02*
X161512800Y-87877000D01*
G75*
G02*
X161562800Y-87827000I50000J0D01*
G01*
X162562800Y-87827000D01*
G75*
G02*
X162612800Y-87877000I0J-50000D01*
G01*
X162612800Y-90177000D01*
G75*
G02*
X162562800Y-90227000I-50000J0D01*
G01*
X161562800Y-90227000D01*
G75*
G02*
X161512800Y-90177000I0J50000D01*
G01*
G37*
G36*
G01*
X162762800Y-90177000D02*
X162762800Y-87877000D01*
G75*
G02*
X162812800Y-87827000I50000J0D01*
G01*
X163812800Y-87827000D01*
G75*
G02*
X163862800Y-87877000I0J-50000D01*
G01*
X163862800Y-90177000D01*
G75*
G02*
X163812800Y-90227000I-50000J0D01*
G01*
X162812800Y-90227000D01*
G75*
G02*
X162762800Y-90177000I0J50000D01*
G01*
G37*
G36*
G01*
X157762800Y-90177000D02*
X157762800Y-87877000D01*
G75*
G02*
X157812800Y-87827000I50000J0D01*
G01*
X158812800Y-87827000D01*
G75*
G02*
X158862800Y-87877000I0J-50000D01*
G01*
X158862800Y-90177000D01*
G75*
G02*
X158812800Y-90227000I-50000J0D01*
G01*
X157812800Y-90227000D01*
G75*
G02*
X157762800Y-90177000I0J50000D01*
G01*
G37*
G36*
G01*
X156512800Y-90177000D02*
X156512800Y-87877000D01*
G75*
G02*
X156562800Y-87827000I50000J0D01*
G01*
X157562800Y-87827000D01*
G75*
G02*
X157612800Y-87877000I0J-50000D01*
G01*
X157612800Y-90177000D01*
G75*
G02*
X157562800Y-90227000I-50000J0D01*
G01*
X156562800Y-90227000D01*
G75*
G02*
X156512800Y-90177000I0J50000D01*
G01*
G37*
G36*
G01*
X155262800Y-90177000D02*
X155262800Y-87877000D01*
G75*
G02*
X155312800Y-87827000I50000J0D01*
G01*
X156312800Y-87827000D01*
G75*
G02*
X156362800Y-87877000I0J-50000D01*
G01*
X156362800Y-90177000D01*
G75*
G02*
X156312800Y-90227000I-50000J0D01*
G01*
X155312800Y-90227000D01*
G75*
G02*
X155262800Y-90177000I0J50000D01*
G01*
G37*
%TD*%
D13*
%TO.C,H1*%
X95962221Y-63037779D03*
X94000000Y-62225000D03*
X92037779Y-63037779D03*
X91225000Y-65000000D03*
X92037779Y-66962221D03*
X94000000Y-67775000D03*
X95962221Y-66962221D03*
X96775000Y-65000000D03*
D14*
X94000000Y-65000000D03*
%TD*%
%TO.C,H2*%
X189000000Y-65000000D03*
D13*
X191775000Y-65000000D03*
X190962221Y-66962221D03*
X189000000Y-67775000D03*
X187037779Y-66962221D03*
X186225000Y-65000000D03*
X187037779Y-63037779D03*
X189000000Y-62225000D03*
X190962221Y-63037779D03*
%TD*%
%TO.C,H3*%
X190962221Y-123037779D03*
X189000000Y-122225000D03*
X187037779Y-123037779D03*
X186225000Y-125000000D03*
X187037779Y-126962221D03*
X189000000Y-127775000D03*
X190962221Y-126962221D03*
X191775000Y-125000000D03*
D14*
X189000000Y-125000000D03*
%TD*%
%TO.C,H4*%
X94000000Y-125000000D03*
D13*
X96775000Y-125000000D03*
X95962221Y-126962221D03*
X94000000Y-127775000D03*
X92037779Y-126962221D03*
X91225000Y-125000000D03*
X92037779Y-123037779D03*
X94000000Y-122225000D03*
X95962221Y-123037779D03*
%TD*%
D15*
%TO.C,U7*%
X116620000Y-67230000D03*
X119160000Y-67230000D03*
X121700000Y-67230000D03*
G36*
G01*
X125040000Y-66230000D02*
X125040000Y-68230000D01*
G75*
G02*
X124990000Y-68280000I-50000J0D01*
G01*
X123490000Y-68280000D01*
G75*
G02*
X123440000Y-68230000I0J50000D01*
G01*
X123440000Y-66230000D01*
G75*
G02*
X123490000Y-66180000I50000J0D01*
G01*
X124990000Y-66180000D01*
G75*
G02*
X125040000Y-66230000I0J-50000D01*
G01*
G37*
%TD*%
%TO.C,C22*%
G36*
G01*
X110073517Y-98990000D02*
X110986483Y-98990000D01*
G75*
G02*
X111255000Y-99258517I0J-268517D01*
G01*
X111255000Y-100221483D01*
G75*
G02*
X110986483Y-100490000I-268517J0D01*
G01*
X110073517Y-100490000D01*
G75*
G02*
X109805000Y-100221483I0J268517D01*
G01*
X109805000Y-99258517D01*
G75*
G02*
X110073517Y-98990000I268517J0D01*
G01*
G37*
G36*
G01*
X110073517Y-101690000D02*
X110986483Y-101690000D01*
G75*
G02*
X111255000Y-101958517I0J-268517D01*
G01*
X111255000Y-102921483D01*
G75*
G02*
X110986483Y-103190000I-268517J0D01*
G01*
X110073517Y-103190000D01*
G75*
G02*
X109805000Y-102921483I0J268517D01*
G01*
X109805000Y-101958517D01*
G75*
G02*
X110073517Y-101690000I268517J0D01*
G01*
G37*
%TD*%
D11*
G36*
X127243265Y-105324575D02*
G01*
X127244100Y-105326201D01*
X127244100Y-105343700D01*
X127909299Y-105343700D01*
X127911031Y-105344700D01*
X127911031Y-105346700D01*
X127909495Y-105347690D01*
X127888234Y-105349784D01*
X127867973Y-105355930D01*
X127849303Y-105365909D01*
X127832939Y-105379339D01*
X127819509Y-105395703D01*
X127809530Y-105414373D01*
X127803384Y-105434634D01*
X127801290Y-105455895D01*
X127800125Y-105457521D01*
X127798135Y-105457325D01*
X127797300Y-105455699D01*
X127797300Y-105438200D01*
X127132101Y-105438200D01*
X127130369Y-105437200D01*
X127130369Y-105435200D01*
X127131905Y-105434210D01*
X127153166Y-105432116D01*
X127173427Y-105425970D01*
X127192097Y-105415991D01*
X127208461Y-105402561D01*
X127221891Y-105386197D01*
X127231870Y-105367527D01*
X127238016Y-105347266D01*
X127240110Y-105326005D01*
X127241275Y-105324379D01*
X127243265Y-105324575D01*
G37*
G36*
X126912290Y-105326005D02*
G01*
X126914384Y-105347266D01*
X126920530Y-105367527D01*
X126930509Y-105386197D01*
X126943939Y-105402561D01*
X126960303Y-105415991D01*
X126978973Y-105425970D01*
X126999234Y-105432116D01*
X127020495Y-105434210D01*
X127022121Y-105435375D01*
X127021925Y-105437365D01*
X127020299Y-105438200D01*
X126355100Y-105438200D01*
X126355100Y-105455699D01*
X126354100Y-105457431D01*
X126352100Y-105457431D01*
X126351110Y-105455895D01*
X126349016Y-105434634D01*
X126342870Y-105414373D01*
X126332891Y-105395703D01*
X126319461Y-105379339D01*
X126303097Y-105365909D01*
X126284427Y-105355930D01*
X126264166Y-105349784D01*
X126242905Y-105347690D01*
X126241279Y-105346525D01*
X126241475Y-105344535D01*
X126243101Y-105343700D01*
X126908300Y-105343700D01*
X126908300Y-105326201D01*
X126909300Y-105324469D01*
X126911300Y-105324469D01*
X126912290Y-105326005D01*
G37*
G36*
X124512765Y-105311875D02*
G01*
X124513600Y-105313501D01*
X124513600Y-105331000D01*
X125178799Y-105331000D01*
X125180531Y-105332000D01*
X125180531Y-105334000D01*
X125178995Y-105334990D01*
X125157734Y-105337084D01*
X125137473Y-105343230D01*
X125118803Y-105353209D01*
X125102439Y-105366639D01*
X125089009Y-105383003D01*
X125079030Y-105401673D01*
X125072884Y-105421934D01*
X125070790Y-105443195D01*
X125069625Y-105444821D01*
X125067635Y-105444625D01*
X125066800Y-105442999D01*
X125066800Y-105425500D01*
X124401601Y-105425500D01*
X124399869Y-105424500D01*
X124399869Y-105422500D01*
X124401405Y-105421510D01*
X124422666Y-105419416D01*
X124442927Y-105413270D01*
X124461597Y-105403291D01*
X124477961Y-105389861D01*
X124491391Y-105373497D01*
X124501370Y-105354827D01*
X124507516Y-105334566D01*
X124509610Y-105313305D01*
X124510775Y-105311679D01*
X124512765Y-105311875D01*
G37*
G36*
X124181790Y-105313305D02*
G01*
X124183884Y-105334566D01*
X124190030Y-105354827D01*
X124200009Y-105373497D01*
X124213439Y-105389861D01*
X124229803Y-105403291D01*
X124248473Y-105413270D01*
X124268734Y-105419416D01*
X124289995Y-105421510D01*
X124291621Y-105422675D01*
X124291425Y-105424665D01*
X124289799Y-105425500D01*
X123624600Y-105425500D01*
X123624600Y-105442999D01*
X123623600Y-105444731D01*
X123621600Y-105444731D01*
X123620610Y-105443195D01*
X123618516Y-105421934D01*
X123612370Y-105401673D01*
X123602391Y-105383003D01*
X123588961Y-105366639D01*
X123572597Y-105353209D01*
X123553927Y-105343230D01*
X123533666Y-105337084D01*
X123512405Y-105334990D01*
X123510779Y-105333825D01*
X123510975Y-105331835D01*
X123512601Y-105331000D01*
X124177800Y-105331000D01*
X124177800Y-105313501D01*
X124178800Y-105311769D01*
X124180800Y-105311769D01*
X124181790Y-105313305D01*
G37*
G36*
X126354265Y-104321275D02*
G01*
X126355100Y-104322901D01*
X126355100Y-104340400D01*
X127020299Y-104340400D01*
X127022031Y-104341400D01*
X127022031Y-104343400D01*
X127020495Y-104344390D01*
X126999234Y-104346484D01*
X126978973Y-104352630D01*
X126960303Y-104362609D01*
X126943939Y-104376039D01*
X126930509Y-104392403D01*
X126920530Y-104411073D01*
X126914384Y-104431334D01*
X126912290Y-104452595D01*
X126911125Y-104454221D01*
X126909135Y-104454025D01*
X126908300Y-104452399D01*
X126908300Y-104434900D01*
X126243101Y-104434900D01*
X126241369Y-104433900D01*
X126241369Y-104431900D01*
X126242905Y-104430910D01*
X126264166Y-104428816D01*
X126284427Y-104422670D01*
X126303097Y-104412691D01*
X126319461Y-104399261D01*
X126332891Y-104382897D01*
X126342870Y-104364227D01*
X126349016Y-104343966D01*
X126351110Y-104322705D01*
X126352275Y-104321079D01*
X126354265Y-104321275D01*
G37*
G36*
X127801290Y-104322705D02*
G01*
X127803384Y-104343966D01*
X127809530Y-104364227D01*
X127819509Y-104382897D01*
X127832939Y-104399261D01*
X127849303Y-104412691D01*
X127867973Y-104422670D01*
X127888234Y-104428816D01*
X127909495Y-104430910D01*
X127911121Y-104432075D01*
X127910925Y-104434065D01*
X127909299Y-104434900D01*
X127244100Y-104434900D01*
X127244100Y-104452399D01*
X127243100Y-104454131D01*
X127241100Y-104454131D01*
X127240110Y-104452595D01*
X127238016Y-104431334D01*
X127231870Y-104411073D01*
X127221891Y-104392403D01*
X127208461Y-104376039D01*
X127192097Y-104362609D01*
X127173427Y-104352630D01*
X127153166Y-104346484D01*
X127131905Y-104344390D01*
X127130279Y-104343225D01*
X127130475Y-104341235D01*
X127132101Y-104340400D01*
X127797300Y-104340400D01*
X127797300Y-104322901D01*
X127798300Y-104321169D01*
X127800300Y-104321169D01*
X127801290Y-104322705D01*
G37*
G36*
X123623765Y-104308575D02*
G01*
X123624600Y-104310201D01*
X123624600Y-104327700D01*
X124289799Y-104327700D01*
X124291531Y-104328700D01*
X124291531Y-104330700D01*
X124289995Y-104331690D01*
X124268734Y-104333784D01*
X124248473Y-104339930D01*
X124229803Y-104349909D01*
X124213439Y-104363339D01*
X124200009Y-104379703D01*
X124190030Y-104398373D01*
X124183884Y-104418634D01*
X124181790Y-104439895D01*
X124180625Y-104441521D01*
X124178635Y-104441325D01*
X124177800Y-104439699D01*
X124177800Y-104422200D01*
X123512601Y-104422200D01*
X123510869Y-104421200D01*
X123510869Y-104419200D01*
X123512405Y-104418210D01*
X123533666Y-104416116D01*
X123553927Y-104409970D01*
X123572597Y-104399991D01*
X123588961Y-104386561D01*
X123602391Y-104370197D01*
X123612370Y-104351527D01*
X123618516Y-104331266D01*
X123620610Y-104310005D01*
X123621775Y-104308379D01*
X123623765Y-104308575D01*
G37*
G36*
X125070790Y-104310005D02*
G01*
X125072884Y-104331266D01*
X125079030Y-104351527D01*
X125089009Y-104370197D01*
X125102439Y-104386561D01*
X125118803Y-104399991D01*
X125137473Y-104409970D01*
X125157734Y-104416116D01*
X125178995Y-104418210D01*
X125180621Y-104419375D01*
X125180425Y-104421365D01*
X125178799Y-104422200D01*
X124513600Y-104422200D01*
X124513600Y-104439699D01*
X124512600Y-104441431D01*
X124510600Y-104441431D01*
X124509610Y-104439895D01*
X124507516Y-104418634D01*
X124501370Y-104398373D01*
X124491391Y-104379703D01*
X124477961Y-104363339D01*
X124461597Y-104349909D01*
X124442927Y-104339930D01*
X124422666Y-104333784D01*
X124401405Y-104331690D01*
X124399779Y-104330525D01*
X124399975Y-104328535D01*
X124401601Y-104327700D01*
X125066800Y-104327700D01*
X125066800Y-104310201D01*
X125067800Y-104308469D01*
X125069800Y-104308469D01*
X125070790Y-104310005D01*
G37*
G36*
X114878065Y-102916575D02*
G01*
X114878900Y-102918201D01*
X114878900Y-103583400D01*
X114896399Y-103583400D01*
X114898131Y-103584400D01*
X114898131Y-103586400D01*
X114896595Y-103587390D01*
X114875334Y-103589484D01*
X114855073Y-103595630D01*
X114836403Y-103605609D01*
X114820039Y-103619039D01*
X114806609Y-103635403D01*
X114796630Y-103654073D01*
X114790484Y-103674334D01*
X114788390Y-103695595D01*
X114787225Y-103697221D01*
X114785235Y-103697025D01*
X114784400Y-103695399D01*
X114784400Y-103030200D01*
X114766901Y-103030200D01*
X114765169Y-103029200D01*
X114765169Y-103027200D01*
X114766705Y-103026210D01*
X114787966Y-103024116D01*
X114808227Y-103017970D01*
X114826897Y-103007991D01*
X114843261Y-102994561D01*
X114856691Y-102978197D01*
X114866670Y-102959527D01*
X114872816Y-102939266D01*
X114874910Y-102918005D01*
X114876075Y-102916379D01*
X114878065Y-102916575D01*
G37*
G36*
X113785090Y-102918005D02*
G01*
X113787184Y-102939266D01*
X113793330Y-102959527D01*
X113803309Y-102978197D01*
X113816739Y-102994561D01*
X113833103Y-103007991D01*
X113851773Y-103017970D01*
X113872034Y-103024116D01*
X113893295Y-103026210D01*
X113894921Y-103027375D01*
X113894725Y-103029365D01*
X113893099Y-103030200D01*
X113875600Y-103030200D01*
X113875600Y-103695399D01*
X113874600Y-103697131D01*
X113872600Y-103697131D01*
X113871610Y-103695595D01*
X113869516Y-103674334D01*
X113863370Y-103654073D01*
X113853391Y-103635403D01*
X113839961Y-103619039D01*
X113823597Y-103605609D01*
X113804927Y-103595630D01*
X113784666Y-103589484D01*
X113763405Y-103587390D01*
X113761779Y-103586225D01*
X113761975Y-103584235D01*
X113763601Y-103583400D01*
X113781100Y-103583400D01*
X113781100Y-102918201D01*
X113782100Y-102916469D01*
X113784100Y-102916469D01*
X113785090Y-102918005D01*
G37*
G36*
X113874765Y-102027575D02*
G01*
X113875600Y-102029201D01*
X113875600Y-102694400D01*
X113893099Y-102694400D01*
X113894831Y-102695400D01*
X113894831Y-102697400D01*
X113893295Y-102698390D01*
X113872034Y-102700484D01*
X113851773Y-102706630D01*
X113833103Y-102716609D01*
X113816739Y-102730039D01*
X113803309Y-102746403D01*
X113793330Y-102765073D01*
X113787184Y-102785334D01*
X113785090Y-102806595D01*
X113783925Y-102808221D01*
X113781935Y-102808025D01*
X113781100Y-102806399D01*
X113781100Y-102141200D01*
X113763601Y-102141200D01*
X113761869Y-102140200D01*
X113761869Y-102138200D01*
X113763405Y-102137210D01*
X113784666Y-102135116D01*
X113804927Y-102128970D01*
X113823597Y-102118991D01*
X113839961Y-102105561D01*
X113853391Y-102089197D01*
X113863370Y-102070527D01*
X113869516Y-102050266D01*
X113871610Y-102029005D01*
X113872775Y-102027379D01*
X113874765Y-102027575D01*
G37*
G36*
X114788390Y-102029005D02*
G01*
X114790484Y-102050266D01*
X114796630Y-102070527D01*
X114806609Y-102089197D01*
X114820039Y-102105561D01*
X114836403Y-102118991D01*
X114855073Y-102128970D01*
X114875334Y-102135116D01*
X114896595Y-102137210D01*
X114898221Y-102138375D01*
X114898025Y-102140365D01*
X114896399Y-102141200D01*
X114878900Y-102141200D01*
X114878900Y-102806399D01*
X114877900Y-102808131D01*
X114875900Y-102808131D01*
X114874910Y-102806595D01*
X114872816Y-102785334D01*
X114866670Y-102765073D01*
X114856691Y-102746403D01*
X114843261Y-102730039D01*
X114826897Y-102716609D01*
X114808227Y-102706630D01*
X114787966Y-102700484D01*
X114766705Y-102698390D01*
X114765079Y-102697225D01*
X114765275Y-102695235D01*
X114766901Y-102694400D01*
X114784400Y-102694400D01*
X114784400Y-102029201D01*
X114785400Y-102027469D01*
X114787400Y-102027469D01*
X114788390Y-102029005D01*
G37*
G36*
X162764532Y-99826000D02*
G01*
X162764800Y-99827000D01*
X162764800Y-102227000D01*
X162763800Y-102228732D01*
X162762800Y-102229000D01*
X162612800Y-102229000D01*
X162611068Y-102228000D01*
X162610800Y-102227000D01*
X162610800Y-99827000D01*
X162611800Y-99825268D01*
X162612800Y-99825000D01*
X162762800Y-99825000D01*
X162764532Y-99826000D01*
G37*
G36*
X161514532Y-99826000D02*
G01*
X161514800Y-99827000D01*
X161514800Y-102227000D01*
X161513800Y-102228732D01*
X161512800Y-102229000D01*
X161362800Y-102229000D01*
X161361068Y-102228000D01*
X161360800Y-102227000D01*
X161360800Y-99827000D01*
X161361800Y-99825268D01*
X161362800Y-99825000D01*
X161512800Y-99825000D01*
X161514532Y-99826000D01*
G37*
G36*
X160264532Y-99826000D02*
G01*
X160264800Y-99827000D01*
X160264800Y-102227000D01*
X160263800Y-102228732D01*
X160262800Y-102229000D01*
X160112800Y-102229000D01*
X160111068Y-102228000D01*
X160110800Y-102227000D01*
X160110800Y-99827000D01*
X160111800Y-99825268D01*
X160112800Y-99825000D01*
X160262800Y-99825000D01*
X160264532Y-99826000D01*
G37*
G36*
X159014532Y-99826000D02*
G01*
X159014800Y-99827000D01*
X159014800Y-102227000D01*
X159013800Y-102228732D01*
X159012800Y-102229000D01*
X158862800Y-102229000D01*
X158861068Y-102228000D01*
X158860800Y-102227000D01*
X158860800Y-99827000D01*
X158861800Y-99825268D01*
X158862800Y-99825000D01*
X159012800Y-99825000D01*
X159014532Y-99826000D01*
G37*
G36*
X156514532Y-99826000D02*
G01*
X156514800Y-99827000D01*
X156514800Y-102227000D01*
X156513800Y-102228732D01*
X156512800Y-102229000D01*
X156362800Y-102229000D01*
X156361068Y-102228000D01*
X156360800Y-102227000D01*
X156360800Y-99827000D01*
X156361800Y-99825268D01*
X156362800Y-99825000D01*
X156512800Y-99825000D01*
X156514532Y-99826000D01*
G37*
G36*
X157764532Y-99826000D02*
G01*
X157764800Y-99827000D01*
X157764800Y-102227000D01*
X157763800Y-102228732D01*
X157762800Y-102229000D01*
X157612800Y-102229000D01*
X157611068Y-102228000D01*
X157610800Y-102227000D01*
X157610800Y-99827000D01*
X157611800Y-99825268D01*
X157612800Y-99825000D01*
X157762800Y-99825000D01*
X157764532Y-99826000D01*
G37*
G36*
X114918065Y-99956575D02*
G01*
X114918900Y-99958201D01*
X114918900Y-100623400D01*
X114936399Y-100623400D01*
X114938131Y-100624400D01*
X114938131Y-100626400D01*
X114936595Y-100627390D01*
X114915334Y-100629484D01*
X114895073Y-100635630D01*
X114876403Y-100645609D01*
X114860039Y-100659039D01*
X114846609Y-100675403D01*
X114836630Y-100694073D01*
X114830484Y-100714334D01*
X114828390Y-100735595D01*
X114827225Y-100737221D01*
X114825235Y-100737025D01*
X114824400Y-100735399D01*
X114824400Y-100070200D01*
X114806901Y-100070200D01*
X114805169Y-100069200D01*
X114805169Y-100067200D01*
X114806705Y-100066210D01*
X114827966Y-100064116D01*
X114848227Y-100057970D01*
X114866897Y-100047991D01*
X114883261Y-100034561D01*
X114896691Y-100018197D01*
X114906670Y-99999527D01*
X114912816Y-99979266D01*
X114914910Y-99958005D01*
X114916075Y-99956379D01*
X114918065Y-99956575D01*
G37*
G36*
X113825090Y-99958005D02*
G01*
X113827184Y-99979266D01*
X113833330Y-99999527D01*
X113843309Y-100018197D01*
X113856739Y-100034561D01*
X113873103Y-100047991D01*
X113891773Y-100057970D01*
X113912034Y-100064116D01*
X113933295Y-100066210D01*
X113934921Y-100067375D01*
X113934725Y-100069365D01*
X113933099Y-100070200D01*
X113915600Y-100070200D01*
X113915600Y-100735399D01*
X113914600Y-100737131D01*
X113912600Y-100737131D01*
X113911610Y-100735595D01*
X113909516Y-100714334D01*
X113903370Y-100694073D01*
X113893391Y-100675403D01*
X113879961Y-100659039D01*
X113863597Y-100645609D01*
X113844927Y-100635630D01*
X113824666Y-100629484D01*
X113803405Y-100627390D01*
X113801779Y-100626225D01*
X113801975Y-100624235D01*
X113803601Y-100623400D01*
X113821100Y-100623400D01*
X113821100Y-99958201D01*
X113822100Y-99956469D01*
X113824100Y-99956469D01*
X113825090Y-99958005D01*
G37*
G36*
X113914765Y-99067575D02*
G01*
X113915600Y-99069201D01*
X113915600Y-99734400D01*
X113933099Y-99734400D01*
X113934831Y-99735400D01*
X113934831Y-99737400D01*
X113933295Y-99738390D01*
X113912034Y-99740484D01*
X113891773Y-99746630D01*
X113873103Y-99756609D01*
X113856739Y-99770039D01*
X113843309Y-99786403D01*
X113833330Y-99805073D01*
X113827184Y-99825334D01*
X113825090Y-99846595D01*
X113823925Y-99848221D01*
X113821935Y-99848025D01*
X113821100Y-99846399D01*
X113821100Y-99181200D01*
X113803601Y-99181200D01*
X113801869Y-99180200D01*
X113801869Y-99178200D01*
X113803405Y-99177210D01*
X113824666Y-99175116D01*
X113844927Y-99168970D01*
X113863597Y-99158991D01*
X113879961Y-99145561D01*
X113893391Y-99129197D01*
X113903370Y-99110527D01*
X113909516Y-99090266D01*
X113911610Y-99069005D01*
X113912775Y-99067379D01*
X113914765Y-99067575D01*
G37*
G36*
X114828390Y-99069005D02*
G01*
X114830484Y-99090266D01*
X114836630Y-99110527D01*
X114846609Y-99129197D01*
X114860039Y-99145561D01*
X114876403Y-99158991D01*
X114895073Y-99168970D01*
X114915334Y-99175116D01*
X114936595Y-99177210D01*
X114938221Y-99178375D01*
X114938025Y-99180365D01*
X114936399Y-99181200D01*
X114918900Y-99181200D01*
X114918900Y-99846399D01*
X114917900Y-99848131D01*
X114915900Y-99848131D01*
X114914910Y-99846595D01*
X114912816Y-99825334D01*
X114906670Y-99805073D01*
X114896691Y-99786403D01*
X114883261Y-99770039D01*
X114866897Y-99756609D01*
X114848227Y-99746630D01*
X114827966Y-99740484D01*
X114806705Y-99738390D01*
X114805079Y-99737225D01*
X114805275Y-99735235D01*
X114806901Y-99734400D01*
X114824400Y-99734400D01*
X114824400Y-99069201D01*
X114825400Y-99067469D01*
X114827400Y-99067469D01*
X114828390Y-99069005D01*
G37*
G36*
X166764532Y-98076000D02*
G01*
X166764800Y-98077000D01*
X166764800Y-98227000D01*
X166763800Y-98228732D01*
X166762800Y-98229000D01*
X164362800Y-98229000D01*
X164361068Y-98228000D01*
X164360800Y-98227000D01*
X164360800Y-98077000D01*
X164361800Y-98075268D01*
X164362800Y-98075000D01*
X166762800Y-98075000D01*
X166764532Y-98076000D01*
G37*
G36*
X154764532Y-98076000D02*
G01*
X154764800Y-98077000D01*
X154764800Y-98227000D01*
X154763800Y-98228732D01*
X154762800Y-98229000D01*
X152362800Y-98229000D01*
X152361068Y-98228000D01*
X152360800Y-98227000D01*
X152360800Y-98077000D01*
X152361800Y-98075268D01*
X152362800Y-98075000D01*
X154762800Y-98075000D01*
X154764532Y-98076000D01*
G37*
G36*
X123472215Y-97073838D02*
G01*
X123472411Y-97075828D01*
X123471354Y-97076851D01*
X123454187Y-97083962D01*
X123436585Y-97095723D01*
X123421617Y-97110691D01*
X123409856Y-97128294D01*
X123401755Y-97147851D01*
X123397625Y-97168617D01*
X123397625Y-97189783D01*
X123401756Y-97210549D01*
X123409857Y-97230106D01*
X123421618Y-97247708D01*
X123436586Y-97262676D01*
X123454189Y-97274437D01*
X123471350Y-97281546D01*
X123472568Y-97283133D01*
X123471802Y-97284981D01*
X123470389Y-97285384D01*
X123427907Y-97281200D01*
X122078095Y-97281200D01*
X122035613Y-97285384D01*
X122033791Y-97284559D01*
X122033595Y-97282569D01*
X122034652Y-97281546D01*
X122051813Y-97274437D01*
X122069416Y-97262676D01*
X122084384Y-97247708D01*
X122096145Y-97230106D01*
X122104246Y-97210549D01*
X122108377Y-97189783D01*
X122108377Y-97168617D01*
X122104247Y-97147851D01*
X122096146Y-97128294D01*
X122084385Y-97110691D01*
X122069417Y-97095723D01*
X122051815Y-97083962D01*
X122034648Y-97076851D01*
X122033430Y-97075264D01*
X122034195Y-97073416D01*
X122035609Y-97073013D01*
X122078095Y-97077197D01*
X123427907Y-97077197D01*
X123470393Y-97073013D01*
X123472215Y-97073838D01*
G37*
G36*
X129172213Y-97073838D02*
G01*
X129172409Y-97075828D01*
X129171352Y-97076851D01*
X129154185Y-97083962D01*
X129136583Y-97095723D01*
X129121615Y-97110691D01*
X129109854Y-97128294D01*
X129101753Y-97147851D01*
X129097623Y-97168617D01*
X129097623Y-97189783D01*
X129101754Y-97210549D01*
X129109855Y-97230106D01*
X129121616Y-97247708D01*
X129136584Y-97262676D01*
X129154187Y-97274437D01*
X129171348Y-97281546D01*
X129172566Y-97283133D01*
X129171800Y-97284981D01*
X129170387Y-97285384D01*
X129127905Y-97281200D01*
X127778093Y-97281200D01*
X127735611Y-97285384D01*
X127733789Y-97284559D01*
X127733593Y-97282569D01*
X127734650Y-97281546D01*
X127751811Y-97274437D01*
X127769414Y-97262676D01*
X127784382Y-97247708D01*
X127796143Y-97230106D01*
X127804244Y-97210549D01*
X127808375Y-97189783D01*
X127808375Y-97168617D01*
X127804245Y-97147851D01*
X127796144Y-97128294D01*
X127784383Y-97110691D01*
X127769415Y-97095723D01*
X127751813Y-97083962D01*
X127734646Y-97076851D01*
X127733428Y-97075264D01*
X127734193Y-97073416D01*
X127735607Y-97073013D01*
X127778093Y-97077197D01*
X129127905Y-97077197D01*
X129170391Y-97073013D01*
X129172213Y-97073838D01*
G37*
G36*
X154764532Y-96826000D02*
G01*
X154764800Y-96827000D01*
X154764800Y-96977000D01*
X154763800Y-96978732D01*
X154762800Y-96979000D01*
X152362800Y-96979000D01*
X152361068Y-96978000D01*
X152360800Y-96977000D01*
X152360800Y-96827000D01*
X152361800Y-96825268D01*
X152362800Y-96825000D01*
X154762800Y-96825000D01*
X154764532Y-96826000D01*
G37*
G36*
X166764532Y-96826000D02*
G01*
X166764800Y-96827000D01*
X166764800Y-96977000D01*
X166763800Y-96978732D01*
X166762800Y-96979000D01*
X164362800Y-96979000D01*
X164361068Y-96978000D01*
X164360800Y-96977000D01*
X164360800Y-96827000D01*
X164361800Y-96825268D01*
X164362800Y-96825000D01*
X166762800Y-96825000D01*
X166764532Y-96826000D01*
G37*
G36*
X123472216Y-96423839D02*
G01*
X123472412Y-96425829D01*
X123471355Y-96426852D01*
X123454190Y-96433962D01*
X123436588Y-96445723D01*
X123421620Y-96460691D01*
X123409859Y-96478293D01*
X123401758Y-96497851D01*
X123397628Y-96518617D01*
X123397628Y-96539783D01*
X123401759Y-96560549D01*
X123409860Y-96580106D01*
X123421621Y-96597708D01*
X123436589Y-96612676D01*
X123454191Y-96624437D01*
X123471351Y-96631545D01*
X123472569Y-96633132D01*
X123471804Y-96634980D01*
X123470390Y-96635383D01*
X123427907Y-96631199D01*
X122078095Y-96631199D01*
X122035612Y-96635383D01*
X122033790Y-96634558D01*
X122033594Y-96632568D01*
X122034651Y-96631545D01*
X122051810Y-96624437D01*
X122069413Y-96612676D01*
X122084381Y-96597709D01*
X122096142Y-96580106D01*
X122104243Y-96560549D01*
X122108374Y-96539783D01*
X122108374Y-96518617D01*
X122104244Y-96497851D01*
X122096143Y-96478294D01*
X122084382Y-96460691D01*
X122069415Y-96445723D01*
X122051812Y-96433962D01*
X122034647Y-96426852D01*
X122033429Y-96425265D01*
X122034194Y-96423417D01*
X122035608Y-96423014D01*
X122078095Y-96427198D01*
X123427907Y-96427198D01*
X123470394Y-96423014D01*
X123472216Y-96423839D01*
G37*
G36*
X129172214Y-96423839D02*
G01*
X129172410Y-96425829D01*
X129171353Y-96426852D01*
X129154188Y-96433962D01*
X129136586Y-96445723D01*
X129121618Y-96460691D01*
X129109857Y-96478293D01*
X129101756Y-96497851D01*
X129097626Y-96518617D01*
X129097626Y-96539783D01*
X129101757Y-96560549D01*
X129109858Y-96580106D01*
X129121619Y-96597708D01*
X129136587Y-96612676D01*
X129154189Y-96624437D01*
X129171349Y-96631545D01*
X129172567Y-96633132D01*
X129171802Y-96634980D01*
X129170388Y-96635383D01*
X129127905Y-96631199D01*
X127778093Y-96631199D01*
X127735610Y-96635383D01*
X127733788Y-96634558D01*
X127733592Y-96632568D01*
X127734649Y-96631545D01*
X127751808Y-96624437D01*
X127769411Y-96612676D01*
X127784379Y-96597709D01*
X127796140Y-96580106D01*
X127804241Y-96560549D01*
X127808372Y-96539783D01*
X127808372Y-96518617D01*
X127804242Y-96497851D01*
X127796141Y-96478294D01*
X127784380Y-96460691D01*
X127769413Y-96445723D01*
X127751810Y-96433962D01*
X127734645Y-96426852D01*
X127733427Y-96425265D01*
X127734192Y-96423417D01*
X127735606Y-96423014D01*
X127778093Y-96427198D01*
X129127905Y-96427198D01*
X129170392Y-96423014D01*
X129172214Y-96423839D01*
G37*
G36*
X129172209Y-95773838D02*
G01*
X129172405Y-95775828D01*
X129171348Y-95776851D01*
X129154187Y-95783960D01*
X129136584Y-95795721D01*
X129121616Y-95810689D01*
X129109855Y-95828291D01*
X129101754Y-95847848D01*
X129097623Y-95868614D01*
X129097623Y-95889780D01*
X129101753Y-95910546D01*
X129109854Y-95930103D01*
X129121615Y-95947706D01*
X129136583Y-95962674D01*
X129154185Y-95974435D01*
X129171352Y-95981546D01*
X129172570Y-95983133D01*
X129171805Y-95984981D01*
X129170391Y-95985384D01*
X129127905Y-95981200D01*
X127778093Y-95981200D01*
X127735607Y-95985384D01*
X127733785Y-95984559D01*
X127733589Y-95982569D01*
X127734646Y-95981546D01*
X127751813Y-95974435D01*
X127769415Y-95962674D01*
X127784383Y-95947706D01*
X127796144Y-95930103D01*
X127804245Y-95910546D01*
X127808375Y-95889780D01*
X127808375Y-95868614D01*
X127804244Y-95847848D01*
X127796143Y-95828291D01*
X127784382Y-95810689D01*
X127769414Y-95795721D01*
X127751811Y-95783960D01*
X127734650Y-95776851D01*
X127733432Y-95775264D01*
X127734198Y-95773416D01*
X127735611Y-95773013D01*
X127778093Y-95777197D01*
X129127905Y-95777197D01*
X129170387Y-95773013D01*
X129172209Y-95773838D01*
G37*
G36*
X123472211Y-95773838D02*
G01*
X123472407Y-95775828D01*
X123471350Y-95776851D01*
X123454189Y-95783960D01*
X123436586Y-95795721D01*
X123421618Y-95810689D01*
X123409857Y-95828291D01*
X123401756Y-95847848D01*
X123397625Y-95868614D01*
X123397625Y-95889780D01*
X123401755Y-95910546D01*
X123409856Y-95930103D01*
X123421617Y-95947706D01*
X123436585Y-95962674D01*
X123454187Y-95974435D01*
X123471354Y-95981546D01*
X123472572Y-95983133D01*
X123471807Y-95984981D01*
X123470393Y-95985384D01*
X123427907Y-95981200D01*
X122078095Y-95981200D01*
X122035609Y-95985384D01*
X122033787Y-95984559D01*
X122033591Y-95982569D01*
X122034648Y-95981546D01*
X122051815Y-95974435D01*
X122069417Y-95962674D01*
X122084385Y-95947706D01*
X122096146Y-95930103D01*
X122104247Y-95910546D01*
X122108377Y-95889780D01*
X122108377Y-95868614D01*
X122104246Y-95847848D01*
X122096145Y-95828291D01*
X122084384Y-95810689D01*
X122069416Y-95795721D01*
X122051813Y-95783960D01*
X122034652Y-95776851D01*
X122033434Y-95775264D01*
X122034200Y-95773416D01*
X122035613Y-95773013D01*
X122078095Y-95777197D01*
X123427907Y-95777197D01*
X123470389Y-95773013D01*
X123472211Y-95773838D01*
G37*
G36*
X154764532Y-95576000D02*
G01*
X154764800Y-95577000D01*
X154764800Y-95727000D01*
X154763800Y-95728732D01*
X154762800Y-95729000D01*
X152362800Y-95729000D01*
X152361068Y-95728000D01*
X152360800Y-95727000D01*
X152360800Y-95577000D01*
X152361800Y-95575268D01*
X152362800Y-95575000D01*
X154762800Y-95575000D01*
X154764532Y-95576000D01*
G37*
G36*
X166764532Y-95576000D02*
G01*
X166764800Y-95577000D01*
X166764800Y-95727000D01*
X166763800Y-95728732D01*
X166762800Y-95729000D01*
X164362800Y-95729000D01*
X164361068Y-95728000D01*
X164360800Y-95727000D01*
X164360800Y-95577000D01*
X164361800Y-95575268D01*
X164362800Y-95575000D01*
X166762800Y-95575000D01*
X166764532Y-95576000D01*
G37*
G36*
X123472216Y-95123839D02*
G01*
X123472412Y-95125829D01*
X123471355Y-95126852D01*
X123454190Y-95133962D01*
X123436588Y-95145723D01*
X123421620Y-95160691D01*
X123409859Y-95178293D01*
X123401758Y-95197851D01*
X123397628Y-95218617D01*
X123397628Y-95239783D01*
X123401759Y-95260549D01*
X123409860Y-95280106D01*
X123421621Y-95297708D01*
X123436589Y-95312676D01*
X123454191Y-95324437D01*
X123471351Y-95331545D01*
X123472569Y-95333132D01*
X123471804Y-95334980D01*
X123470390Y-95335383D01*
X123427907Y-95331199D01*
X122078095Y-95331199D01*
X122035612Y-95335383D01*
X122033790Y-95334558D01*
X122033594Y-95332568D01*
X122034651Y-95331545D01*
X122051810Y-95324437D01*
X122069413Y-95312676D01*
X122084381Y-95297709D01*
X122096142Y-95280106D01*
X122104243Y-95260549D01*
X122108374Y-95239783D01*
X122108374Y-95218617D01*
X122104244Y-95197851D01*
X122096143Y-95178294D01*
X122084382Y-95160691D01*
X122069415Y-95145723D01*
X122051812Y-95133962D01*
X122034647Y-95126852D01*
X122033429Y-95125265D01*
X122034194Y-95123417D01*
X122035608Y-95123014D01*
X122078095Y-95127198D01*
X123427907Y-95127198D01*
X123470394Y-95123014D01*
X123472216Y-95123839D01*
G37*
G36*
X129172214Y-95123839D02*
G01*
X129172410Y-95125829D01*
X129171353Y-95126852D01*
X129154188Y-95133962D01*
X129136586Y-95145723D01*
X129121618Y-95160691D01*
X129109857Y-95178293D01*
X129101756Y-95197851D01*
X129097626Y-95218617D01*
X129097626Y-95239783D01*
X129101757Y-95260549D01*
X129109858Y-95280106D01*
X129121619Y-95297708D01*
X129136587Y-95312676D01*
X129154189Y-95324437D01*
X129171349Y-95331545D01*
X129172567Y-95333132D01*
X129171802Y-95334980D01*
X129170388Y-95335383D01*
X129127905Y-95331199D01*
X127778093Y-95331199D01*
X127735610Y-95335383D01*
X127733788Y-95334558D01*
X127733592Y-95332568D01*
X127734649Y-95331545D01*
X127751808Y-95324437D01*
X127769411Y-95312676D01*
X127784379Y-95297709D01*
X127796140Y-95280106D01*
X127804241Y-95260549D01*
X127808372Y-95239783D01*
X127808372Y-95218617D01*
X127804242Y-95197851D01*
X127796141Y-95178294D01*
X127784380Y-95160691D01*
X127769413Y-95145723D01*
X127751810Y-95133962D01*
X127734645Y-95126852D01*
X127733427Y-95125265D01*
X127734192Y-95123417D01*
X127735606Y-95123014D01*
X127778093Y-95127198D01*
X129127905Y-95127198D01*
X129170392Y-95123014D01*
X129172214Y-95123839D01*
G37*
G36*
X123472215Y-94473838D02*
G01*
X123472411Y-94475828D01*
X123471354Y-94476851D01*
X123454187Y-94483962D01*
X123436585Y-94495723D01*
X123421617Y-94510691D01*
X123409856Y-94528294D01*
X123401755Y-94547851D01*
X123397625Y-94568617D01*
X123397625Y-94589783D01*
X123401756Y-94610549D01*
X123409857Y-94630106D01*
X123421618Y-94647708D01*
X123436586Y-94662676D01*
X123454189Y-94674437D01*
X123471350Y-94681546D01*
X123472568Y-94683133D01*
X123471802Y-94684981D01*
X123470389Y-94685384D01*
X123427907Y-94681200D01*
X122078095Y-94681200D01*
X122035613Y-94685384D01*
X122033791Y-94684559D01*
X122033595Y-94682569D01*
X122034652Y-94681546D01*
X122051813Y-94674437D01*
X122069416Y-94662676D01*
X122084384Y-94647708D01*
X122096145Y-94630106D01*
X122104246Y-94610549D01*
X122108377Y-94589783D01*
X122108377Y-94568617D01*
X122104247Y-94547851D01*
X122096146Y-94528294D01*
X122084385Y-94510691D01*
X122069417Y-94495723D01*
X122051815Y-94483962D01*
X122034648Y-94476851D01*
X122033430Y-94475264D01*
X122034195Y-94473416D01*
X122035609Y-94473013D01*
X122078095Y-94477197D01*
X123427907Y-94477197D01*
X123470393Y-94473013D01*
X123472215Y-94473838D01*
G37*
G36*
X129172213Y-94473838D02*
G01*
X129172409Y-94475828D01*
X129171352Y-94476851D01*
X129154185Y-94483962D01*
X129136583Y-94495723D01*
X129121615Y-94510691D01*
X129109854Y-94528294D01*
X129101753Y-94547851D01*
X129097623Y-94568617D01*
X129097623Y-94589783D01*
X129101754Y-94610549D01*
X129109855Y-94630106D01*
X129121616Y-94647708D01*
X129136584Y-94662676D01*
X129154187Y-94674437D01*
X129171348Y-94681546D01*
X129172566Y-94683133D01*
X129171800Y-94684981D01*
X129170387Y-94685384D01*
X129127905Y-94681200D01*
X127778093Y-94681200D01*
X127735611Y-94685384D01*
X127733789Y-94684559D01*
X127733593Y-94682569D01*
X127734650Y-94681546D01*
X127751811Y-94674437D01*
X127769414Y-94662676D01*
X127784382Y-94647708D01*
X127796143Y-94630106D01*
X127804244Y-94610549D01*
X127808375Y-94589783D01*
X127808375Y-94568617D01*
X127804245Y-94547851D01*
X127796144Y-94528294D01*
X127784383Y-94510691D01*
X127769415Y-94495723D01*
X127751813Y-94483962D01*
X127734646Y-94476851D01*
X127733428Y-94475264D01*
X127734193Y-94473416D01*
X127735607Y-94473013D01*
X127778093Y-94477197D01*
X129127905Y-94477197D01*
X129170391Y-94473013D01*
X129172213Y-94473838D01*
G37*
G36*
X154764532Y-94326000D02*
G01*
X154764800Y-94327000D01*
X154764800Y-94477000D01*
X154763800Y-94478732D01*
X154762800Y-94479000D01*
X152362800Y-94479000D01*
X152361068Y-94478000D01*
X152360800Y-94477000D01*
X152360800Y-94327000D01*
X152361800Y-94325268D01*
X152362800Y-94325000D01*
X154762800Y-94325000D01*
X154764532Y-94326000D01*
G37*
G36*
X166764532Y-94326000D02*
G01*
X166764800Y-94327000D01*
X166764800Y-94477000D01*
X166763800Y-94478732D01*
X166762800Y-94479000D01*
X164362800Y-94479000D01*
X164361068Y-94478000D01*
X164360800Y-94477000D01*
X164360800Y-94327000D01*
X164361800Y-94325268D01*
X164362800Y-94325000D01*
X166762800Y-94325000D01*
X166764532Y-94326000D01*
G37*
G36*
X129172214Y-93823839D02*
G01*
X129172410Y-93825829D01*
X129171353Y-93826852D01*
X129154188Y-93833962D01*
X129136586Y-93845723D01*
X129121618Y-93860691D01*
X129109857Y-93878293D01*
X129101756Y-93897851D01*
X129097626Y-93918617D01*
X129097626Y-93939783D01*
X129101757Y-93960549D01*
X129109858Y-93980106D01*
X129121619Y-93997708D01*
X129136587Y-94012676D01*
X129154189Y-94024437D01*
X129171349Y-94031545D01*
X129172567Y-94033132D01*
X129171802Y-94034980D01*
X129170388Y-94035383D01*
X129127905Y-94031199D01*
X127778093Y-94031199D01*
X127735610Y-94035383D01*
X127733788Y-94034558D01*
X127733592Y-94032568D01*
X127734649Y-94031545D01*
X127751808Y-94024437D01*
X127769411Y-94012676D01*
X127784379Y-93997709D01*
X127796140Y-93980106D01*
X127804241Y-93960549D01*
X127808372Y-93939783D01*
X127808372Y-93918617D01*
X127804242Y-93897851D01*
X127796141Y-93878294D01*
X127784380Y-93860691D01*
X127769413Y-93845723D01*
X127751810Y-93833962D01*
X127734645Y-93826852D01*
X127733427Y-93825265D01*
X127734192Y-93823417D01*
X127735606Y-93823014D01*
X127778093Y-93827198D01*
X129127905Y-93827198D01*
X129170392Y-93823014D01*
X129172214Y-93823839D01*
G37*
G36*
X123472216Y-93823839D02*
G01*
X123472412Y-93825829D01*
X123471355Y-93826852D01*
X123454190Y-93833962D01*
X123436588Y-93845723D01*
X123421620Y-93860691D01*
X123409859Y-93878293D01*
X123401758Y-93897851D01*
X123397628Y-93918617D01*
X123397628Y-93939783D01*
X123401759Y-93960549D01*
X123409860Y-93980106D01*
X123421621Y-93997708D01*
X123436589Y-94012676D01*
X123454191Y-94024437D01*
X123471351Y-94031545D01*
X123472569Y-94033132D01*
X123471804Y-94034980D01*
X123470390Y-94035383D01*
X123427907Y-94031199D01*
X122078095Y-94031199D01*
X122035612Y-94035383D01*
X122033790Y-94034558D01*
X122033594Y-94032568D01*
X122034651Y-94031545D01*
X122051810Y-94024437D01*
X122069413Y-94012676D01*
X122084381Y-93997709D01*
X122096142Y-93980106D01*
X122104243Y-93960549D01*
X122108374Y-93939783D01*
X122108374Y-93918617D01*
X122104244Y-93897851D01*
X122096143Y-93878294D01*
X122084382Y-93860691D01*
X122069415Y-93845723D01*
X122051812Y-93833962D01*
X122034647Y-93826852D01*
X122033429Y-93825265D01*
X122034194Y-93823417D01*
X122035608Y-93823014D01*
X122078095Y-93827198D01*
X123427907Y-93827198D01*
X123470394Y-93823014D01*
X123472216Y-93823839D01*
G37*
G36*
X123472215Y-93173838D02*
G01*
X123472411Y-93175828D01*
X123471354Y-93176851D01*
X123454187Y-93183962D01*
X123436585Y-93195723D01*
X123421617Y-93210691D01*
X123409856Y-93228294D01*
X123401755Y-93247851D01*
X123397625Y-93268617D01*
X123397625Y-93289783D01*
X123401756Y-93310549D01*
X123409857Y-93330106D01*
X123421618Y-93347708D01*
X123436586Y-93362676D01*
X123454189Y-93374437D01*
X123471350Y-93381546D01*
X123472568Y-93383133D01*
X123471802Y-93384981D01*
X123470389Y-93385384D01*
X123427907Y-93381200D01*
X122078095Y-93381200D01*
X122035613Y-93385384D01*
X122033791Y-93384559D01*
X122033595Y-93382569D01*
X122034652Y-93381546D01*
X122051813Y-93374437D01*
X122069416Y-93362676D01*
X122084384Y-93347708D01*
X122096145Y-93330106D01*
X122104246Y-93310549D01*
X122108377Y-93289783D01*
X122108377Y-93268617D01*
X122104247Y-93247851D01*
X122096146Y-93228294D01*
X122084385Y-93210691D01*
X122069417Y-93195723D01*
X122051815Y-93183962D01*
X122034648Y-93176851D01*
X122033430Y-93175264D01*
X122034195Y-93173416D01*
X122035609Y-93173013D01*
X122078095Y-93177197D01*
X123427907Y-93177197D01*
X123470393Y-93173013D01*
X123472215Y-93173838D01*
G37*
G36*
X129172213Y-93173838D02*
G01*
X129172409Y-93175828D01*
X129171352Y-93176851D01*
X129154185Y-93183962D01*
X129136583Y-93195723D01*
X129121615Y-93210691D01*
X129109854Y-93228294D01*
X129101753Y-93247851D01*
X129097623Y-93268617D01*
X129097623Y-93289783D01*
X129101754Y-93310549D01*
X129109855Y-93330106D01*
X129121616Y-93347708D01*
X129136584Y-93362676D01*
X129154187Y-93374437D01*
X129171348Y-93381546D01*
X129172566Y-93383133D01*
X129171800Y-93384981D01*
X129170387Y-93385384D01*
X129127905Y-93381200D01*
X127778093Y-93381200D01*
X127735611Y-93385384D01*
X127733789Y-93384559D01*
X127733593Y-93382569D01*
X127734650Y-93381546D01*
X127751811Y-93374437D01*
X127769414Y-93362676D01*
X127784382Y-93347708D01*
X127796143Y-93330106D01*
X127804244Y-93310549D01*
X127808375Y-93289783D01*
X127808375Y-93268617D01*
X127804245Y-93247851D01*
X127796144Y-93228294D01*
X127784383Y-93210691D01*
X127769415Y-93195723D01*
X127751813Y-93183962D01*
X127734646Y-93176851D01*
X127733428Y-93175264D01*
X127734193Y-93173416D01*
X127735607Y-93173013D01*
X127778093Y-93177197D01*
X129127905Y-93177197D01*
X129170391Y-93173013D01*
X129172213Y-93173838D01*
G37*
G36*
X166764532Y-93076000D02*
G01*
X166764800Y-93077000D01*
X166764800Y-93227000D01*
X166763800Y-93228732D01*
X166762800Y-93229000D01*
X164362800Y-93229000D01*
X164361068Y-93228000D01*
X164360800Y-93227000D01*
X164360800Y-93077000D01*
X164361800Y-93075268D01*
X164362800Y-93075000D01*
X166762800Y-93075000D01*
X166764532Y-93076000D01*
G37*
G36*
X154764532Y-93076000D02*
G01*
X154764800Y-93077000D01*
X154764800Y-93227000D01*
X154763800Y-93228732D01*
X154762800Y-93229000D01*
X152362800Y-93229000D01*
X152361068Y-93228000D01*
X152360800Y-93227000D01*
X152360800Y-93077000D01*
X152361800Y-93075268D01*
X152362800Y-93075000D01*
X154762800Y-93075000D01*
X154764532Y-93076000D01*
G37*
G36*
X129172210Y-92523839D02*
G01*
X129172406Y-92525829D01*
X129171349Y-92526852D01*
X129154190Y-92533960D01*
X129136587Y-92545721D01*
X129121619Y-92560688D01*
X129109858Y-92578291D01*
X129101757Y-92597848D01*
X129097626Y-92618614D01*
X129097626Y-92639780D01*
X129101756Y-92660546D01*
X129109857Y-92680103D01*
X129121618Y-92697706D01*
X129136585Y-92712674D01*
X129154188Y-92724435D01*
X129171353Y-92731545D01*
X129172571Y-92733132D01*
X129171806Y-92734980D01*
X129170392Y-92735383D01*
X129127905Y-92731199D01*
X127778093Y-92731199D01*
X127735606Y-92735383D01*
X127733784Y-92734558D01*
X127733588Y-92732568D01*
X127734645Y-92731545D01*
X127751810Y-92724435D01*
X127769412Y-92712674D01*
X127784380Y-92697706D01*
X127796141Y-92680104D01*
X127804242Y-92660546D01*
X127808372Y-92639780D01*
X127808372Y-92618614D01*
X127804241Y-92597848D01*
X127796140Y-92578291D01*
X127784379Y-92560689D01*
X127769411Y-92545721D01*
X127751809Y-92533960D01*
X127734649Y-92526852D01*
X127733431Y-92525265D01*
X127734196Y-92523417D01*
X127735610Y-92523014D01*
X127778093Y-92527198D01*
X129127905Y-92527198D01*
X129170388Y-92523014D01*
X129172210Y-92523839D01*
G37*
G36*
X123472212Y-92523839D02*
G01*
X123472408Y-92525829D01*
X123471351Y-92526852D01*
X123454192Y-92533960D01*
X123436589Y-92545721D01*
X123421621Y-92560688D01*
X123409860Y-92578291D01*
X123401759Y-92597848D01*
X123397628Y-92618614D01*
X123397628Y-92639780D01*
X123401758Y-92660546D01*
X123409859Y-92680103D01*
X123421620Y-92697706D01*
X123436587Y-92712674D01*
X123454190Y-92724435D01*
X123471355Y-92731545D01*
X123472573Y-92733132D01*
X123471808Y-92734980D01*
X123470394Y-92735383D01*
X123427907Y-92731199D01*
X122078095Y-92731199D01*
X122035608Y-92735383D01*
X122033786Y-92734558D01*
X122033590Y-92732568D01*
X122034647Y-92731545D01*
X122051812Y-92724435D01*
X122069414Y-92712674D01*
X122084382Y-92697706D01*
X122096143Y-92680104D01*
X122104244Y-92660546D01*
X122108374Y-92639780D01*
X122108374Y-92618614D01*
X122104243Y-92597848D01*
X122096142Y-92578291D01*
X122084381Y-92560689D01*
X122069413Y-92545721D01*
X122051811Y-92533960D01*
X122034651Y-92526852D01*
X122033433Y-92525265D01*
X122034198Y-92523417D01*
X122035612Y-92523014D01*
X122078095Y-92527198D01*
X123427907Y-92527198D01*
X123470390Y-92523014D01*
X123472212Y-92523839D01*
G37*
G36*
X129172213Y-91873838D02*
G01*
X129172409Y-91875828D01*
X129171352Y-91876851D01*
X129154185Y-91883962D01*
X129136583Y-91895723D01*
X129121615Y-91910691D01*
X129109854Y-91928294D01*
X129101753Y-91947851D01*
X129097623Y-91968617D01*
X129097623Y-91989783D01*
X129101754Y-92010549D01*
X129109855Y-92030106D01*
X129121616Y-92047708D01*
X129136584Y-92062676D01*
X129154187Y-92074437D01*
X129171348Y-92081546D01*
X129172566Y-92083133D01*
X129171800Y-92084981D01*
X129170387Y-92085384D01*
X129127905Y-92081200D01*
X127778093Y-92081200D01*
X127735611Y-92085384D01*
X127733789Y-92084559D01*
X127733593Y-92082569D01*
X127734650Y-92081546D01*
X127751811Y-92074437D01*
X127769414Y-92062676D01*
X127784382Y-92047708D01*
X127796143Y-92030106D01*
X127804244Y-92010549D01*
X127808375Y-91989783D01*
X127808375Y-91968617D01*
X127804245Y-91947851D01*
X127796144Y-91928294D01*
X127784383Y-91910691D01*
X127769415Y-91895723D01*
X127751813Y-91883962D01*
X127734646Y-91876851D01*
X127733428Y-91875264D01*
X127734193Y-91873416D01*
X127735607Y-91873013D01*
X127778093Y-91877197D01*
X129127905Y-91877197D01*
X129170391Y-91873013D01*
X129172213Y-91873838D01*
G37*
G36*
X123472215Y-91873838D02*
G01*
X123472411Y-91875828D01*
X123471354Y-91876851D01*
X123454187Y-91883962D01*
X123436585Y-91895723D01*
X123421617Y-91910691D01*
X123409856Y-91928294D01*
X123401755Y-91947851D01*
X123397625Y-91968617D01*
X123397625Y-91989783D01*
X123401756Y-92010549D01*
X123409857Y-92030106D01*
X123421618Y-92047708D01*
X123436586Y-92062676D01*
X123454189Y-92074437D01*
X123471350Y-92081546D01*
X123472568Y-92083133D01*
X123471802Y-92084981D01*
X123470389Y-92085384D01*
X123427907Y-92081200D01*
X122078095Y-92081200D01*
X122035613Y-92085384D01*
X122033791Y-92084559D01*
X122033595Y-92082569D01*
X122034652Y-92081546D01*
X122051813Y-92074437D01*
X122069416Y-92062676D01*
X122084384Y-92047708D01*
X122096145Y-92030106D01*
X122104246Y-92010549D01*
X122108377Y-91989783D01*
X122108377Y-91968617D01*
X122104247Y-91947851D01*
X122096146Y-91928294D01*
X122084385Y-91910691D01*
X122069417Y-91895723D01*
X122051815Y-91883962D01*
X122034648Y-91876851D01*
X122033430Y-91875264D01*
X122034195Y-91873416D01*
X122035609Y-91873013D01*
X122078095Y-91877197D01*
X123427907Y-91877197D01*
X123470393Y-91873013D01*
X123472215Y-91873838D01*
G37*
G36*
X166764532Y-91826000D02*
G01*
X166764800Y-91827000D01*
X166764800Y-91977000D01*
X166763800Y-91978732D01*
X166762800Y-91979000D01*
X164362800Y-91979000D01*
X164361068Y-91978000D01*
X164360800Y-91977000D01*
X164360800Y-91827000D01*
X164361800Y-91825268D01*
X164362800Y-91825000D01*
X166762800Y-91825000D01*
X166764532Y-91826000D01*
G37*
G36*
X154764532Y-91826000D02*
G01*
X154764800Y-91827000D01*
X154764800Y-91977000D01*
X154763800Y-91978732D01*
X154762800Y-91979000D01*
X152362800Y-91979000D01*
X152361068Y-91978000D01*
X152360800Y-91977000D01*
X152360800Y-91827000D01*
X152361800Y-91825268D01*
X152362800Y-91825000D01*
X154762800Y-91825000D01*
X154764532Y-91826000D01*
G37*
G36*
X129172211Y-91223840D02*
G01*
X129172407Y-91225830D01*
X129171350Y-91226853D01*
X129154190Y-91233961D01*
X129136588Y-91245722D01*
X129121620Y-91260690D01*
X129109859Y-91278292D01*
X129101758Y-91297849D01*
X129097627Y-91318616D01*
X129097627Y-91339781D01*
X129101757Y-91360547D01*
X129109858Y-91380105D01*
X129121619Y-91397707D01*
X129136587Y-91412675D01*
X129154189Y-91424436D01*
X129171351Y-91431545D01*
X129172569Y-91433132D01*
X129171804Y-91434980D01*
X129170390Y-91435383D01*
X129127905Y-91431199D01*
X127778093Y-91431199D01*
X127735609Y-91435383D01*
X127733787Y-91434558D01*
X127733591Y-91432568D01*
X127734648Y-91431545D01*
X127751808Y-91424437D01*
X127769410Y-91412676D01*
X127784378Y-91397708D01*
X127796139Y-91380106D01*
X127804240Y-91360549D01*
X127808371Y-91339782D01*
X127808371Y-91318617D01*
X127804241Y-91297851D01*
X127796140Y-91278293D01*
X127784379Y-91260691D01*
X127769411Y-91245723D01*
X127751809Y-91233962D01*
X127734647Y-91226853D01*
X127733429Y-91225266D01*
X127734194Y-91223418D01*
X127735608Y-91223015D01*
X127778093Y-91227199D01*
X129127905Y-91227199D01*
X129170389Y-91223015D01*
X129172211Y-91223840D01*
G37*
G36*
X123472213Y-91223840D02*
G01*
X123472409Y-91225830D01*
X123471352Y-91226853D01*
X123454192Y-91233961D01*
X123436590Y-91245722D01*
X123421622Y-91260690D01*
X123409861Y-91278292D01*
X123401760Y-91297849D01*
X123397629Y-91318616D01*
X123397629Y-91339781D01*
X123401759Y-91360547D01*
X123409860Y-91380105D01*
X123421621Y-91397707D01*
X123436589Y-91412675D01*
X123454191Y-91424436D01*
X123471353Y-91431545D01*
X123472571Y-91433132D01*
X123471806Y-91434980D01*
X123470392Y-91435383D01*
X123427907Y-91431199D01*
X122078095Y-91431199D01*
X122035611Y-91435383D01*
X122033789Y-91434558D01*
X122033593Y-91432568D01*
X122034650Y-91431545D01*
X122051810Y-91424437D01*
X122069412Y-91412676D01*
X122084380Y-91397708D01*
X122096141Y-91380106D01*
X122104242Y-91360549D01*
X122108373Y-91339782D01*
X122108373Y-91318617D01*
X122104243Y-91297851D01*
X122096142Y-91278293D01*
X122084381Y-91260691D01*
X122069413Y-91245723D01*
X122051811Y-91233962D01*
X122034649Y-91226853D01*
X122033431Y-91225266D01*
X122034196Y-91223418D01*
X122035610Y-91223015D01*
X122078095Y-91227199D01*
X123427907Y-91227199D01*
X123470391Y-91223015D01*
X123472213Y-91223840D01*
G37*
G36*
X123472211Y-90573838D02*
G01*
X123472407Y-90575828D01*
X123471350Y-90576851D01*
X123454186Y-90583961D01*
X123436584Y-90595722D01*
X123421616Y-90610690D01*
X123409855Y-90628293D01*
X123401754Y-90647850D01*
X123397623Y-90668616D01*
X123397623Y-90689782D01*
X123401753Y-90710548D01*
X123409854Y-90730105D01*
X123421615Y-90747707D01*
X123436583Y-90762675D01*
X123454186Y-90774436D01*
X123471350Y-90781547D01*
X123472568Y-90783134D01*
X123471802Y-90784982D01*
X123470389Y-90785385D01*
X123427907Y-90781201D01*
X122078095Y-90781201D01*
X122035613Y-90785385D01*
X122033791Y-90784560D01*
X122033595Y-90782570D01*
X122034652Y-90781547D01*
X122051816Y-90774437D01*
X122069418Y-90762676D01*
X122084386Y-90747708D01*
X122096147Y-90730105D01*
X122104248Y-90710548D01*
X122108379Y-90689782D01*
X122108379Y-90668616D01*
X122104249Y-90647850D01*
X122096148Y-90628293D01*
X122084387Y-90610691D01*
X122069419Y-90595723D01*
X122051816Y-90583962D01*
X122034652Y-90576851D01*
X122033434Y-90575264D01*
X122034200Y-90573416D01*
X122035613Y-90573013D01*
X122078095Y-90577197D01*
X123427907Y-90577197D01*
X123470389Y-90573013D01*
X123472211Y-90573838D01*
G37*
G36*
X129172209Y-90573838D02*
G01*
X129172405Y-90575828D01*
X129171348Y-90576851D01*
X129154184Y-90583961D01*
X129136582Y-90595722D01*
X129121614Y-90610690D01*
X129109853Y-90628293D01*
X129101752Y-90647850D01*
X129097621Y-90668616D01*
X129097621Y-90689782D01*
X129101751Y-90710548D01*
X129109852Y-90730105D01*
X129121613Y-90747707D01*
X129136581Y-90762675D01*
X129154184Y-90774436D01*
X129171348Y-90781547D01*
X129172566Y-90783134D01*
X129171800Y-90784982D01*
X129170387Y-90785385D01*
X129127905Y-90781201D01*
X127778093Y-90781201D01*
X127735611Y-90785385D01*
X127733789Y-90784560D01*
X127733593Y-90782570D01*
X127734650Y-90781547D01*
X127751814Y-90774437D01*
X127769416Y-90762676D01*
X127784384Y-90747708D01*
X127796145Y-90730105D01*
X127804246Y-90710548D01*
X127808377Y-90689782D01*
X127808377Y-90668616D01*
X127804247Y-90647850D01*
X127796146Y-90628293D01*
X127784385Y-90610691D01*
X127769417Y-90595723D01*
X127751814Y-90583962D01*
X127734650Y-90576851D01*
X127733432Y-90575264D01*
X127734198Y-90573416D01*
X127735611Y-90573013D01*
X127778093Y-90577197D01*
X129127905Y-90577197D01*
X129170387Y-90573013D01*
X129172209Y-90573838D01*
G37*
G36*
X161514532Y-87826000D02*
G01*
X161514800Y-87827000D01*
X161514800Y-90227000D01*
X161513800Y-90228732D01*
X161512800Y-90229000D01*
X161362800Y-90229000D01*
X161361068Y-90228000D01*
X161360800Y-90227000D01*
X161360800Y-87827000D01*
X161361800Y-87825268D01*
X161362800Y-87825000D01*
X161512800Y-87825000D01*
X161514532Y-87826000D01*
G37*
G36*
X157764532Y-87826000D02*
G01*
X157764800Y-87827000D01*
X157764800Y-90227000D01*
X157763800Y-90228732D01*
X157762800Y-90229000D01*
X157612800Y-90229000D01*
X157611068Y-90228000D01*
X157610800Y-90227000D01*
X157610800Y-87827000D01*
X157611800Y-87825268D01*
X157612800Y-87825000D01*
X157762800Y-87825000D01*
X157764532Y-87826000D01*
G37*
G36*
X159014532Y-87826000D02*
G01*
X159014800Y-87827000D01*
X159014800Y-90227000D01*
X159013800Y-90228732D01*
X159012800Y-90229000D01*
X158862800Y-90229000D01*
X158861068Y-90228000D01*
X158860800Y-90227000D01*
X158860800Y-87827000D01*
X158861800Y-87825268D01*
X158862800Y-87825000D01*
X159012800Y-87825000D01*
X159014532Y-87826000D01*
G37*
G36*
X156514532Y-87826000D02*
G01*
X156514800Y-87827000D01*
X156514800Y-90227000D01*
X156513800Y-90228732D01*
X156512800Y-90229000D01*
X156362800Y-90229000D01*
X156361068Y-90228000D01*
X156360800Y-90227000D01*
X156360800Y-87827000D01*
X156361800Y-87825268D01*
X156362800Y-87825000D01*
X156512800Y-87825000D01*
X156514532Y-87826000D01*
G37*
G36*
X162764532Y-87826000D02*
G01*
X162764800Y-87827000D01*
X162764800Y-90227000D01*
X162763800Y-90228732D01*
X162762800Y-90229000D01*
X162612800Y-90229000D01*
X162611068Y-90228000D01*
X162610800Y-90227000D01*
X162610800Y-87827000D01*
X162611800Y-87825268D01*
X162612800Y-87825000D01*
X162762800Y-87825000D01*
X162764532Y-87826000D01*
G37*
G36*
X160264532Y-87826000D02*
G01*
X160264800Y-87827000D01*
X160264800Y-90227000D01*
X160263800Y-90228732D01*
X160262800Y-90229000D01*
X160112800Y-90229000D01*
X160111068Y-90228000D01*
X160110800Y-90227000D01*
X160110800Y-87827000D01*
X160111800Y-87825268D01*
X160112800Y-87825000D01*
X160262800Y-87825000D01*
X160264532Y-87826000D01*
G37*
G36*
X140375065Y-80467776D02*
G01*
X140375900Y-80469402D01*
X140375900Y-81177600D01*
X140374900Y-81179332D01*
X140373900Y-81179600D01*
X140372028Y-81179600D01*
X140370038Y-81177796D01*
X140369816Y-81175535D01*
X140363670Y-81155274D01*
X140353691Y-81136604D01*
X140340261Y-81120240D01*
X140323897Y-81106810D01*
X140305227Y-81096831D01*
X140284966Y-81090685D01*
X140263705Y-81088591D01*
X140262079Y-81087426D01*
X140262275Y-81085436D01*
X140263901Y-81084601D01*
X140306799Y-81084601D01*
X140306799Y-80581401D01*
X140263901Y-80581401D01*
X140262169Y-80580401D01*
X140262169Y-80578401D01*
X140263705Y-80577411D01*
X140284966Y-80575317D01*
X140305227Y-80569171D01*
X140323897Y-80559192D01*
X140340261Y-80545762D01*
X140353691Y-80529398D01*
X140363670Y-80510728D01*
X140369816Y-80490467D01*
X140371910Y-80469206D01*
X140373075Y-80467580D01*
X140375065Y-80467776D01*
G37*
G36*
X142228490Y-80469206D02*
G01*
X142230584Y-80490467D01*
X142236730Y-80510728D01*
X142246709Y-80529398D01*
X142260139Y-80545762D01*
X142276503Y-80559192D01*
X142295173Y-80569171D01*
X142315434Y-80575317D01*
X142336695Y-80577411D01*
X142338321Y-80578576D01*
X142338125Y-80580566D01*
X142336499Y-80581401D01*
X142293601Y-80581401D01*
X142293601Y-81084601D01*
X142336499Y-81084601D01*
X142338231Y-81085601D01*
X142338231Y-81087601D01*
X142336695Y-81088591D01*
X142315434Y-81090685D01*
X142295173Y-81096831D01*
X142276503Y-81106810D01*
X142260139Y-81120240D01*
X142246709Y-81136604D01*
X142236730Y-81155274D01*
X142230584Y-81175535D01*
X142230362Y-81177796D01*
X142228372Y-81179600D01*
X142226500Y-81179600D01*
X142224768Y-81178600D01*
X142224500Y-81177600D01*
X142224500Y-80469402D01*
X142225500Y-80467670D01*
X142227500Y-80467670D01*
X142228490Y-80469206D01*
G37*
G36*
X142228490Y-79519205D02*
G01*
X142230584Y-79540466D01*
X142236730Y-79560727D01*
X142246709Y-79579397D01*
X142260139Y-79595761D01*
X142276503Y-79609191D01*
X142295173Y-79619170D01*
X142315434Y-79625316D01*
X142336695Y-79627410D01*
X142338321Y-79628575D01*
X142338125Y-79630565D01*
X142336499Y-79631400D01*
X142293601Y-79631400D01*
X142293601Y-80134600D01*
X142336499Y-80134600D01*
X142338231Y-80135600D01*
X142338231Y-80137600D01*
X142336695Y-80138590D01*
X142315434Y-80140684D01*
X142295173Y-80146830D01*
X142276503Y-80156809D01*
X142260139Y-80170239D01*
X142246709Y-80186603D01*
X142236730Y-80205273D01*
X142230584Y-80225534D01*
X142228490Y-80246795D01*
X142227325Y-80248421D01*
X142225335Y-80248225D01*
X142224500Y-80246599D01*
X142224500Y-79519401D01*
X142225500Y-79517669D01*
X142227500Y-79517669D01*
X142228490Y-79519205D01*
G37*
G36*
X140375065Y-79517775D02*
G01*
X140375900Y-79519401D01*
X140375900Y-80246599D01*
X140374900Y-80248331D01*
X140372900Y-80248331D01*
X140371910Y-80246795D01*
X140369816Y-80225534D01*
X140363670Y-80205273D01*
X140353691Y-80186603D01*
X140340261Y-80170239D01*
X140323897Y-80156809D01*
X140305227Y-80146830D01*
X140284966Y-80140684D01*
X140263705Y-80138590D01*
X140262079Y-80137425D01*
X140262275Y-80135435D01*
X140263901Y-80134600D01*
X140306799Y-80134600D01*
X140306799Y-79631400D01*
X140263901Y-79631400D01*
X140262169Y-79630400D01*
X140262169Y-79628400D01*
X140263705Y-79627410D01*
X140284966Y-79625316D01*
X140305227Y-79619170D01*
X140323897Y-79609191D01*
X140340261Y-79595761D01*
X140353691Y-79579397D01*
X140363670Y-79560727D01*
X140369816Y-79540466D01*
X140371910Y-79519205D01*
X140373075Y-79517579D01*
X140375065Y-79517775D01*
G37*
G36*
X142230362Y-78588204D02*
G01*
X142230584Y-78590465D01*
X142236730Y-78610726D01*
X142246709Y-78629396D01*
X142260139Y-78645760D01*
X142276503Y-78659190D01*
X142295173Y-78669169D01*
X142315434Y-78675315D01*
X142336695Y-78677409D01*
X142338321Y-78678574D01*
X142338125Y-78680564D01*
X142336499Y-78681399D01*
X142293601Y-78681399D01*
X142293601Y-79184599D01*
X142336499Y-79184599D01*
X142338231Y-79185599D01*
X142338231Y-79187599D01*
X142336695Y-79188589D01*
X142315434Y-79190683D01*
X142295173Y-79196829D01*
X142276503Y-79206808D01*
X142260139Y-79220238D01*
X142246709Y-79236602D01*
X142236730Y-79255272D01*
X142230584Y-79275533D01*
X142228490Y-79296794D01*
X142227325Y-79298420D01*
X142225335Y-79298224D01*
X142224500Y-79296598D01*
X142224500Y-78588400D01*
X142225500Y-78586668D01*
X142226500Y-78586400D01*
X142228372Y-78586400D01*
X142230362Y-78588204D01*
G37*
G36*
X140375632Y-78587400D02*
G01*
X140375900Y-78588400D01*
X140375900Y-79296598D01*
X140374900Y-79298330D01*
X140372900Y-79298330D01*
X140371910Y-79296794D01*
X140369816Y-79275533D01*
X140363670Y-79255272D01*
X140353691Y-79236602D01*
X140340261Y-79220238D01*
X140323897Y-79206808D01*
X140305227Y-79196829D01*
X140284966Y-79190683D01*
X140263705Y-79188589D01*
X140262079Y-79187424D01*
X140262275Y-79185434D01*
X140263901Y-79184599D01*
X140306799Y-79184599D01*
X140306799Y-78681399D01*
X140263901Y-78681399D01*
X140262169Y-78680399D01*
X140262169Y-78678399D01*
X140263705Y-78677409D01*
X140284966Y-78675315D01*
X140305227Y-78669169D01*
X140323897Y-78659190D01*
X140340261Y-78645760D01*
X140353691Y-78629396D01*
X140363670Y-78610726D01*
X140369816Y-78590465D01*
X140370038Y-78588204D01*
X140372028Y-78586400D01*
X140373900Y-78586400D01*
X140375632Y-78587400D01*
G37*
G36*
X173167395Y-73263010D02*
G01*
X173191225Y-73265357D01*
X173191610Y-73265433D01*
X173209331Y-73270809D01*
X173209693Y-73270959D01*
X173226026Y-73279689D01*
X173226352Y-73279907D01*
X173240667Y-73291656D01*
X173240944Y-73291933D01*
X173252693Y-73306248D01*
X173252911Y-73306574D01*
X173261641Y-73322907D01*
X173261791Y-73323269D01*
X173264224Y-73331289D01*
X173272363Y-73350937D01*
X173284124Y-73368539D01*
X173299092Y-73383507D01*
X173316695Y-73395268D01*
X173336252Y-73403369D01*
X173357018Y-73407499D01*
X173378184Y-73407499D01*
X173398950Y-73403368D01*
X173418507Y-73395267D01*
X173436109Y-73383506D01*
X173451077Y-73368538D01*
X173462838Y-73350935D01*
X173470976Y-73331289D01*
X173473409Y-73323269D01*
X173473559Y-73322907D01*
X173482289Y-73306574D01*
X173482507Y-73306248D01*
X173494256Y-73291933D01*
X173494533Y-73291656D01*
X173508848Y-73279907D01*
X173509174Y-73279689D01*
X173525507Y-73270959D01*
X173525869Y-73270809D01*
X173543590Y-73265433D01*
X173543975Y-73265357D01*
X173567805Y-73263010D01*
X173568001Y-73263000D01*
X173617600Y-73263000D01*
X173619332Y-73264000D01*
X173619332Y-73266000D01*
X173617796Y-73266990D01*
X173588731Y-73269852D01*
X173560966Y-73278275D01*
X173535380Y-73291951D01*
X173512955Y-73310355D01*
X173494551Y-73332780D01*
X173480875Y-73358366D01*
X173472452Y-73386131D01*
X173469600Y-73415094D01*
X173469600Y-73739906D01*
X173472452Y-73768869D01*
X173480875Y-73796634D01*
X173494551Y-73822220D01*
X173512955Y-73844645D01*
X173535380Y-73863049D01*
X173560966Y-73876725D01*
X173588731Y-73885148D01*
X173617796Y-73888010D01*
X173619422Y-73889175D01*
X173619226Y-73891165D01*
X173617600Y-73892000D01*
X173568001Y-73892000D01*
X173567805Y-73891990D01*
X173543975Y-73889643D01*
X173543590Y-73889567D01*
X173525869Y-73884191D01*
X173525507Y-73884041D01*
X173509174Y-73875311D01*
X173508848Y-73875093D01*
X173494533Y-73863344D01*
X173494256Y-73863067D01*
X173482507Y-73848752D01*
X173482289Y-73848426D01*
X173473559Y-73832093D01*
X173473409Y-73831731D01*
X173470976Y-73823711D01*
X173462837Y-73804063D01*
X173451076Y-73786461D01*
X173436108Y-73771493D01*
X173418505Y-73759732D01*
X173398948Y-73751631D01*
X173378182Y-73747501D01*
X173357016Y-73747501D01*
X173336250Y-73751632D01*
X173316693Y-73759733D01*
X173299091Y-73771494D01*
X173284123Y-73786462D01*
X173272362Y-73804065D01*
X173264224Y-73823711D01*
X173261791Y-73831731D01*
X173261641Y-73832093D01*
X173252911Y-73848426D01*
X173252693Y-73848752D01*
X173240944Y-73863067D01*
X173240667Y-73863344D01*
X173226352Y-73875093D01*
X173226026Y-73875311D01*
X173209693Y-73884041D01*
X173209331Y-73884191D01*
X173191610Y-73889567D01*
X173191225Y-73889643D01*
X173167395Y-73891990D01*
X173167199Y-73892000D01*
X173117600Y-73892000D01*
X173115868Y-73891000D01*
X173115868Y-73889000D01*
X173117404Y-73888010D01*
X173146469Y-73885148D01*
X173174234Y-73876725D01*
X173199820Y-73863049D01*
X173222245Y-73844645D01*
X173240649Y-73822220D01*
X173254325Y-73796634D01*
X173262748Y-73768869D01*
X173265600Y-73739906D01*
X173265600Y-73415094D01*
X173262748Y-73386131D01*
X173254325Y-73358366D01*
X173240649Y-73332780D01*
X173222245Y-73310355D01*
X173199820Y-73291951D01*
X173174234Y-73278275D01*
X173146469Y-73269852D01*
X173117404Y-73266990D01*
X173115778Y-73265825D01*
X173115974Y-73263835D01*
X173117600Y-73263000D01*
X173167199Y-73263000D01*
X173167395Y-73263010D01*
G37*
G36*
X171567395Y-73263010D02*
G01*
X171591225Y-73265357D01*
X171591610Y-73265433D01*
X171609331Y-73270809D01*
X171609693Y-73270959D01*
X171626026Y-73279689D01*
X171626352Y-73279907D01*
X171640667Y-73291656D01*
X171640944Y-73291933D01*
X171652693Y-73306248D01*
X171652911Y-73306574D01*
X171661641Y-73322907D01*
X171661791Y-73323269D01*
X171664224Y-73331289D01*
X171672363Y-73350937D01*
X171684124Y-73368539D01*
X171699092Y-73383507D01*
X171716695Y-73395268D01*
X171736252Y-73403369D01*
X171757018Y-73407499D01*
X171778184Y-73407499D01*
X171798950Y-73403368D01*
X171818507Y-73395267D01*
X171836109Y-73383506D01*
X171851077Y-73368538D01*
X171862838Y-73350935D01*
X171870976Y-73331289D01*
X171873409Y-73323269D01*
X171873559Y-73322907D01*
X171882289Y-73306574D01*
X171882507Y-73306248D01*
X171894256Y-73291933D01*
X171894533Y-73291656D01*
X171908848Y-73279907D01*
X171909174Y-73279689D01*
X171925507Y-73270959D01*
X171925869Y-73270809D01*
X171943590Y-73265433D01*
X171943975Y-73265357D01*
X171967805Y-73263010D01*
X171968001Y-73263000D01*
X172017600Y-73263000D01*
X172019332Y-73264000D01*
X172019332Y-73266000D01*
X172017796Y-73266990D01*
X171988731Y-73269852D01*
X171960966Y-73278275D01*
X171935380Y-73291951D01*
X171912955Y-73310355D01*
X171894551Y-73332780D01*
X171880875Y-73358366D01*
X171872452Y-73386131D01*
X171869600Y-73415094D01*
X171869600Y-73739906D01*
X171872452Y-73768869D01*
X171880875Y-73796634D01*
X171894551Y-73822220D01*
X171912955Y-73844645D01*
X171935380Y-73863049D01*
X171960966Y-73876725D01*
X171988731Y-73885148D01*
X172017796Y-73888010D01*
X172019422Y-73889175D01*
X172019226Y-73891165D01*
X172017600Y-73892000D01*
X171968001Y-73892000D01*
X171967805Y-73891990D01*
X171943975Y-73889643D01*
X171943590Y-73889567D01*
X171925869Y-73884191D01*
X171925507Y-73884041D01*
X171909174Y-73875311D01*
X171908848Y-73875093D01*
X171894533Y-73863344D01*
X171894256Y-73863067D01*
X171882507Y-73848752D01*
X171882289Y-73848426D01*
X171873559Y-73832093D01*
X171873409Y-73831731D01*
X171870976Y-73823711D01*
X171862837Y-73804063D01*
X171851076Y-73786461D01*
X171836108Y-73771493D01*
X171818505Y-73759732D01*
X171798948Y-73751631D01*
X171778182Y-73747501D01*
X171757016Y-73747501D01*
X171736250Y-73751632D01*
X171716693Y-73759733D01*
X171699091Y-73771494D01*
X171684123Y-73786462D01*
X171672362Y-73804065D01*
X171664224Y-73823711D01*
X171661791Y-73831731D01*
X171661641Y-73832093D01*
X171652911Y-73848426D01*
X171652693Y-73848752D01*
X171640944Y-73863067D01*
X171640667Y-73863344D01*
X171626352Y-73875093D01*
X171626026Y-73875311D01*
X171609693Y-73884041D01*
X171609331Y-73884191D01*
X171591610Y-73889567D01*
X171591225Y-73889643D01*
X171567395Y-73891990D01*
X171567199Y-73892000D01*
X171517600Y-73892000D01*
X171515868Y-73891000D01*
X171515868Y-73889000D01*
X171517404Y-73888010D01*
X171546469Y-73885148D01*
X171574234Y-73876725D01*
X171599820Y-73863049D01*
X171622245Y-73844645D01*
X171640649Y-73822220D01*
X171654325Y-73796634D01*
X171662748Y-73768869D01*
X171665600Y-73739906D01*
X171665600Y-73415094D01*
X171662748Y-73386131D01*
X171654325Y-73358366D01*
X171640649Y-73332780D01*
X171622245Y-73310355D01*
X171599820Y-73291951D01*
X171574234Y-73278275D01*
X171546469Y-73269852D01*
X171517404Y-73266990D01*
X171515778Y-73265825D01*
X171515974Y-73263835D01*
X171517600Y-73263000D01*
X171567199Y-73263000D01*
X171567395Y-73263010D01*
G37*
G36*
X172367395Y-73263010D02*
G01*
X172391225Y-73265357D01*
X172391610Y-73265433D01*
X172409331Y-73270809D01*
X172409693Y-73270959D01*
X172426026Y-73279689D01*
X172426352Y-73279907D01*
X172440667Y-73291656D01*
X172440944Y-73291933D01*
X172452693Y-73306248D01*
X172452911Y-73306574D01*
X172461641Y-73322907D01*
X172461791Y-73323269D01*
X172464224Y-73331289D01*
X172472363Y-73350937D01*
X172484124Y-73368539D01*
X172499092Y-73383507D01*
X172516695Y-73395268D01*
X172536252Y-73403369D01*
X172557018Y-73407499D01*
X172578184Y-73407499D01*
X172598950Y-73403368D01*
X172618507Y-73395267D01*
X172636109Y-73383506D01*
X172651077Y-73368538D01*
X172662838Y-73350935D01*
X172670976Y-73331289D01*
X172673409Y-73323269D01*
X172673559Y-73322907D01*
X172682289Y-73306574D01*
X172682507Y-73306248D01*
X172694256Y-73291933D01*
X172694533Y-73291656D01*
X172708848Y-73279907D01*
X172709174Y-73279689D01*
X172725507Y-73270959D01*
X172725869Y-73270809D01*
X172743590Y-73265433D01*
X172743975Y-73265357D01*
X172767805Y-73263010D01*
X172768001Y-73263000D01*
X172817600Y-73263000D01*
X172819332Y-73264000D01*
X172819332Y-73266000D01*
X172817796Y-73266990D01*
X172788731Y-73269852D01*
X172760966Y-73278275D01*
X172735380Y-73291951D01*
X172712955Y-73310355D01*
X172694551Y-73332780D01*
X172680875Y-73358366D01*
X172672452Y-73386131D01*
X172669600Y-73415094D01*
X172669600Y-73739906D01*
X172672452Y-73768869D01*
X172680875Y-73796634D01*
X172694551Y-73822220D01*
X172712955Y-73844645D01*
X172735380Y-73863049D01*
X172760966Y-73876725D01*
X172788731Y-73885148D01*
X172817796Y-73888010D01*
X172819422Y-73889175D01*
X172819226Y-73891165D01*
X172817600Y-73892000D01*
X172768001Y-73892000D01*
X172767805Y-73891990D01*
X172743975Y-73889643D01*
X172743590Y-73889567D01*
X172725869Y-73884191D01*
X172725507Y-73884041D01*
X172709174Y-73875311D01*
X172708848Y-73875093D01*
X172694533Y-73863344D01*
X172694256Y-73863067D01*
X172682507Y-73848752D01*
X172682289Y-73848426D01*
X172673559Y-73832093D01*
X172673409Y-73831731D01*
X172670976Y-73823711D01*
X172662837Y-73804063D01*
X172651076Y-73786461D01*
X172636108Y-73771493D01*
X172618505Y-73759732D01*
X172598948Y-73751631D01*
X172578182Y-73747501D01*
X172557016Y-73747501D01*
X172536250Y-73751632D01*
X172516693Y-73759733D01*
X172499091Y-73771494D01*
X172484123Y-73786462D01*
X172472362Y-73804065D01*
X172464224Y-73823711D01*
X172461791Y-73831731D01*
X172461641Y-73832093D01*
X172452911Y-73848426D01*
X172452693Y-73848752D01*
X172440944Y-73863067D01*
X172440667Y-73863344D01*
X172426352Y-73875093D01*
X172426026Y-73875311D01*
X172409693Y-73884041D01*
X172409331Y-73884191D01*
X172391610Y-73889567D01*
X172391225Y-73889643D01*
X172367395Y-73891990D01*
X172367199Y-73892000D01*
X172317600Y-73892000D01*
X172315868Y-73891000D01*
X172315868Y-73889000D01*
X172317404Y-73888010D01*
X172346469Y-73885148D01*
X172374234Y-73876725D01*
X172399820Y-73863049D01*
X172422245Y-73844645D01*
X172440649Y-73822220D01*
X172454325Y-73796634D01*
X172462748Y-73768869D01*
X172465600Y-73739906D01*
X172465600Y-73415094D01*
X172462748Y-73386131D01*
X172454325Y-73358366D01*
X172440649Y-73332780D01*
X172422245Y-73310355D01*
X172399820Y-73291951D01*
X172374234Y-73278275D01*
X172346469Y-73269852D01*
X172317404Y-73266990D01*
X172315778Y-73265825D01*
X172315974Y-73263835D01*
X172317600Y-73263000D01*
X172367199Y-73263000D01*
X172367395Y-73263010D01*
G37*
G36*
X171567395Y-70888010D02*
G01*
X171591225Y-70890357D01*
X171591610Y-70890433D01*
X171609331Y-70895809D01*
X171609693Y-70895959D01*
X171626026Y-70904689D01*
X171626352Y-70904907D01*
X171640667Y-70916656D01*
X171640944Y-70916933D01*
X171652693Y-70931248D01*
X171652911Y-70931574D01*
X171661641Y-70947907D01*
X171661791Y-70948269D01*
X171664224Y-70956289D01*
X171672363Y-70975937D01*
X171684124Y-70993539D01*
X171699092Y-71008507D01*
X171716695Y-71020268D01*
X171736252Y-71028369D01*
X171757018Y-71032499D01*
X171778184Y-71032499D01*
X171798950Y-71028368D01*
X171818507Y-71020267D01*
X171836109Y-71008506D01*
X171851077Y-70993538D01*
X171862838Y-70975935D01*
X171870976Y-70956289D01*
X171873409Y-70948269D01*
X171873559Y-70947907D01*
X171882289Y-70931574D01*
X171882507Y-70931248D01*
X171894256Y-70916933D01*
X171894533Y-70916656D01*
X171908848Y-70904907D01*
X171909174Y-70904689D01*
X171925507Y-70895959D01*
X171925869Y-70895809D01*
X171943590Y-70890433D01*
X171943975Y-70890357D01*
X171967805Y-70888010D01*
X171968001Y-70888000D01*
X172017600Y-70888000D01*
X172019332Y-70889000D01*
X172019332Y-70891000D01*
X172017796Y-70891990D01*
X171988731Y-70894852D01*
X171960966Y-70903275D01*
X171935380Y-70916951D01*
X171912955Y-70935355D01*
X171894551Y-70957780D01*
X171880875Y-70983366D01*
X171872452Y-71011131D01*
X171869600Y-71040094D01*
X171869600Y-71364906D01*
X171872452Y-71393869D01*
X171880875Y-71421634D01*
X171894551Y-71447220D01*
X171912955Y-71469645D01*
X171935380Y-71488049D01*
X171960966Y-71501725D01*
X171988731Y-71510148D01*
X172017796Y-71513010D01*
X172019422Y-71514175D01*
X172019226Y-71516165D01*
X172017600Y-71517000D01*
X171968001Y-71517000D01*
X171967805Y-71516990D01*
X171943975Y-71514643D01*
X171943590Y-71514567D01*
X171925869Y-71509191D01*
X171925507Y-71509041D01*
X171909174Y-71500311D01*
X171908848Y-71500093D01*
X171894533Y-71488344D01*
X171894256Y-71488067D01*
X171882507Y-71473752D01*
X171882289Y-71473426D01*
X171873559Y-71457093D01*
X171873409Y-71456731D01*
X171870976Y-71448711D01*
X171862837Y-71429063D01*
X171851076Y-71411461D01*
X171836108Y-71396493D01*
X171818505Y-71384732D01*
X171798948Y-71376631D01*
X171778182Y-71372501D01*
X171757016Y-71372501D01*
X171736250Y-71376632D01*
X171716693Y-71384733D01*
X171699091Y-71396494D01*
X171684123Y-71411462D01*
X171672362Y-71429065D01*
X171664224Y-71448711D01*
X171661791Y-71456731D01*
X171661641Y-71457093D01*
X171652911Y-71473426D01*
X171652693Y-71473752D01*
X171640944Y-71488067D01*
X171640667Y-71488344D01*
X171626352Y-71500093D01*
X171626026Y-71500311D01*
X171609693Y-71509041D01*
X171609331Y-71509191D01*
X171591610Y-71514567D01*
X171591225Y-71514643D01*
X171567395Y-71516990D01*
X171567199Y-71517000D01*
X171517600Y-71517000D01*
X171515868Y-71516000D01*
X171515868Y-71514000D01*
X171517404Y-71513010D01*
X171546469Y-71510148D01*
X171574234Y-71501725D01*
X171599820Y-71488049D01*
X171622245Y-71469645D01*
X171640649Y-71447220D01*
X171654325Y-71421634D01*
X171662748Y-71393869D01*
X171665600Y-71364906D01*
X171665600Y-71040094D01*
X171662748Y-71011131D01*
X171654325Y-70983366D01*
X171640649Y-70957780D01*
X171622245Y-70935355D01*
X171599820Y-70916951D01*
X171574234Y-70903275D01*
X171546469Y-70894852D01*
X171517404Y-70891990D01*
X171515778Y-70890825D01*
X171515974Y-70888835D01*
X171517600Y-70888000D01*
X171567199Y-70888000D01*
X171567395Y-70888010D01*
G37*
G36*
X172367395Y-70888010D02*
G01*
X172391225Y-70890357D01*
X172391610Y-70890433D01*
X172409331Y-70895809D01*
X172409693Y-70895959D01*
X172426026Y-70904689D01*
X172426352Y-70904907D01*
X172440667Y-70916656D01*
X172440944Y-70916933D01*
X172452693Y-70931248D01*
X172452911Y-70931574D01*
X172461641Y-70947907D01*
X172461791Y-70948269D01*
X172464224Y-70956289D01*
X172472363Y-70975937D01*
X172484124Y-70993539D01*
X172499092Y-71008507D01*
X172516695Y-71020268D01*
X172536252Y-71028369D01*
X172557018Y-71032499D01*
X172578184Y-71032499D01*
X172598950Y-71028368D01*
X172618507Y-71020267D01*
X172636109Y-71008506D01*
X172651077Y-70993538D01*
X172662838Y-70975935D01*
X172670976Y-70956289D01*
X172673409Y-70948269D01*
X172673559Y-70947907D01*
X172682289Y-70931574D01*
X172682507Y-70931248D01*
X172694256Y-70916933D01*
X172694533Y-70916656D01*
X172708848Y-70904907D01*
X172709174Y-70904689D01*
X172725507Y-70895959D01*
X172725869Y-70895809D01*
X172743590Y-70890433D01*
X172743975Y-70890357D01*
X172767805Y-70888010D01*
X172768001Y-70888000D01*
X172817600Y-70888000D01*
X172819332Y-70889000D01*
X172819332Y-70891000D01*
X172817796Y-70891990D01*
X172788731Y-70894852D01*
X172760966Y-70903275D01*
X172735380Y-70916951D01*
X172712955Y-70935355D01*
X172694551Y-70957780D01*
X172680875Y-70983366D01*
X172672452Y-71011131D01*
X172669600Y-71040094D01*
X172669600Y-71364906D01*
X172672452Y-71393869D01*
X172680875Y-71421634D01*
X172694551Y-71447220D01*
X172712955Y-71469645D01*
X172735380Y-71488049D01*
X172760966Y-71501725D01*
X172788731Y-71510148D01*
X172817796Y-71513010D01*
X172819422Y-71514175D01*
X172819226Y-71516165D01*
X172817600Y-71517000D01*
X172768001Y-71517000D01*
X172767805Y-71516990D01*
X172743975Y-71514643D01*
X172743590Y-71514567D01*
X172725869Y-71509191D01*
X172725507Y-71509041D01*
X172709174Y-71500311D01*
X172708848Y-71500093D01*
X172694533Y-71488344D01*
X172694256Y-71488067D01*
X172682507Y-71473752D01*
X172682289Y-71473426D01*
X172673559Y-71457093D01*
X172673409Y-71456731D01*
X172670976Y-71448711D01*
X172662837Y-71429063D01*
X172651076Y-71411461D01*
X172636108Y-71396493D01*
X172618505Y-71384732D01*
X172598948Y-71376631D01*
X172578182Y-71372501D01*
X172557016Y-71372501D01*
X172536250Y-71376632D01*
X172516693Y-71384733D01*
X172499091Y-71396494D01*
X172484123Y-71411462D01*
X172472362Y-71429065D01*
X172464224Y-71448711D01*
X172461791Y-71456731D01*
X172461641Y-71457093D01*
X172452911Y-71473426D01*
X172452693Y-71473752D01*
X172440944Y-71488067D01*
X172440667Y-71488344D01*
X172426352Y-71500093D01*
X172426026Y-71500311D01*
X172409693Y-71509041D01*
X172409331Y-71509191D01*
X172391610Y-71514567D01*
X172391225Y-71514643D01*
X172367395Y-71516990D01*
X172367199Y-71517000D01*
X172317600Y-71517000D01*
X172315868Y-71516000D01*
X172315868Y-71514000D01*
X172317404Y-71513010D01*
X172346469Y-71510148D01*
X172374234Y-71501725D01*
X172399820Y-71488049D01*
X172422245Y-71469645D01*
X172440649Y-71447220D01*
X172454325Y-71421634D01*
X172462748Y-71393869D01*
X172465600Y-71364906D01*
X172465600Y-71040094D01*
X172462748Y-71011131D01*
X172454325Y-70983366D01*
X172440649Y-70957780D01*
X172422245Y-70935355D01*
X172399820Y-70916951D01*
X172374234Y-70903275D01*
X172346469Y-70894852D01*
X172317404Y-70891990D01*
X172315778Y-70890825D01*
X172315974Y-70888835D01*
X172317600Y-70888000D01*
X172367199Y-70888000D01*
X172367395Y-70888010D01*
G37*
G36*
X173167395Y-70888010D02*
G01*
X173191225Y-70890357D01*
X173191610Y-70890433D01*
X173209331Y-70895809D01*
X173209693Y-70895959D01*
X173226026Y-70904689D01*
X173226352Y-70904907D01*
X173240667Y-70916656D01*
X173240944Y-70916933D01*
X173252693Y-70931248D01*
X173252911Y-70931574D01*
X173261641Y-70947907D01*
X173261791Y-70948269D01*
X173264224Y-70956289D01*
X173272363Y-70975937D01*
X173284124Y-70993539D01*
X173299092Y-71008507D01*
X173316695Y-71020268D01*
X173336252Y-71028369D01*
X173357018Y-71032499D01*
X173378184Y-71032499D01*
X173398950Y-71028368D01*
X173418507Y-71020267D01*
X173436109Y-71008506D01*
X173451077Y-70993538D01*
X173462838Y-70975935D01*
X173470976Y-70956289D01*
X173473409Y-70948269D01*
X173473559Y-70947907D01*
X173482289Y-70931574D01*
X173482507Y-70931248D01*
X173494256Y-70916933D01*
X173494533Y-70916656D01*
X173508848Y-70904907D01*
X173509174Y-70904689D01*
X173525507Y-70895959D01*
X173525869Y-70895809D01*
X173543590Y-70890433D01*
X173543975Y-70890357D01*
X173567805Y-70888010D01*
X173568001Y-70888000D01*
X173617600Y-70888000D01*
X173619332Y-70889000D01*
X173619332Y-70891000D01*
X173617796Y-70891990D01*
X173588731Y-70894852D01*
X173560966Y-70903275D01*
X173535380Y-70916951D01*
X173512955Y-70935355D01*
X173494551Y-70957780D01*
X173480875Y-70983366D01*
X173472452Y-71011131D01*
X173469600Y-71040094D01*
X173469600Y-71364906D01*
X173472452Y-71393869D01*
X173480875Y-71421634D01*
X173494551Y-71447220D01*
X173512955Y-71469645D01*
X173535380Y-71488049D01*
X173560966Y-71501725D01*
X173588731Y-71510148D01*
X173617796Y-71513010D01*
X173619422Y-71514175D01*
X173619226Y-71516165D01*
X173617600Y-71517000D01*
X173568001Y-71517000D01*
X173567805Y-71516990D01*
X173543975Y-71514643D01*
X173543590Y-71514567D01*
X173525869Y-71509191D01*
X173525507Y-71509041D01*
X173509174Y-71500311D01*
X173508848Y-71500093D01*
X173494533Y-71488344D01*
X173494256Y-71488067D01*
X173482507Y-71473752D01*
X173482289Y-71473426D01*
X173473559Y-71457093D01*
X173473409Y-71456731D01*
X173470976Y-71448711D01*
X173462837Y-71429063D01*
X173451076Y-71411461D01*
X173436108Y-71396493D01*
X173418505Y-71384732D01*
X173398948Y-71376631D01*
X173378182Y-71372501D01*
X173357016Y-71372501D01*
X173336250Y-71376632D01*
X173316693Y-71384733D01*
X173299091Y-71396494D01*
X173284123Y-71411462D01*
X173272362Y-71429065D01*
X173264224Y-71448711D01*
X173261791Y-71456731D01*
X173261641Y-71457093D01*
X173252911Y-71473426D01*
X173252693Y-71473752D01*
X173240944Y-71488067D01*
X173240667Y-71488344D01*
X173226352Y-71500093D01*
X173226026Y-71500311D01*
X173209693Y-71509041D01*
X173209331Y-71509191D01*
X173191610Y-71514567D01*
X173191225Y-71514643D01*
X173167395Y-71516990D01*
X173167199Y-71517000D01*
X173117600Y-71517000D01*
X173115868Y-71516000D01*
X173115868Y-71514000D01*
X173117404Y-71513010D01*
X173146469Y-71510148D01*
X173174234Y-71501725D01*
X173199820Y-71488049D01*
X173222245Y-71469645D01*
X173240649Y-71447220D01*
X173254325Y-71421634D01*
X173262748Y-71393869D01*
X173265600Y-71364906D01*
X173265600Y-71040094D01*
X173262748Y-71011131D01*
X173254325Y-70983366D01*
X173240649Y-70957780D01*
X173222245Y-70935355D01*
X173199820Y-70916951D01*
X173174234Y-70903275D01*
X173146469Y-70894852D01*
X173117404Y-70891990D01*
X173115778Y-70890825D01*
X173115974Y-70888835D01*
X173117600Y-70888000D01*
X173167199Y-70888000D01*
X173167395Y-70888010D01*
G37*
M02*
